<svg width="330" height="193" viewBox="0 0 330 193" fill="none" xmlns="http://www.w3.org/2000/svg">
<g clip-path="url(#clip0_2838_18769)">
<rect x="-2" width="334" height="193" fill="white"/>
<path d="M156.67 179.614V182.805H166.087L167.909 177.767L156.67 179.614Z" fill="white"/>
<path d="M110.613 104.874V111.065C110.613 111.065 113.422 110.643 113.573 108.577C113.725 106.511 112.131 104.599 110.613 104.874Z" fill="#F29797"/>
<path d="M90.4564 193.001H135.336V121.862H89.7227L90.4564 193.001Z" fill="#E85318"/>
<path d="M89.7227 145.332L135.336 121.862H89.7227V145.332Z" fill="#CE3A06"/>
<path d="M141.646 121.862H135.338V192.998H141.646V121.862Z" fill="#EB973C"/>
<path d="M78.0705 193.001L69.8086 172.606H99.9158L93.7201 193.001H78.0705Z" fill="#6BADF3"/>
<path d="M76.4409 172.606C76.4409 172.606 74.594 170.866 71.766 170.433C66.5204 169.626 66.006 164.999 66.006 164.999C66.006 164.999 65.8795 163.852 66.7903 162.25C67.9597 160.195 70.0624 158.851 72.4041 158.514C73.4358 158.365 74.5209 158.289 75.1365 158.477C75.1365 158.477 67.42 154.564 69.2669 146.631C69.2669 146.631 70.7877 140.435 79.7018 141.197C88.6131 141.959 93.8306 154.241 93.8306 154.241C93.8306 154.241 99.5906 167.175 96.1132 172.609H76.4409V172.606Z" fill="#6BD516"/>
<path d="M82.0904 172.606C82.0904 172.606 79.9174 169.455 79.8077 164.454C79.6981 159.453 75.1328 158.477 75.1328 158.477" stroke="black" stroke-miterlimit="10" stroke-linecap="round"/>
<path d="M68.5469 160.189C68.5469 160.189 75.1783 161.1 80.2103 167.833" stroke="black" stroke-miterlimit="10" stroke-linecap="round"/>
<path d="M91.3322 172.606C91.3322 172.606 90.4692 152.953 73.9453 141.858" stroke="black" stroke-miterlimit="10" stroke-linecap="round"/>
<path d="M81.6159 121.862H125.346C125.346 121.862 123.375 118.404 129.284 116.257H85.8269C85.0061 116.257 84.2049 116.501 83.5302 116.968C82.3524 117.778 80.9215 119.332 81.6159 121.862Z" fill="#E85318"/>
<path d="M125.346 121.862H258.745V120.136C258.745 117.994 257.008 116.257 254.866 116.257H129.284C129.284 116.257 124.092 116.006 125.346 121.862Z" fill="#F4A800"/>
<path d="M221.678 121.862H185.867V192.998H221.678V121.862Z" fill="#E85318"/>
<path d="M185.867 160.484L221.678 121.862H185.867V160.484Z" fill="#CE3A06"/>
<path d="M254.804 121.862H221.678V192.998H254.804V121.862Z" fill="#FF7F00"/>
<path d="M251.76 160.484H224.365V176.241H251.76V160.484Z" fill="#FFA300"/>
<path d="M245.851 163.529H232.959V164.962H245.851V163.529Z" fill="#E85318"/>
<path d="M224.365 157.431V142.4H251.76L252.477 157.431H224.365Z" fill="#FFA300"/>
<path d="M232.959 146.519V144.551H245.851V147.415L232.959 146.519Z" fill="#E85318"/>
<path d="M251.76 123.779H224.365V138.999H251.76V123.779Z" fill="#FFA300"/>
<path d="M245.851 126.107H232.959V128.792H245.851V126.107Z" fill="#E85318"/>
<path d="M93.3155 100.899H110.612V103.025C110.612 103.025 115.934 103.101 115.816 108.411C115.695 113.721 110.536 113.493 110.536 113.493C110.536 113.493 110.536 115.759 108.411 116.257H94.9825C94.9825 116.257 93.6163 116.074 93.3127 114.252C93.0091 112.431 93.3127 100.899 93.3127 100.899H93.3155Z" fill="#1E97F3"/>
<path d="M110.613 104.874V103.025" stroke="black" stroke-miterlimit="10" stroke-linecap="round"/>
<path d="M110.537 113.493L110.613 111.065" stroke="black" stroke-miterlimit="10" stroke-linecap="round"/>
<path d="M192.571 102.443H189.245C188.034 102.443 187.053 101.462 187.053 100.25V57.1019C187.053 55.7498 188.149 54.6506 189.504 54.6506H192.571V102.44V102.443Z" fill="#7F8FF8"/>
<path d="M192.571 102.443H248.378C249.786 102.443 250.928 101.301 250.928 99.893V57.0289C250.928 55.7189 249.865 54.6534 248.552 54.6534H192.568V102.443H192.571Z" fill="#B6BEF9"/>
<path d="M238.728 72.0488H207.862C206.907 72.0488 206.133 72.8229 206.133 73.7777V73.7805C206.133 74.7353 206.907 75.5093 207.862 75.5093H238.728C239.683 75.5093 240.457 74.7353 240.457 73.7805V73.7777C240.457 72.8229 239.683 72.0488 238.728 72.0488Z" fill="#7F8FF8"/>
<path d="M217.936 85.1768H215.246V116.257H217.936V85.1768Z" fill="#5F73F7"/>
<path d="M217.934 85.1768H228.045C229.664 85.1768 231.059 86.3181 231.379 87.9064L237.103 116.259H217.934V85.1796V85.1768Z" fill="#7F8FF8"/>
<path d="M133.29 54.9655H139.312C139.312 54.9655 140.209 48.6489 136.301 48.6264C131.865 48.6011 133.29 54.9655 133.29 54.9655Z" fill="white"/>
<path d="M149.247 54.9656L154.624 54.8644C154.624 54.8644 156.513 48.6265 151.867 48.6265C147.22 48.6265 149.247 54.9656 149.247 54.9656Z" fill="white"/>
</g>
<defs>
<clipPath id="clip0_2838_18769">
<rect width="330" height="193" fill="white"/>
</clipPath>
</defs>
</svg>
