<svg width="28" height="24" viewBox="0 0 28 24" fill="none" xmlns="http://www.w3.org/2000/svg">
<path d="M0.660318 10.3479L9.87792 1.13032C10.297 0.68937 10.8763 0.43625 11.4846 0.42841C12.0928 0.420572 12.6785 0.658554 13.1088 1.08849C13.5392 1.51852 13.7778 2.10395 13.7704 2.71225C13.7631 3.32046 13.5105 3.90006 13.0699 4.31952L7.62112 9.75992H25.7427C26.549 9.75992 27.294 10.1901 27.6972 10.8883C28.1003 11.5866 28.1003 12.4469 27.6972 13.1451C27.294 13.8434 26.549 14.2735 25.7427 14.2735H7.67152L13.0699 19.6803C13.6162 20.255 13.8207 21.0742 13.6088 21.8382C13.3969 22.6022 12.7996 23.199 12.0353 23.4103C11.2712 23.6215 10.4521 23.4162 9.87789 22.8695L0.660294 13.6519C0.235464 13.2296 -0.00251198 12.6549 -0.000505447 12.0559C-0.00196457 12.0373 -0.00196457 12.0185 -0.000505447 11.9999C-0.00187302 11.9812 -0.00187302 11.9625 -0.000505447 11.944C-0.000322342 11.3454 0.237377 10.7714 0.660294 10.3479L0.660318 10.3479Z" fill="black"/>
</svg>
