<?xml version="1.0" encoding="UTF-8"?>
<svg id="Capa_1" data-name="Capa 1" xmlns="http://www.w3.org/2000/svg" viewBox="0 0 200 200">
  <defs>
    <style>
      .cls-1, .cls-2, .cls-3, .cls-4, .cls-5, .cls-6, .cls-7, .cls-8, .cls-9 {
        stroke-width: 0px;
      }

      .cls-1, .cls-5 {
        fill: #0b3c68;
      }

      .cls-2, .cls-3, .cls-4, .cls-5, .cls-6, .cls-9 {
        fill-rule: evenodd;
      }

      .cls-2, .cls-7 {
        fill: #ffc900;
      }

      .cls-3 {
        fill: #244973;
      }

      .cls-4 {
        fill: #ffed84;
      }

      .cls-6, .cls-8 {
        fill: #48648c;
      }

      .cls-9 {
        fill: #f9b700;
      }
    </style>
  </defs>
  <path class="cls-2" d="M158.27,186.7h-54.82v-35.97c0-4.74,3.88-8.62,8.68-8.62h0c4.74,0,8.62,3.88,8.62,8.62,1.23,14.54,21.25,32.21,37.51,35.97h0Z"/>
  <path class="cls-9" d="M103.45,173.27v-22.54c0-4.74,3.88-8.62,8.68-8.62h0c4.74,0,8.62,3.88,8.62,8.62.49,5.42,3.51,11.21,8.01,16.63-6.78,3.57-15.15,5.73-25.32,5.91h0Z"/>
  <path class="cls-6" d="M158.27,186.7H44.5c-1.54,0-2.77,1.23-2.77,2.71v6.34h116.54v-9.05Z"/>
  <path class="cls-6" d="M105.42,46.76h-25.69v35.29c16.94.92,37.88,4.93,44.16,27.96,3.63,14.04-1.36,30.18-25.44,31.04,0,14.17-1.17,16.88-1.17,31.11,74.22.43,57.47-99.85,8.13-125.41h0Z"/>
  <path class="cls-3" d="M92.18,46.76h-12.44v35.29c1.48.06,2.96.18,4.43.31.31-18.54,4.68-29.75,8.01-35.6h0Z"/>
  <path class="cls-2" d="M75.85,34.19h-27.1c-2.09,0-3.88,1.79-3.88,3.88v59.87c0,2.16,1.79,3.88,3.88,3.88h27.1c2.16,0,3.88-1.72,3.88-3.88v-59.87c0-2.09-1.72-3.88-3.88-3.88h0Z"/>
  <path class="cls-9" d="M75.85,34.19h-8.07v67.63h8.07c2.16,0,3.88-1.72,3.88-3.88v-59.87c0-2.09-1.72-3.88-3.88-3.88h0Z"/>
  <rect class="cls-8" x="48.75" y="22.67" width="27.1" height="11.52"/>
  <path class="cls-2" d="M75.85,17.32h-27.1c-1.11,0-2.03.92-2.03,2.03v1.29c0,1.11.92,2.03,2.03,2.03h27.1c1.11,0,2.03-.92,2.03-2.03v-1.29c0-1.11-.92-2.03-2.03-2.03h0Z"/>
  <path class="cls-3" d="M70.25,121.16h-15.89c-1.11,0-2.03.92-2.03,2.09v1.23c0,1.11.92,2.03,2.03,2.03h15.89c1.11,0,2.03-.92,2.03-2.03v-1.23c0-1.17-.92-2.09-2.03-2.09h0Z"/>
  <rect class="cls-7" x="54.36" y="106.94" width="15.89" height="14.23"/>
  <path class="cls-6" d="M70.25,106.94h-15.89c-.55-.55-1.23-1.17-2.03-1.91-.99-.86-2.16-1.91-3.57-3.2h27.1c-1.42,1.29-2.59,2.34-3.51,3.2-.8.74-1.54,1.36-2.09,1.91h0Z"/>
  <path class="cls-2" d="M97.17,139.89h-4.8c-.74,0-1.29.62-1.29,1.29v31.04c0,.74.55,1.29,1.29,1.29h4.8c.74,0,1.29-.55,1.29-1.29v-31.04c0-.68-.55-1.29-1.29-1.29h0Z"/>
  <path class="cls-3" d="M111.15,146.23c-4.93,0-8.87,3.94-8.87,8.87s3.94,8.87,8.87,8.87,8.87-4,8.87-8.87-4-8.87-8.87-8.87h0Z"/>
  <path class="cls-2" d="M78.69,141.18h-33.51c-1.48,0-2.71,1.23-2.71,2.71h0c0,1.48,1.23,2.71,2.71,2.71h33.51c1.48,0,2.71-1.23,2.71-2.71h0c0-1.48-1.23-2.71-2.71-2.71h0Z"/>
  <polygon class="cls-3" points="52.7 146.6 61.87 162.43 91.07 162.43 91.07 156.71 64.15 156.71 58.3 146.6 52.7 146.6"/>
  <polygon class="cls-5" points="52.7 146.6 54.24 149.25 59.84 149.25 58.3 146.6 52.7 146.6"/>
  <path class="cls-5" d="M111.15,149.81c-2.96,0-5.3,2.34-5.3,5.3s2.34,5.3,5.3,5.3,5.3-2.4,5.3-5.3-2.4-5.3-5.3-5.3h0Z"/>
  <path class="cls-4" d="M49.99,38.07h0c-.68,0-1.23.55-1.23,1.23v57.41c0,.68.55,1.23,1.23,1.23h0c.68,0,1.23-.55,1.23-1.23v-57.41c0-.68-.55-1.23-1.23-1.23h0Z"/>
  <rect class="cls-1" x="87.13" y="156.71" width="3.94" height="5.73"/>
</svg>