<?xml version="1.0" encoding="UTF-8"?>
<svg xmlns="http://www.w3.org/2000/svg" viewBox="0 0 200 200">
  <defs>
    <style>
      .cls-1 {
        fill: #5bd8a5;
      }

      .cls-1, .cls-2, .cls-3, .cls-4, .cls-5, .cls-6, .cls-7, .cls-8, .cls-9, .cls-10, .cls-11, .cls-12, .cls-13, .cls-14, .cls-15, .cls-16, .cls-17, .cls-18, .cls-19, .cls-20, .cls-21, .cls-22, .cls-23, .cls-24, .cls-25, .cls-26, .cls-27, .cls-28, .cls-29, .cls-30, .cls-31, .cls-32, .cls-33, .cls-34, .cls-35, .cls-36, .cls-37, .cls-38, .cls-39, .cls-40 {
        stroke-width: 0px;
      }

      .cls-2 {
        fill: #020202;
        opacity: .05;
      }

      .cls-3 {
        fill: #464948;
      }

      .cls-4 {
        fill: #181919;
      }

      .cls-5 {
        fill: #f9db9d;
      }

      .cls-6 {
        fill: #45c996;
      }

      .cls-7 {
        fill: #34a8e2;
      }

      .cls-8 {
        fill: #f45c4d;
      }

      .cls-9 {
        fill: #ce45b1;
      }

      .cls-10 {
        fill: #f16a51;
      }

      .cls-41 {
        isolation: isolate;
      }

      .cls-11 {
        fill: #ef54b8;
      }

      .cls-12 {
        fill: #a04d15;
      }

      .cls-13 {
        fill: #50c2ef;
      }

      .cls-14 {
        fill: #ddd;
      }

      .cls-15 {
        fill: #d34d18;
      }

      .cls-42 {
        opacity: .15;
      }

      .cls-16 {
        fill: #128cb2;
      }

      .cls-17 {
        fill: #238c7f;
      }

      .cls-18 {
        fill: #575958;
      }

      .cls-19 {
        fill: #fff;
      }

      .cls-20 {
        fill: #fad165;
      }

      .cls-21 {
        fill: #30afa4;
      }

      .cls-22 {
        fill: #4f3c2a;
      }

      .cls-43 {
        mix-blend-mode: multiply;
        opacity: .3;
      }

      .cls-23 {
        fill: #b56aea;
      }

      .cls-24 {
        fill: #6b563e;
      }

      .cls-25 {
        fill: #29a36b;
      }

      .cls-26 {
        fill: #e3e5e5;
      }

      .cls-27 {
        fill: #efa0de;
      }

      .cls-28 {
        fill: #f467c9;
      }

      .cls-29 {
        fill: #f4744d;
      }

      .cls-30 {
        fill: #d335aa;
      }

      .cls-31 {
        fill: #9750d6;
      }

      .cls-32 {
        fill: #7c634a;
      }

      .cls-33 {
        fill: #ed3c20;
      }

      .cls-34 {
        fill: #ba2415;
      }

      .cls-35 {
        fill: #ed6e35;
      }

      .cls-36 {
        fill: #eab02f;
      }

      .cls-37 {
        fill: #f5e1d6;
      }

      .cls-38 {
        fill: #ed7ed0;
      }

      .cls-39 {
        fill: #bd84ef;
      }

      .cls-40 {
        fill: #edd9ce;
      }
    </style>
  </defs>
  <g class="cls-41">
    <g id="Capa_1" data-name="Capa 1">
      <g>
        <g>
          <rect class="cls-14" x="7.75" y="55.41" width="184.5" height="78.91" rx="24.12" ry="24.12"/>
          <g>
            <g>
              <path class="cls-26" d="M183.57,94.86c0,2.93-2.37,5.3-5.3,5.3H21.73c-2.93,0-5.3-2.37-5.3-5.3h0c0-2.93,2.37-5.3,5.3-5.3h156.54c2.93,0,5.3,2.37,5.3,5.3h0Z"/>
              <path class="cls-14" d="M183.57,94.86c0-.49-.07-.97-.2-1.42l-.09-.3s-1.51,4.95-83.28,4.95c-71.88,0-81.96-3.71-83.35-4.73-.14.48-.22.98-.22,1.5,0,2.93,2.37,5.3,5.3,5.3h156.54c2.93,0,5.3-2.37,5.3-5.3Z"/>
            </g>
            <g>
              <g>
                <g>
                  <g>
                    <path class="cls-15" d="M49.82,74.08c0,6.05-4.9,10.95-10.95,10.95s-10.95-4.9-10.95-10.95,4.9-10.95,10.95-10.95,10.95,4.9,10.95,10.95Z"/>
                    <circle class="cls-35" cx="37.98" cy="73.05" r="10.95"/>
                  </g>
                  <path class="cls-29" d="M47.28,73.08c0-1.93-.78-5.73-5.39-8.34,0,0-3.46-1.28-3.46,1.48s3.53,3.42,3.66,6.84c.13,3.42-4.38,5.33-3.21,8.04,1.17,2.71,8.42-1.22,8.4-8.02Z"/>
                </g>
                <g>
                  <g>
                    <path class="cls-30" d="M80.61,74.08c0,6.05-4.9,10.95-10.95,10.95s-10.95-4.9-10.95-10.95,4.9-10.95,10.95-10.95,10.95,4.9,10.95,10.95Z"/>
                    <path class="cls-11" d="M79.71,73.05c0,6.05-4.9,10.95-10.95,10.95s-10.95-4.9-10.95-10.95,4.9-10.95,10.95-10.95,10.95,4.9,10.95,10.95Z"/>
                  </g>
                  <path class="cls-28" d="M78.06,73.08c0-1.93-.78-5.73-5.39-8.34,0,0-3.46-1.28-3.46,1.48s3.53,3.42,3.66,6.84c.13,3.42-4.38,5.33-3.21,8.04,1.17,2.71,8.42-1.22,8.4-8.02Z"/>
                </g>
                <g>
                  <g>
                    <path class="cls-25" d="M111.4,74.08c0,6.05-4.9,10.95-10.95,10.95s-10.95-4.9-10.95-10.95,4.9-10.95,10.95-10.95,10.95,4.9,10.95,10.95Z"/>
                    <circle class="cls-6" cx="99.55" cy="73.05" r="10.95"/>
                  </g>
                  <path class="cls-1" d="M108.85,73.08c0-1.93-.78-5.73-5.39-8.34,0,0-3.46-1.28-3.46,1.48s3.53,3.42,3.66,6.84c.13,3.42-4.38,5.33-3.21,8.04,1.17,2.71,8.42-1.22,8.4-8.02Z"/>
                </g>
                <g>
                  <g>
                    <path class="cls-31" d="M142.18,74.08c0,6.05-4.9,10.95-10.95,10.95s-10.95-4.9-10.95-10.95,4.9-10.95,10.95-10.95,10.95,4.9,10.95,10.95Z"/>
                    <path class="cls-23" d="M141.28,73.05c0,6.05-4.9,10.95-10.95,10.95s-10.95-4.9-10.95-10.95,4.9-10.95,10.95-10.95,10.95,4.9,10.95,10.95Z"/>
                  </g>
                  <path class="cls-39" d="M139.64,73.08c0-1.93-.78-5.73-5.39-8.34,0,0-3.46-1.28-3.46,1.48s3.53,3.42,3.66,6.84c.13,3.42-4.38,5.33-3.21,8.04,1.17,2.71,8.42-1.22,8.4-8.02Z"/>
                </g>
                <g>
                  <g>
                    <path class="cls-16" d="M172.97,74.08c0,6.05-4.9,10.95-10.95,10.95s-10.95-4.9-10.95-10.95,4.9-10.95,10.95-10.95,10.95,4.9,10.95,10.95Z"/>
                    <circle class="cls-7" cx="161.13" cy="73.05" r="10.95"/>
                  </g>
                  <path class="cls-13" d="M170.43,73.08c0-1.93-.78-5.73-5.39-8.34,0,0-3.46-1.28-3.46,1.48s3.53,3.42,3.66,6.84c.13,3.42-4.38,5.33-3.21,8.04,1.17,2.71,8.42-1.22,8.4-8.02Z"/>
                </g>
              </g>
              <g>
                <g>
                  <g>
                    <path class="cls-36" d="M49.82,116.67c0,6.05-4.9,10.95-10.95,10.95s-10.95-4.9-10.95-10.95,4.9-10.95,10.95-10.95,10.95,4.9,10.95,10.95Z"/>
                    <circle class="cls-20" cx="37.98" cy="115.64" r="10.95" transform="translate(-78.62 150.57) rotate(-88.5)"/>
                  </g>
                  <path class="cls-5" d="M47.28,115.66c0-1.93-.78-5.73-5.39-8.34,0,0-3.46-1.28-3.46,1.48s3.53,3.42,3.66,6.84c.13,3.42-4.38,5.33-3.21,8.04,1.17,2.71,8.42-1.22,8.4-8.02Z"/>
                </g>
                <g>
                  <g>
                    <circle class="cls-22" cx="69.66" cy="116.67" r="10.95"/>
                    <path class="cls-24" d="M79.71,115.64c0,6.05-4.9,10.95-10.95,10.95s-10.95-4.9-10.95-10.95,4.9-10.95,10.95-10.95,10.95,4.9,10.95,10.95Z"/>
                  </g>
                  <path class="cls-32" d="M78.06,115.66c0-1.93-.78-5.73-5.39-8.34,0,0-3.46-1.28-3.46,1.48s3.53,3.42,3.66,6.84c.13,3.42-4.38,5.33-3.21,8.04,1.17,2.71,8.42-1.22,8.4-8.02Z"/>
                </g>
                <g>
                  <g>
                    <path class="cls-4" d="M111.4,116.67c0,6.05-4.9,10.95-10.95,10.95s-10.95-4.9-10.95-10.95,4.9-10.95,10.95-10.95,10.95,4.9,10.95,10.95Z"/>
                    <circle class="cls-3" cx="99.55" cy="115.64" r="10.95" transform="translate(-18.54 212.28) rotate(-88.57)"/>
                  </g>
                  <path class="cls-18" d="M108.85,115.66c0-1.93-.78-5.73-5.39-8.34,0,0-3.46-1.28-3.46,1.48s3.53,3.42,3.66,6.84c.13,3.42-4.38,5.33-3.21,8.04,1.17,2.71,8.42-1.22,8.4-8.02Z"/>
                </g>
                <g>
                  <g>
                    <path class="cls-34" d="M142.18,116.67c0,6.05-4.9,10.95-10.95,10.95s-10.95-4.9-10.95-10.95,4.9-10.95,10.95-10.95,10.95,4.9,10.95,10.95Z"/>
                    <path class="cls-33" d="M141.28,115.64c0,6.05-4.9,10.95-10.95,10.95s-10.95-4.9-10.95-10.95,4.9-10.95,10.95-10.95,10.95,4.9,10.95,10.95Z"/>
                  </g>
                  <path class="cls-8" d="M139.64,115.66c0-1.93-.78-5.73-5.39-8.34,0,0-3.46-1.28-3.46,1.48s3.53,3.42,3.66,6.84c.13,3.42-4.38,5.33-3.21,8.04,1.17,2.71,8.42-1.22,8.4-8.02Z"/>
                </g>
                <g>
                  <g>
                    <path class="cls-9" d="M172.97,116.67c0,6.05-4.9,10.95-10.95,10.95s-10.95-4.9-10.95-10.95,4.9-10.95,10.95-10.95,10.95,4.9,10.95,10.95Z"/>
                    <circle class="cls-38" cx="161.13" cy="115.64" r="10.95" transform="translate(41.29 273.68) rotate(-88.5)"/>
                  </g>
                  <path class="cls-27" d="M170.43,115.66c0-1.93-.78-5.73-5.39-8.34,0,0-3.46-1.28-3.46,1.48s3.53,3.42,3.66,6.84c.13,3.42-4.38,5.33-3.21,8.04,1.17,2.71,8.42-1.22,8.4-8.02Z"/>
                </g>
              </g>
            </g>
          </g>
          <path class="cls-2" d="M11.91,123.7c4.35,6.39,11.68,10.61,19.95,10.61h136.27c13.26,0,24.12-10.85,24.12-24.12v-30.67c0-13.26-10.85-24.12-24.12-24.12h-21.56C137.33,117.22,11.92,123.7,11.91,123.7Z"/>
        </g>
        <g>
          <g>
            <path class="cls-12" d="M147.13,143.31c-.15-.06-5.27-2-9.29.01-4.08,2.05-6.86,1.71-11.17-1.68-.52-.41-.91-.78-1.21-1.11-2.13-2.44,1.2-3,1.2-3,0,0,7.09-4.41,12.98-1.24,5.9,3.17,7.49,7.02,7.49,7.02h0Z"/>
            <g class="cls-43">
              <path class="cls-12" d="M126.95,139.89c.68-.28,1.38-.47,2.09-.62.71-.16,1.43-.26,2.16-.32.73-.06,1.46-.07,2.19,0,.73.06,1.46.19,2.15.46-.73-.03-1.44-.03-2.16,0-.71.02-1.42.08-2.14.13l-.53.04c-.18.01-.36.04-.53.05-.36.03-.71.07-1.07.1-.72.07-1.43.14-2.16.18Z"/>
            </g>
            <g class="cls-42">
              <path class="cls-19" d="M128.38,137.46c.86-.42,1.78-.73,2.71-.96.47-.12.94-.21,1.42-.29.48-.07.96-.12,1.44-.15.97-.04,1.95.02,2.89.3.94.26,1.82.77,2.46,1.49-.75-.6-1.62-1-2.53-1.2-.46-.1-.92-.17-1.39-.19-.47-.03-.94-.04-1.41-.01-.94.04-1.88.17-2.81.35-.93.18-1.86.41-2.78.67Z"/>
            </g>
            <g class="cls-43">
              <path class="cls-12" d="M137.84,143.32c-4.08,2.05-6.86,1.71-11.17-1.68-.52-.41-.91-.78-1.21-1.11.22-.82.54-1.16,1.02-.56,1.74,2.18,7.24,3.23,11.3,1.86,4-1.35,9.22,1.41,9.35,1.48-.15-.06-5.27-2-9.29.01Z"/>
            </g>
          </g>
          <path class="cls-21" d="M126.47,139.59c0,.13,0,.25,0,.38-.59.08-1.2.15-1.85.22-.12.01-.25.03-.38.04-.59.06-1.2.12-1.84.17-.18.01-.36.03-.54.04-.37.03-.76.06-1.14.08-.19.01-.39.03-.58.04-.48.03-.98.06-1.48.09-.16.01-.31.02-.47.03-.16,0-.32.02-.48.02-1.54.08-3.17.14-4.88.19.11.95.34,1.86.67,2.72-7.79.43-17.99.44-29.15.46-24.48.03-44.33-1.92-44.33-4.36,0-.05,0-.09.02-.13,0-.02.01-.05.03-.07.01-.02.02-.05.03-.07.03-.04.06-.09.1-.13.02-.02.04-.04.07-.07.04-.04.1-.09.15-.13,0,0,0,0,0,0,.06-.04.12-.08.19-.12.19-.12.43-.23.72-.35,4.8-1.93,22.23-3.38,43.01-3.41,11.16-.01,21.36-.03,29.16.38.19,0,.38.02.57.03.19.01.37.02.56.03.37.02.73.05,1.09.07.18.01.35.02.53.04.06,0,.12,0,.18.01.4.03.79.06,1.17.09.13.01.25.02.38.03.25.02.5.05.74.07,1.83.18,3.45.4,4.81.67.09.02.18.04.27.05.27.06.52.11.77.17.17.04.32.08.48.12.02,0,.04,0,.06.01.08.02.16.05.24.07.3.09.59.18.85.27.16.06.31.12.46.18-.12.67-.19,1.35-.19,2.05Z"/>
          <path class="cls-37" d="M126.47,139.59c0,.13,0,.25,0,.38-.59.08-1.2.15-1.85.22-.12.01-.25.03-.38.04-.59.06-1.2.12-1.84.17-.18.01-.36.03-.54.04-.37.03-.76.06-1.14.08-.19.01-.39.03-.58.04-.48.03-.98.06-1.48.09-.16.01-.31.02-.47.03-.16,0-.32.02-.48.02-1.54.08-3.17.14-4.88.19-.05-.42-.07-.85-.08-1.28,0-1.41.26-2.76.74-4,.19,0,.38.02.57.03.19.01.37.02.56.03.37.02.73.05,1.09.07.18.01.35.02.53.04.06,0,.12,0,.18.01.4.03.79.06,1.17.09.13.01.25.02.38.03.25.02.5.05.74.07,1.83.18,3.45.4,4.81.67.09.02.18.04.27.05.27.06.52.11.77.17.17.04.32.08.48.12.02,0,.04,0,.06.01.08.02.16.05.24.07.3.09.59.18.85.27.16.06.31.12.46.18-.12.67-.19,1.35-.19,2.05Z"/>
          <path class="cls-40" d="M126.67,141.64c-.07.03-.15.06-.23.09-.08.03-.16.06-.24.09-.02,0-.05.02-.07.03-.07.03-.14.05-.21.07-.09.03-.18.06-.27.09-.09.03-.19.06-.29.09-.17.05-.35.1-.54.15l-.1.03c-.31.08-.63.15-.97.22-.12.02-.24.05-.35.07-.12.02-.24.04-.36.07-.25.05-.51.09-.78.13-.13.02-.27.04-.4.06-.64.1-1.33.19-2.06.27-.11.01-.23.03-.34.04-.54.06-1.1.12-1.67.17-.16.02-.33.03-.49.04-.34.03-.69.06-1.04.08-.18.01-.35.03-.53.04-.44.03-.89.06-1.35.09-.14,0-.29.02-.43.03-.14,0-.29.02-.43.03-.33-.86-.57-1.77-.67-2.72,1.71-.05,3.34-.12,4.88-.19.16,0,.32-.02.48-.02.16,0,.31-.02.47-.03.5-.03,1-.06,1.48-.09.2-.01.39-.03.58-.04.39-.02.77-.05,1.14-.08.18-.01.36-.03.54-.04.64-.05,1.25-.1,1.84-.17.13-.01.25-.03.38-.04.65-.07,1.26-.14,1.85-.22,0,.14.01.28.02.42,0,.08.01.16.02.24.01.13.03.26.04.39h0c0,.07.02.14.03.21,0,.05.02.11.03.16.01.08.03.17.04.25Z"/>
          <path class="cls-17" d="M112.83,140.88c.11.95.34,1.86.67,2.72-7.79.43-17.99.44-29.15.46-24.48.03-44.33-1.92-44.33-4.36,0-.05,0-.09.02-.13,0-.02.01-.05.03-.07.01-.02.02-.05.03-.07.03-.04.06-.09.1-.13.02-.02.04-.04.07-.07.05-.04.1-.09.15-.13,0,0,0,0,0,0,.06-.04.12-.08.19-.12.19-.12.43-.23.72-.35,7.69,1.51,24.65,2.55,44.33,2.53,10.06-.01,19.41-.02,27.17-.27Z"/>
          <path class="cls-10" d="M126.48,139.97c0,.14.01.28.02.42-.01-.14-.02-.28-.02-.42h0Z"/>
          <g class="cls-42">
            <path class="cls-19" d="M60.77,137.4l1.55-.12,1.55-.11,3.09-.21,3.1-.18,3.1-.15c2.06-.1,4.13-.17,6.2-.24,2.07-.07,4.13-.11,6.2-.16,2.07-.02,4.13-.06,6.2-.06,2.07,0,4.14.01,6.2.06l3.1.09.78.03.78.04,1.55.08c2.06.13,4.13.31,6.17.63l-1.55-.1-.77-.06-.77-.02c-1.03-.03-2.06-.08-3.09-.07-2.06-.04-4.13-.02-6.19-.02-1.03.01-2.06.03-3.1.03-1.03,0-2.06.03-3.1.04-2.06.02-4.13.06-6.19.1l-12.39.23-6.2.1-3.1.04c-1.03.02-2.07.02-3.1.03Z"/>
          </g>
        </g>
      </g>
    </g>
  </g>
</svg>