<?xml version="1.0" encoding="utf-8"?>
<!-- Generator: Adobe Illustrator 24.0.1, SVG Export Plug-In . SVG Version: 6.00 Build 0)  -->
<svg version="1.1" id="Layer_1" xmlns="http://www.w3.org/2000/svg" xmlns:xlink="http://www.w3.org/1999/xlink" x="0px" y="0px"
	 viewBox="0 0 800 800" style="enable-background:new 0 0 800 800;" xml:space="preserve">
<style type="text/css">
	.st0{clip-path:url(#SVGID_2_);}
	.st1{clip-path:url(#SVGID_4_);fill:#F8C583;}
	.st2{clip-path:url(#SVGID_6_);}
	.st3{fill:#FAF2E6;}
	.st4{clip-path:url(#SVGID_8_);}
	.st5{fill:#E9AE72;}
	.st6{clip-path:url(#SVGID_10_);fill:#BAD9B1;}
	.st7{opacity:0.5;clip-path:url(#SVGID_12_);}
	.st8{fill:#85C5A9;}
	.st9{clip-path:url(#SVGID_14_);}
	.st10{fill:none;}
	.st11{fill:#835436;}
	.st12{fill:#A16745;}
	.st13{fill:#EBF2E8;}
	.st14{fill:#303B39;}
	.st15{fill:#131B19;}
	
		.st16{opacity:0.5;fill:none;stroke:#71706E;stroke-width:0.2105;stroke-linecap:round;stroke-linejoin:round;stroke-miterlimit:10;enable-background:new    ;}
	.st17{clip-path:url(#SVGID_16_);fill:#ECC9AD;}
	.st18{clip-path:url(#SVGID_16_);}
	.st19{fill:#AF7D4E;}
	.st20{fill:#FBDABB;}
	.st21{fill:#F9C59F;}
	.st22{fill:#DBEAF3;}
	.st23{fill:#9AC2D4;}
	.st24{fill:#272B2B;}
	.st25{fill:#6E5A56;}
	.st26{fill:#CBDBE9;}
	.st27{fill-rule:evenodd;clip-rule:evenodd;fill:#D4D4D4;}
	.st28{fill-rule:evenodd;clip-rule:evenodd;fill:#959696;}
	.st29{fill-rule:evenodd;clip-rule:evenodd;fill:#9DBE38;}
	.st30{fill-rule:evenodd;clip-rule:evenodd;fill:#C0CA2E;}
	.st31{clip-path:url(#SVGID_16_);fill:#FBDABB;}
	.st32{fill:#3A97B4;}
	.st33{fill:#C9C8C8;}
	.st34{clip-path:url(#SVGID_16_);fill:#FFFFFF;}
</style>
<g>
	<g>
		<defs>
			<circle id="SVGID_1_" cx="400" cy="400" r="396"/>
		</defs>
		<clipPath id="SVGID_2_">
			<use xlink:href="#SVGID_1_"  style="overflow:visible;"/>
		</clipPath>
		<g class="st0">
			<g>
				<defs>
					<rect id="SVGID_3_" x="-363.1" y="0.5" width="1526.2" height="799.1"/>
				</defs>
				<clipPath id="SVGID_4_">
					<use xlink:href="#SVGID_3_"  style="overflow:visible;"/>
				</clipPath>
				<rect x="-947.9" y="0.4" class="st1" width="2164.2" height="622.3"/>
			</g>
			<g>
				<defs>
					<rect id="SVGID_5_" x="-363.1" y="0.5" width="1526.2" height="799.1"/>
				</defs>
				<clipPath id="SVGID_6_">
					<use xlink:href="#SVGID_5_"  style="overflow:visible;"/>
				</clipPath>
				<g class="st2">
					<path class="st3" d="M1137.4,0.5C1070.2,86.5,539.5,281-43.4,281C-689.9,281-859.7,60.4-894,0.5h-53.9v622.3h2154.2V0.5H1137.4
						z"/>
				</g>
			</g>
			<g>
				<defs>
					<rect id="SVGID_7_" x="-363.1" y="0.5" width="1526.2" height="799.1"/>
				</defs>
				<clipPath id="SVGID_8_">
					<use xlink:href="#SVGID_7_"  style="overflow:visible;"/>
				</clipPath>
				<g class="st4">
					<g>
						<path class="st5" d="M79,392H37.2c-0.7,0-1.2-0.5-1.2-1.2v-16.6c0-0.7,0.5-1.2,1.2-1.2H79c0.7,0,1.2,0.5,1.2,1.2v16.6
							C80.2,391.5,79.6,392,79,392z"/>
					</g>
					<g>
						<path class="st5" d="M1050,132.1h-41.8c-0.7,0-1.2-0.5-1.2-1.2v-16.6c0-0.7,0.5-1.2,1.2-1.2h41.8c0.7,0,1.2,0.5,1.2,1.2v16.6
							C1051.2,131.6,1050.6,132.1,1050,132.1z"/>
					</g>
					<g>
						<path class="st5" d="M109,361.2H84.3c-0.4,0-0.7-0.3-0.7-0.7v-9.8c0-0.4,0.3-0.7,0.7-0.7H109c0.4,0,0.7,0.3,0.7,0.7v9.8
							C109.7,360.9,109.4,361.2,109,361.2z"/>
					</g>
					<g>
						<path class="st5" d="M946.1,57.6h-24.7c-0.4,0-0.7-0.3-0.7-0.7v-9.8c0-0.4,0.3-0.7,0.7-0.7h24.7c0.4,0,0.7,0.3,0.7,0.7v9.8
							C946.8,57.3,946.5,57.6,946.1,57.6z"/>
					</g>
					<g>
						<path class="st5" d="M924.7,81.2H900c-0.4,0-0.7-0.3-0.7-0.7v-9.8c0-0.4,0.3-0.7,0.7-0.7h24.7c0.4,0,0.7,0.3,0.7,0.7v9.8
							C925.4,80.9,925.1,81.2,924.7,81.2z"/>
					</g>
					<g>
						<path class="st5" d="M-187.1,262.2h-24.7c-0.4,0-0.7-0.3-0.7-0.7v-9.8c0-0.4,0.3-0.7,0.7-0.7h24.7c0.4,0,0.7,0.3,0.7,0.7v9.8
							C-186.4,261.9-186.7,262.2-187.1,262.2z"/>
					</g>
					<g>
						<path class="st5" d="M-216.8,521.5h-47.5c-0.8,0-1.4-0.6-1.4-1.4v-18.8c0-0.8,0.6-1.4,1.4-1.4h47.5c0.8,0,1.4,0.6,1.4,1.4
							v18.8C-215.5,520.9-216.1,521.5-216.8,521.5z"/>
					</g>
					<g>
						<path class="st5" d="M203.1,280.6h-24.7c-0.4,0-0.7-0.3-0.7-0.7v-9.8c0-0.4,0.3-0.7,0.7-0.7h24.7c0.4,0,0.7,0.3,0.7,0.7v9.8
							C203.8,280.3,203.5,280.6,203.1,280.6z"/>
					</g>
					<g>
						<path class="st5" d="M72.7,282.5H48c-0.4,0-0.7-0.3-0.7-0.7V272c0-0.4,0.3-0.7,0.7-0.7h24.7c0.4,0,0.7,0.3,0.7,0.7v9.8
							C73.4,282.2,73.1,282.5,72.7,282.5z"/>
					</g>
					<g>
						<path class="st5" d="M183.2,506.7h-24.7c-0.4,0-0.7-0.3-0.7-0.7v-9.8c0-0.4,0.3-0.7,0.7-0.7h24.7c0.4,0,0.7,0.3,0.7,0.7v9.8
							C183.9,506.4,183.6,506.7,183.2,506.7z"/>
					</g>
					<g>
						<path class="st5" d="M25.8,557.4H1.1c-0.4,0-0.7-0.3-0.7-0.7v-9.8c0-0.4,0.3-0.7,0.7-0.7h24.7c0.4,0,0.7,0.3,0.7,0.7v9.8
							C26.6,557,26.2,557.4,25.8,557.4z"/>
					</g>
					<g>
						<path class="st5" d="M219.8,523.4h-24.7c-0.4,0-0.7-0.3-0.7-0.7v-9.8c0-0.4,0.3-0.7,0.7-0.7h24.7c0.4,0,0.7,0.3,0.7,0.7v9.8
							C220.5,523.1,220.2,523.4,219.8,523.4z"/>
					</g>
					<g>
						<path class="st5" d="M1148.7,530.7H1124c-0.4,0-0.7-0.3-0.7-0.7v-9.8c0-0.4,0.3-0.7,0.7-0.7h24.7c0.4,0,0.7,0.3,0.7,0.7v9.8
							C1149.4,530.4,1149.1,530.7,1148.7,530.7z"/>
					</g>
					<g>
						<path class="st5" d="M1004.8,90h-24.7c-0.4,0-0.7-0.3-0.7-0.7v-9.8c0-0.4,0.3-0.7,0.7-0.7h24.7c0.4,0,0.7,0.3,0.7,0.7v9.8
							C1005.6,89.6,1005.2,90,1004.8,90z"/>
					</g>
					<g>
						<path class="st5" d="M366.3,154h-24.7c-0.4,0-0.7-0.3-0.7-0.7v-9.8c0-0.4,0.3-0.7,0.7-0.7h24.7c0.4,0,0.7,0.3,0.7,0.7v9.8
							C367,153.7,366.7,154,366.3,154z"/>
					</g>
					<g>
						<path class="st5" d="M344.9,177.6h-24.7c-0.4,0-0.7-0.3-0.7-0.7v-9.8c0-0.4,0.3-0.7,0.7-0.7h24.7c0.4,0,0.7,0.3,0.7,0.7v9.8
							C345.6,177.3,345.3,177.6,344.9,177.6z"/>
					</g>
					<g>
						<path class="st5" d="M415.7,257.8H391c-0.4,0-0.7-0.3-0.7-0.7v-9.8c0-0.4,0.3-0.7,0.7-0.7h24.7c0.4,0,0.7,0.3,0.7,0.7v9.8
							C416.4,257.4,416.1,257.8,415.7,257.8z"/>
					</g>
					<g>
						<path class="st5" d="M1072.5,528.2h-24.7c-0.4,0-0.7-0.3-0.7-0.7v-9.8c0-0.4,0.3-0.7,0.7-0.7h24.7c0.4,0,0.7,0.3,0.7,0.7v9.8
							C1073.3,527.9,1072.9,528.2,1072.5,528.2z"/>
					</g>
					<g>
						<path class="st5" d="M206.7,484.2H182c-0.4,0-0.7-0.3-0.7-0.7v-9.8c0-0.4,0.3-0.7,0.7-0.7h24.7c0.4,0,0.7,0.3,0.7,0.7v9.8
							C207.4,483.9,207.1,484.2,206.7,484.2z"/>
					</g>
					<g>
						<path class="st5" d="M52.1,329.6H27.3c-0.4,0-0.7-0.3-0.7-0.7v-9.8c0-0.4,0.3-0.7,0.7-0.7H52c0.4,0,0.7,0.3,0.7,0.7v9.8
							C52.8,329.3,52.4,329.6,52.1,329.6z"/>
					</g>
					<g>
						<path class="st5" d="M-198.4,223.8h-24.7c-0.4,0-0.7-0.3-0.7-0.7v-9.8c0-0.4,0.3-0.7,0.7-0.7h24.7c0.4,0,0.7,0.3,0.7,0.7v9.8
							C-197.7,223.5-198,223.8-198.4,223.8z"/>
					</g>
					<g>
						<path class="st5" d="M1129.2,484.9h-50.9c-0.8,0-1.5-0.7-1.5-1.5v-20.2c0-0.8,0.7-1.5,1.5-1.5h50.9c0.8,0,1.5,0.7,1.5,1.5
							v20.2C1130.7,484.2,1130,484.9,1129.2,484.9z"/>
					</g>
					<g>
						<path class="st5" d="M117.5,255.6H66.6c-0.8,0-1.5-0.7-1.5-1.5v-20.2c0-0.8,0.7-1.5,1.5-1.5h50.9c0.8,0,1.5,0.7,1.5,1.5v20.2
							C119,254.9,118.3,255.6,117.5,255.6z"/>
					</g>
					<g>
						<path class="st5" d="M1100,347.1c-0.6,0-1.1-0.5-1.1-1.1c0-16.5-13.4-29.9-29.9-29.9c-0.6,0-1.1-0.5-1.1-1.1s0.5-1.1,1.1-1.1
							c16.5,0,29.9-13.4,29.9-29.9c0-0.6,0.5-1.1,1.1-1.1s1.1,0.5,1.1,1.1c0,16.5,13.4,29.9,29.9,29.9c0.6,0,1.1,0.5,1.1,1.1
							s-0.5,1.1-1.1,1.1c-16.5,0-29.9,13.4-29.9,29.9C1101.1,346.6,1100.6,347.1,1100,347.1z M1077.3,315c11,3,19.8,11.7,22.7,22.7
							c3-11,11.7-19.8,22.7-22.7c-11-3-19.8-11.7-22.7-22.7C1097,303.3,1088.3,312,1077.3,315z"/>
					</g>
					<g>
						<path class="st5" d="M490.8,360.8c-0.3,0-0.6-0.3-0.6-0.6c0-8.7-7.1-15.9-15.9-15.9c-0.3,0-0.6-0.3-0.6-0.6
							c0-0.3,0.3-0.6,0.6-0.6c8.7,0,15.9-7.1,15.9-15.9c0-0.3,0.3-0.6,0.6-0.6s0.6,0.3,0.6,0.6c0,8.7,7.1,15.9,15.9,15.9
							c0.3,0,0.6,0.3,0.6,0.6c0,0.3-0.3,0.6-0.6,0.6c-8.7,0-15.9,7.1-15.9,15.9C491.4,360.5,491.1,360.8,490.8,360.8z M478.8,343.8
							c5.9,1.6,10.5,6.2,12,12c1.6-5.9,6.2-10.5,12-12c-5.9-1.6-10.5-6.2-12-12C489.3,337.6,484.6,342.2,478.8,343.8z"/>
					</g>
					<g>
						<path class="st5" d="M24.2,514.7c-0.3,0-0.6-0.3-0.6-0.6c0-8.7-7.1-15.9-15.9-15.9c-0.3,0-0.6-0.3-0.6-0.6s0.3-0.6,0.6-0.6
							c8.7,0,15.9-7.1,15.9-15.9c0-0.3,0.3-0.6,0.6-0.6s0.6,0.3,0.6,0.6c0,8.7,7.1,15.9,15.9,15.9c0.3,0,0.6,0.3,0.6,0.6
							s-0.3,0.6-0.6,0.6c-8.7,0-15.9,7.1-15.9,15.9C24.7,514.5,24.5,514.7,24.2,514.7z M12.1,497.7c5.9,1.6,10.5,6.2,12,12
							c1.6-5.9,6.2-10.5,12-12c-5.9-1.6-10.5-6.2-12-12C22.6,491.5,18,496.2,12.1,497.7z"/>
					</g>
					<g>
						<path class="st5" d="M539.1,107.1c-0.6,0-1.1-0.5-1.1-1.1c0-16.9-13.8-30.7-30.7-30.7c-0.6,0-1.1-0.5-1.1-1.1s0.5-1.1,1.1-1.1
							c16.9,0,30.7-13.8,30.7-30.7c0-0.6,0.5-1.1,1.1-1.1s1.1,0.5,1.1,1.1c0,16.9,13.8,30.7,30.7,30.7c0.6,0,1.1,0.5,1.1,1.1
							s-0.5,1.1-1.1,1.1c-16.9,0-30.7,13.8-30.7,30.7C540.2,106.6,539.7,107.1,539.1,107.1z M515.8,74.1c11.3,3,20.3,12,23.3,23.3
							c3-11.3,12-20.3,23.3-23.3c-11.3-3-20.3-12-23.3-23.3C536,62.2,527.1,71.1,515.8,74.1z"/>
					</g>
					<g>
						<path class="st5" d="M-67.9,375.6c-0.6,0-1.1-0.5-1.1-1.1c0-16.9-13.8-30.7-30.7-30.7c-0.6,0-1.1-0.5-1.1-1.1s0.5-1.1,1.1-1.1
							c16.9,0,30.7-13.8,30.7-30.7c0-0.6,0.5-1.1,1.1-1.1s1.1,0.5,1.1,1.1c0,16.9,13.8,30.7,30.7,30.7c0.6,0,1.1,0.5,1.1,1.1
							s-0.5,1.1-1.1,1.1c-16.9,0-30.7,13.8-30.7,30.7C-66.8,375.1-67.3,375.6-67.9,375.6z M-91.2,342.7c11.3,3,20.3,12,23.3,23.3
							c3-11.3,12-20.3,23.3-23.3c-11.3-3-20.3-12-23.3-23.3C-71,330.7-79.9,339.6-91.2,342.7z"/>
					</g>
					<g>
						<circle class="st5" cx="-42.8" cy="484.3" r="14.6"/>
						<path class="st5" d="M-42.8,500c-8.6,0-15.7-7-15.7-15.7c0-8.6,7-15.7,15.7-15.7s15.7,7,15.7,15.7
							C-27.1,493-34.1,500-42.8,500z M-42.8,470.8c-7.5,0-13.6,6.1-13.6,13.6s6.1,13.6,13.6,13.6s13.6-6.1,13.6-13.6
							S-35.3,470.8-42.8,470.8z"/>
					</g>
					<g>
						<circle class="st5" cx="965.5" cy="312.5" r="14.6"/>
						<path class="st5" d="M965.5,328.2c-8.6,0-15.7-7-15.7-15.7c0-8.6,7-15.7,15.7-15.7c8.6,0,15.7,7,15.7,15.7
							S974.2,328.2,965.5,328.2z M965.5,299c-7.5,0-13.6,6.1-13.6,13.6s6.1,13.6,13.6,13.6s13.6-6.1,13.6-13.6S973,299,965.5,299z"
							/>
					</g>
					<g>
						<circle class="st5" cx="-240.6" cy="95.9" r="19.1"/>
					</g>
					<g>
						<circle class="st5" cx="1099" cy="76.5" r="19.1"/>
					</g>
					<g>
						<circle class="st5" cx="483.2" cy="127.5" r="19.1"/>
					</g>
					<g>
						<path class="st5" d="M1077.3,181.4c-7.8,0-14.2-6.4-14.2-14.2s6.4-14.2,14.2-14.2c7.8,0,14.2,6.4,14.2,14.2
							S1085.1,181.4,1077.3,181.4z M1077.3,154.8c-6.8,0-12.3,5.5-12.3,12.3s5.5,12.3,12.3,12.3s12.3-5.5,12.3-12.3
							S1084.1,154.8,1077.3,154.8z"/>
					</g>
					<g>
						<path class="st5" d="M-196,350.6c-7.8,0-14.2-6.4-14.2-14.2c0-7.8,6.4-14.2,14.2-14.2s14.2,6.4,14.2,14.2
							S-188.2,350.6-196,350.6z M-196,324c-6.8,0-12.3,5.5-12.3,12.3s5.5,12.3,12.3,12.3s12.3-5.5,12.3-12.3S-189.2,324-196,324z"/>
					</g>
					<g>
						<path class="st5" d="M1130.8,384.8c-7.8,0-14.2-6.4-14.2-14.2c0-7.8,6.4-14.2,14.2-14.2c7.8,0,14.2,6.4,14.2,14.2
							C1145.1,378.4,1138.7,384.8,1130.8,384.8z M1130.8,358.2c-6.8,0-12.3,5.5-12.3,12.3s5.5,12.3,12.3,12.3s12.3-5.5,12.3-12.3
							C1143.2,363.7,1137.6,358.2,1130.8,358.2z"/>
					</g>
					<g>
						<g>
							<path class="st5" d="M992.1,532c-9.1,0-16.6-7.4-16.6-16.6c0-9.1,7.4-16.6,16.6-16.6s16.6,7.4,16.6,16.6
								C1008.7,524.6,1001.3,532,992.1,532z M992.1,502.8c-7,0-12.7,5.7-12.7,12.7c0,7,5.7,12.7,12.7,12.7s12.7-5.7,12.7-12.7
								C1004.8,508.5,999.1,502.8,992.1,502.8z"/>
						</g>
					</g>
					<g>
						<g>
							<path class="st5" d="M606.1,396.8c-9.1,0-16.6-7.4-16.6-16.6c0-9.1,7.4-16.6,16.6-16.6c9.1,0,16.6,7.4,16.6,16.6
								C622.6,389.4,615.2,396.8,606.1,396.8z M606.1,367.5c-7,0-12.7,5.7-12.7,12.7s5.7,12.7,12.7,12.7s12.7-5.7,12.7-12.7
								S613.1,367.5,606.1,367.5z"/>
						</g>
					</g>
					<g>
						<g>
							<path class="st5" d="M-432.4,472.6c-15.3,0-27.8-12.5-27.8-27.8s12.5-27.8,27.8-27.8s27.8,12.5,27.8,27.8
								C-404.5,460.1-417,472.6-432.4,472.6z M-432.4,423.4c-11.8,0-21.3,9.6-21.3,21.3c0,11.8,9.6,21.3,21.3,21.3
								s21.3-9.6,21.3-21.3C-411,433-420.6,423.4-432.4,423.4z"/>
						</g>
					</g>
					<g>
						<g>
							<path class="st5" d="M633.1,88c-9.1,0-16.6-7.4-16.6-16.6c0-9.1,7.4-16.6,16.6-16.6c9.1,0,16.6,7.4,16.6,16.6
								C649.7,80.5,642.2,88,633.1,88z M633.1,58.7c-7,0-12.7,5.7-12.7,12.7s5.7,12.7,12.7,12.7s12.7-5.7,12.7-12.7
								S640.1,58.7,633.1,58.7z"/>
						</g>
					</g>
					<g>
						<g>
							<path class="st5" d="M129.6,105.7c-9.1,0-16.6-7.4-16.6-16.6c0-9.1,7.4-16.6,16.6-16.6c9.1,0,16.6,7.4,16.6,16.6
								C146.2,98.2,138.8,105.7,129.6,105.7z M129.6,76.4c-7,0-12.7,5.7-12.7,12.7s5.7,12.7,12.7,12.7s12.7-5.7,12.7-12.7
								S136.6,76.4,129.6,76.4z"/>
						</g>
					</g>
					<g>
						<g>
							<g>
								<path class="st5" d="M-94.8,146.4c-7.1,6.7-23.4,0.9-37.3-13.4c-13.9-14.3-19.3-30.9-12.3-37.7c0,0,0,0,0.1-0.1
									c7.1-6.7,23.4-0.9,37.3,13.4S-87.7,139.5-94.8,146.4C-94.7,146.3-94.7,146.3-94.8,146.4z M-142.7,96.9
									C-142.8,96.9-142.8,96.9-142.7,96.9c-5.9,5.8-0.3,21.6,12.3,34.5s28.2,19,34.1,13.3l0,0c5.9-5.7,0.2-21.5-12.4-34.5
									C-121.2,97.3-136.8,91.2-142.7,96.9z"/>
							</g>
						</g>
						<g>
							<g>
								<path class="st5" d="M-90.1,125.5c-0.7,0.7-1.5,1.4-2.3,2c-5.8,4.6-14,8.2-23.1,10.3s-18.1,2.4-25.3,0.8
									c-7.5-1.7-12.2-5.2-13.3-9.9s1.6-9.9,7.7-14.7c5.8-4.6,14-8.2,23.1-10.3c9.1-2.1,18.1-2.4,25.3-0.8
									c7.5,1.7,12.2,5.2,13.3,9.9C-83.9,116.9-85.8,121.3-90.1,125.5z M-147.4,117.8c-3.8,3.6-5.4,7.2-4.7,10.5
									c0.9,3.8,5,6.7,11.6,8.2c6.9,1.5,15.5,1.2,24.3-0.8s16.7-5.5,22.2-9.9c5.3-4.2,7.7-8.6,6.9-12.4c-0.9-3.8-5-6.7-11.6-8.2
									c-6.9-1.5-15.5-1.2-24.3,0.8s-16.7,5.5-22.2,9.9C-146,116.5-146.7,117.1-147.4,117.8z"/>
							</g>
						</g>
						<g>
							<g>
								<path class="st5" d="M-115.9,150.6c-4.1,3.9-8.4,5.7-12.5,4.6c-4.7-1.2-8.1-6-9.5-13.5c-1.4-7.2-0.9-16.2,1.5-25.3
									c5-19.3,16.3-32.6,25.8-30.1c9.5,2.4,13,19.5,8.1,38.8C-105.5,136.3-110.4,145.4-115.9,150.6z M-121.4,92.5
									c-5.2,5-10.1,13.9-12.8,24.5c-2.3,8.8-2.8,17.4-1.4,24.3c1.3,6.6,4.1,10.8,7.8,11.8c8,2.1,18.5-11,23-28.5s1.6-34-6.4-36.1
									C-114.4,87.7-118,89.3-121.4,92.5z"/>
							</g>
						</g>
						<g>
							<g>
								<path class="st5" d="M-115.8,124.7c-1,1-2.4,1.5-3.8,1.5c-1.5,0-2.8-0.6-3.8-1.7c-1-1-1.6-2.4-1.5-3.9
									c0-1.5,0.6-2.8,1.7-3.8l0,0c2.2-2.1,5.6-2,7.7,0.1C-113.5,119.1-113.6,122.6-115.8,124.7
									C-115.7,124.7-115.7,124.7-115.8,124.7z M-121.7,118.5L-121.7,118.5c-1.3,1.2-1.3,3.3-0.1,4.5c1.2,1.3,3.3,1.3,4.5,0.1
									c1.3-1.2,1.3-3.3,0.1-4.5C-118.5,117.3-120.5,117.3-121.7,118.5z"/>
							</g>
						</g>
					</g>
					<g>
						<g>
							<g>
								<path class="st5" d="M-332.7,540.2c-8,7.6-26.5,1-42.2-15.1c-15.8-16.2-21.9-34.9-13.9-42.6c0,0,0,0,0.1-0.1
									c8-7.6,26.5-1,42.2,15.1C-330.8,513.7-324.7,532.4-332.7,540.2C-332.6,540.2-332.7,540.2-332.7,540.2z M-387,484.3
									L-387,484.3c-6.7,6.6-0.3,24.4,13.9,39.1c14.2,14.6,31.8,21.5,38.6,15.1c0,0,0,0,0.1,0c6.7-6.5,0.3-24.4-14-39
									C-362.6,484.7-380.2,477.8-387,484.3z"/>
							</g>
						</g>
						<g>
							<g>
								<path class="st5" d="M-327.5,516.6c-0.8,0.8-1.7,1.5-2.6,2.3c-6.5,5.2-15.8,9.3-26.2,11.7s-20.5,2.7-28.6,0.9
									c-8.5-1.9-13.8-5.8-15-11.2c-1.2-5.3,1.9-11.2,8.7-16.6c6.5-5.2,15.8-9.3,26.2-11.7c10.3-2.4,20.5-2.7,28.6-0.9
									c8.5,1.9,13.8,5.8,15,11.2C-320.4,506.9-322.5,511.9-327.5,516.6z M-392.2,507.9c-4.2,4.1-6.1,8.2-5.3,11.8
									c1,4.3,5.6,7.6,13.1,9.2c7.8,1.7,17.5,1.4,27.5-0.9c10-2.3,18.9-6.3,25.2-11.2c6-4.7,8.7-9.7,7.8-14s-5.6-7.6-13.1-9.2
									c-7.8-1.7-17.5-1.4-27.5,0.9s-18.9,6.3-25.2,11.2C-390.6,506.5-391.4,507.2-392.2,507.9z"/>
							</g>
						</g>
						<g>
							<g>
								<path class="st5" d="M-356.7,545.1c-4.6,4.4-9.5,6.4-14.1,5.2c-5.3-1.4-9.1-6.8-10.7-15.3c-1.6-8.2-1-18.3,1.6-28.6
									c5.6-21.9,18.4-36.8,29.2-34.1c10.7,2.8,14.7,22.1,9.1,43.9C-344.8,528.8-350.4,539.1-356.7,545.1z M-362.8,479.4
									c-5.9,5.6-11.4,15.7-14.5,27.7c-2.5,9.9-3.1,19.7-1.6,27.5c1.4,7.5,4.6,12.2,8.9,13.3c9,2.3,21-12.4,26-32.2
									c5.1-19.8,1.8-38.5-7.3-40.8C-354.9,473.9-359,475.7-362.8,479.4z"/>
							</g>
						</g>
						<g>
							<g>
								<path class="st5" d="M-356.4,515.8c-1.2,1.1-2.7,1.7-4.3,1.7c-1.6,0-3.2-0.7-4.3-1.9c-1.2-1.2-1.8-2.7-1.8-4.4
									c0-1.6,0.7-3.2,1.9-4.3l0,0c2.4-2.3,6.3-2.3,8.7,0.2C-353.9,509.4-354,513.4-356.4,515.8L-356.4,515.8z M-363.2,508.7
									L-363.2,508.7c-1.4,1.4-1.5,3.7-0.1,5.1c1.4,1.4,3.7,1.5,5.1,0.1s1.5-3.7,0.1-5.1C-359.5,507.4-361.8,507.3-363.2,508.7z"/>
							</g>
						</g>
					</g>
					<g>
						<g>
							<g>
								<path class="st5" d="M1029.4,264.5c-8,7.6-26.5,1-42.2-15.1c-15.8-16.2-21.9-34.9-13.9-42.6c0,0,0,0,0.1-0.1
									c8-7.6,26.5-1,42.2,15.1C1031.3,238,1037.4,256.7,1029.4,264.5L1029.4,264.5z M975.1,208.6L975.1,208.6
									c-6.7,6.6-0.3,24.4,13.9,39.1c14.2,14.6,31.8,21.5,38.6,15.1c0,0,0,0,0.1,0c6.7-6.5,0.3-24.4-14-39
									C999.5,209,981.8,202.1,975.1,208.6z"/>
							</g>
						</g>
						<g>
							<g>
								<path class="st5" d="M1034.6,240.9c-0.8,0.8-1.7,1.5-2.6,2.3c-6.5,5.2-15.8,9.3-26.2,11.7c-10.3,2.4-20.5,2.7-28.6,0.9
									c-8.5-1.9-13.8-5.8-15-11.2c-1.2-5.3,1.9-11.2,8.7-16.6c6.5-5.2,15.8-9.3,26.2-11.7c10.3-2.4,20.5-2.7,28.6-0.9
									c8.5,1.9,13.8,5.8,15,11.2C1041.7,231.2,1039.5,236.2,1034.6,240.9z M969.9,232.2c-4.2,4.1-6.1,8.2-5.3,11.8
									c1,4.3,5.6,7.6,13.1,9.2c7.8,1.7,17.5,1.4,27.5-0.9c10-2.3,18.9-6.3,25.2-11.2c6-4.7,8.7-9.7,7.8-14
									c-1-4.3-5.6-7.6-13.1-9.2c-7.8-1.7-17.5-1.4-27.5,0.9c-10,2.3-18.9,6.3-25.2,11.2C971.5,230.8,970.6,231.5,969.9,232.2z"/>
							</g>
						</g>
						<g>
							<g>
								<path class="st5" d="M1005.4,269.4c-4.6,4.4-9.5,6.4-14.1,5.2c-5.3-1.4-9.1-6.8-10.7-15.3c-1.6-8.2-1-18.3,1.6-28.6
									c5.6-21.9,18.4-36.8,29.2-34.1c10.7,2.8,14.7,22.1,9.1,43.9C1017.3,253.1,1011.7,263.4,1005.4,269.4z M999.2,203.7
									c-5.9,5.6-11.4,15.7-14.5,27.7c-2.5,9.9-3.1,19.7-1.6,27.5c1.4,7.5,4.6,12.2,8.9,13.3c9,2.3,21-12.4,26-32.2
									c5.1-19.8,1.8-38.5-7.3-40.8C1007.2,198.2,1003.1,200,999.2,203.7z"/>
							</g>
						</g>
						<g>
							<g>
								<path class="st5" d="M1005.6,240.1c-1.2,1.1-2.7,1.7-4.3,1.7s-3.2-0.7-4.3-1.9c-1.2-1.2-1.8-2.7-1.8-4.4
									c0-1.6,0.7-3.2,1.9-4.3l0,0c2.4-2.3,6.3-2.3,8.7,0.2C1008.2,233.8,1008.1,237.7,1005.6,240.1
									C1005.7,240.1,1005.6,240.1,1005.6,240.1z M998.9,233L998.9,233c-1.4,1.4-1.5,3.7-0.1,5.1c1.4,1.4,3.7,1.5,5.1,0.1
									c1.4-1.4,1.5-3.7,0.1-5.1S1000.3,231.6,998.9,233z"/>
							</g>
						</g>
					</g>
					<g>
						<g>
							<g>
								<g>
									<path class="st5" d="M1013.2,421.1c-0.1,0-0.2,0-0.3-0.1l-13.8-6.7c-0.4-0.2-0.5-0.7-0.4-1l27.6-56.9
										c0.2-0.4,0.7-0.5,1-0.4l13.8,6.7c0.2,0.1,0.3,0.3,0.4,0.4s0.1,0.4,0,0.6l-27.6,56.9c-0.1,0.2-0.3,0.3-0.4,0.4
										C1013.4,421.1,1013.3,421.1,1013.2,421.1z M1000.4,413.3l12.4,6l27-55.5l-12.4-6L1000.4,413.3z"/>
								</g>
							</g>
							<g>
								<g>
									<path class="st5" d="M1037.5,371.1c-0.1,0-0.2,0-0.3-0.1l-6.9-3.4c-0.4-0.2-0.5-0.7-0.4-1c0.2-0.4,0.7-0.6,1-0.4l6.9,3.4
										c0.4,0.2,0.5,0.7,0.4,1S1037.8,371.1,1037.5,371.1z"/>
								</g>
							</g>
							<g>
								<g>
									<path class="st5" d="M1031.1,384.2c-0.1,0-0.2,0-0.3-0.1l-6.9-3.4c-0.4-0.2-0.5-0.7-0.4-1c0.2-0.4,0.7-0.5,1-0.4l6.9,3.4
										c0.4,0.2,0.5,0.7,0.4,1C1031.7,384.1,1031.4,384.2,1031.1,384.2z"/>
								</g>
							</g>
							<g>
								<g>
									<path class="st5" d="M1024.7,397.4c-0.1,0-0.2,0-0.3-0.1l-6.9-3.4c-0.4-0.2-0.5-0.7-0.4-1c0.2-0.4,0.7-0.5,1-0.4l6.9,3.4
										c0.4,0.2,0.5,0.7,0.4,1C1025.3,397.3,1025,397.4,1024.7,397.4z"/>
								</g>
							</g>
							<g>
								<g>
									<path class="st5" d="M1018.3,410.6c-0.1,0-0.2,0-0.3-0.1l-6.9-3.4c-0.4-0.2-0.5-0.7-0.4-1s0.7-0.5,1-0.4l6.9,3.4
										c0.4,0.2,0.5,0.7,0.4,1S1018.6,410.6,1018.3,410.6z"/>
								</g>
							</g>
							<g>
								<g>
									<path class="st5" d="M1035.4,375.4c-0.1,0-0.2,0-0.3-0.1l-3.4-1.7c-0.4-0.2-0.5-0.7-0.4-1c0.2-0.4,0.7-0.5,1-0.4l3.4,1.7
										c0.4,0.2,0.5,0.7,0.4,1C1036,375.3,1035.7,375.4,1035.4,375.4z"/>
								</g>
							</g>
							<g>
								<g>
									<path class="st5" d="M1033.2,379.8c-0.1,0-0.2,0-0.3-0.1l-3.4-1.7c-0.4-0.2-0.5-0.7-0.4-1c0.2-0.4,0.7-0.5,1-0.4l3.4,1.7
										c0.4,0.2,0.5,0.7,0.4,1C1033.8,379.7,1033.5,379.8,1033.2,379.8z"/>
								</g>
							</g>
							<g>
								<g>
									<path class="st5" d="M1029,388.6c-0.1,0-0.2,0-0.3-0.1l-3.4-1.7c-0.4-0.2-0.5-0.7-0.4-1c0.2-0.4,0.7-0.6,1-0.4l3.4,1.7
										c0.4,0.2,0.5,0.7,0.4,1C1029.5,388.5,1029.3,388.6,1029,388.6z"/>
								</g>
							</g>
							<g>
								<g>
									<path class="st5" d="M1026.8,393c-0.1,0-0.2,0-0.3-0.1l-3.4-1.7c-0.4-0.2-0.5-0.7-0.4-1c0.2-0.4,0.7-0.5,1-0.4l3.4,1.7
										c0.4,0.2,0.5,0.7,0.4,1C1027.4,392.9,1027.1,393,1026.8,393z"/>
								</g>
							</g>
							<g>
								<g>
									<path class="st5" d="M1022.6,401.8c-0.1,0-0.2,0-0.3-0.1l-3.4-1.7c-0.4-0.2-0.5-0.7-0.4-1c0.2-0.4,0.7-0.6,1-0.4l3.4,1.7
										c0.4,0.2,0.5,0.7,0.4,1C1023.1,401.7,1022.8,401.8,1022.6,401.8z"/>
								</g>
							</g>
							<g>
								<g>
									<path class="st5" d="M1020.4,406.2c-0.1,0-0.2,0-0.3-0.1l-3.4-1.7c-0.4-0.2-0.5-0.7-0.4-1c0.2-0.4,0.7-0.5,1-0.4l3.4,1.7
										c0.4,0.2,0.5,0.7,0.4,1C1021,406.1,1020.7,406.2,1020.4,406.2z"/>
								</g>
							</g>
						</g>
						<g>
							<g>
								<g>
									<g>
										<path class="st5" d="M988.4,394.8c-0.2,0-0.4-0.1-0.6-0.2l-3.2-3.3c-0.3-0.3-0.3-0.8,0-1.1c0.3-0.3,0.8-0.3,1.1,0l3.2,3.3
											c0.3,0.3,0.3,0.8,0,1.1C988.7,394.7,988.6,394.8,988.4,394.8z"/>
									</g>
								</g>
								<g>
									<g>
										<path class="st5" d="M977.9,405c-0.2,0-0.4-0.1-0.6-0.2l-3.2-3.3c-0.3-0.3-0.3-0.8,0-1.1c0.3-0.3,0.8-0.3,1.1,0l3.2,3.3
											c0.3,0.3,0.3,0.8,0,1.1C978.3,405,978.1,405,977.9,405z"/>
									</g>
								</g>
								<g>
									<g>
										<path class="st5" d="M967.5,415.3c-0.2,0-0.4-0.1-0.6-0.2l-3.2-3.3c-0.3-0.3-0.3-0.8,0-1.1c0.3-0.3,0.8-0.3,1.1,0l3.2,3.3
											c0.3,0.3,0.3,0.8,0,1.1C967.9,415.2,967.7,415.3,967.5,415.3z"/>
									</g>
								</g>
								<g>
									<g>
										<path class="st5" d="M995.3,387.9c-0.2,0-0.4-0.1-0.6-0.2l-1.6-1.6c-0.3-0.3-0.3-0.8,0-1.1c0.3-0.3,0.8-0.3,1.1,0l1.6,1.6
											c0.3,0.3,0.3,0.8,0,1.1C995.7,387.8,995.5,387.9,995.3,387.9z"/>
									</g>
								</g>
								<g>
									<g>
										<path class="st5" d="M991.8,391.3c-0.2,0-0.4-0.1-0.6-0.2l-1.6-1.6c-0.3-0.3-0.3-0.8,0-1.1c0.3-0.3,0.8-0.3,1.1,0l1.6,1.6
											c0.3,0.3,0.3,0.8,0,1.1C992.2,391.3,992,391.3,991.8,391.3z"/>
									</g>
								</g>
								<g>
									<g>
										<path class="st5" d="M984.9,398.2c-0.2,0-0.4-0.1-0.6-0.2l-1.6-1.6c-0.3-0.3-0.3-0.8,0-1.1c0.3-0.3,0.8-0.3,1.1,0l1.6,1.6
											c0.3,0.3,0.3,0.8,0,1.1C985.3,398.1,985.1,398.2,984.9,398.2z"/>
									</g>
								</g>
								<g>
									<g>
										<path class="st5" d="M981.4,401.6c-0.2,0-0.4-0.1-0.6-0.2l-1.6-1.6c-0.3-0.3-0.3-0.8,0-1.1c0.3-0.3,0.8-0.3,1.1,0l1.6,1.6
											c0.3,0.3,0.3,0.8,0,1.1C981.8,401.6,981.6,401.6,981.4,401.6z"/>
									</g>
								</g>
								<g>
									<g>
										<path class="st5" d="M974.4,408.5c-0.2,0-0.4-0.1-0.6-0.2l-1.6-1.6c-0.3-0.3-0.3-0.8,0-1.1c0.3-0.3,0.8-0.3,1.1,0l1.6,1.6
											c0.3,0.3,0.3,0.8,0,1.1C974.8,408.4,974.6,408.5,974.4,408.5z"/>
									</g>
								</g>
								<g>
									<g>
										<path class="st5" d="M963.8,418.9c-0.2,0-0.4-0.1-0.6-0.2l-1.6-1.6c-0.3-0.3-0.3-0.8,0-1.1c0.3-0.3,0.8-0.3,1.1,0l1.6,1.6
											c0.3,0.3,0.3,0.8,0,1.1C964.2,418.8,964,418.9,963.8,418.9z"/>
									</g>
								</g>
								<g>
									<g>
										<path class="st5" d="M970.9,411.9c-0.2,0-0.4-0.1-0.6-0.2l-1.6-1.6c-0.3-0.3-0.3-0.8,0-1.1c0.3-0.3,0.8-0.3,1.1,0l1.6,1.6
											c0.3,0.3,0.3,0.8,0,1.1C971.3,411.8,971.1,411.9,970.9,411.9z"/>
									</g>
								</g>
							</g>
							<g>
								<g>
									<path class="st5" d="M959.1,423.5L959.1,423.5c-0.2,0-0.4-0.1-0.6-0.2l-23.8-24.2c-0.2-0.2-0.3-0.5-0.2-0.7
										c0.1-0.3,0.3-0.5,0.5-0.6l68.8-20.2c0.3-0.1,0.7,0,0.9,0.4c0.2,0.3,0.1,0.7-0.1,0.9l-45.1,44.3
										C959.5,423.4,959.3,423.5,959.1,423.5z M936.8,399l22.3,22.7l42.3-41.6L936.8,399z"/>
								</g>
							</g>
							<g>
								<g>
									<path class="st5" d="M959.2,410.5c-0.2,0-0.4-0.1-0.6-0.2l-6.5-6.6c-0.2-0.2-0.3-0.5-0.2-0.7c0.1-0.3,0.3-0.5,0.5-0.6
										l18.8-5.5c0.3-0.1,0.7,0,0.9,0.4c0.2,0.3,0.1,0.7-0.1,0.9l-12.3,12.1C959.6,410.4,959.4,410.5,959.2,410.5z M954.2,403.5
										l5,5.1l9.6-9.4L954.2,403.5z"/>
								</g>
							</g>
						</g>
					</g>
					<g>
						<g>
							<g>
								<g>
									<path class="st5" d="M-176.7,429.2c-0.1,0-0.3,0-0.4-0.1l-16.3-7.9c-0.5-0.2-0.6-0.8-0.4-1.2l32.6-67.1
										c0.2-0.5,0.8-0.6,1.2-0.4l16.3,7.9c0.2,0.1,0.4,0.3,0.5,0.5s0.1,0.5,0,0.7l-32.6,67.1c-0.1,0.2-0.3,0.4-0.5,0.5
										C-176.5,429.2-176.6,429.2-176.7,429.2z M-191.8,419.9l14.6,7.1l31.8-65.4l-14.6-7.1L-191.8,419.9z"/>
								</g>
							</g>
							<g>
								<g>
									<path class="st5" d="M-148,370.2c-0.1,0-0.3,0-0.4-0.1l-8.1-4c-0.5-0.2-0.6-0.8-0.4-1.2c0.2-0.5,0.8-0.6,1.2-0.4l8.1,4
										c0.5,0.2,0.6,0.8,0.4,1.2C-147.3,370-147.7,370.2-148,370.2z"/>
								</g>
							</g>
							<g>
								<g>
									<path class="st5" d="M-155.6,385.7c-0.1,0-0.3,0-0.4-0.1l-8.1-4c-0.5-0.2-0.6-0.8-0.4-1.2c0.2-0.5,0.8-0.6,1.2-0.4l8.1,4
										c0.5,0.2,0.6,0.8,0.4,1.2C-154.9,385.5-155.2,385.7-155.6,385.7z"/>
								</g>
							</g>
							<g>
								<g>
									<path class="st5" d="M-163.1,401.3c-0.1,0-0.3,0-0.4-0.1l-8.1-4c-0.5-0.2-0.6-0.8-0.4-1.2c0.2-0.5,0.8-0.6,1.2-0.4l8.1,4
										c0.5,0.2,0.6,0.8,0.4,1.2C-162.5,401.1-162.8,401.3-163.1,401.3z"/>
								</g>
							</g>
							<g>
								<g>
									<path class="st5" d="M-170.7,416.8c-0.1,0-0.3,0-0.4-0.1l-8.1-4c-0.5-0.2-0.6-0.8-0.4-1.2c0.2-0.5,0.8-0.6,1.2-0.4l8.1,4
										c0.5,0.2,0.6,0.8,0.4,1.2C-170,416.6-170.3,416.8-170.7,416.8z"/>
								</g>
							</g>
							<g>
								<g>
									<path class="st5" d="M-150.5,375.3c-0.1,0-0.3,0-0.4-0.1l-4.1-2c-0.5-0.2-0.6-0.8-0.4-1.2c0.2-0.5,0.8-0.6,1.2-0.4l4.1,2
										c0.5,0.2,0.6,0.8,0.4,1.2C-149.8,375.1-150.2,375.3-150.5,375.3z"/>
								</g>
							</g>
							<g>
								<g>
									<path class="st5" d="M-153,380.5c-0.1,0-0.3,0-0.4-0.1l-4.1-2c-0.5-0.2-0.6-0.8-0.4-1.2c0.2-0.5,0.8-0.6,1.2-0.4l4.1,2
										c0.5,0.2,0.6,0.8,0.4,1.2C-152.4,380.3-152.7,380.5-153,380.5z"/>
								</g>
							</g>
							<g>
								<g>
									<path class="st5" d="M-158.1,390.9c-0.1,0-0.3,0-0.4-0.1l-4.1-2c-0.5-0.2-0.6-0.8-0.4-1.2c0.2-0.5,0.8-0.6,1.2-0.4l4.1,2
										c0.5,0.2,0.6,0.8,0.4,1.2C-157.4,390.7-157.7,390.9-158.1,390.9z"/>
								</g>
							</g>
							<g>
								<g>
									<path class="st5" d="M-160.6,396.1c-0.1,0-0.3,0-0.4-0.1l-4.1-2c-0.5-0.2-0.6-0.8-0.4-1.2c0.2-0.5,0.8-0.6,1.2-0.4l4.1,2
										c0.5,0.2,0.6,0.8,0.4,1.2C-159.9,395.9-160.3,396.1-160.6,396.1z"/>
								</g>
							</g>
							<g>
								<g>
									<path class="st5" d="M-165.7,406.5c-0.1,0-0.3,0-0.4-0.1l-4.1-2c-0.5-0.2-0.6-0.8-0.4-1.2c0.2-0.5,0.8-0.6,1.2-0.4l4.1,2
										c0.5,0.2,0.6,0.8,0.4,1.2C-165,406.3-165.3,406.5-165.7,406.5z"/>
								</g>
							</g>
							<g>
								<g>
									<path class="st5" d="M-168.2,411.7c-0.1,0-0.3,0-0.4-0.1l-4.1-2c-0.5-0.2-0.6-0.8-0.4-1.2c0.2-0.5,0.8-0.6,1.2-0.4l4.1,2
										c0.5,0.2,0.6,0.8,0.4,1.2C-167.5,411.5-167.8,411.7-168.2,411.7z"/>
								</g>
							</g>
						</g>
						<g>
							<g>
								<g>
									<g>
										<path class="st5" d="M-206,398.1c-0.2,0-0.5-0.1-0.7-0.3l-3.8-3.9c-0.4-0.4-0.4-0.9,0-1.3s0.9-0.4,1.3,0l3.8,3.9
											c0.4,0.4,0.4,0.9,0,1.3C-205.5,398.1-205.8,398.1-206,398.1z"/>
									</g>
								</g>
								<g>
									<g>
										<path class="st5" d="M-218.3,410.3c-0.2,0-0.5-0.1-0.7-0.3l-3.8-3.9c-0.4-0.4-0.4-0.9,0-1.3s0.9-0.4,1.3,0l3.8,3.9
											c0.4,0.4,0.4,0.9,0,1.3C-217.9,410.2-218.1,410.3-218.3,410.3z"/>
									</g>
								</g>
								<g>
									<g>
										<path class="st5" d="M-230.6,422.4c-0.2,0-0.5-0.1-0.7-0.3l-3.8-3.9c-0.4-0.4-0.4-0.9,0-1.3s0.9-0.4,1.3,0l3.8,3.9
											c0.4,0.4,0.4,0.9,0,1.3C-230.2,422.3-230.4,422.4-230.6,422.4z"/>
									</g>
								</g>
								<g>
									<g>
										<path class="st5" d="M-197.8,390c-0.2,0-0.5-0.1-0.7-0.3l-1.9-1.9c-0.4-0.4-0.4-0.9,0-1.3s0.9-0.3,1.3,0l1.9,1.9
											c0.4,0.4,0.4,0.9,0,1.3C-197.3,389.9-197.5,390-197.8,390z"/>
									</g>
								</g>
								<g>
									<g>
										<path class="st5" d="M-201.9,394.1c-0.2,0-0.5-0.1-0.7-0.3l-1.9-1.9c-0.4-0.4-0.4-0.9,0-1.3s0.9-0.3,1.3,0l1.9,1.9
											c0.4,0.4,0.4,0.9,0,1.3C-201.4,394-201.6,394.1-201.9,394.1z"/>
									</g>
								</g>
								<g>
									<g>
										<path class="st5" d="M-210.1,402.2c-0.2,0-0.5-0.1-0.7-0.3l-1.9-1.9c-0.4-0.4-0.4-0.9,0-1.3s0.9-0.4,1.3,0l1.9,1.9
											c0.4,0.4,0.4,0.9,0,1.3C-209.6,402.1-209.9,402.2-210.1,402.2z"/>
									</g>
								</g>
								<g>
									<g>
										<path class="st5" d="M-214.2,406.2c-0.2,0-0.5-0.1-0.7-0.3l-1.9-1.9c-0.4-0.4-0.4-0.9,0-1.3s0.9-0.4,1.3,0l1.9,1.9
											c0.4,0.4,0.4,0.9,0,1.3C-213.8,406.1-214,406.2-214.2,406.2z"/>
									</g>
								</g>
								<g>
									<g>
										<path class="st5" d="M-222.4,414.3c-0.2,0-0.5-0.1-0.7-0.3l-1.9-1.9c-0.4-0.4-0.4-0.9,0-1.3s0.9-0.4,1.3,0l1.9,1.9
											c0.4,0.4,0.4,0.9,0,1.3C-222,414.2-222.2,414.3-222.4,414.3z"/>
									</g>
								</g>
								<g>
									<g>
										<path class="st5" d="M-235,426.6c-0.2,0-0.5-0.1-0.7-0.3l-1.9-1.9c-0.4-0.4-0.4-0.9,0-1.3s0.9-0.4,1.3,0l1.9,1.9
											c0.4,0.4,0.4,0.9,0,1.3C-234.5,426.5-234.7,426.6-235,426.6z"/>
									</g>
								</g>
								<g>
									<g>
										<path class="st5" d="M-226.6,418.4c-0.2,0-0.5-0.1-0.7-0.3l-1.9-1.9c-0.4-0.4-0.4-0.9,0-1.3s0.9-0.4,1.3,0l1.9,1.9
											c0.4,0.4,0.4,0.9,0,1.3C-226.1,418.3-226.3,418.4-226.6,418.4z"/>
									</g>
								</g>
							</g>
							<g>
								<g>
									<path class="st5" d="M-240.5,432L-240.5,432c-0.3,0-0.5-0.1-0.7-0.3l-28-28.5c-0.2-0.2-0.3-0.6-0.2-0.9
										c0.1-0.3,0.3-0.6,0.6-0.7l81.2-23.8c0.4-0.1,0.8,0.1,1.1,0.4c0.2,0.4,0.2,0.8-0.1,1.1l-53.2,52.3
										C-240,432-240.2,432-240.5,432z M-266.8,403.1l26.3,26.8l49.9-49.1L-266.8,403.1z"/>
								</g>
							</g>
							<g>
								<g>
									<path class="st5" d="M-240.3,416.7c-0.2,0-0.5-0.1-0.7-0.3l-7.7-7.8c-0.2-0.2-0.3-0.6-0.2-0.9s0.3-0.6,0.6-0.7l22.2-6.5
										c0.4-0.1,0.8,0.1,1.1,0.4c0.2,0.4,0.2,0.8-0.1,1.1l-14.5,14.3C-239.9,416.6-240.1,416.7-240.3,416.7z M-246.3,408.4l6,6
										l11.3-11.1L-246.3,408.4z"/>
								</g>
							</g>
						</g>
					</g>
					<g>
						<g>
							<g>
								<g>
									<path class="st5" d="M857.3,84.6c0,0.1,0,0.3,0,0.4l-5.4,17.3c-0.2,0.5-0.7,0.8-1.2,0.6l-71.2-22.3
										c-0.5-0.2-0.8-0.7-0.6-1.2l5.4-17.3c0.1-0.2,0.2-0.4,0.5-0.5c0.2-0.1,0.5-0.1,0.7-0.1l71.2,22.3c0.2,0.1,0.4,0.2,0.5,0.5
										C857.2,84.4,857.2,84.5,857.3,84.6z M850.4,100.9l4.9-15.5l-69.4-21.7L781,79.2L850.4,100.9z"/>
								</g>
							</g>
							<g>
								<g>
									<path class="st5" d="M794.6,65c0,0.1,0,0.3,0,0.4l-2.7,8.6c-0.2,0.5-0.7,0.8-1.2,0.6c-0.5-0.2-0.8-0.7-0.6-1.2l2.7-8.6
										c0.2-0.5,0.7-0.8,1.2-0.6C794.3,64.4,794.6,64.7,794.6,65z"/>
								</g>
							</g>
							<g>
								<g>
									<path class="st5" d="M811.1,70.2c0,0.1,0,0.3,0,0.4l-2.7,8.6c-0.2,0.5-0.7,0.8-1.2,0.6c-0.5-0.2-0.8-0.7-0.6-1.2l2.7-8.6
										c0.2-0.5,0.7-0.8,1.2-0.6C810.8,69.6,811.1,69.9,811.1,70.2z"/>
								</g>
							</g>
							<g>
								<g>
									<path class="st5" d="M827.6,75.4c0,0.1,0,0.3,0,0.4l-2.7,8.6c-0.2,0.5-0.7,0.8-1.2,0.6c-0.5-0.2-0.8-0.7-0.6-1.2l2.7-8.6
										c0.2-0.5,0.7-0.8,1.2-0.6C827.3,74.7,827.6,75,827.6,75.4z"/>
								</g>
							</g>
							<g>
								<g>
									<path class="st5" d="M844.1,80.5c0,0.1,0,0.3,0,0.4l-2.7,8.6c-0.2,0.5-0.7,0.8-1.2,0.6c-0.5-0.2-0.8-0.7-0.6-1.2l2.7-8.6
										c0.2-0.5,0.7-0.8,1.2-0.6C843.8,79.9,844,80.2,844.1,80.5z"/>
								</g>
							</g>
							<g>
								<g>
									<path class="st5" d="M800.1,66.8c0,0.1,0,0.3,0,0.4l-1.3,4.3c-0.2,0.5-0.7,0.8-1.2,0.6c-0.5-0.2-0.8-0.7-0.6-1.2l1.3-4.3
										c0.2-0.5,0.7-0.8,1.2-0.6C799.8,66.1,800,66.4,800.1,66.8z"/>
								</g>
							</g>
							<g>
								<g>
									<path class="st5" d="M805.6,68.5c0,0.1,0,0.3,0,0.4l-1.3,4.3c-0.2,0.5-0.7,0.8-1.2,0.6c-0.5-0.2-0.8-0.7-0.6-1.2l1.3-4.3
										c0.2-0.5,0.7-0.8,1.2-0.6C805.3,67.8,805.5,68.1,805.6,68.5z"/>
								</g>
							</g>
							<g>
								<g>
									<path class="st5" d="M816.6,71.9c0,0.1,0,0.3,0,0.4l-1.3,4.3c-0.2,0.5-0.7,0.8-1.2,0.6c-0.5-0.2-0.8-0.7-0.6-1.2l1.3-4.3
										c0.2-0.5,0.7-0.8,1.2-0.6C816.3,71.3,816.6,71.6,816.6,71.9z"/>
								</g>
							</g>
							<g>
								<g>
									<path class="st5" d="M822.1,73.6c0,0.1,0,0.3,0,0.4l-1.3,4.3c-0.2,0.5-0.7,0.8-1.2,0.6c-0.5-0.2-0.8-0.7-0.6-1.2l1.3-4.3
										c0.2-0.5,0.7-0.8,1.2-0.6C821.8,73,822.1,73.3,822.1,73.6z"/>
								</g>
							</g>
							<g>
								<g>
									<path class="st5" d="M833.1,77.1c0,0.1,0,0.3,0,0.4l-1.3,4.3c-0.2,0.5-0.7,0.8-1.2,0.6c-0.5-0.2-0.8-0.7-0.6-1.2l1.3-4.3
										c0.2-0.5,0.7-0.8,1.2-0.6C832.8,76.5,833.1,76.8,833.1,77.1z"/>
								</g>
							</g>
							<g>
								<g>
									<path class="st5" d="M838.6,78.8c0,0.1,0,0.3,0,0.4l-1.3,4.3c-0.2,0.5-0.7,0.8-1.2,0.6c-0.5-0.2-0.8-0.7-0.6-1.2l1.3-4.3
										c0.2-0.5,0.7-0.8,1.2-0.6C838.4,78.2,838.6,78.5,838.6,78.8z"/>
								</g>
							</g>
						</g>
						<g>
							<g>
								<g>
									<g>
										<path class="st5" d="M285,75c-0.2,0-0.5-0.1-0.7-0.3l-3.8-3.9c-0.4-0.4-0.4-0.9,0-1.3s0.9-0.4,1.3,0l3.8,3.9
											c0.4,0.4,0.4,0.9,0,1.3C285.5,74.9,285.3,75,285,75z"/>
									</g>
								</g>
								<g>
									<g>
										<path class="st5" d="M272.7,87.1c-0.2,0-0.5-0.1-0.7-0.3l-3.8-3.9c-0.4-0.4-0.4-0.9,0-1.3s0.9-0.4,1.3,0l3.8,3.9
											c0.4,0.4,0.4,0.9,0,1.3C273.2,87,272.9,87.1,272.7,87.1z"/>
									</g>
								</g>
								<g>
									<g>
										<path class="st5" d="M260.4,99.2c-0.2,0-0.5-0.1-0.7-0.3l-3.8-3.9c-0.4-0.4-0.4-0.9,0-1.3c0.4-0.4,0.9-0.4,1.3,0l3.8,3.9
											c0.4,0.4,0.4,0.9,0,1.3C260.9,99.1,260.6,99.2,260.4,99.2z"/>
									</g>
								</g>
								<g>
									<g>
										<path class="st5" d="M293.3,66.9c-0.2,0-0.5-0.1-0.7-0.3l-1.9-1.9c-0.4-0.4-0.4-0.9,0-1.3c0.4-0.4,0.9-0.3,1.3,0l1.9,1.9
											c0.4,0.4,0.4,0.9,0,1.3C293.7,66.8,293.5,66.9,293.3,66.9z"/>
									</g>
								</g>
								<g>
									<g>
										<path class="st5" d="M289.2,70.9c-0.2,0-0.5-0.1-0.7-0.3l-1.9-1.9c-0.4-0.4-0.4-0.9,0-1.3s0.9-0.3,1.3,0l1.9,1.9
											c0.4,0.4,0.4,0.9,0,1.3C289.6,70.8,289.4,70.9,289.2,70.9z"/>
									</g>
								</g>
								<g>
									<g>
										<path class="st5" d="M280.9,79c-0.2,0-0.5-0.1-0.7-0.3l-1.9-1.9c-0.4-0.4-0.4-0.9,0-1.3s0.9-0.4,1.3,0l1.9,1.9
											c0.4,0.4,0.4,0.9,0,1.3C281.4,78.9,281.2,79,280.9,79z"/>
									</g>
								</g>
								<g>
									<g>
										<path class="st5" d="M276.8,83.1c-0.2,0-0.5-0.1-0.7-0.3l-1.9-1.9c-0.4-0.4-0.4-0.9,0-1.3s0.9-0.4,1.3,0l1.9,1.9
											c0.4,0.4,0.4,0.9,0,1.3C277.3,83,277,83.1,276.8,83.1z"/>
									</g>
								</g>
								<g>
									<g>
										<path class="st5" d="M268.6,91.1c-0.2,0-0.5-0.1-0.7-0.3l-1.9-1.9c-0.4-0.4-0.4-0.9,0-1.3s0.9-0.4,1.3,0l1.9,1.9
											c0.4,0.4,0.4,0.9,0,1.3C269.1,91.1,268.8,91.1,268.6,91.1z"/>
									</g>
								</g>
								<g>
									<g>
										<path class="st5" d="M256.1,103.5c-0.2,0-0.5-0.1-0.7-0.3l-1.9-1.9c-0.4-0.4-0.4-0.9,0-1.3s0.9-0.4,1.3,0l1.9,1.9
											c0.4,0.4,0.4,0.9,0,1.3C256.5,103.4,256.3,103.5,256.1,103.5z"/>
									</g>
								</g>
								<g>
									<g>
										<path class="st5" d="M264.5,95.2c-0.2,0-0.5-0.1-0.7-0.3l-1.9-1.9c-0.4-0.4-0.4-0.9,0-1.3s0.9-0.4,1.3,0l1.9,1.9
											c0.4,0.4,0.4,0.9,0,1.3C264.9,95.1,264.7,95.2,264.5,95.2z"/>
									</g>
								</g>
							</g>
							<g>
								<g>
									<path class="st5" d="M250.6,108.9L250.6,108.9c-0.3,0-0.5-0.1-0.7-0.3l-28-28.5c-0.2-0.2-0.3-0.6-0.2-0.9s0.3-0.6,0.6-0.7
										l81.2-23.8c0.4-0.1,0.8,0.1,1.1,0.4c0.2,0.4,0.2,0.8-0.1,1.1l-53.2,52.3C251,108.8,250.8,108.9,250.6,108.9z M224.3,79.9
										l26.3,26.8l49.9-49.1L224.3,79.9z"/>
								</g>
							</g>
							<g>
								<g>
									<path class="st5" d="M250.7,93.5c-0.2,0-0.5-0.1-0.7-0.3l-7.7-7.8c-0.2-0.2-0.3-0.6-0.2-0.9s0.3-0.6,0.6-0.7l22.2-6.5
										c0.4-0.1,0.8,0.1,1.1,0.4c0.2,0.4,0.2,0.8-0.1,1.1l-14.5,14.3C251.2,93.4,250.9,93.5,250.7,93.5z M244.8,85.2l6,6l11.2-11
										L244.8,85.2z"/>
								</g>
							</g>
						</g>
					</g>
					<g>
						<g>
							<g>
								<g>
									<path class="st5" d="M26.2,85.7c0.1,0,0.3,0.1,0.4,0.2l13.8,11.7c0.4,0.3,0.4,0.9,0.1,1.3l-48.3,56.8
										c-0.3,0.4-0.9,0.4-1.3,0.1l-13.8-11.7c-0.2-0.2-0.3-0.4-0.3-0.6c0-0.2,0.1-0.5,0.2-0.7L25.3,86c0.2-0.2,0.4-0.3,0.6-0.3
										C26,85.7,26.1,85.7,26.2,85.7z M38.5,98.4L26.1,87.9L-21,143.3l12.4,10.5L38.5,98.4z"/>
								</g>
							</g>
							<g>
								<g>
									<path class="st5" d="M-16.3,135.7c0.1,0,0.3,0.1,0.4,0.2l6.9,5.9c0.4,0.3,0.4,0.9,0.1,1.3c-0.3,0.4-0.9,0.4-1.3,0.1
										l-6.9-5.9c-0.4-0.3-0.4-0.9-0.1-1.3C-17,135.7-16.6,135.6-16.3,135.7z"/>
								</g>
							</g>
							<g>
								<g>
									<path class="st5" d="M-5.1,122.5c0.1,0,0.3,0.1,0.4,0.2l6.9,5.9c0.4,0.3,0.4,0.9,0.1,1.3C2,130.3,1.4,130.3,1,130l-6.9-5.9
										c-0.4-0.3-0.4-0.9-0.1-1.3C-5.8,122.6-5.4,122.5-5.1,122.5z"/>
								</g>
							</g>
							<g>
								<g>
									<path class="st5" d="M6.1,109.4c0.1,0,0.3,0.1,0.4,0.2l6.9,5.9c0.4,0.3,0.4,0.9,0.1,1.3c-0.3,0.4-0.9,0.4-1.3,0.1L5.3,111
										c-0.4-0.3-0.4-0.9-0.1-1.3C5.4,109.4,5.8,109.3,6.1,109.4z"/>
								</g>
							</g>
							<g>
								<g>
									<path class="st5" d="M17.3,96.2c0.1,0,0.3,0.1,0.4,0.2l6.9,5.9c0.4,0.3,0.4,0.9,0.1,1.3s-0.9,0.4-1.3,0.1l-6.9-5.9
										c-0.4-0.3-0.4-0.9-0.1-1.3C16.6,96.2,17,96.1,17.3,96.2z"/>
								</g>
							</g>
							<g>
								<g>
									<path class="st5" d="M-12.6,131.4c0.1,0,0.3,0.1,0.4,0.2l3.4,2.9c0.4,0.3,0.4,0.9,0.1,1.3c-0.3,0.4-0.9,0.4-1.3,0.1
										l-3.4-2.9c-0.4-0.3-0.4-0.9-0.1-1.3C-13.3,131.4-12.9,131.3-12.6,131.4z"/>
								</g>
							</g>
							<g>
								<g>
									<path class="st5" d="M-8.8,126.9c0.1,0,0.3,0.1,0.4,0.2L-5,130c0.4,0.3,0.4,0.9,0.1,1.3c-0.3,0.4-0.9,0.4-1.3,0.1l-3.4-2.9
										c-0.4-0.3-0.4-0.9-0.1-1.3C-9.5,127-9.2,126.9-8.8,126.9z"/>
								</g>
							</g>
							<g>
								<g>
									<path class="st5" d="M-1.4,118.2c0.1,0,0.3,0.1,0.4,0.2l3.4,2.9c0.4,0.3,0.4,0.9,0.1,1.3s-0.9,0.4-1.3,0.1l-3.4-2.9
										c-0.4-0.3-0.4-0.9-0.1-1.3C-2.1,118.2-1.7,118.1-1.4,118.2z"/>
								</g>
							</g>
							<g>
								<g>
									<path class="st5" d="M2.4,113.8c0.1,0,0.3,0.1,0.4,0.2l3.4,2.9c0.4,0.3,0.4,0.9,0.1,1.3s-0.9,0.4-1.3,0.1l-3.4-2.9
										c-0.4-0.3-0.4-0.9-0.1-1.3C1.7,113.8,2,113.7,2.4,113.8z"/>
								</g>
							</g>
							<g>
								<g>
									<path class="st5" d="M9.8,105c0.1,0,0.3,0.1,0.4,0.2l3.4,2.9c0.4,0.3,0.4,0.9,0.1,1.3c-0.3,0.4-0.9,0.4-1.3,0.1L9,106.6
										c-0.4-0.3-0.4-0.9-0.1-1.3C9.2,105,9.5,104.9,9.8,105z"/>
								</g>
							</g>
							<g>
								<g>
									<path class="st5" d="M13.6,100.6c0.1,0,0.3,0.1,0.4,0.2l3.4,2.9c0.4,0.3,0.4,0.9,0.1,1.3s-0.9,0.4-1.3,0.1l-3.4-2.9
										c-0.4-0.3-0.4-0.9-0.1-1.3C12.9,100.6,13.3,100.5,13.6,100.6z"/>
								</g>
							</g>
						</g>
						<g>
							<g>
								<g>
									<g>
										<path class="st5" d="M46.8,123.1c0.2,0.1,0.4,0.2,0.6,0.4l2.7,4.7c0.3,0.4,0.1,1-0.3,1.3c-0.4,0.3-1,0.1-1.3-0.3l-2.7-4.7
											c-0.3-0.4-0.1-1,0.3-1.3C46.4,123.1,46.6,123,46.8,123.1z"/>
									</g>
								</g>
								<g>
									<g>
										<path class="st5" d="M61.8,114.4c0.2,0.1,0.4,0.2,0.6,0.4l2.7,4.7c0.3,0.4,0.1,1-0.3,1.3s-1,0.1-1.3-0.3l-2.7-4.7
											c-0.3-0.4-0.1-1,0.3-1.3C61.3,114.4,61.6,114.4,61.8,114.4z"/>
									</g>
								</g>
								<g>
									<g>
										<path class="st5" d="M76.7,105.8c0.2,0.1,0.4,0.2,0.6,0.4l2.7,4.7c0.3,0.4,0.1,1-0.3,1.3s-1,0.1-1.3-0.3l-2.7-4.7
											c-0.3-0.4-0.1-1,0.3-1.3C76.3,105.7,76.5,105.7,76.7,105.8z"/>
									</g>
								</g>
								<g>
									<g>
										<path class="st5" d="M36.8,128.9c0.2,0.1,0.4,0.2,0.6,0.4l1.4,2.3c0.3,0.4,0.1,1-0.3,1.3c-0.4,0.3-1,0.1-1.3-0.3l-1.4-2.3
											c-0.3-0.4-0.1-1,0.3-1.3C36.4,128.9,36.6,128.8,36.8,128.9z"/>
									</g>
								</g>
								<g>
									<g>
										<path class="st5" d="M41.8,126c0.2,0.1,0.4,0.2,0.6,0.4l1.4,2.3c0.3,0.4,0.1,1-0.3,1.3c-0.4,0.3-1,0.1-1.3-0.3l-1.4-2.3
											c-0.3-0.4-0.1-1,0.3-1.3C41.4,126,41.6,125.9,41.8,126z"/>
									</g>
								</g>
								<g>
									<g>
										<path class="st5" d="M51.8,120.2c0.2,0.1,0.4,0.2,0.6,0.4l1.4,2.3c0.3,0.4,0.1,1-0.3,1.3c-0.4,0.3-1,0.1-1.3-0.3l-1.4-2.3
											c-0.3-0.4-0.1-1,0.3-1.3C51.3,120.2,51.6,120.2,51.8,120.2z"/>
									</g>
								</g>
								<g>
									<g>
										<path class="st5" d="M56.8,117.3c0.2,0.1,0.4,0.2,0.6,0.4l1.4,2.3c0.3,0.4,0.1,1-0.3,1.3c-0.4,0.3-1,0.1-1.3-0.3l-1.4-2.3
											c-0.3-0.4-0.1-1,0.3-1.3C56.3,117.3,56.6,117.3,56.8,117.3z"/>
									</g>
								</g>
								<g>
									<g>
										<path class="st5" d="M66.8,111.5c0.2,0.1,0.4,0.2,0.6,0.4l1.4,2.3c0.3,0.4,0.1,1-0.3,1.3s-1,0.1-1.3-0.3l-1.4-2.3
											c-0.3-0.4-0.1-1,0.3-1.3C66.3,111.5,66.6,111.5,66.8,111.5z"/>
									</g>
								</g>
								<g>
									<g>
										<path class="st5" d="M82,102.7c0.2,0.1,0.4,0.2,0.6,0.4l1.4,2.3c0.3,0.4,0.1,1-0.3,1.3s-1,0.1-1.3-0.3l-1.4-2.3
											c-0.3-0.4-0.1-1,0.3-1.3C81.5,102.7,81.8,102.7,82,102.7z"/>
									</g>
								</g>
								<g>
									<g>
										<path class="st5" d="M71.8,108.6c0.2,0.1,0.4,0.2,0.6,0.4l1.4,2.3c0.3,0.4,0.1,1-0.3,1.3s-1,0.1-1.3-0.3l-1.4-2.3
											c-0.3-0.4-0.1-1,0.3-1.3C71.3,108.6,71.6,108.6,71.8,108.6z"/>
									</g>
								</g>
							</g>
							<g>
								<g>
									<path class="st5" d="M88.7,98.9L88.7,98.9c0.2,0.1,0.4,0.2,0.6,0.4l20,34.6c0.2,0.3,0.2,0.6,0,0.9
										c-0.2,0.3-0.5,0.5-0.8,0.5L24,138c-0.4,0-0.8-0.3-0.9-0.7s0.1-0.8,0.4-1L88,99C88.2,98.8,88.4,98.8,88.7,98.9z
										 M106.9,133.5L88.1,101l-60.6,35.1L106.9,133.5z"/>
								</g>
							</g>
							<g>
								<g>
									<path class="st5" d="M84.7,113.7c0.2,0.1,0.4,0.2,0.6,0.4l5.5,9.5c0.2,0.3,0.2,0.6,0,0.9S90.3,125,90,125l-23.1,0.8
										c-0.4,0-0.8-0.3-0.9-0.7c-0.1-0.4,0.1-0.8,0.4-1L84,113.8C84.2,113.7,84.5,113.7,84.7,113.7z M88.4,123.2l-4.3-7.3
										l-13.7,7.9L88.4,123.2z"/>
								</g>
							</g>
						</g>
					</g>
				</g>
			</g>
			<g>
				<defs>
					<rect id="SVGID_9_" x="-363.1" y="0.5" width="1526.2" height="799.1"/>
				</defs>
				<clipPath id="SVGID_10_">
					<use xlink:href="#SVGID_9_"  style="overflow:visible;"/>
				</clipPath>
				<rect x="-942.3" y="595.6" class="st6" width="2151.3" height="251.6"/>
			</g>
			<g>
				<defs>
					<rect id="SVGID_11_" x="-363.1" y="0.5" width="1526.2" height="799.1"/>
				</defs>
				<clipPath id="SVGID_12_">
					<use xlink:href="#SVGID_11_"  style="overflow:visible;"/>
				</clipPath>
				<g class="st7">
					<path class="st8" d="M1214.7,594.7H-945.4v32.8c288.1,0.1,1558.7,72.7,2004.1,214.3h156V594.7z"/>
				</g>
			</g>
			<g>
				<defs>
					<rect id="SVGID_13_" x="-363.1" y="0.5" width="1526.2" height="799.1"/>
				</defs>
				<clipPath id="SVGID_14_">
					<use xlink:href="#SVGID_13_"  style="overflow:visible;"/>
				</clipPath>
				<g class="st9">
					<rect x="-19.4" y="64.9" class="st10" width="902.6" height="476.1"/>
					<g>
						<g>
							<rect x="-26.2" y="61.3" class="st11" width="897" height="465.1"/>
							<polygon class="st12" points="-26.2,61.3 -7.2,80.3 851.1,80.3 870.7,61.3 870.7,526.3 850.4,505.2 -3.9,505.2 -26.3,526.3 
															"/>
							<rect x="-7.2" y="80.3" class="st13" width="857.6" height="424.9"/>
						</g>
						<g>
							<rect x="35.5" y="488.4" class="st14" width="114.7" height="16.8"/>
							<rect x="33" y="484" class="st15" width="118.9" height="4.4"/>
						</g>
						<line class="st16" x1="74.5" y1="160.4" x2="439.3" y2="160.4"/>
						<line class="st16" x1="74.5" y1="240.2" x2="303.2" y2="240.2"/>
						<line class="st16" x1="74.5" y1="356.3" x2="303.2" y2="356.3"/>
						<line class="st16" x1="78.6" y1="425.1" x2="307.3" y2="425.1"/>
						<line class="st16" x1="74.5" y1="293.8" x2="364" y2="293.8"/>
						<line class="st16" x1="516.2" y1="118.9" x2="516.2" y2="429.4"/>
					</g>
				</g>
			</g>
			<g>
				<defs>
					<rect id="SVGID_15_" x="-363.1" y="0.5" width="1526.2" height="799.1"/>
				</defs>
				<clipPath id="SVGID_16_">
					<use xlink:href="#SVGID_15_"  style="overflow:visible;"/>
				</clipPath>
				<path class="st17" d="M595.8,588.9l75,131.9L562.7,647L548.8,604c0,0,22.5-1.9,28.9-5.4C582.6,596,595.8,588.9,595.8,588.9z"/>
				<g class="st18">
					<path class="st19" d="M279.3,236.3c-10.2,21-9.5,45.2-13.6,68.1c-12.5,68.3-67.5,119.9-109.9,175.4
						c-8.4,11-16.6,22.8-19.7,36.3c-3,13.5,0.3,29.2,11.5,37.6c-1.2-11.9,5.2-23.5,14-31.7c8.8-8.2,19.9-13.6,30.8-18.9
						c-11.9,12.7-21.8,28.5-22,45.8c-0.2,27.5,23.7,48.9,46.7,64.7c51.6,35.3,112.9,62.8,175.5,56.3c39.2-4.1,75.8-21.2,109.5-41.2
						c37.5-22.2,49.4-66,58.8-105.8c16.3-69,14.5-140,13.3-210.3c-0.4-24.3-13.2-40.9-25.2-62.8c-17.4-31.9-53.5-50.8-89.9-56.5
						c-36.4-5.8-73.6-0.3-110,5.7C324,203.1,290.2,213.8,279.3,236.3z"/>
					<path class="st20" d="M376.7,482.1l-4.8,45.5c0,0,2,22.7,46.2,27.1s49.5-34.1,49.5-34.1l-7.2-78.7
						C434.3,471.6,398.6,479.9,376.7,482.1z"/>
					<path class="st20" d="M314.4,500.2c0.6-2.5,70.2-24.6,70.2-24.6l77.1-3.7l56.4,29.5c0,0-3.1,76.2-134.7,65.2
						C332,562.3,314.4,500.2,314.4,500.2z"/>
					<path class="st21" d="M460.4,444.3l-0.6-21.5c0,0-24.4,5.5-41.4,5.5c-13.2,0-33.8-1.8-33.8-1.8l-7.9,65.3
						C398.6,489.2,434.3,479.3,460.4,444.3z"/>
					<path class="st22" d="M349.4,483.3c0,0,10.8-1.7,27.3-3.2c12.6-1.1,29,23.4,46,23.4s34.4-24.7,51.3-21.9
						c12.9,2.1,25.2,5.3,35.7,10c0,0,22.3,5.5,22.3,63.3S523,849.4,523,849.4l-209.2-2.8l-8.9-306.9
						C304.9,539.7,304.9,487.4,349.4,483.3z"/>
					<path class="st23" d="M381.9,467.9l38.8,34.1l-21.8,41.8c0,0-37.6-29.1-35.7-68.1c21.1-34.4,20.1-22.8,20.1-22.8L381.9,467.9z"
						/>
					<path class="st23" d="M461.9,467.9L420.7,502l24.3,41.8c0,0,37.6-29.1,35.7-68.1c-21.1-34.4-20.1-22.8-20.1-22.8L461.9,467.9z"
						/>
					<ellipse class="st21" cx="272.5" cy="311.6" rx="41.4" ry="40.6"/>
					<ellipse class="st21" cx="544.4" cy="311.6" rx="41.4" ry="40.6"/>
					<path class="st20" d="M267.5,272.9c-1.3,21.6-0.4,28,2.1,49.5c4.8,42.6,25.6,79.6,64.9,100.2c39.5,20.7,93.3,28,135.3,11
						c32.6-13.2,57.7-36.6,70.6-68.2c14.7-36,14.8-82.1,12.9-120.9c-7.3-144-126.9-141.9-126.9-141.9S266.9,90.6,267.5,272.9z"/>
					<path class="st24" d="M357.3,309.4c0,8.1-4.4,14.7-9.9,14.7c-5.5,0-9.9-6.6-9.9-14.7c0-8.1,4.4-14.7,9.9-14.7
						C352.8,294.7,357.3,301.3,357.3,309.4z"/>
					<path class="st24" d="M487.8,309.4c0,8.1-4.4,14.7-9.9,14.7c-5.5,0-9.9-6.6-9.9-14.7c0-8.1,4.4-14.7,9.9-14.7
						C483.3,294.7,487.8,301.3,487.8,309.4z"/>
					<path class="st24" d="M411.7,311.6c-3,1.6-6,3.2-8.8,5c-1.4,0.9-2.7,1.8-3.8,2.9c-1.1,1-2.1,2.2-2.1,3.3c-0.1,1,0.6,2,1.8,3
						c1.1,1,2.4,1.8,3.8,2.2c2.9,0.8,6.2-0.2,9.1-2c-2.1,2.6-5.6,4.7-9.5,4.1c-1.9-0.2-3.7-1.2-5.1-2.3c-1.4-1-3.1-2.9-2.9-5.3
						c0.3-2.4,1.8-3.8,3.2-5c1.4-1.1,2.9-2,4.5-2.8C405,313.2,408.3,312.1,411.7,311.6z"/>
					<ellipse class="st21" cx="502" cy="349.2" rx="22.8" ry="16.3"/>
					<ellipse class="st21" cx="320" cy="344.6" rx="22.8" ry="16.3"/>
					<g>
						<path class="st25" d="M465.5,270.4c8.9-1.5,17.8-1.1,26.6,1c2.7,0.6,3.8-3.4,1.1-4c-9.6-2.3-19.1-2.6-28.8-1
							C461.7,266.8,462.8,270.8,465.5,270.4L465.5,270.4z"/>
					</g>
					<g>
						<path class="st25" d="M330.9,273.4c8.8-2.1,17.6-2.5,26.6-1c2.7,0.4,3.8-3.6,1.1-4c-9.7-1.6-19.3-1.3-28.8,1
							C327.1,270,328.2,274,330.9,273.4L330.9,273.4z"/>
					</g>
					<g>
						<path class="st19" d="M317.2,269.8c87-18.6,104.2-103.4,143.1-113.5c-9.8,16.8,20.6,119,101.4,119c-0.1-9.4-0.4-18.6-0.9-27.5
							C553.1,96.1,427.1,98.3,427.1,98.3S262,85.9,259.8,272.8C274,275.2,292.7,275,317.2,269.8z"/>
						<path class="st19" d="M432.8,108.6c0,0-11.9-41.5,0-43.5c11.9-2,7.2,34.1,7.2,34.1s7.8-23,19.2-16.9S447.8,108.5,432.8,108.6z
							"/>
					</g>
					<path class="st26" d="M342.4,485.6c0,0-53.8-4.1-76.1,52L229,674c0,0,19.9,31.7,74.5,34.1L342.4,485.6z"/>
					<path class="st26" d="M489.7,485.6c0,0,53.8-4.1,76.1,52l57,97.1c0,0-11,25.1-65.7,27.5L489.7,485.6z"/>
					<path class="st23" d="M351.2,677.9c0,0,113.1,4.4,144.8-6.7C496,671.3,468.8,711.2,351.2,677.9z"/>
					<polygon class="st23" points="519.5,259.9 550.5,218.8 556.7,230.7 527,264.8 					"/>
					<polygon class="st23" points="507.1,247.7 538.1,206.6 544.3,218.5 514.5,252.6 					"/>
				</g>
				<polygon class="st17" points="224.9,591.5 136.7,728.8 203.5,706.7 250.9,615.3 				"/>
				<g class="st18">
					<path id="XMLID_832_" class="st27" d="M225.2,534.9c-2.6-3.3-11.5-37.3-11.5-37.3l24.5-4.1c0,0,75.5,7.7,108.4,22.7
						c32.9,15,47.8,28.2,47.8,28.2c34.2-19.5,106.2-54.3,162.8-45l30.1,4.9l-27.9,50.3L395.7,592L225.2,534.9z"/>
					<path id="XMLID_815_" class="st28" d="M227.7,524.3c-2.9-3.3-18.3-24.2-18.3-24.2l4.3-2.4L390.5,558l196.7-53.7l3.9,3
						L574,541.1L392.9,580L227.7,524.3z"/>
					<polygon id="XMLID_814_" class="st29" points="389,562.7 209.5,500 252.4,790.6 410.3,846.7 					"/>
					<path id="XMLID_813_" class="st30" d="M591.1,800.3c-8.8,0-180.8,46.4-180.8,46.4l-21.4-284.1l202.3-55.2V800.3z"/>
				</g>
				<path class="st31" d="M147.9,754c25,17.3,108.5-54.4,108.5-54.4l39.2-19.7c0,0,105.8-32.6,76.8-71.1
					c-28.9-38.5-83.4,15.3-83.4,15.3s32.3-35,17.6-47.6C292,564,278.3,595,243.4,636.9c-4.9,5.9-17.5,15.9-35.9,27.3
					C197.2,670.6,110.3,727.9,147.9,754z"/>
				<path class="st31" d="M669.6,756.1c-25,17.3-108.5-54.4-108.5-54.4L521.9,682c0,0-105.8-32.6-76.8-71.1s83.4,15.3,83.4,15.3
					s-32.3-35-17.6-47.6c14.7-12.5,28.4,18.4,63.3,60.3c4.9,5.9,17.5,15.9,35.9,27.3C620.4,672.7,707.3,730,669.6,756.1z"/>
				<g class="st18">
					<polygon class="st32" points="544.9,693.5 574.8,648.5 591.3,662.5 561.1,701.6 					"/>
					<path class="st32" d="M608,653.8c0,0-9,15-21.9,6c-26.6-18.4-8-29.6-8-29.6L608,653.8z"/>
					<path class="st33" d="M578.1,630.1c0,0,1.9,21.1,29.9,23.7C608,653.8,600.2,633.6,578.1,630.1z"/>
				</g>
				<path class="st34" d="M375.2,349.8c0,0,19.8,17.5,73,1.9c0,0,3,31.8-35.8,31.8C373.1,383.5,375.2,349.8,375.2,349.8z"/>
			</g>
		</g>
	</g>
</g>
</svg>
