<?xml version="1.0" encoding="UTF-8"?>
<svg xmlns="http://www.w3.org/2000/svg" viewBox="0 0 200 200">
  <defs>
    <style>
      .cls-1 {
        fill: #93d1f4;
      }

      .cls-1, .cls-2, .cls-3, .cls-4, .cls-5, .cls-6, .cls-7, .cls-8, .cls-9, .cls-10, .cls-11, .cls-12, .cls-13, .cls-14, .cls-15, .cls-16, .cls-17, .cls-18, .cls-19 {
        stroke-width: 0px;
      }

      .cls-2, .cls-4 {
        fill: #7abcdc;
      }

      .cls-2, .cls-4, .cls-9, .cls-10 {
        mix-blend-mode: multiply;
      }

      .cls-2, .cls-17 {
        opacity: .4;
      }

      .cls-3 {
        fill: #4db167;
        opacity: .3;
      }

      .cls-3, .cls-17, .cls-19 {
        mix-blend-mode: screen;
      }

      .cls-5 {
        opacity: .5;
      }

      .cls-5, .cls-12 {
        fill: #7a4720;
      }

      .cls-6 {
        fill: #5a8835;
      }

      .cls-20 {
        isolation: isolate;
      }

      .cls-7 {
        fill: #92c83e;
      }

      .cls-8 {
        fill: #98672b;
      }

      .cls-9, .cls-11 {
        fill: #8bb13e;
      }

      .cls-10 {
        fill: #588f45;
        opacity: .61;
      }

      .cls-13 {
        fill: #bad532;
      }

      .cls-14 {
        fill: #97592c;
      }

      .cls-15 {
        fill: #79b048;
      }

      .cls-16 {
        fill: #79b829;
      }

      .cls-17 {
        fill: #c47162;
      }

      .cls-18, .cls-19 {
        fill: #a1bd38;
      }
    </style>
  </defs>
  <g class="cls-20">
    <g id="Capa_1" data-name="Capa 1">
      <g>
        <path class="cls-6" d="M96.47,90.15c2.33,1.36,4.28,3.14,6.03,5.19,1,1.18,1.92,2.42,2.81,3.68-.41-1.53-1.13-3-1.78-4.42-1-2.17-1.95-4.45-3.67-6.17-.65-.65-1.4-1.23-1.71-2.08.47.09.94.2,1.4.33,2.41.71,4.71,2.01,6.54,3.73,1.17,1.1,2.14,2.38,3.1,3.66.71,1.07,1.34,2.17,1.86,3.33.36.8.65,1.62.88,2.46.02-1.33-.06-2.67-.17-3.99-.21-2.46-.45-5-1.33-7.32-.39-1.01-1.07-1.95-1.32-3.01.65.26,1.27.6,1.85.98,2,1.3,3.66,3.13,4.99,5.12,0,0,0,0,0,0,1.51,2.93,2.62,6.08,2.54,9.41-.03,1.19-.2,2.36-.48,3.51,1.2-1.43,2.09-3.15,3.01-4.74.72-1.25,1.46-2.48,2.16-3.74.78-1.42,1.55-2.84,2.42-4.21.05.19.1.38.14.58.4,1.99.25,4.08-.23,6.04-.01.06-.03.12-.05.18-.25.59-.51,1.18-.78,1.77-.7,1.54-1.72,2.9-2.78,4.21-.92,1.14-1.86,2.27-2.6,3.52.95-.66,1.78-1.56,2.74-2.18,1.55-1,3.19-1.95,4.97-2.48,2.95-.87,6.27-.15,8.9,1.34.5.46.98.95,1.43,1.46.64.73,1.24,1.52,1.69,2.39.04.07.08.15.11.22-.05-.02-.11-.04-.17-.09-1.75-1.43-3.82-2.47-6.1-2.65-2.1-.17-4.19.39-6.06,1.33-.3.15-.59.31-.88.48,1.73-.16,3.55.15,5.1.64,1.44.46,2.76,1.19,3.85,2.25,1.09,1.06,1.82,2.33,2.61,3.6.52.84,1.24,1.88,1.4,2.93-.44-.76-.95-1.48-1.49-2.18-.65-.85-1.44-1.6-2.35-2.17-.96-.61-2.05-1-3.16-1.22-1.68-.34-3.46-.27-5.08.3-1.64.58-3.01,1.61-4.18,2.86-1.83-1.9-4.27-3.06-6.76-3.87-2.85-.92-5.8-1.45-8.69-2.19-.67-.17-1.34-.35-2-.56-.64-.2-1.29-.4-1.85-.78-.02-.01-.04-.03-.06-.05.04-1.55-.18-3.11-.59-4.6-1.05-3.83-3.27-7.22-6.1-9.97-1.38-1.34-2.93-2.56-4.66-3.41-.32-.16-.65-.3-.98-.42,1.49-1.27,4.14.16,5.51.97Z"/>
        <path class="cls-15" d="M73.69,60.15c1.78,2.27,3.91,4.39,6.51,5.71,2.07,1.05,4.42,1.43,6.68,1.85,2.28.42,4.61.84,6.72,1.84.22.1.43.22.65.34-.65-1.52-1.17-3.11-2.07-4.51-1.36-2.09-2.98-4.02-4.76-5.75-3.19-3.1-7.04-5.52-11.44-6.46-2.17-.47-4.43-.53-6.56.11,1.19,2.43,2.6,4.76,4.27,6.88Z"/>
        <path class="cls-10" d="M92.18,65.38c-1.36-2.09-2.98-4.02-4.76-5.75-3.19-3.1-7.04-5.52-11.44-6.46-2.08-.45-4.24-.52-6.29.04.06,0,.13.02.19.03,1.26.23,2.47.78,3.63,1.31,1.32.6,2.62,1.24,3.86,2,2.59,1.61,4.91,3.6,7.25,5.54.4.33.81.66,1.19,1.02.36.34.74.73.95,1.19.15.34.17.73-.04,1.04-.2.3-.56.46-.9.55-.81.22-1.69.17-2.52.11-1.11-.08-2.21-.25-3.29-.55-.41-.12-.82-.26-1.22-.41.46.3.92.58,1.41.83,2.07,1.05,4.42,1.43,6.68,1.85,2.28.42,4.61.84,6.72,1.84.22.1.43.22.65.34-.65-1.52-1.17-3.11-2.07-4.51Z"/>
        <path class="cls-11" d="M115.36,94.34c-2.63.59-5.04,1.68-7.33,3.09-1.32.81-2.57,1.72-3.81,2.64.86-1.34,1.99-2.51,3.05-3.66,1.61-1.76,3.22-3.64,5.38-4.75.82-.42,1.71-.74,2.26-1.46-.48-.06-.96-.1-1.44-.11-2.51-.06-5.1.47-7.37,1.55-1.45.69-2.76,1.61-4.07,2.54-1,.8-1.94,1.66-2.79,2.6-.58.65-1.11,1.35-1.59,2.07.39-1.27.87-2.52,1.39-3.75.96-2.28,1.95-4.62,3.51-6.56.68-.84,1.61-1.53,2.18-2.46-.7.05-1.39.18-2.06.36-2.3.63-4.44,1.86-6.32,3.35,0,0,0,0,0,0-2.34,2.32-4.36,4.98-5.3,8.18-.34,1.14-.53,2.31-.62,3.49-.7-1.73-1.03-3.64-1.41-5.43-.3-1.41-.63-2.81-.91-4.22-.31-1.59-.61-3.18-1.02-4.75-.11.17-.21.33-.31.51-.99,1.77-1.49,3.8-1.63,5.82,0,.06,0,.12,0,.18.06.64.12,1.28.2,1.92.19,1.68.75,3.28,1.36,4.86.52,1.37,1.08,2.73,1.4,4.15-.71-.92-1.21-2.03-1.94-2.92-1.17-1.43-2.44-2.84-3.98-3.88-2.54-1.73-5.92-2.06-8.89-1.45-.62.28-1.23.6-1.81.95-.84.5-1.65,1.07-2.34,1.75-.06.06-.12.12-.17.18.06,0,.12,0,.18-.03,2.1-.83,4.39-1.18,6.62-.66,2.06.48,3.87,1.65,5.36,3.12.24.23.47.48.69.72-1.6-.68-3.43-.95-5.05-.95-1.51,0-2.99.29-4.35.96-1.36.67-2.44,1.66-3.59,2.63-.76.64-1.76,1.41-2.23,2.36.65-.59,1.36-1.12,2.08-1.62.88-.61,1.86-1.08,2.9-1.34,1.1-.28,2.26-.32,3.39-.2,1.7.19,3.38.8,4.74,1.84,1.39,1.05,2.37,2.46,3.1,4,2.32-1.25,5.01-1.61,7.62-1.61,2.99,0,5.96.4,8.94.58.69.04,1.38.07,2.07.08.67,0,1.35.02,1.99-.17.02,0,.05-.02.07-.03.43-1.49,1.12-2.9,1.97-4.2,2.18-3.32,5.32-5.87,8.86-7.62,1.73-.85,3.57-1.54,5.48-1.82.35-.05.71-.08,1.07-.1-1.03-1.66-3.99-1.11-5.54-.77Z"/>
        <path class="cls-13" d="M108.56,88.68c-.86-5.19-2.87-10.16-5.23-14.83-3.13-6.18-6.93-12.44-7.57-19.5-.26-2.88.07-5.92.93-8.68.79-2.54,2.15-5.08,4.22-6.74.51-.41,1.05-.78,1.63-1.08.35-.18.76-.56.64-1-.11-.41-.64-.46-.97-.3-.27.15-.54.3-.81.46-.06.04-.13.07-.19.11-3.6,2.11-6.69,4.93-8.62,8.71-1.23,2.41-2.02,5.05-2.32,7.73-.31,2.72-.07,5.48.48,8.16,1.13,5.44,3.48,10.54,5.59,15.65,2.05,4.96,4.16,10.27,3.96,15.73-.18,4.95-2.77,9.21-5.94,12.85-.05.06-.1.11-.15.17-.2-.01-.42.02-.59.1-.81.33-1.89,1.13-1.63,2.16.21.82,1.07,1.25,1.84,1.35.74.09,1.48-.07,2.22-.15.87-.09,1.72-.28,2.56-.55,2.91-.95,5.48-3.05,7.29-5.48,3.16-4.26,3.51-9.79,2.67-14.86Z"/>
        <path class="cls-18" d="M108.56,88.68c-.86-5.19-2.87-10.16-5.23-14.83-3.13-6.18-6.93-12.44-7.57-19.5-.26-2.88.07-5.92.93-8.68.79-2.54,2.15-5.08,4.22-6.74.51-.41,1.05-.78,1.63-1.08.35-.18.76-.56.64-1-.11-.41-.64-.46-.97-.3-.27.15-.54.3-.81.46-.06.04-.13.07-.19.11-3.6,2.11-6.69,4.93-8.62,8.71-1.23,2.41-2.02,5.05-2.32,7.73-.31,2.72-.07,5.48.48,8.16,1.13,5.44,3.48,10.54,5.59,15.65,2.05,4.96,4.16,10.27,3.96,15.73-.18,4.95-2.77,9.21-5.94,12.85-.05.06-.1.11-.15.17-.2-.01-.42.02-.59.1-.81.33-1.89,1.13-1.63,2.16.21.82,1.07,1.25,1.84,1.35.74.09,1.48-.07,2.22-.15.87-.09,1.72-.28,2.56-.55,2.91-.95,5.48-3.05,7.29-5.48,3.16-4.26,3.51-9.79,2.67-14.86Z"/>
        <path class="cls-19" d="M96.33,77.37c2.05,4.96,4.16,10.27,3.96,15.73-.16,4.28-2.12,8.05-4.69,11.34.26-.16.52-.33.75-.5,1.41-1.01,2.71-2.3,3.66-3.76,2.83-4.39,2.08-10.2.63-14.93-1.52-4.94-4.04-9.48-6.12-14.2-1.08-2.45-2.03-4.95-2.67-7.56-.62-2.55-.97-5.17-.96-7.79,0-3.46.65-6.86,1.8-10.1-.04.07-.08.14-.11.21-1.23,2.41-2.02,5.05-2.32,7.73-.31,2.72-.07,5.48.48,8.16,1.13,5.44,3.48,10.54,5.59,15.65Z"/>
        <path class="cls-9" d="M108.56,88.68c-.86-5.19-2.87-10.16-5.23-14.83-3.13-6.18-6.93-12.44-7.57-19.5-.26-2.88.07-5.92.93-8.68.79-2.54,2.15-5.08,4.22-6.74.51-.41,1.05-.78,1.63-1.08.35-.18.76-.56.64-1-.11-.41-.64-.46-.97-.3-.27.15-.54.3-.81.46-.06.04-.13.07-.19.11-3.6,2.11-6.69,4.93-8.62,8.71-.78,1.54-1.39,3.17-1.8,4.84.17-.2.35-.4.55-.58.41-.35.96-.65,1.5-.43.62.25.92,1.03,1.06,1.63.43,1.94.4,3.97.53,5.95.27,4.14,1.71,8.07,3.28,11.88,1.47,3.59,3.68,6.81,5.37,10.3.85,1.75,1.54,3.56,2,5.46.47,1.96.78,3.97.88,5.99.19,3.88-.39,7.8-2.26,11.24-.73,1.35-1.65,2.68-2.73,3.78-.48.49-.99.94-1.51,1.39-.85.75-1.73,1.48-2.63,2.18.6-.1,1.19-.25,1.77-.44,2.91-.95,5.48-3.05,7.29-5.48,3.16-4.26,3.51-9.79,2.67-14.86Z"/>
        <path class="cls-15" d="M120.16,56.27c.58-2.28,1.7-5.42,4.24-6.13.21-.06.47-.19.5-.43.03-.21-.16-.41-.37-.43-4.44-.45-8.9,1.04-12.72,3.29-1.11.78-2.15,1.64-3.12,2.58-1.21,1.17-2.31,2.46-3.29,3.84-.99,1.4-1.86,2.89-2.58,4.45-.73,1.57-1.32,3.21-1.76,4.88-.45,1.71-.73,3.47-.86,5.23-.08,1.21-.08,2.43-.01,3.64,1.1.32,2.28.33,3.41.23,1.48-.13,2.95-.42,4.4-.77,2.31-.56,4.44-1.47,6.15-3.16,2.25-2.23,3.56-5.17,4.32-8.2.74-2.97.93-6.05,1.68-9.02Z"/>
        <path class="cls-10" d="M121.76,51.48c-1.33,1.1-2.46,2.45-3.43,3.87-1.09,1.59-1.96,3.33-2.91,5.01-1.06,1.88-2.16,3.75-3.48,5.47-.64.83-1.33,1.63-2.08,2.37-.57.56-1.18,1.09-1.78,1.61-.58.5-1.18,1-1.85,1.37-.56.31-1.27.61-1.91.4-1.48-.5-.7-2.77-.36-3.78.6-1.79,1.3-3.53,2.16-5.2,1.15-2.24,2.54-4.38,4.16-6.32-.06.07-.13.13-.19.2-2.34,2.52-4.26,5.47-5.67,8.61-1.51,3.37-2.37,6.97-3.25,10.55-.04.14-.25.17-.32.04-.4-.74-.52-1.6-.57-2.42,0-.09,0-.18,0-.27-.02.19-.04.39-.05.58-.08,1.21-.08,2.43-.01,3.64,1.1.32,2.28.33,3.41.23,1.48-.13,2.95-.42,4.4-.77,2.31-.56,4.44-1.47,6.15-3.16,2.25-2.23,3.56-5.17,4.32-8.2.74-2.97.93-6.05,1.68-9.02.58-2.28,1.7-5.42,4.24-6.13.17-.05.36-.14.45-.3-1.14.24-2.2.9-3.1,1.64Z"/>
        <path class="cls-15" d="M92.65,35.24c-.47,1.07-.95,2.37-1.32,3.74-.14,1.42-.12,2.86.18,4.25.48,2.27,1.76,4.39,3.82,5.56,2.04,1.15,4.53,1.22,6.79.86,1.19-.19,2.36-.5,3.5-.91,1.08-.38,2.14-.83,3.13-1.41,2.39-1.39,4.37-3.37,5.97-5.61,1.6-2.25,2.83-4.75,3.91-7.28.54-1.26,1.04-2.54,1.53-3.83.42-1.08.89-2.12,1.49-3.11,1.19-1.96,2.81-3.88,4.91-4.89.8-.38,1.67-.62,2.56-.63-.19-.18-.41-.36-.65-.54-1.19-.85-2.64-1.32-4.07-1.56-12.05-1.99-26.59,3.74-31.73,15.35Z"/>
        <path class="cls-10" d="M128.92,21.95c-2.04-.51-4.19.07-6.04.96-1.92.92-3.66,2.2-5.24,3.63-1.57,1.42-2.87,3.08-4.06,4.82-1.24,1.81-2.38,3.68-3.7,5.42-1.31,1.72-2.8,3.31-4.64,4.48-.89.57-1.85,1.05-2.83,1.43-1.01.39-2.1.7-3.19.68-.81-.01-1.82-.24-2.08-1.13-.23-.79.14-1.68.41-2.42.78-2.13,1.87-4.14,3.21-5.97,1.34-1.83,2.92-3.47,4.62-4.96,1.38-1.21,2.85-2.32,4.36-3.37-1.55.62-3.02,1.41-4.4,2.34-1.57,1.05-3.02,2.27-4.35,3.62-1.3,1.31-2.48,2.73-3.45,4.3-1.87,3.01-2.84,6.41-3.48,9.87-.02.13-.21.16-.29.08-.74-.75-1.18-1.76-1.49-2.76-.48-1.54-.72-3.18-.72-4.81-.08.27-.16.54-.24.82-.14,1.42-.12,2.86.18,4.25.48,2.27,1.76,4.39,3.82,5.56,2.04,1.15,4.53,1.22,6.79.86,1.19-.19,2.36-.5,3.5-.91,1.08-.38,2.14-.83,3.13-1.41,2.39-1.39,4.37-3.37,5.97-5.61,1.6-2.25,2.83-4.75,3.91-7.28.54-1.26,1.04-2.54,1.53-3.83.42-1.08.89-2.12,1.49-3.11,1.19-1.96,2.81-3.88,4.91-4.89.78-.38,1.63-.61,2.5-.63-.04-.01-.08-.02-.12-.03Z"/>
        <circle class="cls-1" cx="98.62" cy="142.73" r="37.78"/>
        <path class="cls-4" d="M101.32,121.19c2.56-1.4,5.47-2.11,8.07-3.43.04-.25.08-.51.12-.76.17-.92.41-1.83.83-2.68.38-.77.95-1.42,1.56-2.01.47-.45.97-.85,1.49-1.24,0-.11-.01-.22-.02-.33-.04-.35-.07-.77-.25-1.09-.16-.28-.57-.26-.85-.26-.8,0-1.58.1-2.38.08-1.21-.03-2.42-.03-3.62-.11-.57-.04-1.14-.09-1.71-.17-.59-.08-1.13-.23-1.71-.41-.55-.17-1.07-.26-1.62-.04-.45.18-.84.49-1.21.8-.65.54-1.32,1.24-2.18,1.42-.69.15-1.36-.07-1.95-.43-.7-.44-1.29-1.05-1.89-1.63-.8.56-1.59,1.15-2.36,1.75-.77.61-1.51,1.26-2.29,1.86-.17.13-.41.3-.65.5,1.18,1.34,2.19,2.81,3.19,4.28,1.65-.35,3.27-.88,4.94-1.17.22-.04.36.12.33.33-.16,1.1-.29,2.21-.4,3.32,1.52.48,3.04.96,4.56,1.41Z"/>
        <path class="cls-4" d="M97.69,173.52c1.25-.86,2.5-1.77,3.67-2.78-.22-.8-.49-1.59-.75-2.38-.38-1.12-.76-2.24-.99-3.4-.21-1.08-.19-2.11.03-3.2.44-2.22,1.4-4.32,1.76-6.55-1.82-.25-3.68.1-5.5.2-.89.05-1.8.05-2.68-.12-.83-.16-1.53-.64-2.17-1.19-.6-.52-1.18-1.06-1.85-1.49-.39-.26-.81-.5-1.29-.39-.62.14-1.19.51-1.77.76-.43.18-.86.36-1.29.53-1.16.47-2.35.94-3.6,1.11-.77.1-1.79.07-2.25-.67-.26-.42-.2-.9-.03-1.35.04-.37.17-.74.35-1.1.44-.93,1.08-1.77,1.72-2.57.61-.76,1.25-1.5,1.89-2.23-.18-.3-.33-.62-.47-.92-.41-.86-.73-1.76-1.08-2.64-.04-.1.03-.25.12-.3.53-.28,1.11-.55,1.57-.94.22-.18.36-.38.34-.65-.03-.33-.2-.67-.32-.98-.22-.57-.4-1.14-.54-1.73-.02-.11.01-.25.12-.3,3.12-1.37,6.17-2.89,9.27-4.31.3-2.64.52-5.42,1.39-7.95-1.08-1.09-2.25-2.09-3.58-2.86-.1-.06-.15-.19-.12-.3.43-1.65.59-3.39,1.05-5.04-1.95-.33-3.94.09-5.9-.13-1.53-.17-2.93-.86-4.36-1.41-1.05,1.57-2.11,3.14-3.32,4.6-.09.11-.28.09-.38,0-.7-.67-1.69-.76-2.54-1.15-.68-.31-1.07-.82-1.38-1.48-.33-.7-.57-1.43-.86-2.14-.01-.03-.02-.05-.04-.08-6.85,6.84-11.09,16.29-11.09,26.74,0,.03,0,.05,0,.08.58.11,1.18.19,1.72.37.42.14.84.34,1.14.67.36.39.51.93.63,1.43.07.31.13.62.21.92.09.34.24.68.37,1.01.27.68.56,1.35.86,2.01.48,1.06,1,2.1,1.51,3.14,1.6-.06,3.21-.08,4.75-.58.1-.03.25.02.3.12.35.75.64,1.52.9,2.3.4.45.79.89,1.18,1.34.77.9,1.53,1.84,2.08,2.9.45.86.57,1.75.48,2.72s-.36,1.97-.64,2.94c.28.4.54.81.82,1.21.84,1.21,1.7,2.4,2.57,3.59.04-.01.08-.01.12,0,.7.1,1.41,0,2.1-.12.13-.02.3.03.33.19.29,1.46.55,2.93.84,4.4.32.33.65.64,1,.94.7.61,1.42,1.18,2.15,1.76.94.74,1.84,1.55,2.76,2.32.5.42,1.01.83,1.51,1.25,2.61.57,5.31.88,8.09.88.09,0,.18,0,.27,0-.3-2.25-.66-4.5-1.32-6.68-.04-.12.03-.24.12-.3Z"/>
        <path class="cls-4" d="M126.81,162.18c-.12-.57-.24-1.18-.18-1.76.05-.54.33-.93.74-1.26.58-.46,1.24-.8,1.88-1.17.32-.18.64-.37.93-.6.3-.22.48-.43.58-.79.11-.38.17-.81.43-1.13.23-.29.57-.31.91-.35.24-.03.43-.06.61-.24.15-.14.29-.3.43-.45.32-.36.62-.75.9-1.15.48-.67.92-1.38,1.38-2.07.63-2.73.97-5.57.97-8.49,0-10.06-3.94-19.19-10.35-25.96-.24.17-.5.31-.78.37-.33.08-.68.04-1.01-.04-.4-.1-.8-.2-1.18-.37-1.51-.64-2.73-1.96-4.33-2.38-.68,1.59-1,3.4-2.08,4.79-.99,1.28-2.61,1.62-4.1,1.97-1.44.34-3.54.77-3.81,2.53-.13.88.09,1.79.13,2.68.04.91-.14,1.73-.56,2.53-.83,1.59-2.22,2.8-3.44,4.09.62.82,1.64,1.26,2.32,2.03.09.1.11.28,0,.38-.66.58-1.38,1.07-2.02,1.66-.62.56-1.08,1.23-1.39,2.01-.59,1.5-.71,3.14-1.29,4.64.5.28,1.04.46,1.51.78.41.28.6.58.61,1.07.02.63-.1,1.25-.19,1.86,1.02.43,2.14.69,3.19,1,1.3.38,2.57.8,3.79,1.37.34.16.71.33.94.64.21.27.25.6.24.93-.01.53-.11,1.06-.16,1.59-.05.59-.11,1.18-.17,1.77-.06.62-.12,1.24-.15,1.87,0,.1-.01.2-.02.3,1.07,1.07,2.26,2.02,3.3,3.11.79-.66,1.37-1.52,2.04-2.3.14-.16.39-.06.45.12.45,1.32.35,2.68.55,4.04.09.58.25,1.14.54,1.65.26.46.55.91.84,1.35.63.99,1.29,1.96,1.98,2.9.02.02.04.05.06.07,1.62-.71,3.16-1.61,4.68-2.49.32-.19.64-.38.97-.57-.28-.83-.53-1.67-.71-2.52Z"/>
        <g>
          <path class="cls-7" d="M99.21,167.36c-.37-.83-.92-1.57-1.28-2.41-.45-1.04-.05-1.98.37-2.96.32-.75.56-1.53.76-2.32.18-.73.38-1.56.2-2.31-.19-.78-.89-.97-1.61-.97-.86,0-1.73.16-2.58.24-.62.06-1.26.12-1.88.02-.51-.08-.99-.29-1.43-.55-.86-.51-1.62-1.17-2.53-1.6-.42-.2-.86-.33-1.32-.39-.36-.05-.59.06-.88.25-.88.58-1.85.95-2.89,1.1-2.02.29-4.15-.06-5.99.99-.04-.09-.08-.19-.11-.28-.2-.6-.4-1.21-.68-1.78,0-.02-.02-.04-.03-.06-.16-.43-.31-.85-.46-1.28.42-.59,1.11-.98,1.5-1.6.75-1.21,1.51-2.41,2.21-3.65.27-.48.48-.77.23-1.33-.3-.68-.92-1.17-1.35-1.76-.42-.56-.65-1.23-.34-1.9.33-.7,1.14-.97,1.76-1.34.27-.16.58-.37.63-.7.05-.35-.21-.62-.42-.86-.47-.53-1.11-1-1.5-1.6.37-.37.86-.65,1.3-.92.83-.5,1.67-.9,2.54-1.3.89-.41,1.73-.93,2.58-1.41.43-.18.85-.36,1.27-.56.35-.17.7-.35,1.05-.54.06-.02.13-.05.19-.06.63-.16,1.36-.26,1.89-.68.64-.51.35-1.34.43-2.04.1-.93.58-1.78.71-2.71.11-.79-.22-1.31-.85-1.76-.61-.44-1.36-.75-1.78-1.4-.05-.08-.17-.1-.26-.08-.99.3-1.26,1.29-1.89,1.99-.16.18-.34.29-.52.33-.1-.14-.19-.28-.28-.43-.27-.45-.49-.86-.42-1.4.17-1.31,1.38-2.24,2.08-3.27.33-.48.52-.97.55-1.56.02-.35-.01-.75-.29-1-.5-.46-1.44-.3-2.05-.24-.85.08-1.73.24-2.58.1-.47-.08-.96-.29-1.35-.58-.19-.14-.44-.51-.66-.45-.26.07-.56.34-.76.51-.14.11-.26.23-.37.37-.3.37-.54.8-.79,1.21-.5.86-.99,1.84-1.77,2.49-.31.26-.69.46-1.11.46-.54,0-.88-.31-1.14-.75-.32-.56-.71-.94-1.36-1.11-.67-.18-1.38-.14-2.06-.27-.08-.02-.17-.1-.19-.19-.08-.44-.21-.88-.36-1.3-.13-.36-.3-.9-.61-1.15-.33-.27-.79-.21-1.17-.05-5.31,6.37-8.55,14.52-8.72,23.43.72.05,1.45.1,2.17.2.65.09,1.4.21,1.95.6.68.49.62,1.41.66,2.16.02.36.02.75.16,1.09.11.25.22.51.33.76.31.71.64,1.43.99,2.12.33.65.67,1.34,1.13,1.92.11.14.27.31.39.34.32.08.68-.05.97-.18.35-.16.69-.36,1.01-.57.86-.14,1.73-.25,2.6-.32,0,0,0,0,0,0,.07.01.14.03.2.04.1.11.21.22.32.32.17.34.37.68.59,1-.04.56-.06,1.12,0,1.68.2,1.84,1.38,2.81,2.36,4.25.13.2.26.4.38.6.52.85,1.2,1.66,1.33,2.68.12,1.01-.1,2.03-.51,2.95-.23.51-.4,1.02-.2,1.57.16.45.49.82.82,1.16.65.66,1.42,1.21,2.04,1.89.99-.43,2-.11,2.76.67.71.73,1.2,1.73,1.38,2.74.08.46.05.94.15,1.4.08.32.26.54.5.75.43.37.9.69,1.35,1.04.5.39.98.81,1.44,1.24.2.14.4.28.61.41.56.33,1.19.35,1.75-.02.12-.08.27-.28.41-.35,0,.02.07.04.11.06.18.12.33.29.47.45.55.64.96,1.34,1.72,1.77.79.45,1.68.66,2.53.98.16.06.37-.07.45-.2.46-.76.48-1.56.18-2.38-.28-.75-.75-1.44-.89-2.24-.28-1.62,1.45-2.52,2.52-3.34.57-.43,1.11-.93,1.41-1.59.35-.77.16-1.56-.17-2.29Z"/>
          <path class="cls-16" d="M111.45,110.75c-.11-.11-.23-.21-.32-.28-.07-.05-.15-.09-.22-.14-1.63-.03-3.26-.12-4.88-.28-.86-.08-1.69-.22-2.54-.4-.24-.05-.48-.1-.72-.15-.48.12-.94.29-1.4.48-1.26.66-2.49,1.39-3.6,2.29-.09.07-.22.11-.32.04-.54-.36-1.01-.8-1.53-1.19-.28-.21-.59-.45-.93-.61-.18.09-.34.22-.48.34-.43.38-.63.91-.97,1.36-.19.25-.19.25-.46.14-.22-.09-.43-.21-.65-.3-.25-.1-.52-.17-.8-.19-.44.33-.89.65-1.36.94.1.38.2.75.32,1.12.42.18.8.41,1.06.8.4.33.77.69,1.13,1.06.07.08.15.16.22.24,1.57-.27,3.16-.36,4.7-.77.22-.06.35.13.33.33-.16,1.14-.38,2.28-.62,3.41.34.33.68.65,1.02.98.03,0,.06,0,.09-.01.44-.05.88-.12,1.31,0,.28.07.51.24.77.34.44-.06.88-.13,1.33-.21.16-.12.3-.26.41-.41.14-.21.23-.44.43-.6.04-.03.09-.05.13-.08.36-.08.71-.17,1.04-.31.34-.14.63-.32.88-.57.31-.14.62-.27.93-.43.69-.35,1.53-.81,2.25-.29.07.05.15.06.24.04.12-.16.25-.31.38-.46.34-1.1.26-2.38.86-3.37.32-.52.93-.77,1.41-1.11.3-.2.84-.48.94-.88-.13-.29-.26-.57-.38-.86Z"/>
          <path class="cls-7" d="M127.18,118.01c-.32.41-.69.79-1.18.96-.62.21-1.42-.2-1.98-.43-.69-.28-1.37-.6-2.06-.88-1.07-.43-2.06-1.01-3.1-1.5-.65,1.7-.5,3.91-2.28,4.92-.8.45-1.75.61-2.64.79-.81.17-1.64.32-2.42.62-.67.26-1.29.68-1.61,1.35-.41.88-.28,1.98-.29,2.92,0,.96-.08,1.9-.38,2.82-.06.18-.13.34-.2.51-.19.15-.37.31-.55.47-.43.39-.85.8-1.24,1.23-.2.22-.41.44-.59.68-.12.01-.29.11-.24.25,0,.02.03.05.04.07-.02.06-.03.14.01.19.07.08.13.15.2.23.11.18.23.36.37.53.13.24.33.46.52.65.06.06.12.11.18.17.02.02.04.04.05.06.47.54.86,1.19,1.49,1.57.18.11.4-.04.47-.21.13-.3.28-.6.43-.89.12-.18.23-.37.33-.55.12-.23.22-.47.33-.71.15-.29.3-.57.45-.86.21-.41.38-.84.56-1.27.02-.05.05-.09.07-.14.06,0,.13-.02.19-.02.38,0,.75,0,1.13-.01.65-.03,1.29-.14,1.94-.17.23,0,.46-.01.7-.02-.44.59-.91,1.16-1.33,1.77-.07.1-.07.25.03.32.75.5,1.49,1,2.27,1.44.62.35,1.35.8,2.06.93.42.08.77-.05,1.06-.29.09.25.18.51.25.77.04.14.08.28.11.41-.42.33-.81.68-1.2.98-.29.23-.57.46-.86.69,0-.03-.02-.05-.03-.07-.16-.51-.31-1.05-.33-1.59,0-.13-.09-.21-.22-.22-.74-.03-1.5-.13-2.24-.13-.25-.29-.51-.58-.77-.87-.24-.28-.49-.68-.88-.77-.35-.08-.66.2-.89.43-.3.29-.58.59-.88.88-.21.2-.41.41-.6.62-.39.03-.79.02-1.18.05-.53.03-1.06.13-1.59.22-.31.05-.62.1-.94.14-.31.04-.64.04-.95.12-.13.03-.16.19-.06.21,0,0-.01,0-.02,0,.03.01.07.02.1.03-.12.06-.24.13-.34.23-.27.3-.45.73-.64,1.08-.25.47-.48.94-.71,1.42-.46.94-.92,1.89-1.47,2.78-.06.1-.07.24.03.32.55.4,1.09.82,1.61,1.27.03.03.07.06.1.09,0,.07-.01.16-.02.21-.02.23-.08.43-.15.66-.13.4-.34.88-.25,1.31.1.45.57.6.98.63.48.04.96-.03,1.44.04.7.09,1.44.25,2.1.53.31.13.59.28.93.29.28,0,.54-.11.78-.27.15-.1.29-.22.43-.34.45.64.93,1.25,1.39,1.87.27.36.53.72.79,1.08.12.52.25,1.04.38,1.56-.11.27-.18.55-.25.84-.04.15-.07.29-.11.44-.08.23-.15.48-.19.72-.1.36-.22.71-.36,1.04-.04.09,0,.2.07.25,0,0,.01,0,.02.01.01.08.08.11.16.11.72.5,1.5.89,2.27,1.29.22.14.43.29.62.46.06.06.16.06.25.03.03.02.06.03.08.05.23.14.48-.06.58-.26.24-.51.58-.98.91-1.43.16.04.31.07.46.09.34.07.69.15,1.03.24-.02.3-.03.59-.04.89-.17,1.2-.3,2.4-.54,3.59-.02.09.06.18.14.2.04.01.09.03.13.05.19.46.63.85.95,1.18.65.67,1.38,1.27,2.11,1.85.2.16.41.32.62.47,0,.49.97.03,1.15-.06.54-.26,1.04-.6,1.59-.84.14-.06.38-.31.24-.49-.33-.39-.34-1.04-.36-1.53-.02-.55.02-1.1-.01-1.65-.02-.24-.05-.48-.08-.73.05-.22.13-.43.28-.61.63-.75,1.71-.95,2.35-1.7.41-.48.43-1,.44-1.6,0-.08.01-.17.02-.25.42.08.84.15,1.27.11.75-.07,1.26-.65,1.57-1.28.74-1.48.81-3.21,1.62-4.66.4-.71,1.02-1.27,1.79-1.56.38-.14.76-.23,1.15-.33.17-1.44.26-2.91.26-4.4,0-9.45-3.48-18.09-9.22-24.71Z"/>
        </g>
        <path class="cls-2" d="M131.82,124.69c1.75,4.24,3.1,8.63,3.18,13.24.07,3.96-.81,7.79-2.15,11.5-1.22,3.38-2.78,6.67-4.77,9.66-2.22,3.33-4.92,6.39-8.2,8.7-3.69,2.61-8.04,4.42-12.46,5.35-4.43.93-8.98,1.05-13.47.57-4.44-.48-8.92-1.34-13.16-2.75-3.5-1.17-6.91-2.74-9.82-5.04-3.15-2.5-5.54-5.67-7.32-9.26-.26-.53-.51-1.07-.75-1.61,5.11,14.81,19.17,25.46,35.72,25.46,20.86,0,37.78-16.92,37.78-37.78,0-6.53-1.66-12.67-4.57-18.03Z"/>
        <path class="cls-3" d="M104.71,110.5c-2.01-1.54-5.52-2.02-7.54-1.98-6.35.14-13.53,1.98-18.61,5.94-.2.15-.38.31-.57.47-.4.29-.8.58-1.19.89-2.23,1.75-4.23,3.8-5.89,6.1-1.85,2.56-3.37,5.43-4.35,8.43-.95,2.92-1.34,6-1.06,9.06.26,2.7,1.05,5.29,2.14,7.76.37.84.76,1.67,1.25,2.44.34.54.81,1.28,1.47,1.48.71.21,1.17-.5,1.4-1.06.25-.62.37-1.29.5-1.94.15-.76.28-1.52.39-2.29.44-2.99.65-6.02,1.46-8.94.41-1.47.98-2.9,1.75-4.22.8-1.35,1.81-2.56,2.88-3.71,2.03-2.19,4.37-4.13,6.98-5.59,2.05-1.15,4.26-1.99,6.56-2.47,3.19-.66,6.32-1.28,9.37-2.45,1.53-.59,3.03-1.47,3.89-2.87,1.06-1.72.76-3.82-.83-5.05Z"/>
        <g>
          <path class="cls-8" d="M119.27,107.74c-1.19-.47-2.61-.82-4.01-.85-.16-.41-.37-.8-.59-1.13-.75-1.11-1.95-1.81-3.18-2.22-1.03-.34-2.17-.46-3.27-.39-.51-.69-1.29-1.21-2.21-1.38-.83-.15-1.73,0-2.51.39-.87-.81-1.99-1.36-3.13-1.76-2.15-.75-4.59-.67-6.78-.08-2.07.56-4.09,1.51-5.67,2.96-.29.26-.92.92-1.39,1.64-.77.06-1.55.36-2.22.73-.81.46-1.56,1.02-2.08,1.82-.15.23-.29.53-.37.84-.48-.17-1.01-.24-1.48-.29-1.25-.12-2.52.3-3.64.93-1.4.79-3.44,2.84-2.48,4.65.45.86,1.54,1.19,2.37,1.24,1.14.06,2.34-.17,3.45-.45.98-.25,2.02-.53,3.05-.89,0,0,.02,0,.03,0,1.01.2,2.08.14,3.08-.07,1.09-.23,2.09-.62,3.05-1.15.75.09,1.51.16,2.25.23,1.93.19,3.81.21,5.74.18,1.89-.03,3.81-.07,5.71-.14,1.29-.05,2.63-.12,3.93-.36.6.24,1.21.44,1.83.59,1.62.41,3.27.75,4.9,1.09,1.63.34,3.27.61,4.93.78.77.08,1.54.17,2.32.08.61-.07,1.37-.15,1.83-.66,2.24-2.48-1.37-5.54-3.47-6.36Z"/>
          <path class="cls-5" d="M119.27,107.74c-1.19-.47-2.61-.82-4.01-.85-.16-.41-.37-.8-.59-1.13-.75-1.11-1.95-1.81-3.18-2.22-1.03-.34-2.17-.46-3.27-.39-.51-.69-1.29-1.21-2.21-1.38-.83-.15-1.73,0-2.51.39-.87-.81-1.99-1.36-3.13-1.76-2.15-.75-4.59-.67-6.78-.08-2.07.56-4.09,1.51-5.67,2.96-.29.26-.92.92-1.39,1.64-.77.06-1.55.36-2.22.73-.81.46-1.56,1.02-2.08,1.82-.15.23-.29.53-.37.84-.48-.17-1.01-.24-1.48-.29-1.25-.12-2.52.3-3.64.93-1.4.79-3.44,2.84-2.48,4.65.45.86,1.54,1.19,2.37,1.24,1.14.06,2.34-.17,3.45-.45.98-.25,2.02-.53,3.05-.89,0,0,.02,0,.03,0,1.01.2,2.08.14,3.08-.07,1.09-.23,2.09-.62,3.05-1.15.75.09,1.51.16,2.25.23,1.93.19,3.81.21,5.74.18,1.89-.03,3.81-.07,5.71-.14,1.29-.05,2.63-.12,3.93-.36.6.24,1.21.44,1.83.59,1.62.41,3.27.75,4.9,1.09,1.63.34,3.27.61,4.93.78.77.08,1.54.17,2.32.08.61-.07,1.37-.15,1.83-.66,2.24-2.48-1.37-5.54-3.47-6.36ZM84.28,111.89c-.41.25-.89.38-1.35.49-.51.13-1.06.25-1.58.19-.35-.04-.82-.2-.9-.64,0-.02,0-.03,0-.05-.7.57-1.53.99-2.37,1.2-.82.21-1.82.42-2.63.15-.29-.1-.6-.29-.67-.65-.1-.47.1-.99.36-1.38.53-.81,1.38-1.54,2.28-1.9.59-.32,1.24-.41,1.87-.24.56.15,1.22.42,1.63.86.13.14.21.29.26.44.82-.38,1.81-.45,2.63-.31.39.07,1.08.21,1.15.74.07.49-.34.89-.69,1.1ZM87.3,107.56c-.42.88-1.49,1.29-2.31,1.52-.45.13-.92.22-1.38.22-.34,0-.82-.06-.99-.42-.19-.39.09-.82.33-1.12.1-.12.22-.25.34-.36.32-.38.83-.62,1.25-.81.57-.25,1.21-.46,1.84-.44.32.01.7.09.88.39.19.3.19.71.04,1.03ZM88.24,105.81c-1.48-.58,1.49-3.18,2.15-3.59.87-.54,1.84-.96,2.83-1.2.86-.21,2.02-.39,2.77.2.82.64.71,1.74.08,2.48-.73.85-1.77,1.43-2.76,1.85-1.35.56-2.92,1.05-4.35.65-.27-.08-.53-.2-.72-.38ZM94.62,107.33c-.03.46-.5.77-.84.95-.4.22-.82.34-1.26.41-.48.07-2.08.33-2.11-.58-.02-.7.57-1.03,1.2-1.23.55-.34,1.21-.47,1.83-.35.34.07,1.21.26,1.18.8ZM101.7,109.44c-.59,1.71-2.54,2.38-4.04,2.28-.5-.03-1.02-.13-1.47-.39-.31-.18-.68-.46-.76-.88-.15-.85.65-1.59,1.2-2.04.66-.54,1.44-1.05,2.24-1.3.43-.14.97-.25,1.4-.07.14.01.27.04.41.08.93.31,1.36,1.32,1.02,2.31ZM111.19,106.2c-.3.31-.73.46-1.13.53-.94.17-1.98.1-2.91-.15-.56-.15-1.39-.56-1.31-1.16-.07.04-.13.09-.2.12-.86.45-1.96.52-2.91.35-.46-.08-1.02-.22-1.37-.57-.31-.32-.23-.71.02-1.04.41-.54.96-.98,1.54-1.28.51-.27,1.09-.5,1.67-.48.72-.14,1.52-.04,1.88.62.25.46.25.96.07,1.4.54-.36,1.24-.57,1.86-.58,1.12-.16,2.35.06,2.98,1.08.25.4.07.87-.21,1.17ZM118.86,112.28c-1.3.51-2.7.34-3.98-.2-.72-.3-1.41-.7-2.07-1.15-.47-.32-.95-.65-1.35-1.08-.23-.25-.51-.67-.26-1.01.29-.39.83-.57,1.26-.7.79-.24,1.67-.54,2.54-.61.49-.11,1-.17,1.51-.13.94.06,1.89.49,2.64,1.12.62.53,1.16,1.3,1.06,2.18-.09.81-.69,1.32-1.35,1.58Z"/>
          <g>
            <path class="cls-12" d="M112.38,111.1c-.49-.57-1.19-1.05-1.67-1.37-1.21-.82-2.54-1.39-3.98-1.46-.88-.04-1.77.16-2.57.54-1.02.49-2.4,1.57-1.92,3,.37,1.09,1.56,1.47,2.44,1.71,1.38.38,2.81.51,4.23.48,1.2-.02,2.72.07,3.73-.83.65-.58.2-1.53-.27-2.07Z"/>
            <path class="cls-14" d="M109.19,110.44c-.31-.34-.74-.61-1.04-.8-.74-.47-1.56-.8-2.43-.84-.53-.02-1.07.11-1.56.34-.62.3-1.48.95-1.19,1.83.22.67.96.9,1.51,1.05.86.23,1.75.29,2.63.25.74-.03,1.68,0,2.29-.58.39-.37.09-.94-.2-1.25Z"/>
          </g>
          <g>
            <path class="cls-12" d="M93.19,110.8c-.41-.31-.95-.51-1.32-.66-.93-.36-1.92-.53-2.91-.35-.61.11-1.2.4-1.7.79-.65.5-1.48,1.46-.99,2.39.38.71,1.26.78,1.9.81,1.01.04,2.03-.1,3.01-.36.83-.22,1.9-.42,2.47-1.23.37-.52-.07-1.1-.46-1.39Z"/>
            <path class="cls-14" d="M90.84,111.09c-.26-.18-.59-.3-.82-.38-.57-.2-1.17-.3-1.77-.19-.37.07-.73.25-1.03.48-.39.3-.9.9-.6,1.46.23.43.77.48,1.17.5.62.02,1.25-.08,1.85-.25.51-.14,1.17-.29,1.51-.79.22-.33-.06-.67-.3-.84Z"/>
          </g>
          <path class="cls-17" d="M78.42,109.89c-.35-.72-1.83.21-2.62,1.16-.59.63-.98,1.36-.56,1.55.7.32,1.5-.36,2.03-.82.33-.29,1.43-1.3,1.15-1.89Z"/>
          <path class="cls-17" d="M82.41,110.31c-.44.1-1.21.52-1.46,1.07-.09.16-.14.35-.11.55.05.35.5.3.71.23.41-.13.79-.37,1.13-.65.25-.2.48-.47.52-.82.06-.47-.53-.45-.79-.39Z"/>
          <path class="cls-17" d="M85.86,106.8c-.12-.45-1-.1-1.26,0-.41.16-.87.44-1.14.83-.12.09-.22.2-.28.31-.21.36-.09.77.35.73.59-.05,1.13-.38,1.62-.73.33-.23.84-.67.72-1.15Z"/>
          <path class="cls-17" d="M88.31,110.83c-.19-.1-.47.07-.64.17-.09.06-.18.13-.26.21-.17.13-.37.3-.44.51-.06.21-.04.45.17.51.17.05.41-.05.56-.12.25-.1.48-.28.67-.5.22-.26.23-.64-.07-.79Z"/>
          <path class="cls-17" d="M93.61,101.67c-.5-.34-1.13-.13-1.65.1-.19.09-.39.19-.57.29-.97.4-1.9,1.16-2.46,1.96-.26.36-.28.78.12.98.54.26,1.55-.3,2.03-.53.75-.36,1.41-.86,2.01-1.45.21-.2.98-1.03.52-1.34Z"/>
          <path class="cls-17" d="M92.49,107.01c-.13-.13-.42-.11-.58-.07-.37.1-.67.19-.95.5-.28.31-.14.71.25.71.05,0,.09,0,.14-.02.28.02.59-.16.82-.3.22-.13.59-.55.32-.81Z"/>
          <path class="cls-17" d="M99.14,107.72c-.51-.28-1.38.16-1.81.42-.48.3-.89.68-1.16,1.2-.23.35-.4.83-.11,1.13.37.38,1.1.07,1.48-.09.62-.27,1.27-.78,1.68-1.38.27-.4.41-1.02-.07-1.28Z"/>
          <path class="cls-17" d="M102.81,103.28c-.22.12-.9.54-1.14.97-.03.04-.06.09-.08.13-.44.88.82.68,1.24.54.58-.2,1.89-.71,1.95-1.5.08-.97-1.59-.35-1.97-.13Z"/>
          <path class="cls-17" d="M107.73,104.47c-.3.06-.75.22-.85.57-.1.11-.15.25-.07.38.17.29.66.25.93.21.41-.06.95-.16,1.2-.55.45-.71-.86-.67-1.2-.61Z"/>
          <path class="cls-17" d="M104.83,109.31c-.22,0-.44.07-.64.15-.24.1-.51.28-.58.57-.09.17-.11.35.04.48.26.22.7,0,.96-.12.28-.14.6-.27.72-.61.12-.33-.28-.47-.5-.47Z"/>
          <path class="cls-17" d="M117.42,108.06c-.43-.32-.94-.32-1.43-.3-.5.02-1.46.06-2.13.39-.33.1-.65.23-.95.41-.22.13-.55.59-.27.84.39.34.93.38,1.41.41,1.07.06,2.48-.04,3.3-.87.21-.22.39-.64.07-.88Z"/>
        </g>
      </g>
    </g>
  </g>
</svg>