<?xml version="1.0" encoding="utf-8"?>
<!-- Generator: Adobe Illustrator 25.0.0, SVG Export Plug-In . SVG Version: 6.00 Build 0)  -->
<svg version="1.1" id="elelmentos" xmlns="http://www.w3.org/2000/svg" xmlns:xlink="http://www.w3.org/1999/xlink" x="0px" y="0px"
	 viewBox="0 0 800 800" style="enable-background:new 0 0 800 800;" xml:space="preserve">
<style type="text/css">
	.st0{fill:#80CCF3;}
	.st1{clip-path:url(#SVGID_2_);}
	.st2{fill:url(#SVGID_3_);}
	.st3{fill:url(#SVGID_4_);}
	.st4{fill:#3BB244;}
	.st5{fill:#1E8B2A;}
	.st6{clip-path:url(#SVGID_6_);}
	.st7{fill:#E89C62;}
	.st8{fill:#CE814D;}
	.st9{fill:#F18951;}
	.st10{fill:#492A08;}
	.st11{fill:#312E31;}
	.st12{fill:#FFFFFF;}
	.st13{fill:#1D1E1C;}
	.st14{fill:#F6AF00;}
	.st15{fill:#F1F1F1;}
	.st16{fill:#333333;}
	.st17{fill:#1A1A1A;}
	.st18{fill:#8E56F1;}
	.st19{fill:#4ABBF1;}
	.st20{fill:#30D848;}
	.st21{fill:#259332;}
	.st22{fill:#45FF67;}
	.st23{fill:#263238;}
	.st24{fill:#B9BAB9;}
	.st25{fill:#FF725E;}
	.st26{fill:#E0E0E0;}
	.st27{fill:#3E5B65;}
	.st28{opacity:0.3;}
	.st29{fill:#FFDE17;}
	.st30{fill:#FFF22B;}
	.st31{fill:#6D6E71;}
	.st32{fill:#595957;}
	.st33{fill:#D7D5D5;}
	.st34{fill:none;stroke:#1A1A1A;stroke-width:1.6001;stroke-miterlimit:10;}
	.st35{fill:#9E0000;}
	.st36{clip-path:url(#SVGID_8_);}
	.st37{fill:#666060;}
	.st38{fill:#680000;}
	.st39{opacity:0.5;fill:#9E0000;}
	.st40{opacity:0.7;fill:#666060;}
	.st41{clip-path:url(#SVGID_6_);fill:#FFF22B;}
	.st42{fill:#FFE821;}
	.st43{opacity:0.5;fill:#808080;}
	.st44{fill:#E6E7E8;}
	.st45{fill:#414042;}
	.st46{fill:#58595B;}
	.st47{fill:#808285;}
	.st48{fill:#D1D3D4;}
	.st49{fill:#BCBEC0;}
	.st50{fill:#004B78;}
	.st51{fill:#006496;}
	.st52{fill:#939598;}
	.st53{opacity:0.5;fill:#FFFFFF;}
	.st54{fill:#166E98;}
	.st55{clip-path:url(#SVGID_10_);}
	.st56{fill:#47547C;}
	.st57{opacity:0.5;fill:#2B2B3F;}
	.st58{fill:#3D2412;}
	.st59{fill:#BA7038;}
	.st60{fill:#EB5F00;}
	.st61{fill:none;stroke:#DC831E;stroke-width:3.6166;stroke-miterlimit:10;}
	.st62{fill:#A35D2E;}
	.st63{fill:#EB3B00;}
	.st64{fill:#422918;}
	.st65{fill:#80ABBD;}
	.st66{fill:#4B7195;}
	.st67{opacity:0.4;fill:#5A93A0;}
	.st68{fill:none;stroke:#FFFFFF;stroke-width:10.2281;stroke-miterlimit:10;}
	.st69{opacity:0.4;fill:#A3D5E6;}
	.st70{fill:#C33E5D;}
	.st71{fill:#0C8068;}
	.st72{fill:none;stroke:#0A6D53;stroke-width:1.004;stroke-miterlimit:10;}
	.st73{opacity:0.5;fill:#0A6D53;}
	.st74{fill:#159A7A;}
	.st75{fill:none;stroke:#0C8068;stroke-width:1.004;stroke-miterlimit:10;}
	.st76{opacity:0.5;fill:#0C8068;}
	.st77{fill:#EBA154;}
	.st78{fill:#DC831E;}
	.st79{fill:#49496B;}
	.st80{fill:#323247;}
	.st81{fill:#B83D5D;}
	.st82{fill:#64648E;}
	.st83{fill:#FD783D;}
	.st84{fill:none;stroke:#E85481;stroke-width:1.512;stroke-miterlimit:10;}
	.st85{fill:none;stroke:#E85481;stroke-width:1.512;stroke-miterlimit:10;stroke-dasharray:7.6674,7.6674;}
	.st86{fill:none;stroke:#E85481;stroke-width:1.512;stroke-miterlimit:10;stroke-dasharray:5.6557,5.6557;}
	.st87{fill:none;stroke:#E85481;stroke-width:1.512;stroke-miterlimit:10;stroke-dasharray:5.1346,5.1346;}
	.st88{clip-path:url(#SVGID_12_);}
	.st89{clip-path:url(#SVGID_14_);fill:url(#SVGID_15_);}
	.st90{clip-path:url(#SVGID_14_);fill:url(#SVGID_16_);}
	.st91{clip-path:url(#SVGID_14_);fill:url(#SVGID_17_);}
	.st92{clip-path:url(#SVGID_14_);}
	.st93{fill:#FFFDFF;}
	.st94{fill:#EECC42;}
	.st95{fill:#C2C2C2;}
	.st96{clip-path:url(#SVGID_12_);fill:#EECC42;}
	.st97{fill:#231308;}
	.st98{fill:#310137;}
	.st99{fill:#D58A66;}
	.st100{fill:#C17E5C;}
	.st101{fill:#E89CAA;}
	.st102{fill:#B97C88;}
	.st103{fill:#1D1D1B;}
	.st104{fill:#E37657;}
	.st105{fill:none;}
	.st106{fill:#E8005B;}
	.st107{opacity:0.2;}
	.st108{fill:#EB996E;}
	.st109{fill:#FAFAFA;}
	.st110{fill:#D9B534;}
	.st111{fill:#63C140;}
	.st112{fill:#FFEE17;}
	.st113{fill:#EAA877;}
	.st114{fill:#31DB52;}
	.st115{fill:#587C07;}
	.st116{fill:#BA702D;}
	.st117{fill:#A3591C;}
	.st118{fill:#FFE8D6;}
	.st119{fill:#F4C6A1;}
	.st120{opacity:0.41;fill:#F4C6A1;}
	.st121{clip-path:url(#SVGID_19_);}
	.st122{fill:#0A8E4F;}
	.st123{fill:#7FDD7F;}
	.st124{fill:#0FA391;}
	.st125{fill:#0E7A6A;}
	.st126{fill:#80AF35;}
	.st127{fill:#689127;}
	.st128{fill:#FBED21;}
	.st129{fill:#F9C623;}
	.st130{fill:#DAD9D9;}
	.st131{fill:#A41726;}
	.st132{fill:#C2333B;}
	.st133{fill:#D5AB28;}
	.st134{fill:#F1CD30;}
	.st135{clip-path:url(#SVGID_21_);fill:#283135;}
	.st136{clip-path:url(#SVGID_21_);fill:#DC5152;}
	.st137{fill:none;stroke:#283135;stroke-width:1.8583;stroke-miterlimit:10;}
	.st138{fill:#C93D45;}
	.st139{fill:#DC5152;}
</style>
<g>
	<defs>
		<circle id="SVGID_11_" cx="404.43" cy="430.49" r="316.81"/>
	</defs>
	<clipPath id="SVGID_2_">
		<use xlink:href="#SVGID_11_"  style="overflow:visible;"/>
	</clipPath>
	<g class="st1">
		<g>
			<defs>
				<rect id="SVGID_13_" x="54.62" y="87" width="676" height="676"/>
			</defs>
			<clipPath id="SVGID_3_">
				<use xlink:href="#SVGID_13_"  style="overflow:visible;"/>
			</clipPath>
			<linearGradient id="SVGID_4_" gradientUnits="userSpaceOnUse" x1="95.9726" y1="159.6569" x2="903.0739" y2="881.5878">
				<stop  offset="0" style="stop-color:#333C8B"/>
				<stop  offset="0.1744" style="stop-color:#413884"/>
				<stop  offset="1" style="stop-color:#862461"/>
			</linearGradient>
			<rect x="54.62" y="87" style="clip-path:url(#SVGID_3_);fill:url(#SVGID_4_);" width="676" height="676"/>
			<linearGradient id="SVGID_6_" gradientUnits="userSpaceOnUse" x1="729.0728" y1="999.9432" x2="507.3448" y2="448.3275">
				<stop  offset="0" style="stop-color:#333C8B"/>
				<stop  offset="1" style="stop-color:#862461"/>
			</linearGradient>
			<path style="clip-path:url(#SVGID_3_);fill:url(#SVGID_6_);" d="M319.01,794.2c-4.06-6.08-146.01-152.09,2.03-192.65
				s249.43,34.47,200.76-210.9c-48.67-245.38,221.04-251.46,298.1-34.47V794.2H319.01z"/>
			<linearGradient id="SVGID_8_" gradientUnits="userSpaceOnUse" x1="50.5162" y1="-82.4474" x2="346.6032" y2="278.5347">
				<stop  offset="0" style="stop-color:#333C8B"/>
				<stop  offset="1" style="stop-color:#862461"/>
			</linearGradient>
			<path style="clip-path:url(#SVGID_3_);fill:url(#SVGID_8_);" d="M4.68,453.51c0,0,227.12,83.14,239.29-133.84
				c12.17-216.99,129.79-210.9,405.58-263.63H-7.49L4.68,453.51z"/>
			<g style="clip-path:url(#SVGID_3_);">
				<path class="st93" d="M754.31,621.11c3.04-8.24,4.7-17.14,4.7-26.43c0-21.55-8.94-41.01-23.3-54.89
					c12.31-7.13,20.59-20.44,20.59-35.69c0-22.77-18.46-41.24-41.24-41.24s-41.24,18.46-41.24,41.24c0,5.09,0.93,9.96,2.62,14.47
					c-39.3,3.15-70.22,36.01-70.22,76.12c0,6.75,0.88,13.29,2.53,19.52c-10.82-3.45-22.34-5.32-34.3-5.32
					c-62.35,0-112.89,50.54-112.89,112.89s50.54,112.89,112.89,112.89c48.26,0,89.42-30.29,105.57-72.89
					c16.11,22.05,42.14,36.38,71.54,36.38c48.91,0,88.56-39.65,88.56-88.56C840.13,661.6,801.95,622.56,754.31,621.11z"/>
				<circle class="st93" cx="591.38" cy="302.62" r="22.98"/>
				<path class="st93" d="M256.63-5.51c-30.99,5.78-51.85,34.62-48.16,65.48c-1.16,0.15-2.32,0.32-3.49,0.54
					c-1.89,0.35-3.75,0.8-5.57,1.32c0.23-7-0.26-14.13-1.6-21.3C187.9-12.7,136.72-47.8,83.5-37.88
					C30.28-27.96-4.82,23.23,5.1,76.45c2.71,14.54,8.52,27.72,16.59,39c-27.24,17.01-42.73,49.5-36.49,82.98
					c8.14,43.68,50.15,72.48,93.82,64.34c43.68-8.14,72.48-50.15,64.34-93.82c-1.27-6.79-3.35-13.22-6.13-19.21
					c7.74-3.03,14.95-6.97,21.5-11.7c9.1,28.46,38.16,46.38,68.3,40.76c31.57-5.89,52.75-35.43,48.63-66.9
					c0.92-0.13,1.84-0.27,2.76-0.44c32.3-6.02,53.6-37.08,47.58-69.38C319.99,9.77,288.93-11.53,256.63-5.51z"/>
				<path class="st93" d="M206.23,218.43c-10.28,1.92-17.05,11.8-15.14,22.08c1.92,10.28,11.8,17.05,22.08,15.14
					c10.28-1.92,17.05-11.8,15.14-22.08C226.39,223.29,216.5,216.51,206.23,218.43z"/>
			</g>
		</g>
		<circle class="st93" cx="445.04" cy="707.6" r="7.44"/>
		<path class="st12" d="M228.32,274.75c0,2.74,2.22,4.96,4.96,4.96c2.74,0,4.96-2.22,4.96-4.96c0-2.74-2.22-4.96-4.96-4.96
			C230.54,269.8,228.32,272.02,228.32,274.75z"/>
		<circle class="st12" cx="425.07" cy="146.49" r="3.15"/>
		<path class="st12" d="M659.41,269.52c0,3.24,2.62,5.86,5.86,5.86c3.24,0,5.86-2.62,5.86-5.86c0-3.24-2.62-5.86-5.86-5.86
			C662.04,263.66,659.41,266.28,659.41,269.52z"/>
		<path class="st12" d="M194.78,607.07c0,1.74,1.41,3.15,3.15,3.15c1.74,0,3.15-1.41,3.15-3.15c0-1.74-1.41-3.15-3.15-3.15
			C196.19,603.91,194.78,605.33,194.78,607.07z"/>
		<path class="st12" d="M527.23,670.31c0,1.74,1.41,3.15,3.15,3.15c1.74,0,3.15-1.41,3.15-3.15s-1.41-3.15-3.15-3.15
			C528.64,667.15,527.23,668.57,527.23,670.31z"/>
		<g>
			<path class="st12" d="M114.87,434.95L114.87,434.95c0.32,0,0.58-0.26,0.58-0.58v-22.04c0-0.32-0.26-0.58-0.58-0.58l0,0
				c-0.32,0-0.58,0.26-0.58,0.58v22.04C114.28,434.69,114.54,434.95,114.87,434.95z"/>
			<path class="st12" d="M103.26,423.35L103.26,423.35c0,0.32,0.26,0.58,0.58,0.58h22.04c0.32,0,0.58-0.26,0.58-0.58l0,0
				c0-0.32-0.26-0.58-0.58-0.58h-22.04C103.52,422.76,103.26,423.03,103.26,423.35z"/>
		</g>
		<g>
			<path class="st12" d="M489.29,168.23L489.29,168.23c0.32,0,0.58-0.26,0.58-0.58v-22.04c0-0.32-0.26-0.58-0.58-0.58l0,0
				c-0.32,0-0.58,0.26-0.58,0.58v22.04C488.7,167.97,488.97,168.23,489.29,168.23z"/>
			<path class="st12" d="M477.68,156.63L477.68,156.63c0,0.32,0.26,0.58,0.58,0.58h22.04c0.32,0,0.58-0.26,0.58-0.58l0,0
				c0-0.32-0.26-0.58-0.58-0.58h-22.04C477.95,156.04,477.68,156.31,477.68,156.63z"/>
		</g>
		<g>
			<path class="st12" d="M654.01,483.02L654.01,483.02c0.32,0,0.58-0.26,0.58-0.58V460.4c0-0.32-0.26-0.58-0.58-0.58l0,0
				c-0.32,0-0.58,0.26-0.58,0.58v22.04C653.42,482.76,653.69,483.02,654.01,483.02z"/>
			<path class="st12" d="M642.4,471.42L642.4,471.42c0,0.32,0.26,0.58,0.58,0.58h22.04c0.32,0,0.58-0.26,0.58-0.58l0,0
				c0-0.32-0.26-0.58-0.58-0.58h-22.04C642.66,470.83,642.4,471.1,642.4,471.42z"/>
		</g>
		<g>
			<path class="st12" d="M96.31,544.43L96.31,544.43c0.14,0,0.25-0.11,0.25-0.25v-9.52c0-0.14-0.11-0.25-0.25-0.25l0,0
				c-0.14,0-0.25,0.11-0.25,0.25v9.52C96.05,544.31,96.17,544.43,96.31,544.43z"/>
			<path class="st12" d="M91.29,539.41L91.29,539.41c0,0.14,0.11,0.25,0.25,0.25h9.52c0.14,0,0.25-0.11,0.25-0.25l0,0
				c0-0.14-0.11-0.25-0.25-0.25h-9.52C91.41,539.16,91.29,539.27,91.29,539.41z"/>
		</g>
		<g>
			<path class="st12" d="M527.12,221.1L527.12,221.1c0.14,0,0.25-0.11,0.25-0.25v-9.52c0-0.14-0.11-0.25-0.25-0.25l0,0
				c-0.14,0-0.25,0.11-0.25,0.25v9.52C526.86,220.99,526.98,221.1,527.12,221.1z"/>
			<path class="st12" d="M522.1,216.09L522.1,216.09c0,0.14,0.11,0.25,0.25,0.25h9.52c0.14,0,0.25-0.11,0.25-0.25l0,0
				c0-0.14-0.11-0.25-0.25-0.25h-9.52C522.22,215.83,522.1,215.95,522.1,216.09z"/>
		</g>
		<path class="st94" d="M682.67,399.07c-0.14,2.48,1.75,4.61,4.23,4.75c2.48,0.14,4.61-1.75,4.75-4.23
			c0.14-2.48-1.75-4.61-4.23-4.75C684.94,394.7,682.81,396.59,682.67,399.07z"/>
		<circle class="st94" cx="615.25" cy="169.02" r="4.06"/>
		<circle class="st94" cx="382.71" cy="192.46" r="1.35"/>
		<path class="st94" d="M212.17,507.56c0,2.49,2.02,4.51,4.51,4.51c2.49,0,4.51-2.02,4.51-4.51c0-2.49-2.02-4.51-4.51-4.51
			C214.18,503.05,212.17,505.07,212.17,507.56z"/>
		<path class="st94" d="M242.55,675.12c0,2.49,2.02,4.51,4.51,4.51c2.49,0,4.51-2.02,4.51-4.51s-2.02-4.51-4.51-4.51
			C244.57,670.61,242.55,672.63,242.55,675.12z"/>
		<g>
			<g>
				<g>
					<path class="st95" d="M565.09,201.16c7.8,0.15,15.76,2.54,22.88,5.56c17.53,7.45,30.53,21.61,38.21,38.87
						c2.27,5.09,10.18,1.61,7.91-3.47c-8.41-18.89-22.59-34.27-41.54-42.82c-8.14-3.67-17.58-6.57-26.6-6.74
						C560.43,192.46,559.52,201.06,565.09,201.16L565.09,201.16z"/>
				</g>
				<path class="st95" d="M627.95,247.6l-8.25-4.98l5.52-6.69C625.22,235.93,634.01,238.66,627.95,247.6z"/>
				<g>
					<path class="st12" d="M554.51,200.51c7.8-0.34,15.89,1.53,23.18,4.09c17.97,6.32,31.83,19.63,40.6,36.37
						c2.58,4.93,10.26,0.97,7.68-3.96c-9.59-18.32-24.71-32.77-44.17-40.1c-8.36-3.14-17.96-5.44-26.97-5.04
						C549.31,192.12,548.94,200.76,554.51,200.51L554.51,200.51z"/>
				</g>
			</g>
			<g>
				<g>
					<path class="st95" d="M572.76,219.86c15.35,0.62,28.18,12.18,33.99,25.71c2.2,5.12,10.17,1.79,7.98-3.32
						c-6.94-16.16-22.59-30.23-40.94-30.97C568.27,211.05,567.19,219.63,572.76,219.86L572.76,219.86z"/>
				</g>
				<path class="st95" d="M608.65,247.68l-8.35-4.37l6.4-7.04C606.7,236.26,614.88,238.86,608.65,247.68z"/>
				<g>
					<path class="st12" d="M562.49,218.65c15.35-0.64,29.09,9.82,35.99,22.83c2.61,4.92,10.28,0.95,7.68-3.96
						c-8.24-15.54-25-28.27-43.35-27.5C557.29,210.24,556.92,218.88,562.49,218.65L562.49,218.65z"/>
				</g>
			</g>
			<g>
				<g>
					<path class="st95" d="M573.89,235.98c7.23,0.41,12.94,5.76,15.69,12.13c2.2,5.11,10.21,1.88,8.01-3.23
						c-3.89-9.02-12.33-16.89-22.59-17.47C569.49,227.1,568.33,235.66,573.89,235.98L573.89,235.98z"/>
				</g>
				<path class="st95" d="M591.79,250.38l-7.38-2.8l5.03-8.87C589.43,238.72,598.11,241.62,591.79,250.38z"/>
				<g>
					<path class="st12" d="M565.59,235.03c7.24-0.26,13.42,4.53,16.75,10.63c2.67,4.88,10.34,0.92,7.68-3.96
						c-4.71-8.62-13.84-15.67-24.11-15.3C560.39,226.6,560.02,235.23,565.59,235.03L565.59,235.03z"/>
				</g>
			</g>
		</g>
		<path class="st12" d="M287.27,222.09c-2.08-6.53-9.07-10.13-15.6-8.05c-3.41,1.09-6.02,3.52-7.44,6.53
			c-2.9-1.63-6.43-2.1-9.84-1.01c-6.53,2.08-10.13,9.07-8.05,15.6c0,0,0.14,0.65,0.72,1.75c0.5,1.01,1.13,1.93,1.86,2.75
			c3.22,3.94,10.32,9.75,25.77,14.37c0,0,12.38-12.91,13.02-26.39C287.98,225.82,287.86,223.94,287.27,222.09z"/>
		<path class="st12" d="M274.23,181.31c-1.14-3.58-4.97-5.55-8.55-4.41c-1.87,0.6-3.3,1.93-4.07,3.58
			c-1.59-0.89-3.52-1.15-5.39-0.55c-3.58,1.14-5.55,4.97-4.41,8.55c0,0,0.08,0.36,0.4,0.96c0.28,0.55,0.62,1.06,1.02,1.51
			c1.76,2.16,5.65,5.34,14.12,7.87c0,0,6.78-7.07,7.13-14.46C274.62,183.36,274.55,182.33,274.23,181.31z"/>
		<path class="st12" d="M255.23,203.46c-0.38-1.21-1.67-1.87-2.88-1.49c-0.63,0.2-1.11,0.65-1.37,1.2c-0.53-0.3-1.19-0.39-1.82-0.19
			c-1.2,0.38-1.87,1.67-1.49,2.88c0,0,0.03,0.12,0.13,0.32c0.09,0.19,0.21,0.36,0.34,0.51c0.59,0.73,1.9,1.8,4.76,2.65
			c0,0,2.28-2.38,2.4-4.87C255.36,204.15,255.34,203.8,255.23,203.46z"/>
	</g>
	<path style="clip-path:url(#SVGID_2_);fill:#EECC42;" d="M504.6,254.39c0,2.49,2.02,4.51,4.51,4.51c2.49,0,4.51-2.02,4.51-4.51
		c0-2.49-2.02-4.51-4.51-4.51C506.62,249.88,504.6,251.9,504.6,254.39z"/>
</g>
<path class="st26" d="M160.91,440.49l86.26-29.63c15.72-41.58,45.8-77.96,87.93-100.86c93.26-50.68,209.95-16.17,260.63,77.09
	c50.68,93.26,16.17,209.95-77.09,260.63c-93.26,50.68-209.95,16.17-260.63-77.09c-14.2-26.12-21.7-54.09-23.11-81.92L160.91,440.49z
	"/>
<g>
	<path class="st97" d="M350.98,191.61c7.28-2.36,14.75-3.84,22.19-4.39c7.48-0.56,14.97-0.08,22.27,1.42
		c5.15,1.06,10.21,2.69,15.04,4.86c1.35-0.23,2.76-0.4,4.15-0.5c2.53-0.2,5.17-0.14,8.09,0.17c4.84,0.51,9.67,1.99,14.36,4.39
		c8.17,4.2,15.63,11.51,21.57,21.12c2.64,4.28,5,9.11,7.02,14.38c1.84,4.81,3.31,9.92,4.36,15.19c1.08,5.42,1.66,10.72,1.74,15.78
		c0.04,2.55-0.03,5.15-0.09,7.66l-0.07,2.96c-0.05,3.29-0.06,7.18,0.27,11.13c0.12,1.58,0.35,3.13,0.54,4.31l0.02,0.28l0.02,0
		c0.56,2.76,1.28,5.06,2.23,7.17c0,0,0.1,0.21,0.1,0.21c0.75,1.47,1.59,2.77,2.57,3.96c1.22,1.38,2.66,2.66,4.42,3.9
		c2.7,1.82,5.63,3.33,8.48,4.79l0.27,0.14c2.91,1.5,5.98,3.17,8.76,5.25c1.49,1.11,2.87,2.46,4.03,3.63
		c1.33,1.34,2.68,2.89,4.11,4.72c2.31,2.95,4.39,6.39,6.19,10.21c2.83,6.02,4.82,12.85,5.91,20.32c0.74,5.1,0.94,10.41,0.57,15.82
		c-0.68,10.08-3.37,20.31-7.98,30.4c-4.23,9.24-10.2,18.44-17.76,27.34c-6.91,8.16-15.22,15.99-24.68,23.29
		c-8.82,6.81-18.46,12.89-28.64,18.08c-8.2,4.18-16.5,7.64-24.65,10.28c-1.74,0.56-3.48,1.09-5.24,1.59
		c-11.83,3.36-24.79,5.13-40.79,5.57c-10.35,0.28-21.2-0.08-33.17-1.12c-0.41-0.03-0.82-0.38-1.05-0.7
		c-5.23,0.54-10.89,0.47-16.79-0.21c-6.58-0.75-13.17-2.31-19.57-4.64c-9.59-3.48-22.78-10.26-31.18-22.77
		c-2.73-4.08-4.67-8.52-5.74-13.17c-0.92-4.04-1.2-8.34-0.85-13.14c0.32-4.54,1.16-9.09,1.98-13.49c0.74-4.03,1.51-8.19,1.88-12.35
		c0.3-4.01,0.17-7.59-0.4-10.94c-0.6-3.12-1.63-6.19-3.13-9.37c-0.02-0.04-0.04-0.08-0.06-0.12l0,0c-2.06-4.14-4.7-8.02-7.25-11.76
		c-0.87-1.28-1.75-2.56-2.6-3.85c-1.8-2.7-3.25-5.23-4.43-7.73c-1.22-2.58-2.06-5.34-2.49-8.22c-0.87-5.91,0.85-12.6,4.98-19.34
		c3.57-5.82,8.47-10.52,13.19-14.84l1.12-1.02c4.59-4.19,9.33-8.51,12.96-13.71c1.62-2.43,2.94-4.99,3.92-7.61
		c1.11-3.14,1.97-6.4,2.73-9.46c0.72-2.92,1.4-6.03,2.14-9.79c0.53-2.71,1.03-5.42,1.53-8.13c0.68-3.73,1.37-7.46,2.14-11.17
		c1.53-7.24,3.21-13.14,5.29-18.56c2.4-6.22,5.65-12.03,9.66-17.29c3.62-4.72,8.3-9.33,14.3-14.09c4.97-3.95,10.48-7.49,16.38-10.52
		C340.72,195.41,345.82,193.28,350.98,191.61"/>
	<path class="st97" d="M399.27,210.79c-2.25,0.39-4.47,0.97-6.64,1.66c-2.49,0.82-4.95,1.79-7.31,2.92
		c-2.68,1.26-5.25,2.75-7.74,4.34c0.04-0.03,0.09-0.06,0.12-0.09c-1.79,1.16-3.54,2.4-5.24,3.69c-1.74,1.33-3.41,2.75-5.09,4.15
		c-3.34,2.75-6.76,5.41-10.16,8.08c-6.31,4.94-12.63,9.96-18.06,15.88c0,0,0-0.01,0-0.01c-0.01,0.01-0.03,0.03-0.04,0.05l0.04-0.04
		c-0.03,0.03-0.05,0.07-0.08,0.09c0.01-0.01,0.01-0.02,0.01-0.02c-0.01,0.01-0.02,0.02-0.02,0.02l0.01,0
		c-1.5,1.65-2.9,3.38-4.21,5.17c-1.33,1.83-2.52,3.75-3.59,5.76l0.07-0.14c-0.83,1.59-1.57,3.21-2.22,4.88
		c-0.7,1.82-1.25,3.69-1.7,5.59c0-0.01,0-0.02,0-0.02c-0.3,1.35-0.55,2.71-0.74,4.07c-0.23,1.6-0.34,3.21-0.42,4.82
		c-0.03,0.8-0.04,1.6-0.05,2.41c-0.02,0.85-0.02,1.71-0.04,2.57c-0.03,1.86-0.06,3.73-0.13,5.6c-0.13,3.53-0.43,7.04-1.05,10.52
		c-0.6,3.4-1.58,6.73-2.93,9.91c-1.26,2.97-2.9,5.77-4.71,8.43c-1.85,2.74-3.93,5.32-6.03,7.87c-2.1,2.57-4.26,5.11-6.31,7.72
		c-2.18,2.79-4.27,5.68-5.92,8.82c0.02-0.04,0.05-0.09,0.06-0.13c-0.54,1.07-1.04,2.15-1.46,3.27c-0.4,1.03-0.71,2.09-0.96,3.16
		l0-0.01c-0.22,0.96-0.37,1.94-0.47,2.93c-0.09,0.99-0.11,1.98-0.07,2.98c0-0.05,0-0.1,0-0.16c0.05,0.98,0.16,1.95,0.32,2.92
		c0.18,1.07,0.45,2.13,0.78,3.17c0.54,1.65,1.21,3.25,1.99,4.81c0.83,1.67,1.8,3.28,2.81,4.86l0,0c1.4,2.14,2.91,4.22,4.46,6.27
		c0.86,1.13,1.75,2.26,2.6,3.41c0.92,1.24,1.8,2.51,2.63,3.81c0.78,1.23,1.51,2.5,2.15,3.8c0.66,1.31,1.22,2.68,1.64,4.08
		c0.18,0.59,0.34,1.19,0.49,1.79c0.18,0.76,0.29,1.53,0.38,2.3c0.17,1.47,0.13,2.96-0.03,4.43c-0.16,1.41-0.51,2.78-0.95,4.13
		c-0.38,1.16-0.88,2.29-1.46,3.37c-0.59,1.11-1.26,2.16-1.99,3.18c-0.75,1.05-1.6,2.05-2.47,3c-3.56,3.89-7.73,7.17-11.31,11.05
		c0,0,0,0,0,0c-0.84,0.93-1.65,1.89-2.4,2.89c-0.72,0.97-1.37,2.01-1.96,3.07c0.01,0,0.01-0.01,0.01-0.01
		c-0.57,1.08-1.07,2.19-1.51,3.33c-0.41,1.06-0.72,2.15-0.99,3.24c0.01-0.01,0.01-0.03,0.01-0.04c-0.25,1.1-0.44,2.21-0.57,3.34
		c-0.13,1.23-0.15,2.47-0.11,3.7c0-0.04,0-0.1-0.01-0.15c0.06,1.35,0.2,2.7,0.44,4.04c0.24,1.45,0.63,2.88,1.07,4.28
		c0.55,1.67,1.22,3.3,1.98,4.89c0.85,1.78,1.84,3.49,2.9,5.15c-0.02-0.04-0.06-0.09-0.08-0.12c3.34,5.15,7.45,9.72,11.98,13.85
		c1.98,1.78,4.04,3.49,6.17,5.1c1.38,0.23,2.77,0.42,4.15,0.58c5.97,0.68,11.62,0.75,16.77,0.19c0.23,0.34,0.66,0.69,1.07,0.72
		c11.96,1.05,22.81,1.42,33.17,1.12c16.04-0.44,29.01-2.21,40.81-5.57c1.76-0.49,3.5-1.02,5.24-1.58c8.1-2.62,16.4-6.08,24.66-10.29
		c10.18-5.19,19.82-11.27,28.65-18.09c9.46-7.28,17.76-15.11,24.68-23.29c0.63-0.75,1.27-1.5,1.88-2.26
		c1.06-3.15,1.96-6.35,2.71-9.59c-0.01,0.05-0.02,0.1-0.03,0.15c0.71-3.13,1.27-6.3,1.66-9.48c0.49-3.9,0.64-7.84,0.49-11.79
		c0.01,0.05,0,0.1,0.01,0.15c-0.08-1.67-0.2-3.33-0.39-5.01c-0.19-1.79-0.48-3.57-0.8-5.35c-0.65-3.51-1.56-6.98-2.65-10.38
		c-1.14-3.53-2.48-6.98-3.94-10.38c-1.51-3.5-3.19-6.91-4.94-10.29c-1.78-3.43-3.67-6.81-5.58-10.19
		c-1.91-3.36-3.66-6.79-5.25-10.31c-1.5-3.29-2.8-6.66-3.95-10.1c-1.08-3.28-1.97-6.63-2.69-10.01c-0.77-3.56-1.3-7.17-1.69-10.79
		c-0.4-3.67-0.57-7.34-0.69-11.02l-0.06-1.59c0,0.04,0.01,0.1,0.01,0.15c-0.26-6.04-0.85-12.07-1.79-18.04
		c-1.01-6.37-2.43-12.66-4.38-18.79c-2.23-6.93-5.15-13.64-9.1-19.76c0.03,0.04,0.05,0.08,0.09,0.12c-0.26-0.41-0.53-0.81-0.81-1.21
		c0.02,0.19-0.05,0.38-0.2,0.51c-0.25,0.2-0.61,0.17-0.81-0.07c-2.21-2.51-4.54-4.91-7-7.18l0,0c0.01,0,0.01,0.01,0.01,0.01
		c-0.01-0.01-0.01-0.01-0.01-0.01c-0.01-0.01-0.03-0.02-0.04-0.03c0,0,0,0,0-0.01c-0.02-0.01-0.03-0.03-0.05-0.04
		c-2.11-1.9-4.3-3.69-6.61-5.35c-2.28-1.64-4.67-3.11-7.14-4.44c0.01,0.01,0.03,0.02,0.04,0.03c-1.96-1.03-3.97-1.94-6.05-2.74
		c-2.09-0.8-4.23-1.45-6.41-1.96c0,0,0.01,0,0.01,0c-2.04-0.46-4.08-0.8-6.16-1c-2.09-0.21-4.18-0.25-6.29-0.17
		c0.05-0.01,0.1,0,0.16-0.01C403.71,210.15,401.48,210.39,399.27,210.79 M327.43,272.78c-0.01,0.03-0.01,0.07-0.02,0.1
		C327.42,272.85,327.42,272.81,327.43,272.78 M302.11,373.31l-0.06-0.09L302.11,373.31z"/>
	<path class="st98" d="M458.55,236.01c0,0-0.01-0.01-0.01-0.01l0-0.01C458.54,236,458.55,236,458.55,236.01"/>
	<path class="st98" d="M458.58,236.05L458.58,236.05c0-0.01-0.01-0.01-0.01-0.02C458.58,236.04,458.58,236.04,458.58,236.05"/>
	<path class="st98" d="M458.62,236.08c-0.01-0.01-0.02-0.02-0.03-0.03c0,0,0,0,0,0C458.59,236.06,458.61,236.07,458.62,236.08"/>
	<path class="st99" d="M371.69,349.36c0.68-0.13,1.57,0.14,1.88,0.88c0.46,1.11,0.89,2.22,1.3,3.35c0.11-0.36,0.27-0.71,0.47-1.06
		c0.68-1.18,1.82-2.21,3.14-2.82c0.68-0.32,1.42-0.56,2.19-0.7c2.55-0.47,5.22,0.03,7.27,0.52c3.89,0.92,7.57,2.61,10.66,4.14
		c3.06,1.51,6.1,3.27,9.04,5.22l0.78,0.52c-0.27-1.18-0.44-2.4-0.58-3.61c-0.05-0.41-0.06-0.85,0.23-1.31
		c0.25-0.39,0.65-0.68,1.1-0.77l0.04-0.01c0.48-0.09,0.92,0,1.27,0.24c0.33,0.21,0.72,0.64,0.76,1.09c0.42,3.52,1.11,6.58,2.1,9.36
		c0.86,2.2,1.91,4.2,3.11,5.95c1.11,1.52,2.38,2.9,3.78,4.11l0.09,0.08l0,0l0.01,0.01l0,0l0.19,0.17l-0.22-0.13
		c1.68,1.3,3.56,2.49,5.62,3.48c3.26,1.51,7.81,1.81,12.52,2.72l-0.82,0.82c4.62,0.83,9.36,1.27,13.95,1.7l2.93,0.28
		c4.06,0.39,7.31,0.91,10.21,1.62c3.2,0.81,6.02,1.98,8.35,3.5c0.67,0.01,1.14,0.26,1.47,0.64c0.29,0.35,0.43,0.77,0.37,1.18
		c-0.62,5.05-1.89,9.86-3.78,14.3c-1.84,4.31-4.29,8.38-7.27,12.1c-5.61,7.01-13.3,12.99-22.23,17.29c-4.18,2.02-8.75,3.7-13.59,5
		c-1.88,0.51-3.85,0.95-5.84,1.32c-2.7,0.5-5.54,0.88-8.45,1.13c-4.68,0.4-9.43,0.36-14.12-0.12c-2.43-0.24-4.85-0.58-7.27-0.91
		l-1.04-0.14c-2.86-0.4-5.8-0.87-8.72-1.41c-8.25-1.5-15.16-3.51-21.12-6.15c-3.46-1.54-6.69-3.33-9.6-5.33
		c-3.05-2.09-5.91-4.58-8.52-7.38c-0.09-0.1-0.17-0.2-0.24-0.32c-0.45-0.27-0.73-0.67-0.84-1.12c-0.11-0.48,0.01-0.86,0.23-1.31
		c0.73-1.56,1.54-2.97,2.46-4.3c0.88-1.27,1.91-2.42,2.9-3.48c2.05-2.19,4.36-4.09,6.55-5.82c0.85-0.67,1.7-1.32,2.55-1.97
		c1.37-1.05,2.73-2.1,4.07-3.19c2.42-1.98,4.45-3.91,6.19-5.92c1.71-2.09,3.19-4.41,4.39-6.9c1.25-2.7,2.14-5.56,2.67-8.48
		c0.48-3.02,0.6-6.18,0.36-9.41c0-0.01,0-0.16,0.01-0.16c0.01,0,0.02-0.11,0.02-0.11c-0.51-4.41-1.56-8.84-3.19-13.32
		c-0.33-0.86-0.66-1.71-1.02-2.55c-0.16-0.39-0.29-0.83-0.12-1.35c0.13-0.42,0.44-0.79,0.84-1
		C371.35,349.45,371.5,349.4,371.69,349.36"/>
	<path class="st100" d="M373.61,350.22c0.47,1.12,0.91,2.24,1.32,3.37c-0.01-0.3,0.13-0.63,0.37-1.08c0.69-1.18,1.84-2.21,3.16-2.83
		c0.69-0.33,1.42-0.57,2.2-0.72c2.55-0.47,5.24,0.04,7.3,0.54c3.91,0.91,7.6,2.6,10.69,4.13c3.06,1.52,6.11,3.28,9.04,5.22
		l0.78,0.52c-0.38-1.31-0.56-2.77-0.66-3.56c-0.05-0.38-0.07-0.84,0.24-1.35c0.26-0.4,0.66-0.7,1.12-0.79
		c0.51-0.09,0.98-0.01,1.35,0.24c0.34,0.22,0.74,0.66,0.79,1.12c0.43,3.52,1.11,6.58,2.1,9.37c0.84,2.18,1.88,4.18,3.09,5.93
		c0.82,1.11,1.72,2.15,2.67,3.08c-3.38,1.11-6.85,1.89-10.39,2.36l0.01,0l-0.01,0c-0.02,0-0.05,0-0.08,0c0,0,0,0,0,0l-0.05,0.01
		c-2.31,0.28-4.63,0.43-6.95,0.41c-2.31-0.02-4.63-0.18-6.92-0.5c-1.9-0.27-3.81-0.66-5.67-1.17c-1.85-0.52-3.66-1.14-5.44-1.9
		c0.05,0.02,0.09,0.04,0.14,0.06c-1.48-0.64-2.94-1.35-4.33-2.17c-1.27-0.75-2.5-1.56-3.68-2.44l0.01,0.01
		c-0.01-0.01-0.02-0.02-0.03-0.03c-0.02-0.01-0.03-0.02-0.04-0.03c-0.37-0.29-0.75-0.59-1.11-0.89c-0.56-4.21-1.61-8.49-3.15-12.72
		c-0.32-0.86-0.65-1.69-1.01-2.54c-0.16-0.4-0.3-0.85-0.12-1.38c0.13-0.43,0.44-0.81,0.86-1.03c0.16-0.09,0.31-0.15,0.48-0.18
		C372.37,349.18,373.29,349.46,373.61,350.22"/>
	<path class="st100" d="M464.87,268.3l0.25-0.08c0.54-0.16,1.11-0.23,1.67-0.29c1.16-0.14,2.2,0.04,3,0.2
		c1.1,0.21,2.13,0.71,2.9,1.12c0.93,0.51,1.76,1.17,2.45,1.75c0.72,0.62,1.43,1.37,2.17,2.31c2.03,2.6,3.41,5.61,3.99,8.71
		c0.64,3.47,0.18,7.39-1.31,11.02c-0.74,1.8-1.69,3.46-2.84,4.95c-0.56,0.74-1.19,1.46-1.91,2.19c-0.79,0.79-1.68,1.48-2.46,2.05
		c-1.45,1.07-3.09,1.9-4.87,2.48c-2.1,0.68-4.37,0.97-6.57,0.85c-0.32-0.01-0.65-0.11-0.94-0.3c-0.06,0.04-0.15,0.08-0.24,0.11
		c-0.56,0.15-1.04,0.08-1.45-0.17c-0.44-0.26-0.62-0.63-0.79-1.05c-1.63-4.06-2.69-8.63-3.14-13.58c-0.22-2.52-0.2-5,0.07-7.37
		c0.3-2.62,0.89-4.92,1.83-7.04c0.96-2.16,2.33-4.02,4.04-5.51c0.89-0.77,1.85-1.4,2.84-1.85
		C463.99,268.6,464.44,268.44,464.87,268.3"/>
	<path class="st99" d="M411.6,203.96c0.28-0.09,0.55-0.11,0.82-0.06c0.24,0.05,0.48,0.14,0.68,0.29c0.1,0.03,0.2,0.06,0.3,0.1
		c8.29,3.64,16.08,9.17,23.14,16.45c6.69,6.9,12.48,15.12,17.22,24.44c4.65,9.15,8.03,18.83,10.04,28.76
		c2.05,10.11,2.59,20.06,1.6,29.57c-1.04,10.03-4.03,19.42-8.64,27.18c-4.74,7.97-11.64,14.95-19.95,20.17
		c-3.86,2.42-8.19,4.53-12.85,6.28c-0.98,0.37-1.97,0.71-2.96,1.03c-3.45,1.12-7.06,2-11.03,2.7c-9.41,1.66-19.15,1.64-28.96-0.07
		c-8.21-1.43-15.99-4.08-23.12-7.88c-4.54-2.42-8.59-5.27-12.04-8.46c-3.43-3.17-6.6-6.97-9.42-11.3c-0.04,0.01-0.08,0.03-0.11,0.04
		c-1.73,0.56-3.48,0.95-5.18,1.16c-1.67,0.21-3.46,0.21-5.33,0c-3.03-0.35-6.01-1.55-8.62-3.47c-2.21-1.62-4.11-3.88-5.52-6.55
		c-1.37-2.65-2.22-5.5-2.51-8.49c-0.54-5.46,0.98-10.72,4.18-14.44c1.67-1.95,3.92-3.48,6.5-4.42c0.19-0.07,0.38-0.13,0.57-0.19
		c1.9-0.61,4.03-0.9,6.35-0.86c-2.05-5.37-3.31-10.39-3.89-15.34c-0.68-5.86-0.21-11.84,1.37-17.28c1.62-5.62,4.47-10.97,8.46-15.9
		c3.32-4.12,7.68-8.02,12.96-11.61c3.42-2.33,7.24-4.51,12.01-6.86c4.61-2.28,9.3-4.21,12.87-5.63c1.12-0.45,2.25-0.89,3.38-1.33
		c1.11-0.43,2.23-0.87,3.34-1.31c2.7-1.08,5.38-2.2,8.05-3.38c5-2.18,10.04-4.59,15.42-7.38l-0.28,0.19
		c3.47-1.86,6.98-3.78,10.69-5.92C411.27,204.1,411.43,204.02,411.6,203.96"/>
	<polygon class="st101" points="443.43,244.84 443.43,244.84 443.47,244.86 443.43,244.84 	"/>
	<path class="st102" d="M319.34,303.78c-0.12,0.04-0.23,0.07-0.35,0.11c-2.11,0.68-4.03,1.96-5.39,3.72
		c-0.25,0.32-0.2,0.77,0.11,1.02c0.31,0.25,0.78,0.2,1.02-0.11c0.2-0.26,0.42-0.5,0.65-0.74c0.4-0.37,0.83-0.69,1.29-0.98
		c0.7-0.38,1.41-0.67,2.18-0.89c0.9-0.21,1.79-0.32,2.71-0.33c0.69,0.04,1.35,0.12,2.03,0.28c0.6,0.19,1.18,0.43,1.76,0.67
		c0.56,0.24,1.22-0.01,1.46-0.57c0.19-0.44,0.08-1.02-0.32-1.31c-1.03-0.75-2.32-1.16-3.59-1.23
		C321.7,303.36,320.52,303.45,319.34,303.78 M316.8,306.71c-0.02,0.01-0.03,0.02-0.05,0.03
		C316.77,306.73,316.79,306.72,316.8,306.71"/>
	<path class="st97" d="M379.11,203.11L379.11,203.11c1.47-0.47,2.95-0.91,4.43-1.29c9.27-2.45,18.96-3.05,28-1.75
		c9.35,1.34,18.13,4.82,25.39,10.04c3.77,2.7,7.24,5.99,10.32,9.76c3.11,3.81,5.81,8.21,8.04,13.08l0.13,0.3
		c0.4,0.89,0.05,1.92-0.8,2.33c-0.07,0.04-0.15,0.07-0.22,0.09c-0.43,0.14-0.91,0.1-1.32-0.1c-8.56,1.49-16.59-2.19-21.81-5.55
		c-3.24-2.09-6.34-4.72-9.2-7.79c-1.69-1.82-3.2-3.76-4.51-5.77c-1.25,6.39-4.29,12.73-9,18.84c-2.56,3.33-5.74,6.64-9.44,9.82
		c-3.37,2.91-7.18,5.63-11.31,8.08c-5.37,3.18-11.02,5.74-16.78,7.61c-2.41,0.78-4.86,1.44-7.31,1.98
		c-4.04,0.89-8.09,1.35-12.02,1.39c-3.47,0.04-6.78-0.28-9.82-0.93c0.62,4.31,0.93,8.14,0.98,11.66c0.07,5.86-0.57,10.52-2.03,14.65
		c-1.61,4.57-4.65,8.14-8.34,9.8c-0.26,0.12-0.53,0.22-0.8,0.3c-1.37,0.44-2.88,0.53-4.25,0.23c-1.54-0.34-3.03-1.13-4.44-2.36
		c-2.98-2.58-4.9-6.28-6.24-9.21c-1.35-2.93-2.47-6.23-3.33-9.79c-0.09-0.4,0.1-0.9,0.33-1.22c-0.39-3.08-0.46-6.19-0.48-8.82
		l-0.01-2.54l-0.01-2.54l0-0.99c-0.01-1.15-0.01-2.3,0.05-3.46c0.13-2.39,0.55-4.83,1.24-7.27c0.58-2.04,1.44-4.13,2.64-6.39
		c1.91-3.57,4.67-7,8.45-10.46c3.69-3.37,7.82-6.16,11.37-8.44c2.99-1.91,6.1-3.74,9.11-5.51c3.61-2.12,7.34-4.31,10.89-6.66
		l0.26-0.15l0.01,0.02l0.34-0.28c1.8-1.2,3.66-2.44,5.56-3.57c2.03-1.2,4.23-2.35,6.53-3.44
		C372.64,205.44,375.81,204.19,379.11,203.11"/>
	<path class="st97" d="M379.29,272.07c1.12,2.02-2.49,6.17-8.06,9.27c-5.57,3.1-11,3.98-12.12,1.96c-1.12-2.02,2.49-6.17,8.06-9.27
		C372.74,270.93,378.17,270.05,379.29,272.07"/>
	<path class="st97" d="M431.42,262.5c-0.37,2.2,4.26,4.81,10.32,5.83c6.07,1.03,11.3,0.07,11.67-2.12c0.37-2.2-4.25-4.81-10.32-5.84
		S431.8,260.3,431.42,262.5"/>
	<path class="st103" d="M440.72,275.28c0.13-0.04,0.26-0.07,0.38-0.09c2.52-0.4,5.15,2.92,5.87,7.39c0.68,4.17-0.57,8.02-2.84,8.76
		c-0.13,0.04-0.26,0.07-0.39,0.1c-0.79,0.12-1.61-0.11-2.39-0.68c-1.67-1.2-3-3.76-3.48-6.7
		C437.2,279.86,438.45,276.01,440.72,275.28"/>
	<path class="st103" d="M372.22,288.28c0.11-0.04,0.23-0.07,0.34-0.09c2.6-0.46,5.39,2.92,6.22,7.53c0.79,4.36-0.45,8.37-2.82,9.14
		c-0.11,0.04-0.23,0.07-0.34,0.09c-1.26,0.23-2.61-0.43-3.78-1.86c-1.16-1.41-2.03-3.42-2.45-5.66
		C368.62,293.06,369.86,289.04,372.22,288.28"/>
	<g>
		<path class="st13" d="M414.04,296.03c1.49,0.46,2.95,0.94,4.35,1.5c0.69,0.3,1.38,0.6,1.98,0.99c0.59,0.38,1.15,0.86,1.27,1.36
			c0.15,0.48-0.1,1.04-0.58,1.61c-0.43,0.56-0.95,1.03-1.57,1.33c-1.25,0.59-2.85,0.41-4.26-0.22c1.17,0.99,2.91,1.62,4.59,1.03
			c0.83-0.27,1.51-0.84,2.06-1.46c0.52-0.56,1.14-1.53,0.84-2.59c-0.33-1.01-1.11-1.54-1.8-1.96c-0.73-0.4-1.48-0.69-2.24-0.91
			C417.16,296.27,415.6,296.06,414.04,296.03z"/>
		<path class="st12" d="M433.8,308.44c0,0-11.09,8.62-30.95,5.91c0,0,0.49,13.63,17.26,10.51S433.8,308.44,433.8,308.44z"/>
		<path class="st104" d="M365.92,326.97c1.26,6.96,8.98,11.38,17.24,9.88c8.26-1.5,13.94-8.35,12.67-15.31
			c-1.26-6.96-8.98-11.38-17.24-9.88C370.33,313.17,364.66,320.02,365.92,326.97z"/>
		<path class="st104" d="M437.44,307.71c2.37,6.13,10.19,8.83,17.48,6.02c7.29-2.81,11.27-10.06,8.91-16.19
			c-2.37-6.13-10.19-8.83-17.48-6.02C439.07,294.32,435.08,301.57,437.44,307.71z"/>
	</g>
</g>
<g>
	<circle class="st94" cx="169.3" cy="316.88" r="67.12"/>
	<polygon class="st94" points="226.27,343.03 240.67,371.47 210.96,365.48 	"/>
	<g>
		<g>
			<g>
				<path class="st23" d="M186.27,314.31c0.55,3.14,3.54,5.25,6.68,4.7c3.14-0.55,5.25-3.54,4.7-6.68c-0.55-3.14-3.54-5.25-6.68-4.7
					C187.83,308.17,185.72,311.16,186.27,314.31z"/>
			</g>
		</g>
		<g>
			<g>
				<path class="st23" d="M163.49,318.26c0.55,3.14,3.54,5.25,6.68,4.7c3.14-0.55,5.25-3.54,4.7-6.68c-0.55-3.14-3.54-5.25-6.68-4.7
					C165.05,312.13,162.94,315.12,163.49,318.26z"/>
			</g>
		</g>
		<g>
			<g>
				<path class="st23" d="M140.27,319.36c-1.1,3,0.44,6.32,3.43,7.41c3,1.1,6.32-0.44,7.41-3.43c1.1-3-0.44-6.32-3.43-7.41
					C144.69,314.83,141.37,316.37,140.27,319.36z"/>
			</g>
		</g>
	</g>
	<path class="st105" d="M152.83,252.01c-0.73,0.19-1.55,0.35-2.44,0.61c-0.88,0.31-1.84,0.64-2.87,1c-1.04,0.36-2.16,0.75-3.35,1.16
		c-1.15,0.53-2.37,1.09-3.66,1.69c-5.14,2.42-11.23,6.01-17.1,11.58c-5.88,5.51-11.68,12.88-15.79,22.19c-4,9.3-6.37,20.49-5.4,32.4
		c0.42,2.95,0.59,5.99,1.41,8.97c0.38,1.49,0.62,3.03,1.11,4.52c0.5,1.48,1,2.97,1.51,4.48c2.33,5.88,5.25,11.81,9.42,17.07
		c4.1,5.29,9.03,10.14,14.73,14.23c5.78,3.97,12.27,7.16,19.23,9.27c6.95,2.14,14.41,3.16,21.92,2.75c1.89,0.05,3.75-0.28,5.63-0.5
		c1.88-0.2,3.77-0.46,5.63-0.87c3.73-0.81,7.41-1.93,10.99-3.37c7.78-3.12,14.82-7.73,20.74-13.29l0.29-0.27l0.39,0.08
		c7.97,1.71,15.8,3.38,23.45,5.02c-3.59-7.67-7.1-15.15-10.49-22.39l-0.15-0.32l0.16-0.31c4.95-9.61,7.38-20.03,7.43-29.98
		c0.03-4.97-0.43-9.86-1.54-14.47c-0.49-2.32-0.99-4.61-1.81-6.77c-0.36-1.1-0.73-2.18-1.08-3.26c-0.39-1.07-0.91-2.08-1.35-3.11
		c-7.33-16.49-20.08-27.49-31.86-33.09c-11.84-5.86-22.6-6.81-29.68-6.87c-1.79,0.04-3.38-0.03-4.75,0.1
		c-1.34,0.14-2.49,0.26-3.44,0.36c-0.88,0.08-1.57,0.15-2.11,0.2c-0.48,0.04-0.72,0.05-0.72,0.03c0,0.03-0.38,0.14-1.12,0.33
		C155.33,251.38,154.23,251.66,152.83,252.01z"/>
	<path class="st23" d="M229.48,348.38c0.06-0.11,0.1-0.22,0.16-0.33c-0.05-0.1-0.1-0.21-0.14-0.31L229.48,348.38z"/>
	<path class="st23" d="M240.15,371.05c-0.49-0.1-0.98-0.21-1.47-0.32c0.21,0.46,0.43,0.91,0.64,1.37L240.15,371.05z"/>
	<path class="st23" d="M214.9,367.21c0.13,0.03,0.25,0.05,0.38,0.08c0.1-0.09,0.2-0.18,0.3-0.27L214.9,367.21z"/>
</g>
<g>
	<g>
		<path class="st106" d="M427.01,430.5c3.01-23.57,16.41-49.54,37.41-45.1c23.38,4.95,31.59,15.3,46.85,30.86
			c15.26,15.56,26.43,34.57,37.44,53.36c4.31,7.35,8.75,15.99,5.83,23.99c-2.53,6.9-9.69,10.81-16.32,14
			c-17.12,8.23-34.55,15.82-52.24,22.72c-7.1,2.77-14.96,5.46-22.17,3.01c-9.16-3.11-13.68-13.13-17.18-22.13
			c-12.28-31.59-24.57-63.18-36.85-94.76"/>
	</g>
</g>
<g>
	<g>
		<g>
			<g>
				<path class="st106" d="M438.46,380.81l31.19,5.29c16.56,8.59,24.33,27.23,27.32,45.61l50.07,198.27c0,0-73.29,67.19-180.6,31.99
					c-2.8-0.92,7.24-50.36,7.24-50.36l-45.53-95.09c-4.78-14.01-11.72-43.62-10.66-58.51c2.71-38.18,26.41-53.96,51.49-66.28
					c0,0,30.72,17.17,55.66,7.57C424.64,399.29,438.46,395.12,438.46,380.81z"/>
			</g>
		</g>
	</g>
</g>
<g class="st107">
	<g>
		<g>
			<path d="M508.9,538.9c-11.89,26.94-23.79,53.89-35.68,80.83c-4.65,10.54-9.51,21.37-17.88,29.28
				c-12.17,11.49-31.3,14.94-46.71,8.41c-15.41-6.53-26.24-22.67-26.45-39.4c-0.02-1.98,0.12-4.07,1.17-5.75
				c1.63-2.59,5.06-3.52,8.11-3.22c3.05,0.3,5.9,1.59,8.83,2.49c17.04,5.26,35.86-2.9,48.51-15.47
				c12.65-12.57,20.57-28.99,29.1-44.65c3.16-5.79,6.67-11.78,12.33-15.17c5.66-3.4,14.08-3.11,17.79,2.35"/>
		</g>
	</g>
</g>
<g>
	<g>
		<g>
			<path class="st23" d="M445.02,382.34c-0.34-0.16-1.11,5.61-6.71,12.47c-2.74,3.41-6.77,6.86-11.83,9.67
				c-5.07,2.78-11.24,4.81-17.89,5.33c-6.68,0.45-13.08-0.43-18.68-1.98c-5.61-1.53-10.45-3.64-14.38-5.65
				c-3.93-2.02-6.98-3.9-9.06-5.24c-2.08-1.34-3.22-2.11-3.28-2.02c-0.05,0.06,0.99,0.97,2.99,2.45c2,1.48,5,3.5,8.91,5.65
				c3.91,2.15,8.78,4.37,14.48,6c5.68,1.65,12.24,2.59,19.1,2.13c6.87-0.54,13.21-2.68,18.39-5.59c5.17-2.95,9.25-6.58,11.97-10.16
				c2.74-3.57,4.33-6.9,5.08-9.28c0.46-1.16,0.58-2.15,0.76-2.78C445.02,382.69,445.07,382.35,445.02,382.34z"/>
		</g>
	</g>
</g>
<g>
	<g>
		<path class="st106" d="M359.06,397.53c-17.91,11.84-36.5,24.41-46.85,43.2c-10.52,19.1-11.01,42.41-5.94,63.59
			c5.07,21.18,15.24,40.73,25.32,60.04c3.94,7.55,8.9,15.91,17.24,17.7c7.2,1.54,14.32-2.43,20.56-6.34
			c16.1-10.08,31.81-20.77,47.09-32.04c6.13-4.52,12.59-9.73,14.35-17.13c2.24-9.4-3.85-18.55-9.62-26.3
			c-20.25-27.2-40.49-54.39-60.74-81.59"/>
	</g>
</g>
<g>
	<g>
		<g>
			<path class="st23" d="M421.08,540.08c0,0,0.61-0.1,1.59-0.71c0.96-0.6,2.32-1.74,3.34-3.7c1.02-1.94,1.7-4.64,1.47-7.76
				c-0.22-3.14-1.65-6.51-3.76-9.76c-2.1-3.28-4.91-6.45-7.49-10.11c-2.62-3.64-5.08-7.78-7.46-12.23
				c-4.77-8.93-8.96-19.28-14.08-29.86c-5.12-10.56-11.07-20.28-18.34-27.55c-7.16-7.39-15.69-11.82-23.2-13.68
				c-7.56-1.94-14.02-1.31-18.18-0.21c-4.19,1.12-6.22,2.46-6.22,2.46c0.06,0.15,2.18-1,6.34-1.95c4.13-0.92,10.46-1.4,17.82,0.62
				c7.33,1.95,15.59,6.34,22.56,13.63c7.09,7.18,12.93,16.78,18.02,27.28c5.09,10.51,9.32,20.88,14.19,29.85
				c2.44,4.48,4.96,8.64,7.65,12.3c2.66,3.69,5.5,6.81,7.59,9.98c2.11,3.14,3.53,6.34,3.81,9.31c0.29,2.97-0.28,5.58-1.19,7.46
				c-0.9,1.91-2.14,3.06-3.03,3.71C421.62,539.81,421.05,540.01,421.08,540.08z"/>
		</g>
	</g>
</g>
<g>
	<g>
		<g>
			<path class="st23" d="M506.69,467.45c0.35-0.11-2.46-9.65-6.28-21.29c-3.82-11.64-7.19-20.99-7.54-20.87
				c-0.35,0.11,2.46,9.64,6.28,21.29C502.97,458.22,506.34,467.57,506.69,467.45z"/>
		</g>
	</g>
</g>
<g>
	<g>
		<g>
			<g>
				<path class="st108" d="M552.67,497.2l11.48,35.26L610.29,475l31.52,1.53c0,0-18.63,71.16-38.25,101.68s-32.15,36.72-41.34,38.89
					c-12.63,2.98-21.4-11.41-21.4-11.41l-22.67-88.75L552.67,497.2z"/>
			</g>
		</g>
		<g>
			<g>
				<g>
					<path class="st108" d="M563.75,531.54c-0.34-0.09-1.73,4.21-2.17,9.74c-0.46,5.53,0.22,10,0.56,9.96
						c0.38-0.03,0.31-4.45,0.76-9.86C563.33,535.98,564.12,531.63,563.75,531.54z"/>
				</g>
			</g>
		</g>
	</g>
	<g>
		<g>
			<g>
				<path class="st27" d="M586.04,366.99l48.6-9.26c7.35-1.4,15.54,5.87,14.23,13.34l-30.73,104.5c-1.19,4.05-4.55,7.09-8.7,7.88
					l-59.27,11.17c-6.97,0.38-10.88-6.69-8.85-11.31l29.39-102.18C572.7,373.89,578.64,368.4,586.04,366.99z"/>
			</g>
		</g>
		<g>
			<g>
				<path class="st23" d="M590.41,372.1l48.6-9.26c6.09-1.16,11.25,4.51,9.51,10.44l-29.96,102.21c-1.19,4.05-4.55,7.09-8.7,7.88
					l-58.57,11.16c-3.57,0.68-6.6-2.63-5.6-6.12l29.39-102.18C577.07,379,583.02,373.51,590.41,372.1z"/>
			</g>
		</g>
	</g>
	<g>
		<g>
			<g>
				<path class="st108" d="M611.75,419.36l27.16,5.27l9.29,19.31l-6.39,32.59l-43.37,14.99l10.52-15.84l-3.9-11.3
					c0,0-13.19-1.53-13.86-3.38c-0.67-1.85-0.04-8.58,1.81-9.25c1.85-0.67,15.83,1.7,15.83,1.7s-17.78-9.28-17.72-11.33
					c0.06-2.05,0.76-7.39,3.73-8.53c2.98-1.14,30.14,5.85,30.14,5.85l5.81,8.46l0.72-15.43
					C631.53,432.46,608.2,430.47,611.75,419.36z"/>
			</g>
		</g>
		<g>
			<g>
				<g>
					<path class="st108" d="M617.66,467.65c0.16,0.02,0.46-0.99,0.38-2.68c-0.07-1.67-0.64-4.01-1.97-6.23
						c-1.34-2.22-3.14-3.8-4.59-4.65c-1.45-0.86-2.48-1.07-2.54-0.92c-0.19,0.35,3.55,2.09,6,6.25
						C617.48,463.54,617.27,467.65,617.66,467.65z"/>
				</g>
			</g>
		</g>
		<g>
			<g>
				<g>
					<path class="st108" d="M628.82,460.96c0.13-0.1-1.22-2.32-2.26-6.42c-0.59-2.02-1.19-4.55-2.67-7.08
						c-0.74-1.25-1.72-2.51-3.07-3.46c-1.35-0.97-3-1.49-4.62-1.81c-6.45-1.04-12.23-1.77-16.45-2.3c-4.21-0.51-6.83-0.73-6.86-0.55
						c-0.03,0.18,2.54,0.73,6.72,1.48c4.16,0.76,10,1.66,16.33,2.68c1.54,0.3,2.98,0.76,4.13,1.57c1.16,0.8,2.06,1.9,2.77,3.03
						c1.42,2.3,2.11,4.73,2.82,6.73C626.95,458.91,628.67,461.1,628.82,460.96z"/>
				</g>
			</g>
		</g>
		<g>
			<g>
				<g>
					<path class="st108" d="M633.74,455.29c0.34-0.13-0.15-2.34-1.11-4.95c-0.96-2.61-2.01-4.61-2.36-4.49
						c-0.34,0.13,0.15,2.34,1.11,4.95C632.34,453.41,633.4,455.42,633.74,455.29z"/>
				</g>
			</g>
		</g>
	</g>
	<g>
		<g>
			<path class="st109" d="M615.87,385.86c0.65,3.42-1.59,6.72-5.01,7.37c-3.42,0.65-6.72-1.59-7.37-5.01
				c-0.65-3.42,1.59-6.72,5.01-7.37C611.92,380.2,615.22,382.44,615.87,385.86z"/>
		</g>
	</g>
</g>
<g>
	<g>
		<g>
			<path class="st108" d="M535.9,500.45c-0.05-0.04-0.5,0.49-1.31,1.52c-0.9,1.18-2.04,2.67-3.43,4.49c-3.03,4.1-7.12,9.64-12,16.24
				l-0.16,0.22l0.07,0.27c2.26,8.3,4.92,18.06,7.77,28.5c4.1,15.3,7.67,29.19,10.11,39.28c1.16,4.89,2.12,8.92,2.84,11.96
				c0.65,2.83,1.05,4.39,1.14,4.37c0.09-0.02-0.14-1.61-0.63-4.47c-0.51-2.86-1.31-6.99-2.43-12.06
				c-2.21-10.16-5.64-24.1-9.74-39.41c-2.81-10.49-5.56-20.26-7.96-28.47l-0.09,0.49c4.72-6.71,8.68-12.35,11.61-16.51
				c1.28-1.89,2.34-3.44,3.17-4.67C535.59,501.08,535.95,500.48,535.9,500.45z"/>
		</g>
	</g>
</g>
<g>
	<g>
		<g>
			<path class="st99" d="M419,539.63l7.26,15.32l71.81-76.68l18.62-41.17c2.49-5.51,7.02-9.84,12.64-12.09l0,0
				c5.96-2.39,12.64-2.23,18.48,0.44l26.97,12.33c0,0,1.8,12.92-4.46,11.46c-6.26-1.46-19.03-5.66-19.03-5.66l-7.49,30.88
				l-2.03,13.38l-12.04,13.57L453.4,612.83c-16.45,24.01-51.61,24.95-69.28,1.85l-21.51-36.96L419,539.63z"/>
		</g>
	</g>
	<g>
		<g>
			<g>
				<path class="st108" d="M427.92,552.25c-0.07-0.12-1.54,0.69-3.09,2.82c-1.56,2.1-2.97,5.58-3.23,9.57
					c-0.26,3.98,0.41,7.52,0.97,10c0.58,2.49,1.09,3.99,1.26,3.95c0.18-0.04-0.01-1.61-0.36-4.11c-0.33-2.5-0.83-5.97-0.58-9.75
					c0.25-3.77,1.43-7.06,2.71-9.16C426.86,553.44,428.07,552.41,427.92,552.25z"/>
			</g>
		</g>
	</g>
	<g>
		<g>
			<g>
				<path class="st108" d="M549.41,450.76c0.14-0.08-0.23-1.1-1.17-2.58c-0.94-1.44-2.55-3.5-5.21-4.57
					c-2.75-1.04-5.51-0.19-6.89,1.04c-1.44,1.28-1.44,2.6-1.31,2.58c0.2,0.08,0.53-0.99,1.86-1.87c1.28-0.86,3.65-1.43,5.88-0.57
					c2.27,0.9,3.86,2.65,4.95,3.91C548.6,450.01,549.25,450.86,549.41,450.76z"/>
			</g>
		</g>
	</g>
	<g>
		<g>
			<g>
				<path class="st108" d="M532.59,457.2c0.14,0.14,0.81-0.42,2-1.02c1.18-0.6,2.95-1.2,4.93-1.12c1.98,0.09,3.7,0.84,4.82,1.54
					c1.13,0.7,1.75,1.32,1.9,1.19c0.13-0.09-0.25-0.94-1.36-1.92c-1.08-0.97-2.99-1.99-5.3-2.1c-2.31-0.1-4.3,0.75-5.46,1.62
					C532.92,456.28,532.47,457.1,532.59,457.2z"/>
			</g>
		</g>
	</g>
</g>
<g>
	<g>
		<path class="st110" d="M278.1,687.97l91.75,31.9c11.33,3.94,23.81-2.11,27.75-13.43l0.38-1.08c3.94-11.33-2.11-23.81-13.43-27.75
			l-91.75-31.9c-11.33-3.94-23.81,2.11-27.75,13.43l-0.38,1.08C260.73,671.54,266.77,684.03,278.1,687.97z"/>
		<polygon class="st110" points="367.59,715.54 346.29,727.58 353.09,708.02 		"/>
	</g>
	<g>
		<path class="st94" d="M285.82,687.47l91.75,31.9c11.33,3.94,23.81-2.11,27.75-13.43l0.38-1.08c3.94-11.33-2.11-23.81-13.43-27.75
			l-91.75-31.9c-11.33-3.94-23.81,2.11-27.75,13.43l-0.38,1.08C268.45,671.04,274.5,683.53,285.82,687.47z"/>
		<polygon class="st94" points="375.31,715.04 354.01,727.08 360.81,707.53 		"/>
	</g>
	<path class="st12" d="M365.13,690.38c-1.23,3.53,0.64,7.38,4.17,8.61c3.53,1.23,7.38-0.64,8.61-4.17c1.23-3.53-0.64-7.38-4.17-8.61
		C370.21,684.99,366.35,686.85,365.13,690.38z"/>
	<path class="st12" d="M333.19,679.28c-1.23,3.53,0.64,7.38,4.17,8.61c3.53,1.23,7.38-0.64,8.61-4.17c1.23-3.53-0.64-7.38-4.17-8.61
		C338.27,673.89,334.42,675.75,333.19,679.28z"/>
	<path class="st12" d="M301.26,668.18c-1.23,3.53,0.64,7.38,4.17,8.61c3.53,1.23,7.38-0.64,8.61-4.17c1.23-3.53-0.64-7.38-4.17-8.61
		C306.34,662.78,302.48,664.65,301.26,668.18z"/>
	<polygon class="st110" points="354.01,727.08 346.29,727.58 358.75,712.92 	"/>
</g>
<g>
	<path class="st130" d="M240.23,586.03c0,0-2-6.22-12.63-4.34l4.15,7.56L240.23,586.03z"/>
	<polygon class="st130" points="183.26,595.71 197.46,596.46 182.55,604.46 	"/>
	<path class="st130" d="M189.08,565.64c0,0,3.5-3.5,12.63,0.83l-5.92,6.96L189.08,565.64z"/>
	<polygon class="st130" points="193.76,648.81 185.84,647.67 195.89,640.49 	"/>
	<g>
		<path class="st130" d="M240.3,586.24l-0.14-0.33c-1.04-2.49-3.92-3.67-6.41-2.64l-10.92,4.55c-3.34,1.21-8.13,3.41-9.93,2.36
			c-2.33-1.36-2.37-4.38-2.37-4.38c3.12-13.39-9.33-22.67-13.53-19.01c-4.2,3.66,5.86,12.34,2.63,19.09
			c-3.23,6.75-1.05,16.52-1.05,16.52l-6.12,2.27l12.5,30c0.96-0.4,5.3-2.21,5.3-2.21c10.23,5.09,26.88-6.96,30.68-9.87l7.51-3.13
			c2.1-0.88,3.1-3.31,2.23-5.41l-0.12-0.28c-0.88-2.1-3.31-3.1-5.41-2.23l0.32-0.13c2.49-1.04,3.67-3.92,2.64-6.41l-0.14-0.33
			c-1.04-2.49-3.92-3.67-6.41-2.64c2.49-1.04,3.67-3.92,2.64-6.41l-0.14-0.33c-1.04-2.49-3.92-3.67-6.41-2.64
			C240.15,591.61,241.34,588.73,240.3,586.24z"/>
		
			<rect x="183.67" y="598.37" transform="matrix(0.9231 -0.3847 0.3847 0.9231 -224.7753 121.9631)" class="st130" width="17.61" height="48.95"/>
		
			<rect x="184.28" y="601.4" transform="matrix(0.923 -0.3847 0.3847 0.923 -226.5125 119.403)" class="st130" width="1.83" height="48.95"/>
		
			<rect x="198.36" y="595.43" transform="matrix(0.9231 -0.3847 0.3847 0.9231 -223.1015 124.4469)" class="st130" width="2.34" height="48.95"/>
	</g>
	<g>
		<path class="st12" d="M232.37,585.09l-0.14-0.33c-1.04-2.49-3.92-3.67-6.41-2.64l-10.92,4.55c-3.34,1.21-8.13,3.41-9.93,2.36
			c-2.33-1.36-2.37-4.38-2.37-4.38c3.12-13.39-9.33-22.67-13.53-19.01s5.86,12.34,2.63,19.09c-3.23,6.75-1.05,16.52-1.05,16.52
			l-6.12,2.27l12.5,30c0.96-0.4,5.3-2.21,5.3-2.21c10.23,5.09,26.88-6.96,30.68-9.87l7.51-3.13c2.1-0.88,3.1-3.31,2.23-5.41
			l-0.12-0.28c-0.88-2.1-3.31-3.1-5.41-2.23l0.32-0.13c2.49-1.04,3.67-3.92,2.64-6.41l-0.14-0.33c-1.04-2.49-3.92-3.67-6.41-2.64
			c2.49-1.04,3.67-3.92,2.64-6.41l-0.14-0.33c-1.04-2.49-3.92-3.67-6.41-2.64C232.22,590.46,233.41,587.58,232.37,585.09z"/>
		
			<rect x="175.75" y="597.22" transform="matrix(0.9231 -0.3847 0.3847 0.9231 -224.9385 118.8223)" class="st12" width="17.61" height="48.95"/>
		
			<rect x="190.43" y="594.28" transform="matrix(0.9231 -0.3847 0.3847 0.9231 -223.2697 121.3103)" class="st12" width="2.34" height="48.95"/>
	</g>
</g>
<g>
	<path class="st131" d="M673.11,515.02c-7.3,19.57,14.69,68.85,14.69,68.85s48.89-22.82,56.19-42.4
		c7.3-19.57-2.64-41.36-22.22-48.66C702.2,485.5,680.41,495.44,673.11,515.02z"/>
	<polygon class="st131" points="687.8,583.86 675.71,580.19 691.12,546.41 	"/>
	<path class="st132" d="M661.02,511.35c-7.3,19.57,14.69,68.85,14.69,68.85s48.89-22.82,56.19-42.4
		c7.3-19.57-2.64-41.36-22.22-48.66C690.11,481.83,668.32,491.77,661.02,511.35z"/>
	
		<ellipse transform="matrix(0.9104 -0.4138 0.4138 0.9104 -156.0531 334.631)" class="st12" cx="694.5" cy="527.58" rx="17.86" ry="17.86"/>
</g>
<g>
	<circle class="st133" cx="376.56" cy="100.26" r="36.26"/>
	<g>
		<ellipse class="st134" cx="371.7" cy="100.26" rx="34.79" ry="36.26"/>
		<g>
			<defs>
				<path id="SVGID_20_" d="M351.62,102.27c0.57,11.06,9.32,19.85,20.08,19.85c10.75,0,19.51-8.79,20.08-19.85H351.62z"/>
			</defs>
			<clipPath id="SVGID_10_">
				<use xlink:href="#SVGID_20_"  style="overflow:visible;"/>
			</clipPath>
			<path style="clip-path:url(#SVGID_10_);fill:#283135;" d="M351.62,102.27c0.57,11.06,9.32,19.85,20.08,19.85
				c10.75,0,19.51-8.79,20.08-19.85H351.62z"/>
			<path style="clip-path:url(#SVGID_10_);fill:#DC5152;" d="M371.7,121.05c0,3.12-2.43,5.65-5.42,5.65c-3,0-5.42-2.53-5.42-5.65
				c0-3.12,2.43-5.65,5.42-5.65C369.27,115.4,371.7,117.93,371.7,121.05z"/>
			<path style="clip-path:url(#SVGID_10_);fill:#DC5152;" d="M381.08,121.05c0,3.12-2.43,5.65-5.42,5.65c-3,0-5.42-2.53-5.42-5.65
				c0-3.12,2.43-5.65,5.42-5.65C378.65,115.4,381.08,117.93,381.08,121.05z"/>
		</g>
	</g>
	<polyline class="st137" points="391.33,95.32 380.14,95.32 388.95,88.2 	"/>
	<polyline class="st137" points="350.13,95.32 361.32,95.32 352.5,88.2 	"/>
</g>
<g>
	<path class="st138" d="M90.65,565.08l56.97-15.65c3.4-0.93,5.41-4.45,4.47-7.86l-15.65-56.97c-0.93-3.4-4.45-5.41-7.86-4.47
		l-56.97,15.65c-3.4,0.93-5.41,4.45-4.47,7.86l15.65,56.97C83.72,564.01,87.24,566.01,90.65,565.08z"/>
	<polygon class="st138" points="68.13,498.22 61.67,507.92 71.43,506.51 	"/>
	<polygon class="st138" points="151.02,547.08 144.64,556.88 141.72,552.57 146.88,542.02 150,543.11 	"/>
	<path class="st139" d="M84.39,574.59l56.97-15.65c3.4-0.93,5.41-4.45,4.47-7.86l-15.65-56.97c-0.93-3.4-4.45-5.41-7.86-4.47
		l-56.97,15.65c-3.4,0.93-5.41,4.45-4.47,7.86l15.65,56.97C77.47,573.52,80.99,575.52,84.39,574.59z"/>
	<path class="st12" d="M86.5,520.88l8.89,32.38c0.52,1.89,2.88,2.52,4.27,1.14l21.41-21.27c1.33-1.32,0.84-3.57-0.92-4.22
		l-30.3-11.11C87.89,517.08,85.94,518.87,86.5,520.88z"/>
</g>
</svg>
