<?xml version="1.0" encoding="UTF-8"?>
<svg id="Capa_1" data-name="Capa 1" xmlns="http://www.w3.org/2000/svg" viewBox="0 0 200 200">
  <defs>
    <style>
      .cls-1 {
        stroke-width: .53px;
      }

      .cls-1, .cls-2, .cls-3, .cls-4 {
        fill: none;
        stroke: #43292e;
        stroke-linecap: round;
        stroke-miterlimit: 10;
      }

      .cls-2 {
        stroke-width: .29px;
      }

      .cls-5 {
        fill: #3ec9ff;
      }

      .cls-5, .cls-6, .cls-7, .cls-8, .cls-9, .cls-10, .cls-11, .cls-12, .cls-13, .cls-14, .cls-15, .cls-16, .cls-17, .cls-18, .cls-19, .cls-20, .cls-21, .cls-22, .cls-23, .cls-24, .cls-25, .cls-26, .cls-27, .cls-28, .cls-29, .cls-30 {
        stroke-width: 0px;
      }

      .cls-5, .cls-8, .cls-10, .cls-11, .cls-12, .cls-14, .cls-20, .cls-21, .cls-22 {
        fill-rule: evenodd;
      }

      .cls-6 {
        fill: #966;
      }

      .cls-7 {
        fill: #6c3340;
      }

      .cls-8, .cls-26 {
        fill: #9e6d82;
      }

      .cls-9 {
        fill: #a2eaea;
      }

      .cls-10 {
        fill: #d4356d;
      }

      .cls-11 {
        fill: #e4dae2;
      }

      .cls-12 {
        fill: #ff5283;
      }

      .cls-13 {
        fill: #7a7a7a;
      }

      .cls-14 {
        fill: #9b9b9b;
      }

      .cls-15, .cls-20 {
        fill: #fff;
      }

      .cls-31, .cls-23 {
        opacity: .75;
      }

      .cls-16 {
        fill: #d3c6b6;
      }

      .cls-17 {
        fill: #f7e8db;
      }

      .cls-18, .cls-22 {
        fill: #595959;
      }

      .cls-19 {
        fill: #d3d3d3;
      }

      .cls-3 {
        stroke-width: .44px;
      }

      .cls-21 {
        fill: #cc4e4e;
      }

      .cls-23, .cls-27 {
        fill: #fcf0e7;
      }

      .cls-24 {
        fill: #f1ce3b;
      }

      .cls-25 {
        fill: #c66;
      }

      .cls-4 {
        stroke-width: .37px;
      }

      .cls-28 {
        fill: #693a3b;
      }

      .cls-29 {
        fill: #ff3e5f;
      }

      .cls-30 {
        fill: #e9c2a1;
      }
    </style>
  </defs>
  <g>
    <path class="cls-19" d="M65.47,38.16h57.99c4.07,0,7.37,3.3,7.37,7.37v119.86c0,4.07-3.3,7.37-7.37,7.37h-57.99c-4.07,0-7.37-3.3-7.37-7.37V45.53c0-4.07,3.3-7.37,7.37-7.37Z"/>
    <path class="cls-5" d="M65.47,40.25c-2.9,0-5.29,2.38-5.29,5.29v85.28h68.57V45.53c0-2.9-2.38-5.29-5.29-5.29h-57.99Z"/>
    <path class="cls-14" d="M60.18,130.81v29.77c0,2.9,2.38,5.29,5.29,5.29h57.99c2.9,0,5.29-2.38,5.29-5.29v-29.77H60.18Z"/>
    <rect class="cls-15" x="59.5" y="125.13" width="69.93" height="9.53"/>
    <g>
      <g>
        <path class="cls-11" d="M88.44,127.77h35.98c.19,0,.35.16.35.35h0c0,.19-.16.35-.35.35h-35.98c-.19,0-.35-.16-.35-.35h0c0-.19.16-.35.35-.35Z"/>
        <path class="cls-10" d="M64.5,127.77h24.03c.19,0,.35.16.35.35h0c0,.19-.16.35-.35.35h-24.03c-.19,0-.35-.16-.35-.35h0c0-.19.16-.35.35-.35Z"/>
      </g>
      <g>
        <path class="cls-12" d="M64.15,132.86v-2.67c0-.12.09-.21.2-.21.05,0,.1.02.13.05l1.71,1.33c.09.07.11.2.04.3-.01.02-.03.03-.05.05l-1.72,1.34c-.09.07-.22.05-.28-.05-.03-.04-.04-.08-.04-.13h0Z"/>
        <g>
          <path class="cls-26" d="M69.33,129.97h.32c.05,0,.1.04.1.1v2.91c0,.05-.04.1-.1.1h-.32c-.05,0-.1-.04-.1-.1v-2.91c0-.05.04-.1.1-.1Z"/>
          <rect class="cls-26" x="70.3" y="129.97" width=".51" height="3.1" rx=".1" ry=".1"/>
        </g>
        <rect class="cls-26" x="73.48" y="130.34" width="2.36" height="2.36" rx=".25" ry=".25"/>
      </g>
      <g>
        <path class="cls-8" d="M123.7,130.29c-.11,0-.21-.09-.21-.21s.09-.21.21-.21h.63c.12,0,.23.05.31.13,0,0,.01.01.01.02.07.08.12.18.12.3v.64c0,.11-.09.21-.21.21s-.21-.09-.21-.21v-.64s0-.01,0-.02h0s-.01-.01-.02-.01h-.63ZM122.56,132.75c.11,0,.21.09.21.21s-.09.21-.21.21h-.63c-.12,0-.23-.05-.31-.13,0,0,0-.01-.01-.02-.07-.08-.11-.18-.11-.3v-.64c0-.11.09-.21.21-.21s.21.09.21.21v.64s0,.01,0,.02h0s.01.01.02.01h.63ZM123.7,133.16c-.11,0-.21-.09-.21-.21s.09-.21.21-.21h.63s.02,0,.02,0h0s0-.01,0-.02v-.64c0-.11.09-.21.21-.21s.21.09.21.21v.64c0,.11-.04.22-.12.3,0,0,0,.01-.01.02-.08.08-.19.13-.31.13h-.63ZM122.56,129.88c.11,0,.21.09.21.21s-.09.21-.21.21h-.63s-.01,0-.02,0h0s0,.01,0,.02v.64c0,.11-.09.21-.21.21s-.21-.09-.21-.21v-.64c0-.11.04-.22.11-.3,0,0,0-.01.01-.02.08-.08.19-.13.31-.13h.63Z"/>
        <path class="cls-8" d="M116.46,132.94c.16-.06.32-.15.45-.26l.2.12c.09.05.21.02.27-.07l.32-.56c.05-.09.02-.22-.07-.27l-.2-.12c.01-.08.02-.17.02-.26s0-.17-.02-.26l.2-.12c.09-.05.13-.18.07-.27l-.32-.56c-.05-.09-.17-.13-.27-.07l-.2.12c-.13-.11-.28-.2-.45-.26v-.23c0-.11-.09-.2-.2-.2h-.64c-.11,0-.2.09-.2.2v.23c-.16.06-.32.15-.45.26l-.2-.12c-.09-.05-.21-.02-.27.07l-.32.56c-.05.09-.02.21.07.27l.2.12c-.01.08-.02.17-.02.26s0,.17.02.26l-.2.12c-.09.05-.13.17-.07.27l.32.56c.05.09.18.13.27.07l.2-.12c.13.11.28.2.45.26v.23c0,.11.09.2.2.2h.64c.11,0,.2-.09.2-.2v-.23h0ZM115.94,132.24c-.4,0-.72-.32-.72-.72s.32-.72.72-.72.72.32.72.72-.32.72-.72.72Z"/>
        <g>
          <path class="cls-8" d="M107.85,130.58h1.13c.23-.28.41-.47.49-.47h.32c.06,0,.11.05.11.11v2.61c0,.06-.05.11-.11.11h-.32c-.07,0-.26-.19-.49-.47h-1.13c-.11,0-.2-.09-.2-.2v-1.48c0-.11.09-.2.2-.2Z"/>
          <path class="cls-8" d="M110.38,132.05c-.02.05-.08.08-.13.06-.05-.02-.08-.08-.06-.13.02-.06.04-.13.05-.21.01-.07.02-.16.02-.24h0c0-.09,0-.17-.02-.25-.01-.08-.03-.15-.05-.21-.02-.05,0-.11.06-.13.05-.02.11,0,.13.06.03.07.05.16.07.25.01.09.02.18.02.28h0c0,.1,0,.19-.02.28-.01.09-.04.17-.07.25Z"/>
          <path class="cls-8" d="M110.8,132.5c-.02.05-.08.08-.13.06-.05-.02-.08-.08-.06-.13.05-.12.09-.26.12-.41.03-.15.04-.31.04-.48h0c0-.18-.01-.34-.04-.49-.03-.15-.07-.29-.12-.41-.02-.05,0-.11.06-.13.05-.02.11,0,.13.06.06.13.1.29.13.46.03.16.04.33.04.51h0c0,.19-.02.36-.04.52-.03.17-.07.32-.13.46Z"/>
        </g>
      </g>
      <path class="cls-12" d="M85.08,128.88c.42,0,.76-.34.76-.76s-.34-.76-.76-.76-.76.34-.76.76.34.76.76.76Z"/>
    </g>
    <path class="cls-9" d="M65.35,137.41h15.37c.49,0,.89.4.89.89v9.92c0,.49-.4.89-.89.89h-15.37c-.49,0-.89-.4-.89-.89v-9.92c0-.49.4-.89.89-.89Z"/>
    <path class="cls-9" d="M65.35,151.6h15.37c.49,0,.89.4.89.89v9.92c0,.49-.4.89-.89.89h-15.37c-.49,0-.89-.4-.89-.89v-9.91c0-.49.4-.89.89-.89Z"/>
    <g>
      <rect class="cls-18" x="88.09" y="139.84" width="36.69" height=".7" rx=".35" ry=".35"/>
      <path class="cls-22" d="M88.44,142.61h35.98c.19,0,.35.16.35.35h0c0,.19-.16.35-.35.35h-35.98c-.19,0-.35-.16-.35-.35h0c0-.19.16-.35.35-.35Z"/>
      <rect class="cls-18" x="88.09" y="145.38" width="26.29" height=".7" rx=".35" ry=".35"/>
      <rect class="cls-18" x="115.42" y="145.38" width="2.18" height=".7" rx=".35" ry=".35"/>
    </g>
    <g>
      <path class="cls-22" d="M88.44,154.22h35.98c.19,0,.35.16.35.35h0c0,.19-.16.35-.35.35h-35.98c-.19,0-.35-.16-.35-.35h0c0-.19.16-.35.35-.35Z"/>
      <rect class="cls-18" x="88.09" y="156.99" width="36.69" height=".7" rx=".35" ry=".35"/>
      <path class="cls-22" d="M88.44,159.76h25.59c.19,0,.35.16.35.35h0c0,.19-.16.35-.35.35h-25.59c-.19,0-.35-.16-.35-.35h0c0-.19.16-.35.35-.35Z"/>
      <path class="cls-22" d="M115.77,159.76h1.48c.19,0,.35.16.35.35h0c0,.19-.16.35-.35.35h-1.48c-.19,0-.35-.16-.35-.35h0c0-.19.16-.35.35-.35Z"/>
    </g>
    <path class="cls-21" d="M69.7,146.83v-7.13c0-.32.24-.57.54-.57.13,0,.25.05.35.13l4.56,3.54c.24.19.29.54.12.8-.03.05-.08.09-.12.13l-4.59,3.56c-.24.19-.58.13-.75-.12-.07-.1-.1-.22-.1-.34h0Z"/>
    <path class="cls-21" d="M70.7,161.02v-7.13c0-.32.24-.57.54-.57.13,0,.25.05.35.13l4.56,3.54c.24.19.29.54.12.8-.03.05-.08.09-.12.13l-4.59,3.56c-.24.19-.58.13-.75-.12-.07-.1-.1-.22-.1-.34h0Z"/>
    <g>
      <path class="cls-20" d="M80.5,34.27c0-.71-.57-1.28-1.28-1.28-.08,0-.15-.07-.15-.15s.07-.15.15-.15c.71,0,1.28-.57,1.28-1.28,0-.08.07-.15.15-.15s.15.07.15.15c0,.71.57,1.28,1.28,1.28.08,0,.15.07.15.15s-.07.15-.15.15c-.71,0-1.28.57-1.28,1.28,0,.09-.07.15-.15.15s-.15-.07-.15-.15Z"/>
      <path class="cls-20" d="M85.15,34.38c0-.33-.27-.6-.6-.6-.04,0-.07-.03-.07-.07s.03-.07.07-.07c.33,0,.6-.27.6-.6,0-.04.03-.07.07-.07s.07.03.07.07c0,.33.27.6.6.6.04,0,.07.03.07.07s-.03.07-.07.07c-.33,0-.6.27-.6.6,0,.04-.03.07-.07.07s-.07-.03-.07-.07Z"/>
      <path class="cls-20" d="M80.61,28.65c0-.33-.27-.6-.6-.6-.04,0-.07-.03-.07-.07s.03-.07.07-.07c.33,0,.6-.27.6-.6,0-.04.03-.07.07-.07s.07.03.07.07c0,.33.27.6.6.6.04,0,.07.03.07.07s-.03.07-.07.07c-.33,0-.6.27-.6.6,0,.04-.03.07-.07.07s-.07-.03-.07-.07Z"/>
    </g>
  </g>
  <g>
    <ellipse class="cls-16" cx="98.64" cy="112.02" rx="24.81" ry="6.95"/>
    <path class="cls-30" d="M78.64,109.74c-1.17.3-2.27,1.02-3.12,2.04-.23.28-.46.63-.4.99.05.3.28.51.51.64,1.2.7,2.7.3,4.06-.14,1.76-.56,3.51-1.15,5.26-1.78.1-.04.22-.1.24-.22.01-.07-.02-.14-.05-.21-.37-.71-.75-1.42-1.12-2.12-.05-.09-.1-.18-.18-.22-.08-.04-.18-.02-.27,0-1.8.35-3.6.7-5.4,1.05"/>
    <path class="cls-17" d="M97.42,99.42c1.09.7,2.86.57,3.81-.3,1.81-1.66,3.33-2.93,5.21-4.51,2.06-1.72,4.96-2.41,7.56-1.73s4.81,2.72,5.66,5.27c.35,1.05.47,2.15.54,3.25.15,2.24,0,4.77-1.66,6.28-1.13,1.02-2.7,1.32-4.2,1.59-1.19.21-2.38.43-3.56.64-3.96.71-8.25,1.04-11.99,1.08-1.61.02-2.47.3-2.59.11-.09-.14.26-1.03.27-1.19.2-2.99,2.68-5.73,1.7-8.56"/>
    <path class="cls-6" d="M85.98,86.31c-.02-1.83-.4-3.65-1.12-5.33,5.23-.33,10.79-.78,15.01-3.9-.03,2.43-.65,4.84-1.8,6.98-.18.33-.37.66-.67.89-.26.19-.57.29-.88.36-2.82.63-5.64-.81-8.17-2.21-.38,1.23-.54,2.52-.48,3.8-.59.02-1.18-.04-1.76-.17"/>
    <path class="cls-17" d="M96.66,92.98c-1-2.62-2.02-5.29-3.74-7.49-.85-1.09-1.92-2.09-3.24-2.49-1.49-.46-3.13-.11-4.49.65-1.35.76-2.45,1.9-3.45,3.1-.91,1.1-1.75,2.25-2.51,3.45-.47.74-.91,1.51-1.56,2.09-1.09.98-2.6,1.32-4.06,1.5-1.79.23-3.61.28-5.41.15-.75-.05-.11-.44-.75-.05-.94.57-1.67,3.24-1.67,4.33,0,7.68,6.25,12.32,9.27,13.22,4.89,1.45,9.02.92,10.47.86,1.66-.07,6.19-1.31,7.84-1.15,1.75.17,3.52-.9,5.27-.73,1-6.93,1.06-11.11-2.32-18.31"/>
    <path class="cls-28" d="M72.53,93.45c-.88-.21-2.61-.51-3.7-.38-1.09.13-2.83.32-3.33,2.72-.25,1.22,1.51,6.21,4.48,6.34,5.32.23,6.13-5.85,5.67-7.01-.51-1.29-2.32-1.59-3.12-1.67Z"/>
    <g class="cls-31">
      <path class="cls-27" d="M69.5,94.28c.72.08,1.45.16,2.09.49.64.33,1.19.95,1.2,1.67.02.66-.39,1.24-.77,1.77.66-.19,1.26-.64,1.57-1.25.31-.62.31-1.39-.06-1.98-.54-.85-1.66-1.11-2.66-1.1-.56,0-1.14.09-1.61.39"/>
    </g>
    <path class="cls-6" d="M89.8,85.33c-1.07-.16-2.39.31-3.37,1.46-.99,1.14-1.08,2.71-1.36,4.19-.33,1.68-.33,3.54.59,4.98.86,1.36,2.39,2.13,3.9,2.7,1.22.46,2.56.83,3.8.44,1.56-.48,2.58-2.08,2.76-3.7.18-1.62-.34-3.24-1.03-4.71-1.06-2.25-3.3-5.07-5.28-5.36Z"/>
    <path class="cls-17" d="M92.11,86.31c.49-1.24.37-2.67-.13-3.9-.51-1.23-1.38-2.29-2.37-3.19-.94-.86-2.03-1.61-3.28-1.85.81.68,1.43,1.58,1.77,2.59-.82-.85-2.14-1.18-3.26-.82,1.07,1.27,2.2,2.7,2.14,4.36,1.55.44,3.06,1.04,4.5,1.77"/>
    <path class="cls-28" d="M84.16,94.36c-.08.76-.76,1.32-1.52,1.24-.76-.08-1.32-.76-1.24-1.52.08-.76.76-1.32,1.52-1.24.76.08,1.32.76,1.24,1.52Z"/>
    <path class="cls-23" d="M83.76,94.32c-.04.43-.28.75-.52.72-.24-.03-.41-.39-.36-.82.04-.43.28-.75.52-.72.24.03.41.39.36.82Z"/>
    <path class="cls-28" d="M80.68,92.4c-.08.76-.76,1.32-1.52,1.24-.76-.08-1.32-.76-1.24-1.52.08-.76.76-1.32,1.52-1.24.76.08,1.32.76,1.24,1.52Z"/>
    <path class="cls-23" d="M78.88,92.23c-.04.43-.28.75-.52.72-.24-.03-.41-.39-.36-.82.04-.43.28-.75.52-.72.24.03.41.39.36.82Z"/>
    <path class="cls-30" d="M72.49,109.96c2.23.22,4.51.26,6.71-.2,2.2-.45,4.33-1.41,5.94-2.98.23-.22.48-.47.8-.48.22,0,.42.11.56.28.33.41.23,1.03-.09,1.45-.32.41-.81.65-1.29.86-3.93,1.7-8.4,2.08-12.56,1.09"/>
    <path class="cls-28" d="M86.62,90.16l3.63,2.94s-.23,1.96-.43,1.74c-.2-.21-3.94-2.58-3.94-2.58l.74-2.11Z"/>
    <path class="cls-28" d="M87.84,88.42c.47-1.77.58-3.63.32-5.44,5.14,1.06,10.62,2.09,15.51.19-.67,2.33-1.9,4.5-3.57,6.26-.26.27-.54.54-.88.68-.3.12-.62.13-.94.11-2.89-.13-5.23-2.27-7.3-4.28-.69,1.08-1.18,2.29-1.46,3.54-.57-.14-1.13-.35-1.65-.62"/>
    <path class="cls-17" d="M115.66,98.21c-.85-.31-1.98,4.11-2.77,4.56-.79.45-1.43,1.11-2.07,1.75-1.65,1.66-3.38,3.31-5.45,4.41-1.64.88-3.56,1.47-4.67,2.96-.1.13-.19.28-.2.45,0,.33.32.55.61.69,2.06.98,4.44,1.15,6.69.8,2.25-.35,11.05-3.12,11.84-4.41.71-1.17.76-8.87.28-10.15-.47-1.29-3.22,3.43-4.4,2.74"/>
    <path class="cls-17" d="M99.3,109.16c-.89,1.15-2.48,1.44-3.92,1.64-3.32.45-6.64.89-9.99.82-.89-.02-1.79-.08-2.67.08-.88.15-1.75.54-2.29,1.25-.24.32-.41.73-.32,1.12.08.32.31.57.57.78,1.21.99,2.85,1.24,4.4,1.34,4.2.28,8.46-.22,12.48-1.45,1.54-.47,3.06-1.06,4.37-2,1.31-.93,2.4-2.24,2.83-3.79.04-.14.07-.28.03-.41-.05-.17-.22-.28-.38-.35-.87-.41-1.88-.17-2.8.08-.82.22-1.49.68-2.31.9"/>
    <path class="cls-30" d="M80.43,113.33c.28-.81,1.32-1.29,2.14-1.52,3.54-.99,9.28,0,12.82-1.01-2.02-.06-5.88-.43-7.9-.46-4.8-.05-7.08,2.23-7.06,2.98"/>
    <path class="cls-25" d="M97.5,111.11c3-2.59,5.17-7.61,4.36-11.29-.07-.33-.43-1.84-2.92-.67.09-.04,0,0,0,0,.09.37.69,6.91-3.56,10.57,0,0-.29.76,0,1.08.29.32,1.29,1.02,2.11.31Z"/>
    <path class="cls-6" d="M109.26,99.11c.39-1.69-2.46-2.62-3.84-2.12-.68.25-1.25.73-1.75,1.26-.36.38-.69.79-.9,1.26-.64,1.49.44,3.73,2.68,4.48,1.54.52-.81-3.37,3.4-4.78"/>
    <path class="cls-30" d="M110.78,99.52c-1.82-.38-3.64,1.31-3.76,3.16-.12,1.85,1.14,3.61,2.78,4.48-1.18.53-5.7,2.17-6.6,2.81-1.58,1.12-1.8,2.2-1.55,3.28-.54-.56-.82-2.31,1.42-4.39,1.07-1,2.54-1.52,3.98-1.78-1.42-1.19-1.98-3.32-1.33-5.06.65-1.74,2.47-2.98,4.33-2.94.26,0,.62.14.56.4"/>
    <path class="cls-6" d="M113.41,92.6c.68-1.49.79-3.22.31-4.78-.25-.83-.7-1.64-1.43-2.1-.73-.46-1.8-.45-2.38.19.55-.42.97-.99,1.52-1.41.55-.42,1.35-.65,1.93-.28-.8-.98-2.09-1.52-3.34-1.41,1.32-.94,3.1-1.21,4.65-.71,1.55.5,2.82,1.77,3.34,3.31.3.89.35,1.86.23,2.79-.26,2.09-1.55,4.19-3.57,4.79-.5.15-1.24.05-1.29-.47"/>
  </g>
  <g>
    <path class="cls-29" d="M137.4,30.43h-21.1c-1.26,0-2.28,1.02-2.28,2.28v10.91c0,1.26,1.02,2.28,2.28,2.28h6.45v3.57c0,1.13,1.34,1.72,2.17.96l5-4.54h7.48c1.26,0,2.28-1.02,2.28-2.28v-10.91c0-1.26-1.02-2.28-2.28-2.28Z"/>
    <path class="cls-15" d="M131.29,39.16c.49-.59.73-1.39.59-2.25-.19-1.13-1.09-2.05-2.22-2.25-1.16-.21-2.22.3-2.81,1.16-.59-.86-1.65-1.37-2.81-1.16-1.13.2-2.03,1.12-2.22,2.25-.14.85.1,1.65.59,2.25h0s0,0,0,0c.14.17.3.32.47.45l3.07,2.93c.44.42,1.13.43,1.59.02l3.14-2.86c.23-.15.43-.34.6-.54h0s0,0,0,0Z"/>
  </g>
  <g>
    <path class="cls-13" d="M139.08,61.43h-16.79c-1.56,0-2.82,1.26-2.82,2.82v12.65c0,1.05,1.25,1.6,2.02.89l3.24-2.98h14.35c1.56,0,2.82-1.26,2.82-2.82v-7.73c0-1.56-1.26-2.82-2.82-2.82Z"/>
    <g>
      <path class="cls-15" d="M127.64,68.1c0,.56-.46,1.02-1.02,1.02s-1.02-.46-1.02-1.02.46-1.02,1.02-1.02,1.02.46,1.02,1.02Z"/>
      <circle class="cls-15" cx="131.08" cy="68.1" r="1.02"/>
      <circle class="cls-15" cx="135.54" cy="68.1" r="1.02"/>
    </g>
  </g>
  <g>
    <circle class="cls-24" cx="68.53" cy="69.94" r="4.51"/>
    <g>
      <path class="cls-7" d="M66.99,70.49h3.08c.32,0,.57.29.52.61-.13.72-.57,1.81-2.06,1.81s-1.93-1.09-2.06-1.81c-.06-.32.19-.61.52-.61Z"/>
      <path class="cls-29" d="M66.95,72.22c.31.39.8.69,1.58.69s1.3-.32,1.6-.72c-.29-.21-.83-.49-1.6-.49-.81,0-1.33.31-1.58.52Z"/>
    </g>
    <g>
      <path class="cls-4" d="M65.78,69.48s.17-.74.98-.74,1,.74,1,.74"/>
      <path class="cls-4" d="M69.31,69.48s.17-.74.98-.74,1,.74,1,.74"/>
    </g>
  </g>
  <g>
    <circle class="cls-24" cx="78.53" cy="78.94" r="3.51"/>
    <g>
      <path class="cls-7" d="M77.33,79.37h2.4c.25,0,.45.22.4.47-.1.56-.44,1.41-1.6,1.41s-1.5-.85-1.6-1.41c-.04-.25.15-.47.4-.47Z"/>
      <path class="cls-29" d="M77.3,80.71c.24.3.62.54,1.23.54s1.01-.25,1.25-.56c-.23-.16-.65-.38-1.25-.38-.63,0-1.03.24-1.23.4Z"/>
    </g>
    <g>
      <path class="cls-2" d="M76.39,78.58s.13-.58.76-.58.78.58.78.58"/>
      <path class="cls-2" d="M79.14,78.58s.13-.58.76-.58.78.58.78.58"/>
    </g>
  </g>
  <g>
    <circle class="cls-24" cx="84.44" cy="63.08" r="5.37"/>
    <g>
      <path class="cls-7" d="M82.6,63.74h3.67c.38,0,.68.34.61.72-.15.85-.67,2.15-2.45,2.15s-2.3-1.3-2.45-2.15c-.07-.38.23-.72.61-.72Z"/>
      <path class="cls-29" d="M82.56,65.79c.37.46.95.82,1.88.82s1.54-.38,1.91-.86c-.35-.24-.99-.58-1.91-.58-.97,0-1.58.37-1.88.62Z"/>
    </g>
    <g>
      <path class="cls-3" d="M81.16,62.54s.2-.88,1.17-.88,1.19.88,1.19.88"/>
      <path class="cls-3" d="M85.36,62.54s.2-.88,1.17-.88,1.19.88,1.19.88"/>
    </g>
  </g>
  <g>
    <circle class="cls-24" cx="70.39" cy="51.8" r="6.37"/>
    <g>
      <path class="cls-7" d="M68.22,52.57h4.35c.45,0,.81.41.73.86-.18,1.01-.8,2.56-2.9,2.56s-2.72-1.55-2.9-2.56c-.08-.45.27-.86.73-.86Z"/>
      <path class="cls-29" d="M68.16,55.01c.44.55,1.13.97,2.23.97s1.83-.45,2.26-1.02c-.41-.29-1.17-.69-2.26-.69-1.14,0-1.87.44-2.23.73Z"/>
    </g>
    <g>
      <path class="cls-1" d="M66.51,51.15s.24-1.04,1.38-1.04,1.41,1.04,1.41,1.04"/>
      <path class="cls-1" d="M71.48,51.15s.24-1.04,1.38-1.04,1.41,1.04,1.41,1.04"/>
    </g>
  </g>
</svg>