<svg width="96" height="129" viewBox="0 0 96 129" fill="none" xmlns="http://www.w3.org/2000/svg">
<path d="M94.6342 97.8955L76.7443 97.3955L76.5742 126.886L43.7743 127.876L44.6042 96.7255L3.02426 95.7355L1.36426 2.79555L31.8442 0.805542V65.2555L45.2643 66.0855L46.0942 36.0956L76.9042 26.9855L76.7343 67.9055L94.6242 68.8955V97.8855L94.6342 97.8955Z" fill="#6E963C"/>
<path d="M76.5742 126.895L76.6642 111.615C75.1942 116.925 73.2043 122.215 67.6443 122.865C63.7843 123.315 59.7543 123.055 55.8643 123.315C53.1543 123.505 49.0842 123.825 48.7242 120.295C48.5142 118.285 49.4742 105.705 49.2542 101.195C48.8442 92.7355 48.1942 91.5255 39.3242 91.2655C34.7142 91.1355 21.3042 91.3855 16.6942 91.2255C9.08424 90.9555 7.07426 90.6355 7.02426 83.0255C6.97426 74.6655 6.96426 9.49547 6.33426 2.48547L1.36426 2.80547L3.02426 95.7455L44.6042 96.7355L43.7743 127.885L76.5742 126.895Z" fill="#3A510E"/>
<path d="M39.2942 73.3256C35.5342 71.5155 32.0642 71.0755 28.0442 70.1355C26.5742 69.7955 27.3642 70.2056 26.9442 68.8156C26.4342 67.1156 26.1842 65.3556 25.9842 63.6056C24.9742 54.8356 25.4042 46.3756 23.4842 37.7356C23.3142 36.9456 22.2442 37.0656 22.0042 37.7356C18.5742 47.5756 17.7042 58.6355 19.4142 69.0055C21.1042 79.2455 31.5442 79.0256 39.2942 75.2155C40.0042 74.8656 40.0142 73.6755 39.2942 73.3256Z" fill="#ACD163"/>
<path d="M46.1545 71.2955C45.2245 71.1855 44.2646 71.6255 43.6046 72.2955C43.3446 72.5155 43.1246 72.7655 42.9546 73.0955C42.5046 73.9455 42.6346 74.8555 43.2746 75.5655C43.4146 75.7255 43.5646 75.8355 43.7146 75.9455C44.5446 76.7455 45.8046 76.8455 46.8846 76.6655C48.0646 76.4755 48.8946 75.1455 48.8946 74.0355C48.8946 72.4055 47.6446 71.4855 46.1646 71.3055L46.1545 71.2955Z" fill="#ACD163"/>
<path d="M43.7743 128.636C43.5743 128.636 43.3843 128.556 43.2443 128.416C43.0943 128.266 43.0143 128.076 43.0243 127.866L43.8343 97.4755L3.00424 96.4955C2.60424 96.4955 2.27426 96.1655 2.27426 95.7555L0.614258 2.81552C0.614258 2.41552 0.914239 2.07551 1.31424 2.05551L31.7943 0.0655152C32.0042 0.0555152 32.2042 0.125512 32.3542 0.265512C32.5042 0.405512 32.5942 0.605515 32.5942 0.815515V64.5555L44.5342 65.2955L45.3442 36.0855C45.3442 35.7655 45.5742 35.4755 45.8842 35.3855L76.6942 26.2755C76.9242 26.2055 77.1642 26.2555 77.3542 26.3955C77.5443 26.5355 77.6542 26.7655 77.6542 26.9955L77.4943 67.2055L94.6743 68.1555C95.0743 68.1755 95.3842 68.5055 95.3842 68.9055V97.8955C95.3842 98.0955 95.3042 98.2955 95.1542 98.4355C95.0142 98.5755 94.8043 98.6655 94.6143 98.6455L77.4843 98.1655L77.3242 126.886C77.3242 127.286 77.0042 127.616 76.5942 127.636L43.7943 128.626C43.7943 128.626 43.7843 128.626 43.7743 128.626V128.636ZM3.75424 95.0155L44.6143 95.9955C44.8143 95.9955 45.0043 96.0855 45.1443 96.2255C45.2843 96.3655 45.3542 96.5655 45.3542 96.7655L44.5443 127.116L75.8343 126.166L75.9943 97.3955C75.9943 97.1955 76.0742 97.0055 76.2242 96.8655C76.3642 96.7255 76.5742 96.6455 76.7643 96.6555L93.8842 97.1355V69.6255L76.7043 68.6755C76.3043 68.6555 75.9943 68.3255 75.9943 67.9255L76.1542 28.0155L46.8242 36.6855L46.0143 66.1255C46.0143 66.3255 45.9243 66.5255 45.7743 66.6555C45.6243 66.7955 45.4142 66.8655 45.2242 66.8455L31.8043 66.0155C31.4043 65.9955 31.1042 65.6655 31.1042 65.2655V1.6155L2.13425 3.5055L3.76425 95.0155H3.75424Z" fill="#8EBE31"/>
</svg>
