<?xml version="1.0" encoding="UTF-8"?>
<svg id="NUMEROS_TORIBIO" data-name="NUMEROS TORIBIO" xmlns="http://www.w3.org/2000/svg" viewBox="0 0 200 200">
  <defs>
    <style>
      .cls-1 {
        fill: #024e92;
      }

      .cls-1, .cls-2, .cls-3 {
        stroke-width: 0px;
      }

      .cls-2 {
        fill: #6f98e3;
      }

      .cls-3 {
        fill: #173f72;
      }
    </style>
  </defs>
  <path class="cls-1" d="M146.64,133.55l-17.89-.5-.17,29.49-32.8.99.83-31.15-41.58-.99-1.66-92.94,30.48-1.99v64.45l13.42.83.83-29.99,30.81-9.11-.17,40.92,17.89.99v28.99Z"/>
  <path class="cls-3" d="M128.58,162.54l.09-15.28c-1.47,5.31-3.46,10.6-9.02,11.25-3.86.45-7.89.19-11.78.45-2.71.19-6.78.51-7.14-3.02-.21-2.01.75-14.59.53-19.1-.41-8.46-1.06-9.67-9.93-9.93-4.61-.13-18.02.12-22.63-.04-7.61-.27-9.62-.59-9.67-8.2-.05-8.36-.06-73.53-.69-80.54l-4.97.32,1.66,92.94,41.58.99-.83,31.15,32.8-.99Z"/>
  <g>
    <path class="cls-2" d="M91.3,108.97c-3.76-1.81-7.23-2.25-11.25-3.19-1.47-.34-.68.07-1.1-1.32-.51-1.7-.76-3.46-.96-5.21-1.01-8.77-.58-17.23-2.5-25.87-.17-.79-1.24-.67-1.48,0-3.43,9.84-4.3,20.9-2.59,31.27,1.69,10.24,12.13,10.02,19.88,6.21.71-.35.72-1.54,0-1.89Z"/>
    <path class="cls-2" d="M98.15,106.94c-.93-.11-1.89.33-2.55,1-.26.22-.48.47-.65.8-.45.85-.32,1.76.32,2.47.14.16.29.27.44.38.83.8,2.09.9,3.17.72,1.18-.19,2.01-1.52,2.01-2.63,0-1.63-1.25-2.55-2.73-2.73Z"/>
  </g>
  <path class="cls-3" d="M95.77,164.28c-.2,0-.39-.08-.53-.22-.15-.15-.23-.34-.22-.55l.81-30.39-40.83-.98c-.4,0-.73-.33-.73-.74l-1.66-92.94c0-.4.3-.74.7-.76l30.48-1.99c.21-.01.41.06.56.2.15.14.24.34.24.55v63.74l11.94.74.81-29.21c0-.32.23-.61.54-.7l30.81-9.11c.23-.07.47-.02.66.12.19.14.3.37.3.6l-.16,40.21,17.18.95c.4.02.71.35.71.75v28.99c0,.2-.08.4-.23.54-.14.14-.35.23-.54.21l-17.13-.48-.16,28.72c0,.4-.32.73-.73.75l-32.8.99s-.01,0-.02,0ZM55.76,130.66l40.86.98c.2,0,.39.09.53.23.14.14.21.34.21.54l-.81,30.35,31.29-.95.16-28.77c0-.2.08-.39.23-.53.14-.14.35-.22.54-.21l17.12.48v-27.51l-17.18-.95c-.4-.02-.71-.35-.71-.75l.16-39.91-29.33,8.67-.81,29.44c0,.2-.09.4-.24.53-.15.14-.36.21-.55.19l-13.42-.83c-.4-.02-.7-.35-.7-.75v-63.65l-28.97,1.89,1.63,91.51Z"/>
</svg>