<?xml version="1.0" encoding="utf-8"?>
<!-- Generator: Adobe Illustrator 25.0.0, SVG Export Plug-In . SVG Version: 6.00 Build 0)  -->
<svg version="1.1" id="elelmentos" xmlns="http://www.w3.org/2000/svg" xmlns:xlink="http://www.w3.org/1999/xlink" x="0px" y="0px"
	 viewBox="0 0 800 800" style="enable-background:new 0 0 800 800;" xml:space="preserve">
<style type="text/css">
	.st0{fill:#80CCF3;}
	.st1{clip-path:url(#SVGID_2_);}
	.st2{fill:url(#SVGID_3_);}
	.st3{fill:url(#SVGID_4_);}
	.st4{fill:#3BB244;}
	.st5{fill:#1E8B2A;}
	.st6{clip-path:url(#SVGID_6_);}
	.st7{fill:#E89C62;}
	.st8{fill:#CE814D;}
	.st9{fill:#F18951;}
	.st10{fill:#492A08;}
	.st11{fill:#312E31;}
	.st12{fill:#FFFFFF;}
	.st13{fill:#1D1E1C;}
	.st14{fill:#F6AF00;}
	.st15{fill:#F1F1F1;}
	.st16{fill:#333333;}
	.st17{fill:#1A1A1A;}
	.st18{fill:#8E56F1;}
	.st19{fill:#4ABBF1;}
	.st20{fill:#30D848;}
	.st21{fill:#259332;}
	.st22{fill:#45FF67;}
	.st23{fill:#263238;}
	.st24{fill:#B9BAB9;}
	.st25{fill:#FF725E;}
	.st26{fill:#E0E0E0;}
	.st27{fill:#3E5B65;}
	.st28{opacity:0.3;}
	.st29{fill:#FFDE17;}
	.st30{fill:#FFF22B;}
	.st31{fill:#6D6E71;}
	.st32{fill:#595957;}
	.st33{fill:#D7D5D5;}
	.st34{fill:none;stroke:#1A1A1A;stroke-width:1.6001;stroke-miterlimit:10;}
	.st35{fill:#9E0000;}
	.st36{clip-path:url(#SVGID_8_);}
	.st37{fill:#666060;}
	.st38{fill:#680000;}
	.st39{opacity:0.5;fill:#9E0000;}
	.st40{opacity:0.7;fill:#666060;}
	.st41{clip-path:url(#SVGID_6_);fill:#FFF22B;}
	.st42{fill:#FFE821;}
	.st43{opacity:0.5;fill:#808080;}
	.st44{fill:#E6E7E8;}
	.st45{fill:#414042;}
	.st46{fill:#58595B;}
	.st47{fill:#808285;}
	.st48{fill:#D1D3D4;}
	.st49{fill:#BCBEC0;}
	.st50{fill:#004B78;}
	.st51{fill:#006496;}
	.st52{fill:#939598;}
	.st53{opacity:0.5;fill:#FFFFFF;}
	.st54{fill:#166E98;}
	.st55{clip-path:url(#SVGID_10_);}
	.st56{fill:#47547C;}
	.st57{opacity:0.5;fill:#2B2B3F;}
	.st58{fill:#3D2412;}
	.st59{fill:#BA7038;}
	.st60{fill:#EB5F00;}
	.st61{fill:none;stroke:#DC831E;stroke-width:3.6166;stroke-miterlimit:10;}
	.st62{fill:#A35D2E;}
	.st63{fill:#EB3B00;}
	.st64{fill:#422918;}
	.st65{fill:#80ABBD;}
	.st66{fill:#4B7195;}
	.st67{opacity:0.4;fill:#5A93A0;}
	.st68{fill:none;stroke:#FFFFFF;stroke-width:10.2281;stroke-miterlimit:10;}
	.st69{opacity:0.4;fill:#A3D5E6;}
	.st70{fill:#C33E5D;}
	.st71{fill:#0C8068;}
	.st72{fill:none;stroke:#0A6D53;stroke-width:1.004;stroke-miterlimit:10;}
	.st73{opacity:0.5;fill:#0A6D53;}
	.st74{fill:#159A7A;}
	.st75{fill:none;stroke:#0C8068;stroke-width:1.004;stroke-miterlimit:10;}
	.st76{opacity:0.5;fill:#0C8068;}
	.st77{fill:#EBA154;}
	.st78{fill:#DC831E;}
	.st79{fill:#49496B;}
	.st80{fill:#323247;}
	.st81{fill:#B83D5D;}
	.st82{fill:#64648E;}
	.st83{fill:#FD783D;}
	.st84{fill:none;stroke:#E85481;stroke-width:1.512;stroke-miterlimit:10;}
	.st85{fill:none;stroke:#E85481;stroke-width:1.512;stroke-miterlimit:10;stroke-dasharray:7.6674,7.6674;}
	.st86{fill:none;stroke:#E85481;stroke-width:1.512;stroke-miterlimit:10;stroke-dasharray:5.6557,5.6557;}
	.st87{fill:none;stroke:#E85481;stroke-width:1.512;stroke-miterlimit:10;stroke-dasharray:5.1346,5.1346;}
	.st88{clip-path:url(#SVGID_12_);}
	.st89{clip-path:url(#SVGID_14_);fill:url(#SVGID_15_);}
	.st90{clip-path:url(#SVGID_14_);fill:url(#SVGID_16_);}
	.st91{clip-path:url(#SVGID_14_);fill:url(#SVGID_17_);}
	.st92{clip-path:url(#SVGID_14_);}
	.st93{fill:#FFFDFF;}
	.st94{fill:#EECC42;}
	.st95{fill:#C2C2C2;}
	.st96{clip-path:url(#SVGID_12_);fill:#EECC42;}
	.st97{fill:#231308;}
	.st98{fill:#310137;}
	.st99{fill:#D58A66;}
	.st100{fill:#C17E5C;}
	.st101{fill:#E89CAA;}
	.st102{fill:#B97C88;}
	.st103{fill:#1D1D1B;}
	.st104{fill:#E37657;}
	.st105{fill:none;}
	.st106{fill:#E8005B;}
	.st107{opacity:0.2;}
	.st108{fill:#EB996E;}
	.st109{fill:#FAFAFA;}
	.st110{fill:#D9B534;}
	.st111{fill:#63C140;}
	.st112{fill:#FFEE17;}
	.st113{fill:#EAA877;}
	.st114{fill:#31DB52;}
	.st115{fill:#587C07;}
	.st116{fill:#BA702D;}
	.st117{fill:#A3591C;}
	.st118{fill:#FFE8D6;}
	.st119{fill:#F4C6A1;}
	.st120{opacity:0.41;fill:#F4C6A1;}
	.st121{clip-path:url(#SVGID_19_);}
	.st122{fill:#0A8E4F;}
	.st123{fill:#7FDD7F;}
	.st124{fill:#0FA391;}
	.st125{fill:#0E7A6A;}
	.st126{fill:#80AF35;}
	.st127{fill:#689127;}
	.st128{fill:#FBED21;}
	.st129{fill:#F9C623;}
	.st130{fill:#DAD9D9;}
	.st131{fill:#A41726;}
	.st132{fill:#C2333B;}
	.st133{fill:#D5AB28;}
	.st134{fill:#F1CD30;}
	.st135{clip-path:url(#SVGID_21_);fill:#283135;}
	.st136{clip-path:url(#SVGID_21_);fill:#DC5152;}
	.st137{fill:none;stroke:#283135;stroke-width:1.8583;stroke-miterlimit:10;}
	.st138{fill:#C93D45;}
	.st139{fill:#DC5152;}
</style>
<circle class="st0" cx="379.93" cy="409.68" r="316.81"/>
<g>
	<defs>
		<circle id="SVGID_1_" cx="381.02" cy="408.68" r="316.81"/>
	</defs>
	<clipPath id="SVGID_2_">
		<use xlink:href="#SVGID_1_"  style="overflow:visible;"/>
	</clipPath>
	<g class="st1">
		<g>
			<g>
				<linearGradient id="SVGID_3_" gradientUnits="userSpaceOnUse" x1="369.1602" y1="725" x2="369.1602" y2="480.9651">
					<stop  offset="0" style="stop-color:#44B56A"/>
					<stop  offset="0.2275" style="stop-color:#51C86E"/>
					<stop  offset="0.4609" style="stop-color:#5CD872"/>
				</linearGradient>
				<path class="st2" d="M665.87,523.62c-0.02-0.19-0.05-0.38-0.07-0.56c-0.21-1.67-0.45-3.34-0.71-5c-0.18-1.05-0.41-2.42-0.7-4
					c-0.13-0.68-0.24-1.37-0.38-2.04c-0.08-0.41-0.16-0.83-0.24-1.25c-2.15-10.32-5.37-20.35-9.72-29.8c0,0-582.72,0-582.72,0
					c6.07,29.7,16.07,58.59,30.57,85.36c49.25,90.86,146.77,143.41,249.27,155.81c37.92,4.59,76.52,3.68,113.62-2.82
					c16.32-2.86,32.47-6.56,48.39-11.05c14.55-4.19,29.05-9.24,42.95-15.37c15.25-6.71,29.79-14.7,42.9-24.21
					c1.59-1.15,3.16-2.33,4.7-3.52c10.81-8.38,20.54-17.86,28.73-28.61c0.07-0.09,0.13-0.18,0.2-0.27
					c3.59-4.73,7.07-9.94,10.37-15.44c0.98-1.64,1.95-3.29,2.89-4.98c4.85-8.67,9.17-17.94,12.63-27.24
					c3.26-8.76,5.77-17.53,7.2-25.85C667.36,549.82,667.43,536.59,665.87,523.62z"/>
				<g>
					<linearGradient id="SVGID_4_" gradientUnits="userSpaceOnUse" x1="349.3543" y1="480.9651" x2="349.3543" y2="174">
						<stop  offset="0.5894" style="stop-color:#00DBFF"/>
						<stop  offset="1" style="stop-color:#77C4FF"/>
					</linearGradient>
					<path class="st3" d="M598.89,435.61c-45.92-33.96-111.48-26.51-161.16-54.69c-42.33-24.01-66.65-69.9-87.41-113.92
						c-10.19-21.62-20.4-43.86-37.16-60.89c-33.74-34.28-89.73-40.29-134.21-21.98C94.13,219.06,67.1,309.52,64.43,393.87
						c-0.92,28.98,1.22,58.41,6.89,87.1h563.16C626.55,463.13,614.78,447.37,598.89,435.61z"/>
				</g>
			</g>
		</g>
		<g>
			<g>
				<path class="st4" d="M205.41,444.11c-0.4-19.49-5.98-39.13-17.5-54.85c-3.6-4.91-7.76-9.44-10.74-14.75
					c-3.52-6.28-5.27-13.54-4.99-20.74c0.26-6.53,2.14-13.06,1.15-19.52c-0.28-1.78-0.77-3.5-1.41-5.17l-0.78-0.75L67.08,418.52
					c0.37,23.98,2.73,48.08,7.4,71.7h123.43C202.83,475.33,205.73,459.76,205.41,444.11z"/>
				<path class="st5" d="M279.9,459.5c0.17-9.48-3.04-18.99-8.92-26.43c-2.18-2.77-4.74-5.28-6.43-8.37
					c-1.56-2.83-2.28-5.95-2.54-9.17l-51.09-49.03l-38.99-37.42c0.64,1.67,1.13,3.38,1.41,5.17c1,6.46-0.89,12.99-1.15,19.52
					c-0.28,7.19,1.46,14.46,4.99,20.74c2.98,5.31,7.14,9.84,10.74,14.75c11.52,15.72,17.11,35.36,17.5,54.85
					c0.32,15.65-2.58,31.22-7.5,46.1h81.01c-0.78-2.34-1.21-4.82-1.29-7.22C277.37,475.12,279.75,467.38,279.9,459.5z"/>
				<path class="st4" d="M421.84,469.87c-0.31-14.42-4.95-29.27-15.3-39.31c-6.54-6.35-15.04-10.53-21.05-17.38
					c-6.84-7.79-9.81-18.4-10.09-28.76c-0.28-10.37,1.92-20.63,4.34-30.71c0.94-3.92,1.92-7.91,1.7-11.94
					c-0.03-0.6-0.1-1.19-0.18-1.78l-3.19-2.23l-52.71,35.99l-62.45,42.64l-0.89-0.86c0.26,3.22,0.99,6.33,2.54,9.17
					c1.7,3.09,4.25,5.6,6.43,8.37c5.88,7.44,9.09,16.95,8.92,26.43c-0.14,7.87-2.52,15.62-2.26,23.49c0.08,2.4,0.51,4.88,1.29,7.22
					h141.09C421.25,483.49,421.99,476.71,421.84,469.87z"/>
			</g>
			<g>
				<path class="st4" d="M290.41,376.51c-1.54-4.84-3.81-9.55-7.35-13.19c-3.78-3.88-9.03-6.61-11.27-11.54
					c-2.49-5.47-0.51-12-1.25-17.89l-0.43-0.31l-59.2,32.94l51.98,49.89l29.93-20.43C293.19,389.41,292.41,382.77,290.41,376.51z"/>
				<path class="st5" d="M270.54,333.89c0.74,5.9-1.24,12.42,1.25,17.89c2.24,4.94,7.49,7.66,11.27,11.54
					c3.54,3.64,5.81,8.35,7.35,13.19c1.99,6.26,2.78,12.89,2.41,19.45l32.53-22.21L270.54,333.89z"/>
			</g>
			<path class="st5" d="M581.5,365.2c-0.18,1.97-19.08,19.75-19.81,21.57c-1.65,4.16-4.32,7.82-6.65,11.64
				c-4.92,8.06-8.48,17.07-9.44,26.46c-1.69,16.41,4.73,32.98,15.11,45.81c5.44,6.73,11.93,12.58,17.08,19.53H659L581.5,365.2z"/>
			<g>
				<path class="st5" d="M486.13,473.08c-2.76-11.07-11.15-20.74-11.05-32.15c0.09-10.57,7.55-20.75,6.5-30.87l-100.34-70.07
					c0.09,0.59,0.15,1.18,0.18,1.78c0.22,4.03-0.76,8.01-1.7,11.94c-2.42,10.08-4.62,20.34-4.34,30.71
					c0.28,10.37,3.25,20.98,10.09,28.76c6.02,6.85,14.51,11.03,21.05,17.38c10.35,10.05,14.99,24.89,15.3,39.31
					c0.15,6.84-0.59,13.62-1.83,20.35h66.48C487.44,484.49,487.54,478.74,486.13,473.08z"/>
				<path class="st4" d="M560.71,470.69c-10.38-12.83-16.8-29.4-15.11-45.81c0.97-9.39,4.52-18.4,9.44-26.46
					c2.33-3.82,26.28-31.25,26.46-33.22l-98.97,45.51l-0.94-0.66c1.04,10.13-6.41,20.31-6.5,30.87
					c-0.1,11.41,8.29,21.07,11.05,32.15c1.41,5.66,1.3,11.41,0.35,17.14h91.31C572.65,483.27,566.16,477.41,560.71,470.69z"/>
			</g>
		</g>
	</g>
</g>
<g>
	<defs>
		<circle id="SVGID_11_" cx="-415.57" cy="430.49" r="316.81"/>
	</defs>
	<clipPath id="SVGID_6_">
		<use xlink:href="#SVGID_11_"  style="overflow:visible;"/>
	</clipPath>
	<g class="st6">
		<g>
			<defs>
				<rect id="SVGID_13_" x="-765.38" y="87" width="676" height="676"/>
			</defs>
			<clipPath id="SVGID_8_">
				<use xlink:href="#SVGID_13_"  style="overflow:visible;"/>
			</clipPath>
			<g class="st36">
				<path class="st93" d="M-65.69,621.11c3.04-8.24,4.7-17.14,4.7-26.43c0-21.55-8.94-41.01-23.3-54.89
					c12.31-7.13,20.59-20.44,20.59-35.69c0-22.77-18.46-41.24-41.24-41.24c-22.77,0-41.24,18.46-41.24,41.24
					c0,5.09,0.93,9.96,2.62,14.47c-39.3,3.15-70.22,36.01-70.22,76.12c0,6.75,0.88,13.29,2.53,19.52
					c-10.82-3.45-22.34-5.32-34.3-5.32c-62.35,0-112.89,50.54-112.89,112.89s50.54,112.89,112.89,112.89
					c48.26,0,89.42-30.29,105.57-72.89c16.11,22.05,42.14,36.38,71.54,36.38c48.91,0,88.56-39.65,88.56-88.56
					C20.13,661.6-18.05,622.56-65.69,621.11z"/>
			</g>
		</g>
	</g>
</g>
<g>
	<g>
		<path class="st111" d="M472.7,590.01c-1.5,0-2.9,0.39-4.15,1.03c-2.24-5.62-7.71-9.6-14.13-9.6c-0.47,0-0.92,0.03-1.38,0.07
			c-1.2-10.46-10.07-18.58-20.85-18.58c-10.41,0-19.02,7.58-20.69,17.52c-0.67-0.07-1.34-0.12-2.03-0.12
			c-9.59,0-17.46,7.34-18.31,16.71h90.44C480.63,593.01,477.03,590.01,472.7,590.01z"/>
	</g>
	<g>
		<path class="st111" d="M227.04,507.28c0.95,0,1.83,0.31,2.62,0.82c1.41-4.44,4.87-7.58,8.92-7.58c0.29,0,0.58,0.02,0.87,0.05
			c0.76-8.25,6.36-14.66,13.17-14.66c6.57,0,12.01,5.98,13.06,13.83c0.42-0.06,0.85-0.09,1.28-0.09c6.05,0,11.02,5.79,11.56,13.19
			h-57.11C222.03,509.65,224.31,507.28,227.04,507.28z"/>
	</g>
	<g>
		<path class="st111" d="M162.63,485.02c-0.87,0-1.68,0.23-2.4,0.6c-1.29-3.25-4.46-5.55-8.16-5.55c-0.27,0-0.53,0.02-0.8,0.04
			c-0.69-6.04-5.82-10.74-12.05-10.74c-6.01,0-10.99,4.38-11.95,10.12c-0.38-0.04-0.77-0.07-1.17-0.07
			c-5.54,0-10.09,4.24-10.58,9.65h52.26C167.21,486.76,165.13,485.02,162.63,485.02z"/>
	</g>
	<g>
		<path class="st111" d="M594.27,513.22c-0.26,0-0.52,0.02-0.78,0.05c-2.07-9.46-8.95-16.42-17.15-16.42
			c-6.06,0-11.41,3.82-14.63,9.63c-2.38-3.62-5.97-5.92-10-5.92c-7.16,0-12.96,7.29-12.96,16.28c0,0.32,0.02,0.62,0.04,0.93h62.52
			C599.74,515.03,597.17,513.22,594.27,513.22z"/>
	</g>
</g>
<path class="st12" d="M221.12,307c0,0,70.42,0,70.42,0c-0.1-2.71-1.13-5.66-2.3-8.21c-0.74-1.61-1.7-3.44-4.1-3.78
	c-1.23-0.17-4.64,0.25-4.83,1.58c0.29-2.07,0.58-4.19,0-6.22c-0.58-2.03-2.19-4.01-4.69-4.79c-2.83-0.88-6.42,0.12-7.86,2.19
	c1.35-5.28-2.96-21.31-13.91-15.53c-2.57,1.36-4.16,3.58-5.1,5.87c-1.42,3.44-2.77,7.48-1.38,11.02c-0.62-1.58-3.22-2.3-5.27-1.83
	c-2.05,0.47-3.57,1.82-4.63,3.25c-1.35,1.82-2.15,3.88-2.33,5.97c-0.03-1.72-1.59-3.36-3.71-3.9c-4.83-1.23-8.25,1.94-9.3,5.09
	C221.91,298.42,219.35,307,221.12,307z"/>
<path class="st12" d="M564.4,354h109.56c0.47-5.91-3.36-12.41-8.95-16.41c-3.07-2.2-7.68-3.68-11.83-3.52
	c-1.57,0.06-7.99,0.56-7.94,2.41c-0.18-6.41-2-15.48-13.04-15.47c-5.7,0-11.67,3.49-11.77,8.13c0.12-5.54-0.59-11.08-2.11-16.49
	c-1.02-3.61-2.51-7.32-5.91-9.93c-5.08-3.9-12.83-1.43-16.33,2.78c-6.66,8.02-7.9,20.94-6.48,30.16c-2.09-0.74-4.43-1.22-6.69-0.9
	c-3.09,0.44-9.04,5.16-5.7,7.7c-2.68-2.03-7.55-1.34-9.97,0.87C564.82,345.55,563.68,351.15,564.4,354z"/>
<path class="st12" d="M296.31,172c0.13,0,90.53,0,90.53,0c0.4-5.06-0.91-11.13-3.7-15.58c-1.59-2.55-3.96-5.03-7.22-5.57
	c-3.26-0.54-7.12,1.95-6.36,4.78c-0.26-3.94-3.56-7.58-7.88-8.69c-4.32-1.11-9.34,0.4-11.97,3.59c-0.16-1.95-0.32-3.9-0.48-5.85
	c-0.3-3.66-0.62-7.38-2.12-10.8c-1.64-3.76-4.46-7.11-8.98-8.44c-3.41-1-7.41-0.25-10.29,1.56c-1.46,0.92-2.75,2.39-3.66,3.74
	c-4.39,6.53-4.75,13.85-4.27,21.21c0.06-3.46-5.84-5.27-8.85-3.71c-0.92,0.48-1.65,1.21-2.24,1.99c-1.39,1.82-2.21,3.97-2.32,6.15
	c-0.6-0.73-1.54-1.24-2.56-1.39c-1.8-0.27-3.64,0.62-4.77,1.88c-1.13,1.26-1.68,2.85-2.07,4.41C296.87,162.16,295.5,172,296.31,172z
	"/>
<ellipse transform="matrix(0.2261 -0.9741 0.9741 0.2261 -45.7321 374.7149)" class="st112" cx="212.97" cy="216.14" rx="49.15" ry="49.15"/>
<g>
	<path class="st113" d="M604.76,445.92c-1.93,3.7-5.83,9.2-10.26,9.84c-4.27,0.61-10.47-2.85-13.51-5.52
		c-2.17-1.9-4.04-4.69-3.38-7.5c0.33-1.41,1.26-2.6,2.22-3.69c4.58-5.22,9.49-8.12,16.35-9.37c1.36-0.25,2.76-0.44,4.12-0.2
		c3.26,0.57,5.72,3.61,6.33,6.87C607.24,439.6,606.29,442.98,604.76,445.92z"/>
	<g>
		<g>
			<g>
				<path class="st114" d="M562.2,175.03c2.55-4.66,4.67-9.68,6.53-14.93c2.96-8.37,5.93-16.74,8.89-25.11
					c-6.7,5.97-13.99,11.33-21.95,15.49c-8.85,4.63-18.55,7.79-26.61,13.69c-5.74,4.2-10.51,9.73-13.82,16.02
					c-2.81,5.34-5.35,14.54,0,19.27c6.14,5.44,17.28,2.19,23.59-1.01C549.6,193,556.86,184.8,562.2,175.03z"/>
				<g>
					<path class="st115" d="M478.99,216.53c7.94-4.35,15.77-9.07,23.45-13.94c7.68-4.89,15.23-10,22.57-15.41
						c7.33-5.41,14.47-11.09,21.19-17.25c3.37-3.07,6.62-6.27,9.69-9.64c3.07-3.37,5.99-6.89,8.58-10.66
						c-2.46,3.86-5.26,7.49-8.22,10.97c-2.97,3.49-6.12,6.82-9.4,10.01c-6.54,6.42-13.52,12.38-20.7,18.07
						c-7.19,5.69-14.6,11.08-22.15,16.27c-7.57,5.18-15.24,10.16-23.17,14.88L478.99,216.53z"/>
				</g>
				<path class="st114" d="M473.12,113.89c-9.05-7.91-7.72-23.15-5.7-33.63c3.57-18.47,10.66-35.93,13.18-54.62
					c1.87,8.77,3.91,17.66,6.59,26.23c2.26,7.69,3.69,15.2,5.38,23.05c1.51,6.97,2.55,13.98,2.06,21.15
					c-0.56,8.28-7.28,27.23-19.45,19.38C474.45,114.96,473.76,114.44,473.12,113.89z"/>
				<g>
					<polygon class="st115" points="481.56,62.03 485.63,365.36 471.11,365.2 					"/>
				</g>
				<path class="st114" d="M398.54,215.41c-2.86-5.44-4.8-11.31-6.73-17.14c-3.15-9.51-6.29-19.03-9.44-28.54
					c7.42,6.89,15.52,13.12,24.39,18c9.88,5.43,20.74,9.23,29.7,16.07c6.38,4.87,11.63,11.22,15.21,18.41
					c2.77,5.55,5.24,15.21,0.53,20.51c-4.31,4.84-13.06,2.09-18.69,0.51C418.8,239.09,405.68,228.99,398.54,215.41z"/>
				<g>
					<path class="st115" d="M395.03,185.59c5.6,7.71,11.72,15.02,18.11,22.07c6.4,7.04,13.15,13.75,20.2,20.11
						c7.03,6.38,14.55,12.19,22.3,17.6l5.93,3.88c0.97,0.67,2,1.25,3.03,1.83l3.07,1.75l3.07,1.75c1.01,0.6,2.11,1.05,3.16,1.58
						l6.35,3.07l-1.58,3.44l-6.42-3.36c-1.06-0.58-2.16-1.08-3.18-1.72l-3.08-1.89l-3.07-1.89c-1.03-0.63-2.06-1.25-3.02-1.96
						l-5.9-4.14c-7.69-5.75-15.08-11.87-21.95-18.53c-6.89-6.64-13.44-13.6-19.63-20.87C406.26,201.01,400.38,193.49,395.03,185.59z
						"/>
				</g>
				<path class="st114" d="M560.05,276.8c3.78-5.1,6.69-10.78,9.59-16.44c4.72-9.22,9.45-18.44,14.17-27.65
					c-8.62,5.85-17.81,10.91-27.57,14.47c-10.87,3.96-22.46,6.09-32.62,11.65c-8.67,4.74-20.74,11.51-22.85,22.05
					c-1.38,6.89,1.2,15.29,8.04,18.19c8.53,3.61,21.23-0.86,29.19-4.53C546.65,290.54,554.37,284.47,560.05,276.8z"/>
				<g>
					<path class="st115" d="M478.72,293.44c7.68-1.61,15.4-3.83,22.94-6.36c7.55-2.55,14.97-5.51,22.23-8.83
						c1.8-0.86,3.65-1.63,5.42-2.56l5.34-2.72c1.78-0.91,3.49-1.94,5.24-2.9l2.61-1.47c0.87-0.5,1.7-1.05,2.55-1.57l5.09-3.18
						l4.92-3.43l2.46-1.72l2.36-1.86l4.73-3.72l-4.58,3.9l-2.29,1.95l-2.4,1.82l-4.8,3.64l-4.98,3.39c-0.83,0.56-1.65,1.15-2.5,1.68
						l-2.57,1.58c-1.72,1.04-3.41,2.14-5.16,3.13l-5.27,2.95c-1.75,1-3.57,1.85-5.36,2.79c-7.19,3.63-14.56,6.92-22.09,9.79
						l-5.68,2.09c-1.91,0.64-3.82,1.32-5.74,1.93c-3.86,1.24-7.7,2.39-11.7,3.37L478.72,293.44z"/>
				</g>
				<path class="st114" d="M551.4,121.41c2.55-4.66,4.67-9.68,6.53-14.93c2.96-8.37,5.93-16.74,8.89-25.11
					c-6.7,5.97-13.99,11.33-21.95,15.49c-8.85,4.63-18.55,7.79-26.61,13.69c-5.74,4.2-10.51,9.73-13.82,16.02
					c-2.81,5.34-5.35,14.54,0,19.27c6.14,5.44,17.28,2.19,23.59-1.01C538.79,139.38,546.05,131.18,551.4,121.41z"/>
				<g>
					<path class="st115" d="M479.71,152.64c6.92-3.51,13.79-7.26,20.56-11.13c6.78-3.87,13.46-7.91,20.01-12.15
						c6.55-4.25,12.97-8.7,19.1-13.53c3.05-2.43,6.04-4.95,8.88-7.63c2.84-2.68,5.54-5.52,7.87-8.66c-2.21,3.24-4.8,6.2-7.54,9
						c-2.74,2.8-5.64,5.46-8.61,8.02c-5.96,5.1-12.23,9.84-18.64,14.37c-6.41,4.52-12.96,8.85-19.61,13.02
						c-6.66,4.17-13.37,8.19-20.26,12.04L479.71,152.64z"/>
				</g>
				<path class="st114" d="M408.48,102.82c-2.46-4.72-4.47-9.78-6.22-15.06c-2.79-8.43-5.58-16.86-8.36-25.29
					c6.58,6.11,13.75,11.62,21.62,15.95c8.75,4.81,18.38,8.17,26.32,14.24c5.65,4.32,10.3,9.95,13.48,16.31
					c2.7,5.4,5.04,14.65-0.4,19.27c-6.25,5.31-17.32,1.83-23.57-1.5C420.7,121.05,413.62,112.69,408.48,102.82z"/>
				<g>
					<path class="st115" d="M479.84,139.18c-13.86-8.06-27.42-16.73-40.11-26.57c-12.67-9.83-24.46-20.87-34.42-33.39
						c10.45,12.11,22.6,22.62,35.55,31.87c12.97,9.26,26.74,17.32,40.81,24.78L479.84,139.18z"/>
				</g>
			</g>
			<g>
				<path class="st116" d="M480.19,374.8c1.53-14.73,1.91-30.3-1.52-44.54c-1.26-0.11-2.56-0.15-3.93-0.03
					c-0.57,0.05-1.15,0.13-1.71,0.23c-3.02,0.54-5.91,1.73-8.74,2.96c-38.02,16.55-72.1,42.07-98.68,73.9
					c-7.43,8.9-14.42,18.54-17.63,29.69c-7.57,26.32,12.82,45.34,34.5,55.86c43.05,20.88,86.7,14.75,122.89,0.59
					c-11.71-15.02-22.35-30.96-26.76-49.31C473.17,421.55,477.79,397.93,480.19,374.8z"/>
				<path class="st117" d="M527.75,369.19c-6.95-6.96-14.04-13.79-21.42-20.3c-8.34-7.35-15.97-17.6-27.66-18.63
					c3.43,14.24,3.05,29.8,1.52,44.54c-2.4,23.13-7.02,46.75-1.58,69.36c4.42,18.35,15.05,34.29,26.76,49.31
					c50.12-19.61,85.91-54.63,85.91-54.63C592.84,437.32,534.52,375.97,527.75,369.19z"/>
			</g>
		</g>
		<g>
			<g>
				<path class="st118" d="M475.94,401.03c-6.56,1.55-11.98,7.21-11.88,14.19c0.18,13.05,14.83,11.19,24.7,6.38
					c3.46-5.51,4.25-12.76,0.13-17.61c-1.4-1.64-3.13-2.8-5.07-3.61C481.16,400.29,478.52,400.42,475.94,401.03z"/>
				<path class="st118" d="M602.39,440.33c-4.11,2.66-8.07,6.65-11.33,10.29c-1.42,1.59-2.75,3.28-3.69,5.2
					c-1.79,3.68-1.89,7.82,1.16,10.81c0.45,0.45,0.96,0.83,1.48,1.19c5.19-5.14,10.08-10.62,15.05-16.46
					c1.13-1.32,2.29-2.71,2.75-4.38c0.16-0.59,0.2-1.19,0.18-1.79C606.07,443.63,604.22,441.97,602.39,440.33z"/>
			</g>
			<g>
				<path class="st118" d="M475.94,401.03c-6.56,1.55-11.98,7.21-11.88,14.19c0.18,13.05,14.83,11.19,24.7,6.38
					c3.46-5.51,4.25-12.76,0.13-17.61c-1.4-1.64-3.13-2.8-5.07-3.61C481.16,400.29,478.52,400.42,475.94,401.03z"/>
				<path class="st118" d="M602.39,440.33c-4.11,2.66-8.07,6.65-11.33,10.29c-1.42,1.59-2.75,3.28-3.69,5.2
					c-1.79,3.68-1.89,7.82,1.16,10.81c0.45,0.45,0.96,0.83,1.48,1.19c5.19-5.14,10.08-10.62,15.05-16.46
					c1.13-1.32,2.29-2.71,2.75-4.38c0.16-0.59,0.2-1.19,0.18-1.79C606.07,443.63,604.22,441.97,602.39,440.33z"/>
			</g>
			<g>
				<path class="st105" d="M591.06,450.62c-1.42,1.59-2.75,3.28-3.69,5.2c-0.93,1.92-1.39,3.95-1.2,5.89
					c1.34-1.24,2.65-2.5,3.95-3.78c4.96-4.91,9.65-10.15,14.4-15.7c-0.71-0.63-1.42-1.26-2.13-1.89
					C598.28,442.99,594.32,446.97,591.06,450.62z"/>
				<path class="st119" d="M606.83,441.58c0.22,0.35,0.41,0.71,0.58,1.09C607.25,442.29,607.05,441.93,606.83,441.58z"/>
				<path class="st119" d="M607.42,442.69c0.15,0.35,0.26,0.7,0.35,1.07C607.68,443.4,607.57,443.04,607.42,442.69z"/>
				<path class="st119" d="M606.01,440.46c0.27,0.31,0.51,0.64,0.73,0.98C606.52,441.09,606.28,440.77,606.01,440.46z"/>
				<path class="st119" d="M168.16,611.13c0.11,4.17,0.39,8.35,0.9,12.56c0.8,6.7,2.09,13.45,5.11,19.48
					c5.37,10.7,14.37,13.78,25.43,15.73c8.18,1.44,16.67,0.54,24.61-1.89c11.77-3.6,22.57-10.64,30.06-20.41
					c14.43-18.82,9.34-42.69,13.09-64.65c3.69-21.59,11.9-42.89,26.35-59.59c1.05-1.21,2.16-2.43,3.59-3.17
					c8.57-4.43,23.09-0.2,31.94,1.1c11.84,1.75,23.67,3.57,35.45,5.66c23.44,4.17,50.51,8.65,74.26,6.34
					c12.68-1.23,26.15-6.52,38.53-9.6c13.25-3.3,26.51-6.6,39.76-9.91c7.06-1.76,14.17-3.53,20.83-6.46
					c13.29-5.84,24.01-15.84,35.61-24.3c4.48-3.27,8.59-6.7,12.48-10.32c-0.19-1.94,0.26-3.98,1.2-5.89
					c0.93-1.92,2.27-3.61,3.69-5.2c3.26-3.64,7.22-7.63,11.33-10.29c0.71,0.63,1.42,1.26,2.13,1.89c0.22-0.26,0.44-0.5,0.66-0.76
					c0.28-0.33,0.56-0.66,0.83-1c-0.43-0.49-0.9-0.93-1.43-1.3c-2.44-1.74-5.56-2.27-8.57-2.24c-15.19,0.14-28.21,13.41-40.94,20.17
					c-20.36,10.8-43.05,12.4-65.59,13.39c-24.5,1.07-49.13-0.77-73.19-5.49c-4.51-0.89-9.03-1.88-13.31-3.59
					c-3.88-1.55-7.88-4.14-8.79-8.22c-1.63-7.3,6.57-6.91,10.96-7.75c19.1-3.66,38.2-7.32,57.29-10.98
					c8.05-1.54,16.5-3.27,22.72-8.62c1.39-1.19,2.59-2.64,3.59-4.22c-9.87,4.81-24.52,6.67-24.7-6.38
					c-0.1-6.98,5.32-12.63,11.88-14.19c2.58-0.61,5.22-0.73,7.88-0.66c-4.13-1.73-9.17-1.84-13.76-1.52
					c-28.93,2-56.73,13.3-85.71,14.24c-7.87,0.25-15.76-0.26-23.6,0.46c-18.88,1.73-36.3,10.47-53.2,19.05
					c-18.06,9.17-36.19,18.38-52.74,30.04c-2.16,1.52-4.28,3.08-6.38,4.69c-26.2,20.05-47.39,46.45-61.8,76.09
					c-12.08,24.85-19.5,51.4-18.54,78.85C167.96,618.54,167.98,614.83,168.16,611.13z"/>
				<path class="st119" d="M168.92,633.35c0.01,0.08,0.01,0.15,0.02,0.23c0.3,2.51,0.67,5.03,1.17,7.52c-0.5-2.49-0.87-5-1.17-7.52
					C168.94,633.5,168.93,633.43,168.92,633.35z"/>
				<path class="st119" d="M168.39,627.87c-0.12-1.59-0.2-3.18-0.26-4.76C168.19,624.7,168.27,626.28,168.39,627.87z"/>
				<path class="st119" d="M275.28,552.95c-0.65,1.64-1.29,3.29-1.88,4.95C274,556.24,274.63,554.59,275.28,552.95z"/>
				<path class="st119" d="M171.32,646.01c-0.47-1.62-0.87-3.26-1.2-4.91C170.45,642.75,170.85,644.4,171.32,646.01z"/>
				<path class="st119" d="M558.58,493.43c-5.74,4.36-11.65,8.48-18.14,11.65C546.93,501.91,552.83,497.79,558.58,493.43z"/>
				<path class="st119" d="M569.27,485.15c-1.83,1.4-3.64,2.82-5.46,4.24C565.63,487.97,567.44,486.55,569.27,485.15z"/>
				<path class="st119" d="M561.17,491.45c-0.86,0.67-1.72,1.33-2.59,1.99C559.44,492.78,560.31,492.11,561.17,491.45z"/>
				<path class="st119" d="M171.32,646.01c0.62,2.11,1.39,4.16,2.32,6.15l0,0C172.71,650.17,171.94,648.12,171.32,646.01z"/>
				<path class="st119" d="M425.2,532.82c-9.28,0-18.85-0.76-28.33-1.92C406.35,532.06,415.92,532.83,425.2,532.82z"/>
				<path class="st119" d="M392.13,530.3c-3.15-0.43-6.28-0.89-9.38-1.37C385.85,529.41,388.99,529.87,392.13,530.3z"/>
				<path class="st119" d="M607.84,444.03c0.08,0.38,0.14,0.76,0.16,1.14C607.98,444.79,607.92,444.41,607.84,444.03z"/>
				<path class="st119" d="M203,669.26c0.89,0.09,1.78,0.16,2.67,0.19C204.78,669.41,203.88,669.34,203,669.26
					C203,669.26,203,669.26,203,669.26z"/>
				<path class="st119" d="M528.54,509.64c3.21-0.97,6.37-2.07,9.43-3.41c0.83-0.36,1.65-0.75,2.46-1.14
					c-0.81,0.4-1.63,0.78-2.46,1.14C534.91,507.57,531.75,508.67,528.54,509.64z"/>
				<path class="st119" d="M487.74,520.01c9.8-2.44,19.6-4.89,29.41-7.33c2.46-0.61,4.92-1.23,7.36-1.89
					c-2.45,0.66-4.91,1.28-7.36,1.89C507.35,515.13,497.54,517.57,487.74,520.01z"/>
				<path class="st119" d="M313.07,517.48c5.81,0.67,11.65,2.05,16.07,2.7c8.88,1.31,17.75,2.66,26.61,4.14
					c-8.85-1.48-17.73-2.83-26.61-4.14C324.72,519.53,318.87,518.15,313.07,517.48z"/>
				<path class="st119" d="M355.75,524.33c2.95,0.49,5.9,1,8.85,1.52c5.86,1.04,11.95,2.1,18.15,3.07
					c-6.21-0.97-12.29-2.03-18.15-3.07C361.65,525.33,358.7,524.82,355.75,524.33z"/>
				<path class="st119" d="M199.49,668.79c1.16,0.2,2.33,0.35,3.51,0.46c0,0,0,0,0,0C201.82,669.14,200.65,669,199.49,668.79"/>
				<path class="st120" d="M273.41,557.91c-0.92,2.6-1.75,5.22-2.51,7.87C271.66,563.13,272.49,560.5,273.41,557.91z"/>
				<path class="st120" d="M262.34,629.57c-0.36,1.32-0.76,2.63-1.21,3.92C261.58,632.19,261.98,630.89,262.34,629.57z"/>
				<path class="st120" d="M265.27,606.98c-0.31,6.3-0.77,12.55-1.99,18.59C264.5,619.54,264.96,613.29,265.27,606.98z"/>
				<path class="st120" d="M425.2,532.82c4.64,0,9.21-0.2,13.66-0.63c4.75-0.46,9.62-1.49,14.5-2.77c-4.88,1.27-9.74,2.3-14.5,2.77
					C434.41,532.63,429.84,532.82,425.2,532.82z"/>
				<path class="st120" d="M218.06,668.43c-2.04,0.4-4.1,0.7-6.17,0.87C213.95,669.12,216.01,668.83,218.06,668.43z"/>
				<path class="st120" d="M563.81,489.39c-0.88,0.69-1.76,1.37-2.64,2.05C562.05,490.76,562.93,490.08,563.81,489.39z"/>
				<path class="st120" d="M528.54,509.64c-1.34,0.4-2.68,0.79-4.03,1.16C525.86,510.43,527.21,510.04,528.54,509.64z"/>
				<path class="st120" d="M607.99,445.17C607.99,445.17,607.99,445.17,607.99,445.17c-1.19-0.95-2.34-1.94-3.48-2.95
					c-4.75,5.56-9.44,10.79-14.4,15.7c-1.29,1.28-2.61,2.54-3.95,3.78c0.18,1.78,0.9,3.48,2.36,4.92c0.45,0.45,0.96,0.83,1.48,1.19
					c5.19-5.14,10.08-10.62,15.05-16.46c1.13-1.32,2.29-2.71,2.75-4.38C607.98,446.38,608.02,445.77,607.99,445.17
					C607.99,445.17,607.99,445.17,607.99,445.17z"/>
				<path class="st120" d="M278.08,546.45c-1,2.14-1.92,4.31-2.8,6.5C276.16,550.76,277.08,548.59,278.08,546.45z"/>
				<path class="st120" d="M472.7,523.84c-3.16,0.88-6.37,1.86-9.6,2.82C466.33,525.7,469.54,524.73,472.7,523.84z"/>
				<path class="st120" d="M472.7,523.84c1.58-0.44,3.14-0.86,4.69-1.25c3.45-0.86,6.9-1.72,10.35-2.58
					c-3.45,0.86-6.9,1.72-10.35,2.58C475.84,522.98,474.28,523.4,472.7,523.84z"/>
				<path class="st120" d="M463.1,526.66c-3.23,0.96-6.49,1.92-9.74,2.77C456.61,528.58,459.87,527.63,463.1,526.66z"/>
				<path class="st120" d="M244.47,656.3c3.62-2.86,6.89-6.14,9.7-9.8c2.7-3.53,4.72-7.24,6.24-11.07
					c-1.52,3.84-3.54,7.54-6.24,11.07C251.36,650.15,248.08,653.44,244.47,656.3z"/>
				<path class="st120" d="M607.41,442.67c0,0.01,0.01,0.02,0.01,0.03C607.41,442.68,607.41,442.67,607.41,442.67z"/>
				<path class="st120" d="M265.27,606.98c0.42-8.4,0.58-16.91,1.99-25.14c0.92-5.4,2.13-10.78,3.64-16.07
					c-1.51,5.29-2.72,10.67-3.64,16.07C265.85,590.08,265.68,598.58,265.27,606.98z"/>
				<path class="st120" d="M607.77,443.76c0.02,0.09,0.05,0.18,0.07,0.27C607.82,443.94,607.79,443.85,607.77,443.76z"/>
				<path class="st120" d="M221.1,667.74c1.01-0.25,2.01-0.53,3-0.84c4.41-1.35,8.69-3.18,12.71-5.46
					c-4.02,2.28-8.3,4.11-12.71,5.46C223.11,667.21,222.11,667.49,221.1,667.74z"/>
				<path class="st120" d="M168.92,633.35c-0.22-1.83-0.39-3.66-0.53-5.48C168.53,629.7,168.71,631.52,168.92,633.35z"/>
				<path class="st120" d="M208.78,669.47c-1.04,0.03-2.07,0.02-3.11-0.02C206.7,669.49,207.74,669.49,208.78,669.47z"/>
				<path class="st120" d="M168.13,623.11c-0.01-0.28-0.03-0.56-0.04-0.84C168.09,622.55,168.12,622.83,168.13,623.11z"/>
				<path class="st120" d="M278.08,546.45c4.08-8.71,9.2-16.9,15.53-24.21c0.53-0.61,1.07-1.21,1.65-1.76
					c-0.59,0.55-1.13,1.16-1.65,1.76C287.29,529.56,282.16,537.75,278.08,546.45z"/>
				<polygon class="st120" points="606.01,440.46 606.01,440.46 606.01,440.46 				"/>
				<path class="st120" d="M606.74,441.44c0.03,0.05,0.06,0.09,0.09,0.14C606.8,441.53,606.77,441.48,606.74,441.44z"/>
				<path class="st119" d="M604.52,442.22c1.14,1.01,2.29,2,3.48,2.95c0,0,0,0,0,0c-0.02-0.38-0.08-0.76-0.16-1.14
					c-0.02-0.09-0.04-0.18-0.07-0.27c-0.09-0.36-0.21-0.72-0.35-1.07c0-0.01-0.01-0.02-0.01-0.03c-0.16-0.38-0.36-0.74-0.58-1.09
					c-0.03-0.05-0.06-0.09-0.09-0.14c-0.22-0.34-0.46-0.67-0.73-0.98c0,0,0,0,0,0c-0.27,0.34-0.55,0.67-0.83,1
					C604.95,441.72,604.74,441.96,604.52,442.22z"/>
				<path class="st120" d="M604.52,442.22c1.14,1.01,2.29,2,3.48,2.95c0,0,0,0,0,0c-0.02-0.38-0.08-0.76-0.16-1.14
					c-0.02-0.09-0.04-0.18-0.07-0.27c-0.09-0.36-0.21-0.72-0.35-1.07c0-0.01-0.01-0.02-0.01-0.03c-0.16-0.38-0.36-0.74-0.58-1.09
					c-0.03-0.05-0.06-0.09-0.09-0.14c-0.22-0.34-0.46-0.67-0.73-0.98c0,0,0,0,0,0c-0.27,0.34-0.55,0.67-0.83,1
					C604.95,441.72,604.74,441.96,604.52,442.22z"/>
				<path class="st119" d="M586.17,461.71c-3.9,3.61-8.01,7.05-12.48,10.32c-11.6,8.46-22.32,18.47-35.61,24.3
					c-6.66,2.93-13.77,4.7-20.83,6.46c-13.25,3.3-26.51,6.61-39.76,9.91c-12.38,3.09-25.85,8.37-38.53,9.6
					c-23.75,2.31-50.82-2.18-74.26-6.34c-11.78-2.1-23.61-3.92-35.45-5.66c-8.85-1.31-23.37-5.53-31.94-1.1
					c-1.43,0.74-2.54,1.95-3.59,3.17c-14.45,16.71-22.66,38.01-26.35,59.59c-3.76,21.96,1.33,45.82-13.09,64.65
					c-7.49,9.77-18.29,16.82-30.06,20.41c-7.94,2.43-16.43,3.33-24.61,1.89c-11.06-1.95-20.06-5.03-25.43-15.73
					c-3.02-6.03-4.31-12.78-5.11-19.48c-0.5-4.21-0.79-8.39-0.9-12.56c-0.17,3.7-0.2,7.41-0.07,11.14c0.01,0.28,0.03,0.56,0.04,0.84
					c0.06,1.59,0.14,3.17,0.26,4.76c0.14,1.82,0.32,3.65,0.53,5.48c0.01,0.08,0.01,0.15,0.02,0.23c0.3,2.51,0.67,5.03,1.17,7.52
					c0.34,1.66,0.73,3.3,1.2,4.91c0.62,2.11,1.39,4.16,2.32,6.15c6.72,4.4,16.59,10.43,29.35,17.1c0.89,0.09,1.78,0.16,2.67,0.19
					c1.04,0.04,2.07,0.05,3.11,0.02c1.04-0.03,2.07-0.08,3.11-0.17c2.07-0.17,4.13-0.47,6.17-0.87c1.02-0.2,2.04-0.43,3.04-0.68
					c1.01-0.25,2.01-0.53,3-0.84c4.41-1.35,8.69-3.18,12.71-5.46c2.68-1.52,5.24-3.24,7.65-5.15c3.62-2.86,6.89-6.14,9.7-9.8
					c2.7-3.53,4.72-7.24,6.24-11.07c0.25-0.64,0.49-1.28,0.72-1.93c0.45-1.29,0.85-2.6,1.21-3.92c0.36-1.32,0.67-2.65,0.94-3.99
					c1.23-6.04,1.68-12.29,1.99-18.59c0.42-8.4,0.58-16.91,1.99-25.14c0.92-5.4,2.13-10.78,3.64-16.07
					c0.76-2.65,1.59-5.27,2.51-7.87c0.59-1.67,1.22-3.31,1.88-4.95c0.88-2.19,1.8-4.36,2.8-6.5c4.08-8.71,9.2-16.9,15.53-24.21
					c0.53-0.61,1.07-1.21,1.65-1.76c0.59-0.55,1.22-1.04,1.94-1.4c4.29-2.22,10.06-2.27,15.87-1.6c5.81,0.67,11.65,2.05,16.07,2.7
					c8.88,1.31,17.75,2.66,26.61,4.14c2.95,0.49,5.9,1,8.85,1.52c5.86,1.04,11.95,2.1,18.15,3.07c3.1,0.49,6.24,0.95,9.38,1.37
					c1.57,0.21,3.15,0.42,4.73,0.61c9.48,1.16,19.05,1.92,28.33,1.92c4.64,0,9.21-0.2,13.66-0.63c4.75-0.46,9.62-1.49,14.5-2.77
					c3.25-0.85,6.51-1.8,9.74-2.77c3.23-0.96,6.44-1.94,9.6-2.82c1.58-0.44,3.14-0.86,4.69-1.25c3.45-0.86,6.9-1.72,10.35-2.58
					c9.8-2.44,19.6-4.89,29.41-7.33c2.46-0.61,4.92-1.23,7.36-1.89c1.35-0.37,2.7-0.75,4.03-1.16c3.21-0.97,6.37-2.07,9.43-3.41
					c0.83-0.36,1.65-0.75,2.46-1.14c6.49-3.17,12.39-7.29,18.14-11.65c0.87-0.66,1.73-1.32,2.59-1.99c0.88-0.68,1.76-1.37,2.64-2.05
					c1.82-1.42,3.63-2.84,5.46-4.24c1.43-1.09,2.87-2.18,4.32-3.23c6.01-4.39,11.37-9.08,16.43-14.1c-0.52-0.36-1.03-0.75-1.48-1.19
					C587.07,465.19,586.35,463.49,586.17,461.71z"/>
				<path class="st120" d="M586.17,461.71c-3.9,3.61-8.01,7.05-12.48,10.32c-11.6,8.46-22.32,18.47-35.61,24.3
					c-6.66,2.93-13.77,4.7-20.83,6.46c-13.25,3.3-26.51,6.61-39.76,9.91c-12.38,3.09-25.85,8.37-38.53,9.6
					c-23.75,2.31-50.82-2.18-74.26-6.34c-11.78-2.1-23.61-3.92-35.45-5.66c-8.85-1.31-23.37-5.53-31.94-1.1
					c-1.43,0.74-2.54,1.95-3.59,3.17c-14.45,16.71-22.66,38.01-26.35,59.59c-3.76,21.96,1.33,45.82-13.09,64.65
					c-7.49,9.77-18.29,16.82-30.06,20.41c-7.94,2.43-16.43,3.33-24.61,1.89c-11.06-1.95-20.06-5.03-25.43-15.73
					c-3.02-6.03-4.31-12.78-5.11-19.48c-0.5-4.21-0.79-8.39-0.9-12.56c-0.17,3.7-0.2,7.41-0.07,11.14c0.01,0.28,0.03,0.56,0.04,0.84
					c0.06,1.59,0.14,3.17,0.26,4.76c0.14,1.82,0.32,3.65,0.53,5.48c0.01,0.08,0.01,0.15,0.02,0.23c0.3,2.51,0.67,5.03,1.17,7.52
					c0.34,1.66,0.73,3.3,1.2,4.91c0.62,2.11,1.39,4.16,2.32,6.15c6.72,4.4,16.59,10.43,29.35,17.1c0.89,0.09,1.78,0.16,2.67,0.19
					c1.04,0.04,2.07,0.05,3.11,0.02c1.04-0.03,2.07-0.08,3.11-0.17c2.07-0.17,4.13-0.47,6.17-0.87c1.02-0.2,2.04-0.43,3.04-0.68
					c1.01-0.25,2.01-0.53,3-0.84c4.41-1.35,8.69-3.18,12.71-5.46c2.68-1.52,5.24-3.24,7.65-5.15c3.62-2.86,6.89-6.14,9.7-9.8
					c2.7-3.53,4.72-7.24,6.24-11.07c0.25-0.64,0.49-1.28,0.72-1.93c0.45-1.29,0.85-2.6,1.21-3.92c0.36-1.32,0.67-2.65,0.94-3.99
					c1.23-6.04,1.68-12.29,1.99-18.59c0.42-8.4,0.58-16.91,1.99-25.14c0.92-5.4,2.13-10.78,3.64-16.07
					c0.76-2.65,1.59-5.27,2.51-7.87c0.59-1.67,1.22-3.31,1.88-4.95c0.88-2.19,1.8-4.36,2.8-6.5c4.08-8.71,9.2-16.9,15.53-24.21
					c0.53-0.61,1.07-1.21,1.65-1.76c0.59-0.55,1.22-1.04,1.94-1.4c4.29-2.22,10.06-2.27,15.87-1.6c5.81,0.67,11.65,2.05,16.07,2.7
					c8.88,1.31,17.75,2.66,26.61,4.14c2.95,0.49,5.9,1,8.85,1.52c5.86,1.04,11.95,2.1,18.15,3.07c3.1,0.49,6.24,0.95,9.38,1.37
					c1.57,0.21,3.15,0.42,4.73,0.61c9.48,1.16,19.05,1.92,28.33,1.92c4.64,0,9.21-0.2,13.66-0.63c4.75-0.46,9.62-1.49,14.5-2.77
					c3.25-0.85,6.51-1.8,9.74-2.77c3.23-0.96,6.44-1.94,9.6-2.82c1.58-0.44,3.14-0.86,4.69-1.25c3.45-0.86,6.9-1.72,10.35-2.58
					c9.8-2.44,19.6-4.89,29.41-7.33c2.46-0.61,4.92-1.23,7.36-1.89c1.35-0.37,2.7-0.75,4.03-1.16c3.21-0.97,6.37-2.07,9.43-3.41
					c0.83-0.36,1.65-0.75,2.46-1.14c6.49-3.17,12.39-7.29,18.14-11.65c0.87-0.66,1.73-1.32,2.59-1.99c0.88-0.68,1.76-1.37,2.64-2.05
					c1.82-1.42,3.63-2.84,5.46-4.24c1.43-1.09,2.87-2.18,4.32-3.23c6.01-4.39,11.37-9.08,16.43-14.1c-0.52-0.36-1.03-0.75-1.48-1.19
					C587.07,465.19,586.35,463.49,586.17,461.71z"/>
			</g>
		</g>
	</g>
</g>
<g>
	<defs>
		<circle id="SVGID_18_" cx="377.92" cy="407.66" r="316.81"/>
	</defs>
	<clipPath id="SVGID_10_">
		<use xlink:href="#SVGID_18_"  style="overflow:visible;"/>
	</clipPath>
	<g class="st55">
		<g>
			<path class="st122" d="M119.09,513.58c1.1-8.9,1.75-17.84,2.03-26.8c0.26-8.58-0.11-17.08-0.06-25.62
				c0.03-4.39-0.13-8.78-0.46-13.16c-0.17-2.19-0.38-4.37-0.64-6.55c-0.14-1.13-0.28-2.27-0.44-3.4c-0.06-0.42-0.66-2.58-0.43-2.87
				c-2.26,2.73-4.65,5.34-7.05,7.94c-2.54,2.74-5.09,5.47-7.52,8.32c-4.74,5.57-9.25,11.32-13.51,17.25
				c-4.11,5.71-8,11.58-11.65,17.59c-1.83,3.01-9.56,14.05-9.09,15.68c3.18,11.08,7,21.84,11.33,32.32l3.7-9.45
				c-0.53-2.12-1.04-4.25-1.49-6.4c-0.63-3.01-1.21-6.04-1.58-9.12c1.21,2.86,2.22,5.77,3.16,8.69c0.4,1.22,0.77,2.45,1.14,3.68
				l4.04-10.33l3.79-9.78c-0.71-2.76-1.39-5.53-1.97-8.33c-0.63-3.01-1.21-6.04-1.58-9.12c1.21,2.86,2.22,5.77,3.16,8.69
				c0.59,1.81,1.13,3.64,1.66,5.47l6.05-15.62c-1.18-4.57-2.23-9.17-2.84-13.9c1.53,3.7,2.74,7.49,3.84,11.31l9.62-24.85
				l-8.27,25.54c1.51-1.01,3-2.02,4.55-2.97c1.1-0.68,2.21-1.34,3.34-1.99c1.15-0.61,2.26-1.27,3.44-1.84
				c-0.95,0.89-1.97,1.69-2.96,2.54c-1.01,0.81-2.02,1.61-3.06,2.39c-2,1.52-4.05,2.97-6.12,4.39l-5.05,15.6
				c1.67-1.11,3.36-2.21,5.07-3.26c2.81-1.73,5.66-3.4,8.64-4.88c-2.46,2.24-5.04,4.3-7.67,6.29c-2.32,1.76-4.7,3.45-7.1,5.1
				l-3.34,10.32l-3.7,11.29c1.52-1,3.05-1.99,4.6-2.94c2.81-1.73,5.66-3.4,8.64-4.88c-2.46,2.24-5.04,4.3-7.67,6.29
				c-2.17,1.65-4.4,3.23-6.64,4.78l-4.54,13.85c4.51,10.2,9.51,20.11,15.04,29.7C114.61,556.34,116.69,533,119.09,513.58z"/>
			<path class="st122" d="M83.31,538.43c-0.29-0.68-0.59-1.36-0.87-2.04C82.73,537.07,83.02,537.75,83.31,538.43z"/>
			<path class="st123" d="M95.59,522.26c2.63-1.99,5.21-4.05,7.67-6.29c-2.98,1.48-5.83,3.14-8.64,4.88
				c-1.55,0.95-3.08,1.94-4.6,2.94l3.7-11.29l3.34-10.32c2.4-1.65,4.77-3.34,7.1-5.1c2.63-1.99,5.21-4.05,7.67-6.29
				c-2.98,1.48-5.83,3.14-8.64,4.88c-1.71,1.05-3.4,2.15-5.07,3.26l5.05-15.6c2.07-1.42,4.12-2.87,6.12-4.39
				c1.03-0.78,2.05-1.58,3.06-2.39c0.98-0.85,2-1.65,2.96-2.54c-1.18,0.57-2.29,1.23-3.44,1.84c-1.12,0.65-2.24,1.3-3.34,1.99
				c-1.54,0.95-3.04,1.97-4.55,2.97l8.27-25.54l-9.62,24.85c-1.09-3.82-2.31-7.61-3.84-11.31c0.61,4.72,1.66,9.32,2.84,13.9
				l-6.05,15.62c-0.53-1.83-1.07-3.66-1.66-5.47c-0.95-2.93-1.96-5.84-3.16-8.69c0.38,3.08,0.95,6.11,1.58,9.12
				c0.58,2.8,1.26,5.57,1.97,8.33l-3.79,9.78l-4.04,10.33c-0.37-1.23-0.74-2.46-1.14-3.68c-0.95-2.93-1.96-5.84-3.16-8.69
				c0.38,3.08,0.95,6.11,1.58,9.12c0.45,2.15,0.96,4.27,1.49,6.4l-3.7,9.45l-0.02,0.05c0.28,0.69,0.59,1.37,0.88,2.05
				c0.29,0.68,0.58,1.36,0.87,2.04c0.36,0.84,0.71,1.69,1.08,2.52l0.02-0.06l4.54-13.85C91.19,525.49,93.42,523.91,95.59,522.26z"/>
		</g>
		<g>
			<path class="st124" d="M214.46,694.27c-0.95-0.39-1.9-0.81-2.85-1.21C212.56,693.47,213.51,693.88,214.46,694.27z"/>
			<path class="st124" d="M367.6,538.71c-5.72-2.22-12.01-2.33-17.98-1.16c-4.65,0.91-9.24,4.8-13.73,2.01
				c-2.58-1.6-4.1-4.43-6.28-6.54c-4.98-4.8-13.05-5.22-19.41-2.5c-6.36,2.71-11.25,8.02-15.28,13.63
				c-2.93,4.09-5.85,8.69-10.57,10.43c-8.71,3.21-17.69-5.01-26.97-4.65c-8.34,0.32-14.8,7.46-18.79,14.79
				c-3.99,7.33-6.71,15.58-12.56,21.54c-9.03,9.2-23.07,10.68-34.89,15.81c-16.02,6.94-28.51,21.54-32.9,38.44
				c-2.15,8.29-2.32,17.04-0.69,25.44c15.6,9.2,31.83,17.39,48.49,24.68c2.06-5.57,4.44-11.01,7.08-16.3l-16.37-49.67l21.92,39.45
				c4.64-7.88,9.86-15.38,15.56-22.46l-0.01-0.18c-0.17-3.68-0.32-7.36-0.38-11.04c-0.03-3.68-0.14-7.36-0.04-11.06
				c0.02-3.69,0.17-7.38,0.33-11.07c0.23-3.7,0.45-7.39,0.94-11.1c0.86,3.64,1.45,7.3,2.06,10.95c0.54,3.66,1.06,7.32,1.45,10.98
				c0.47,3.66,0.73,7.33,1.08,11c0.14,1.56,0.25,3.12,0.35,4.69c2.41-2.73,4.86-5.4,7.4-7.99c4.3-4.38,8.79-8.55,13.42-12.56
				c-0.18-4.17-0.34-8.34-0.4-12.51c-0.05-2.52-0.06-5.05-0.05-7.58c0.06-2.53,0.05-5.06,0.18-7.59c0.39,2.51,0.63,5.02,0.94,7.53
				c0.26,2.51,0.51,5.03,0.72,7.55c0.31,3.58,0.55,7.16,0.77,10.74c6.31-5.32,12.87-10.31,19.64-14.99
				c-0.35-7.89-0.55-15.78-0.24-23.71c1.05,7.46,1.64,14.95,2.09,22.44c1.55-1.05,3.1-2.1,4.67-3.12
				c5.21-3.39,10.52-6.61,15.92-9.67c-0.28-6.59-0.41-13.18,0.01-19.8c1.03,6.21,1.57,12.45,1.95,18.69
				c9.49-5.31,19.22-10.15,29.11-14.58c-9.54,4.89-18.84,10.22-27.88,15.92c6.46,0.12,12.92,0.41,19.37,1.22
				c-7.17,0.75-14.33,0.85-21.49,0.79l-0.97-0.01l0-0.04c-4.88,3.15-9.71,6.39-14.4,9.81c-1.3,0.95-2.58,1.92-3.86,2.89
				c7.6,0.14,15.2,0.43,22.79,1.2c-8.43,0.66-16.85,0.76-25.27,0.69c-6.36,4.92-12.49,10.12-18.33,15.6
				c3.82,0.07,7.65,0.16,11.47,0.34c2.58,0.11,5.15,0.26,7.72,0.42c2.57,0.22,5.15,0.37,7.72,0.66c-2.58,0.24-5.16,0.32-7.73,0.49
				c-2.58,0.11-5.15,0.2-7.73,0.25c-4.6,0.11-9.2,0.11-13.8,0.08c-4.23,4.08-8.31,8.3-12.18,12.69c-2.21,2.51-4.34,5.09-6.43,7.7
				c1.16,0.03,2.31,0.04,3.47,0.08c3.75,0.22,7.51,0.31,11.26,0.64c3.75,0.25,7.51,0.62,11.26,1.02c3.75,0.47,7.5,0.92,11.25,1.66
				c-3.76,0.66-7.53,1.02-11.29,1.41c-3.76,0.32-7.52,0.61-11.28,0.77c-3.76,0.25-7.52,0.25-11.28,0.39
				c-2.67,0.05-5.33,0.03-7.99,0.02c-5.8,7.89-10.97,16.2-15.38,24.88l57.22-1.76l-62,12.01c-2.07,4.89-3.88,9.88-5.42,14.94
				c18.89,7.81,38.33,14.43,58.14,19.83c0.58-0.6,1.18-1.17,1.8-1.7c8.17-6.97,18.76-10.43,27.53-16.62
				c10.94-7.72,17.59-19.59,21.86-31.92c3.9-11.28-6.53-23.84-0.44-34.48c4.48-7.82,15.96-8.35,22.04-14.99
				c5.21-5.69,5.17-14.24,6.9-21.76c0.48-2.11,1.15-4.24,2.48-5.95c1.76-2.28,4.46-3.58,7.02-4.89c9.26-4.75,18.8-12.1,19.65-22.47
				C382.68,550.5,376.01,541.98,367.6,538.71z"/>
			<path class="st125" d="M282.39,667.52l-57.22,1.76c4.41-8.67,9.58-16.98,15.38-24.88c2.66,0.01,5.33,0.03,7.99-0.02
				c3.76-0.14,7.52-0.14,11.28-0.39c3.76-0.17,7.52-0.46,11.28-0.77c3.76-0.39,7.52-0.75,11.29-1.41c-3.75-0.74-7.5-1.18-11.25-1.66
				c-3.75-0.4-7.51-0.77-11.26-1.02c-3.75-0.33-7.51-0.42-11.26-0.64c-1.16-0.05-2.31-0.05-3.47-0.08c2.08-2.61,4.21-5.19,6.43-7.7
				c3.88-4.39,7.96-8.61,12.18-12.69c4.6,0.03,9.2,0.03,13.8-0.08c2.58-0.05,5.15-0.14,7.73-0.25c2.58-0.17,5.16-0.25,7.73-0.49
				c-2.57-0.29-5.15-0.44-7.72-0.66c-2.57-0.16-5.15-0.32-7.72-0.42c-3.82-0.18-7.64-0.27-11.47-0.34
				c5.84-5.48,11.97-10.68,18.33-15.6c8.42,0.07,16.84-0.03,25.27-0.69c-7.59-0.77-15.19-1.06-22.79-1.2
				c1.28-0.97,2.56-1.94,3.86-2.89c4.69-3.42,9.51-6.66,14.4-9.81l0,0.04l0.97,0.01c7.16,0.06,14.32-0.05,21.49-0.79
				c-6.45-0.81-12.91-1.1-19.37-1.22c9.05-5.7,18.35-11.02,27.88-15.92c-9.89,4.43-19.62,9.27-29.11,14.58
				c-0.38-6.24-0.92-12.48-1.95-18.69c-0.42,6.62-0.29,13.22-0.01,19.8c-5.39,3.07-10.71,6.28-15.92,9.67
				c-1.57,1.02-3.12,2.07-4.67,3.12c-0.45-7.49-1.04-14.98-2.09-22.44c-0.31,7.92-0.1,15.82,0.24,23.71
				c-6.76,4.68-13.33,9.67-19.64,14.99c-0.22-3.58-0.45-7.17-0.77-10.74c-0.21-2.52-0.46-5.03-0.72-7.55
				c-0.32-2.51-0.56-5.03-0.94-7.53c-0.13,2.53-0.12,5.06-0.18,7.59c-0.01,2.53,0,5.05,0.05,7.58c0.06,4.17,0.22,8.34,0.4,12.51
				c-4.63,4-9.12,8.17-13.42,12.56c-2.54,2.59-5,5.26-7.4,7.99c-0.11-1.56-0.22-3.13-0.35-4.69c-0.35-3.67-0.61-7.34-1.08-11
				c-0.39-3.67-0.91-7.33-1.45-10.98c-0.6-3.66-1.2-7.31-2.06-10.95c-0.49,3.71-0.71,7.41-0.94,11.1
				c-0.17,3.69-0.32,7.39-0.33,11.07c-0.09,3.69,0.02,7.37,0.04,11.06c0.05,3.68,0.21,7.36,0.38,11.04l0.01,0.18
				c-5.7,7.08-10.93,14.57-15.56,22.46l-21.92-39.45l16.37,49.67c-2.64,5.28-5.01,10.72-7.08,16.3c-0.01,0.02-0.02,0.04-0.02,0.06
				c1.86,0.81,3.73,1.59,5.6,2.38c0.95,0.4,1.89,0.81,2.85,1.21c0.17,0.07,0.34,0.14,0.51,0.21c0,0,0-0.01,0-0.01
				c1.54-5.06,3.36-10.05,5.42-14.94L282.39,667.52z"/>
		</g>
		<g>
			<path class="st126" d="M250.09,486.49c-0.86,1.94-14.96,4.85-17.39,5.74c-6.75,2.48-13.42,5.19-20.03,8.04
				c-14.26,6.16-28.23,13-41.9,20.39c-12.94,7-25.9,14.36-37.92,22.87c-11.26,7.98-24.96,19.76-29.7,33.16l-0.05,0.14
				c4.47,7.36,9.23,14.51,14.26,21.47c-0.09-0.13-0.19-0.25-0.28-0.38c0.25-0.28,0.49-0.56,0.74-0.84c2.29-2.6,4.64-5.15,6.96-7.73
				l5.86-6.22c0.46-3.49,0.95-6.97,1.58-10.43c0.74-4.18,1.6-8.34,2.77-12.46c0.18,4.28,0.04,8.53-0.2,12.76
				c-0.11,2.12-0.27,4.24-0.46,6.35c5.69-5.78,11.5-11.42,17.46-16.91c0.43-3.22,0.89-6.43,1.47-9.63c0.74-4.18,1.6-8.34,2.77-12.46
				c0.18,4.28,0.04,8.53-0.2,12.76c-0.11,2.02-0.26,4.03-0.44,6.04c2.21-1.99,4.44-3.97,6.69-5.92c2.64-2.24,5.21-4.56,7.91-6.72
				l1.82-1.47c1.06-2.97,2.15-5.94,3.37-8.85c1.37-3.33,2.82-6.63,4.54-9.84c-0.62,3.59-1.5,7.08-2.47,10.55
				c-0.45,1.65-0.94,3.29-1.45,4.92l2.27-1.83c2.7-2.16,5.52-4.17,8.27-6.26c1.21-0.91,2.43-1.82,3.65-2.72
				c0.8-2.23,1.62-4.45,2.53-6.64c1.05-2.56,2.17-5.1,3.49-7.57c-0.48,2.76-1.15,5.45-1.9,8.11c-0.37,1.34-0.77,2.68-1.18,4
				c0.6-0.42,1.2-0.86,1.81-1.27l8.57-5.84l2.07-1.29c1.1-3.09,2.29-6.15,3.83-9.09c-0.5,2.73-1.24,5.38-2.07,7.99l4.96-3.1
				l4.39-2.74l4.52-2.54l9.06-4.98c-7.3,4.78-14.58,9.56-21.64,14.63c2.71,0.35,5.41,0.81,8.08,1.52c-3.25,0.14-6.46-0.06-9.65-0.38
				c-3.56,2.59-7.07,5.24-10.49,8.02c-0.81,0.63-1.6,1.29-2.41,1.93c1.8,0.23,3.6,0.47,5.39,0.77c2.86,0.47,5.72,1.02,8.55,1.8
				c-2.93,0.15-5.84,0.08-8.74-0.07c-2.53-0.12-5.06-0.35-7.58-0.61c-4.92,3.95-9.77,8-14.52,12.15c2.34,0.29,4.67,0.61,7,1
				c3.72,0.61,7.43,1.33,11.11,2.34c-3.81,0.2-7.59,0.11-11.36-0.09c-3.21-0.16-6.41-0.44-9.6-0.76c-3.07,2.73-6.12,5.48-9.12,8.29
				c-2.4,2.26-4.79,4.53-7.16,6.82l1.57-0.15c2.22-0.14,4.43-0.34,6.65-0.43c2.22-0.12,4.45-0.18,6.67-0.22
				c2.23,0,4.46-0.01,6.71,0.13c-2.17,0.62-4.35,1.07-6.53,1.54c-2.19,0.43-4.37,0.84-6.57,1.19c-2.19,0.39-4.4,0.65-6.59,0.98
				l-5.71,0.66c-5.33,5.23-10.56,10.56-15.65,16.02c2.21-0.14,4.42-0.34,6.64-0.43c2.22-0.12,4.45-0.18,6.67-0.22
				c2.23,0,4.46-0.01,6.71,0.13c-2.17,0.62-4.35,1.07-6.53,1.54c-2.19,0.43-4.37,0.84-6.57,1.19c-2.19,0.39-4.4,0.65-6.59,0.98
				l-3.71,0.43l-5.94,6.53c-2.25,2.58-4.53,5.13-6.75,7.74c-0.54,0.64-1.08,1.27-1.62,1.91c6.64,8.87,13.72,17.42,21.2,25.61
				C176.45,589.85,228.96,533.84,250.09,486.49z"/>
			<path class="st127" d="M129.16,593.32l5.94-6.53l3.71-0.43c2.2-0.33,4.4-0.6,6.59-0.98c2.2-0.35,4.38-0.76,6.57-1.19
				c2.18-0.47,4.37-0.93,6.53-1.54c-2.25-0.15-4.48-0.13-6.71-0.13c-2.23,0.04-4.45,0.1-6.67,0.22c-2.22,0.08-4.43,0.29-6.64,0.43
				c5.09-5.46,10.32-10.79,15.65-16.02l5.71-0.66c2.2-0.33,4.4-0.6,6.59-0.98c2.19-0.35,4.38-0.76,6.57-1.19
				c2.18-0.47,4.37-0.93,6.53-1.54c-2.25-0.15-4.48-0.13-6.71-0.13c-2.23,0.04-4.45,0.1-6.67,0.22c-2.22,0.08-4.43,0.29-6.65,0.43
				l-1.57,0.15c2.37-2.29,4.76-4.56,7.16-6.82c2.99-2.81,6.04-5.57,9.12-8.29c3.19,0.33,6.39,0.61,9.6,0.76
				c3.77,0.2,7.55,0.29,11.36,0.09c-3.68-1.01-7.39-1.73-11.11-2.34c-2.33-0.39-4.66-0.71-7-1c4.76-4.15,9.6-8.2,14.52-12.15
				c2.52,0.26,5.04,0.48,7.58,0.61c2.9,0.15,5.81,0.22,8.74,0.07c-2.83-0.78-5.69-1.33-8.55-1.8c-1.79-0.3-3.59-0.55-5.39-0.77
				c0.81-0.64,1.6-1.29,2.41-1.93c3.42-2.78,6.93-5.44,10.49-8.02c3.2,0.32,6.41,0.52,9.65,0.38c-2.67-0.71-5.37-1.17-8.08-1.52
				c7.06-5.06,14.34-9.85,21.64-14.63l-9.06,4.98l-4.52,2.54l-4.39,2.74l-4.96,3.1c0.83-2.61,1.57-5.26,2.07-7.99
				c-1.54,2.94-2.73,6-3.83,9.09l-2.07,1.29l-8.57,5.84c-0.61,0.41-1.21,0.85-1.81,1.27c0.42-1.33,0.81-2.66,1.18-4
				c0.74-2.67,1.42-5.36,1.9-8.11c-1.32,2.47-2.44,5.01-3.49,7.57c-0.91,2.19-1.73,4.41-2.53,6.64c-1.22,0.9-2.44,1.81-3.65,2.72
				c-2.75,2.09-5.58,4.1-8.27,6.26l-2.27,1.83c0.51-1.63,1-3.27,1.45-4.92c0.97-3.47,1.85-6.96,2.47-10.55
				c-1.71,3.21-3.17,6.51-4.54,9.84c-1.22,2.92-2.31,5.88-3.37,8.85l-1.82,1.47c-2.7,2.16-5.27,4.49-7.91,6.72
				c-2.25,1.94-4.48,3.93-6.69,5.92c0.18-2.01,0.33-4.02,0.44-6.04c0.25-4.23,0.38-8.48,0.2-12.76c-1.17,4.12-2.02,8.29-2.77,12.46
				c-0.58,3.2-1.04,6.41-1.47,9.63c-5.96,5.49-11.77,11.14-17.46,16.91c0.19-2.11,0.35-4.23,0.46-6.35
				c0.25-4.23,0.38-8.48,0.2-12.76c-1.17,4.12-2.02,8.29-2.77,12.46c-0.63,3.47-1.12,6.95-1.58,10.43l-5.86,6.22
				c-2.32,2.58-4.67,5.12-6.96,7.73c-0.25,0.28-0.49,0.56-0.74,0.84c0.09,0.13,0.19,0.25,0.28,0.38c1.13,1.57,2.27,3.13,3.43,4.67
				l0,0c0.54-0.64,1.08-1.27,1.62-1.91C124.62,598.46,126.91,595.91,129.16,593.32z"/>
		</g>
		<g>
			<path class="st128" d="M177.01,503.4c-14.74,5.87-28.26,14.8-39.42,26.08c17.34-22.94,39.09-43.4,49.09-70.44
				c0.46-1.26,0.42-2.7-0.31-3.82c-1.91-2.92-6.23-0.75-8.72,1.56c-16.52,15.35-31.87,31.96-45.86,49.63
				c3.45-4.35,5.92-10.17,8.61-15.03c2.79-5.05,5.48-10.17,7.94-15.39c4.51-9.57,10.11-20.26,10.61-31.01
				c0.08-1.82-0.16-3.95-1.71-4.91c-1.06-0.66-2.46-0.53-3.59,0.01c-1.12,0.54-2.02,1.45-2.88,2.35
				c-8.6,9.03-14.57,19.99-20.59,30.82c-7.7,13.85-14.62,28.14-20.71,42.76c-3.05,7.31-5.89,14.71-8.52,22.19
				c-1.32,3.74-2.58,7.49-3.79,11.26c-0.63,1.96-1.25,3.93-1.85,5.9c-0.25,0.81-1.86,4.33-1.49,5.01c0.79,1.49,1.62,2.97,2.43,4.45
				c2.14-2.96,4.32-5.88,6.48-8.82c1.3-4.01,2.63-8.01,4.02-11.99c1.78-4.73,3.44-9.5,5.31-14.19c1.9-4.68,3.78-9.37,5.8-14
				c1.01-2.32,1.95-4.66,3.01-6.95l3.19-6.88c4.35-9.12,8.78-18.2,13.74-27.01c4.91-8.82,10.07-17.54,15.96-25.73
				c-5.18,8.66-9.82,17.6-14.35,26.58c-4.43,9.03-8.78,18.11-12.85,27.31c-4,9.23-8.06,18.43-11.77,27.78
				c-2.65,6.34-5.17,12.73-7.7,19.13c0.19-0.25,0.37-0.5,0.55-0.75l10.32-13.76l10.51-13.62c7.02-9.07,14.11-18.09,21.49-26.89
				c7.36-8.8,14.96-17.45,23.21-25.45c-7.13,9-14.01,18.14-20.98,27.23l-20.94,27.24l-20.87,27.31c-0.2,0.26-0.4,0.51-0.59,0.77
				c0.38-0.23,0.77-0.45,1.15-0.68c2.76-1.69,5.54-3.36,8.27-5.12c5.47-3.51,10.92-7.08,16.37-10.66l16.28-10.86
				c5.48-3.55,10.97-7.1,16.63-10.42c-9.87,8.64-20.32,16.5-31.04,24.01l-8.05,5.63c-2.72,1.82-5.45,3.64-8.22,5.4
				c-2.76,1.78-5.54,3.53-8.4,5.16c-1.44,0.82-2.87,1.63-4.35,2.4c-0.73,0.39-1.49,0.76-2.26,1.12l-1.19,0.52
				c-0.1,0.03-0.18,0.07-0.26,0.1c-2.3,2.99-4.59,6-6.9,8.98c1.67,2.98,3.37,5.94,5.14,8.85c24.65-19.15,48.47-39.38,71.33-60.63
				c2.5-2.33,5.11-4.94,6.79-7.87C182.57,505.39,179.85,502.27,177.01,503.4z"/>
			<path class="st129" d="M104.96,558.63l1.19-0.52c0.76-0.36,1.53-0.73,2.26-1.12c1.49-0.77,2.92-1.58,4.35-2.4
				c2.86-1.64,5.65-3.39,8.4-5.16c2.77-1.76,5.49-3.58,8.22-5.4l8.05-5.63c10.71-7.51,21.17-15.37,31.04-24.01
				c-5.66,3.32-11.15,6.87-16.63,10.42l-16.28,10.86c-5.44,3.59-10.89,7.16-16.37,10.66c-2.73,1.76-5.51,3.43-8.27,5.12
				c-0.38,0.23-0.77,0.45-1.15,0.68c0.2-0.26,0.4-0.51,0.59-0.77l20.87-27.31l20.94-27.24c6.97-9.09,13.85-18.23,20.98-27.23
				c-8.25,8-15.85,16.65-23.21,25.45c-7.38,8.79-14.46,17.82-21.49,26.89l-10.51,13.62l-10.32,13.76c-0.19,0.25-0.37,0.5-0.55,0.75
				c2.54-6.39,5.06-12.78,7.7-19.13c3.71-9.35,7.78-18.55,11.77-27.78c4.06-9.2,8.41-18.27,12.85-27.31
				c4.53-8.99,9.17-17.93,14.35-26.58c-5.9,8.2-11.05,16.91-15.96,25.73c-4.95,8.81-9.39,17.9-13.74,27.01l-3.19,6.88
				c-1.06,2.29-2.01,4.64-3.01,6.95c-2.02,4.63-3.9,9.32-5.8,14c-1.87,4.69-3.53,9.46-5.31,14.19c-1.39,3.98-2.72,7.98-4.02,11.99
				c-2.16,2.94-4.34,5.87-6.48,8.82l0,0c0.53,0.96,1.04,1.93,1.57,2.89l0,0c2.31-2.99,4.6-5.99,6.9-8.98
				C104.78,558.69,104.86,558.66,104.96,558.63z"/>
		</g>
		<g>
			<path class="st105" d="M355.27,691.78c0.61,0.6,1.22,1.2,1.85,1.78C356.56,692.91,355.93,692.32,355.27,691.78z"/>
			<path class="st128" d="M402.96,667.83c-0.93-5.87-2.43-12.32-7.33-15.68c-4.57-3.13-12.54-0.57-12.92,4.56
				c-0.2-11.34-1.42-22.67-3.64-33.79c-1.64-8.23-2.6-20.42-10.27-25.5c-1.5-0.99-3.52-1.54-5.09-0.67
				c-0.54,0.3-0.98,0.73-1.39,1.19c-7.48,8.35-6.55,23.9-5.86,34.23c0.42,6.39,1.4,12.75,2.92,18.97c1.22,5,2.49,12.74,5.64,16.91
				c-5.09-6.75-10.19-13.5-15.28-20.25c-2.47-3.27-10.71-12.35-14.44-5.74c-0.74,1.31-0.82,2.88-0.81,4.39
				c0.04,15.86,8.35,35.07,20.79,45.32c0.66,0.54,1.29,1.13,1.85,1.78c-0.63-0.58-1.24-1.18-1.85-1.78
				c-5.27-5.2-16.06-4.95-14.1,4.49c1.3,6.29,3.48,12.38,6.44,18.08c1.4,2.7,2.71,5.38,4.22,8.04c0.54,0.95,3.93,8.19,4.75,8.19
				c16.62-0.1,33.22-1.19,49.65-3.26C407.16,707.43,406.1,687.47,402.96,667.83z M392.3,674.67c-0.43,4.4-0.92,8.8-1.56,13.19
				c-0.61,4.4-1.4,8.78-2.35,13.15c-0.47,2.19-1.03,4.37-1.64,6.56c-0.33,1.09-0.65,2.18-1.03,3.28c-0.28,0.8-0.53,1.52-0.88,2.34
				c1.32,5.32,2.67,10.63,4.13,15.88c-2.16,0.18-4.31,0.37-6.48,0.52c-0.26-1.18-0.48-2.36-0.73-3.55
				c-3.42-0.91-6.64-2.29-9.63-3.97c-3.68-2.12-6.99-4.72-10.1-7.48c-3.1-2.77-5.91-5.82-8.56-8.96c-2.63-3.16-5.12-6.45-7.31-9.9
				c2.5,3.24,5.26,6.27,8.14,9.15c2.9,2.86,5.92,5.59,9.16,7.99c3.25,2.39,6.63,4.57,10.22,6.22c2.33,1.04,4.72,1.85,7.14,2.41
				c-1.11-5.49-2.18-10.99-3.17-16.5c-0.42-2.38-0.8-4.76-1.21-7.14c-4.58-2.66-8.58-5.98-12.16-9.62
				c-3.65-3.81-6.79-7.98-9.68-12.27c-2.86-4.31-5.37-8.82-7.67-13.41c-2.27-4.6-4.35-9.29-6.07-14.1
				c2.15,4.63,4.65,9.09,7.31,13.41c2.69,4.31,5.55,8.5,8.72,12.43c3.19,3.9,6.58,7.61,10.32,10.85c2.55,2.15,5.24,4.07,8.04,5.71
				c-0.93-5.77-1.82-11.54-2.66-17.32c-1.46-10.51-2.85-21.03-4-31.57c-1.2-10.53-2.18-21.09-3.1-31.64
				c1.47,10.49,3.01,20.97,4.77,31.41c1.7,10.45,3.65,20.85,5.66,31.23c2.07,10.37,4.27,20.71,6.68,31
				c0.03,0.11,0.06,0.23,0.08,0.34c0.56-1.46,1.11-2.94,1.61-4.44c1.37-4.12,2.61-8.32,3.67-12.57c1.1-4.24,2.05-8.54,2.94-12.84
				c0.87-4.31,1.66-8.65,2.41-13C393.03,665.87,392.71,670.27,392.3,674.67z"/>
			<path class="st129" d="M387.95,687.31c-1.06,4.25-2.3,8.45-3.67,12.57c-0.49,1.5-1.04,2.98-1.61,4.44
				c-0.03-0.11-0.06-0.23-0.08-0.34c-2.41-10.28-4.61-20.62-6.68-31c-2.01-10.38-3.95-20.79-5.66-31.23
				c-1.75-10.44-3.29-20.92-4.77-31.41c0.92,10.55,1.9,21.11,3.1,31.64c1.15,10.54,2.54,21.06,4,31.57
				c0.84,5.78,1.73,11.55,2.66,17.32c-2.8-1.64-5.49-3.56-8.04-5.71c-3.74-3.25-7.13-6.95-10.32-10.85
				c-3.17-3.92-6.03-8.11-8.72-12.43c-2.66-4.33-5.15-8.78-7.31-13.41c1.72,4.81,3.8,9.5,6.07,14.1c2.3,4.59,4.8,9.1,7.67,13.41
				c2.89,4.29,6.04,8.46,9.68,12.27c3.57,3.64,7.58,6.95,12.16,9.62c0.4,2.38,0.78,4.76,1.21,7.14c0.99,5.52,2.06,11.01,3.17,16.5
				c-2.41-0.56-4.81-1.36-7.14-2.41c-3.59-1.65-6.97-3.84-10.22-6.22c-3.25-2.4-6.26-5.13-9.16-7.99c-2.88-2.88-5.64-5.9-8.14-9.15
				c2.2,3.46,4.68,6.74,7.31,9.9c2.66,3.14,5.46,6.19,8.56,8.96c3.11,2.75,6.41,5.35,10.1,7.48c2.99,1.68,6.21,3.06,9.63,3.97
				c0.25,1.18,0.47,2.36,0.73,3.55c2.16-0.15,4.32-0.34,6.48-0.52c-1.46-5.24-2.81-10.55-4.13-15.88c0.34-0.82,0.6-1.55,0.88-2.34
				c0.38-1.1,0.7-2.19,1.03-3.28c0.61-2.18,1.17-4.37,1.64-6.56c0.95-4.38,1.75-8.76,2.35-13.15c0.64-4.39,1.13-8.79,1.56-13.19
				c0.41-4.4,0.73-8.81,1-13.21c-0.75,4.35-1.53,8.68-2.41,13C390,678.77,389.05,683.06,387.95,687.31z"/>
		</g>
		<g>
			<path class="st122" d="M518.98,663.47c-4.21-14.11-9.89-27.9-15.76-41.38c-12.77-29.31-28.27-55.98-50.68-79.06
				c1.11,32.47,0.36,65.17,2.22,97.53c0.95,16.63,2.02,33.26,2.99,49.89c0.09,1.53,1.45,16.82,1.87,26.48
				c10.67-2.83,21.26-5.99,31.73-9.48c-0.05-0.83-0.1-1.67-0.14-2.5l-0.65-8.8l-2.66-2.63c-1.53-1.62-3.1-3.18-4.59-4.84
				c-1.51-1.63-2.98-3.3-4.44-4.99c-1.43-1.72-2.87-3.42-4.19-5.24c1.86,1.27,3.61,2.66,5.37,4.03c1.73,1.4,3.45,2.82,5.12,4.29
				c1.7,1.43,3.31,2.95,4.96,4.43c-0.64-7.44-1.47-14.86-2.45-22.26l-4.09-4.04c-1.53-1.62-3.1-3.18-4.59-4.84
				c-1.51-1.63-2.98-3.3-4.44-4.99c-1.43-1.72-2.87-3.42-4.19-5.24c1.86,1.27,3.61,2.66,5.37,4.03c1.73,1.4,3.45,2.82,5.12,4.29
				c1.7,1.44,3.31,2.96,4.97,4.44l1.14,1.09c-0.46-3.26-0.94-6.52-1.44-9.78c-0.62-4.06-1.33-8.11-2.07-12.15
				c-2.71-1.71-5.41-3.46-8.03-5.31c-3.09-2.16-6.12-4.42-9-6.93c3.52,1.47,6.89,3.19,10.19,5.01c2.07,1.13,4.11,2.31,6.13,3.52
				c-1.19-6.2-2.51-12.37-3.95-18.52c-2.14-1.35-4.27-2.73-6.34-4.19c-2.38-1.67-4.71-3.4-6.92-5.33c2.71,1.13,5.3,2.46,7.84,3.85
				c1.6,0.87,3.17,1.78,4.72,2.72c-0.24-1-0.46-2-0.71-3c-0.98-4.3-2.1-8.55-3.31-12.78c-2.71-1.72-5.37-3.54-7.84-5.65
				c2.54,1.09,4.95,2.39,7.3,3.78c-2.44-8.34-5.22-16.59-8.02-24.86l4.07,9.51l1.99,4.78l1.77,4.86l2,5.5
				c0.95-2.57,2-5.11,3.29-7.57c-0.6,3.26-1.55,6.41-2.59,9.52l0.83,2.29l3.15,9.88c0.23,0.7,0.43,1.41,0.64,2.12
				c0.49-1.3,1-2.6,1.54-3.88c1.06-2.56,2.18-5.09,3.51-7.56c-0.48,2.76-1.17,5.45-1.91,8.11c-0.63,2.29-1.36,4.54-2.1,6.78
				c0.41,1.46,0.8,2.93,1.2,4.4c0.88,3.34,1.86,6.67,2.65,10.03l0.66,2.84c0.61-1.6,1.23-3.19,1.89-4.77
				c1.38-3.33,2.84-6.62,4.56-9.83c-0.63,3.58-1.52,7.08-2.49,10.54c-0.84,3.05-1.81,6.05-2.81,9.05l0.53,2.28
				c0.8,3.37,1.38,6.78,2.08,10.17c0.58,2.92,1.11,5.85,1.62,8.78c1.1-1.69,2.22-3.37,3.38-5.03c2.42-3.49,4.92-6.92,7.71-10.18
				c-1.62,3.97-3.52,7.77-5.5,11.52c-1.51,2.88-3.13,5.7-4.78,8.49c1.31,7.99,2.41,16.03,3.32,24.08c1.15-1.78,2.33-3.55,3.55-5.29
				c2.42-3.49,4.92-6.92,7.71-10.18c-1.62,3.97-3.52,7.77-5.5,11.52c-1.64,3.12-3.4,6.16-5.19,9.19l0.78,8.51
				c0.02,0.31,0.04,0.61,0.07,0.92c9.03-3.14,17.99-6.49,26.84-10.12C524.36,684.52,521.78,672.86,518.98,663.47z"/>
			<path class="st123" d="M496.31,696.01c1.79-3.03,3.55-6.07,5.19-9.19c1.99-3.75,3.88-7.55,5.5-11.52
				c-2.78,3.26-5.29,6.69-7.71,10.18c-1.22,1.74-2.4,3.51-3.55,5.29c-0.92-8.05-2.01-16.08-3.32-24.08c1.65-2.8,3.27-5.61,4.78-8.49
				c1.99-3.75,3.88-7.55,5.5-11.52c-2.78,3.26-5.29,6.69-7.71,10.18c-1.16,1.66-2.28,3.34-3.38,5.03c-0.51-2.93-1.04-5.86-1.62-8.78
				c-0.7-3.39-1.29-6.8-2.08-10.17l-0.53-2.28c1-2.99,1.96-6,2.81-9.05c0.97-3.46,1.86-6.96,2.49-10.54
				c-1.72,3.21-3.18,6.5-4.56,9.83c-0.66,1.58-1.29,3.17-1.89,4.77l-0.66-2.84c-0.79-3.37-1.78-6.69-2.65-10.03
				c-0.39-1.47-0.79-2.93-1.2-4.4c0.75-2.25,1.47-4.5,2.1-6.78c0.75-2.67,1.43-5.35,1.91-8.11c-1.32,2.47-2.45,5-3.51,7.56
				c-0.54,1.28-1.05,2.58-1.54,3.88c-0.22-0.7-0.41-1.42-0.64-2.12l-3.15-9.88l-0.83-2.29c1.04-3.11,1.99-6.25,2.59-9.52
				c-1.29,2.46-2.34,5-3.29,7.57l-2-5.5l-1.77-4.86l-1.99-4.78l-4.07-9.51c2.8,8.26,5.58,16.51,8.02,24.86
				c-2.35-1.39-4.76-2.69-7.3-3.78c2.47,2.11,5.12,3.93,7.84,5.65c1.21,4.23,2.33,8.49,3.31,12.78c0.25,1,0.47,2,0.71,3
				c-1.56-0.93-3.13-1.85-4.72-2.72c-2.54-1.4-5.13-2.72-7.84-3.85c2.21,1.93,4.55,3.66,6.92,5.33c2.07,1.46,4.2,2.84,6.34,4.19
				c1.44,6.15,2.76,12.32,3.95,18.52c-2.02-1.21-4.06-2.4-6.13-3.52c-3.31-1.81-6.67-3.53-10.19-5.01c2.88,2.51,5.91,4.76,9,6.93
				c2.62,1.85,5.32,3.6,8.03,5.31c0.74,4.04,1.44,8.09,2.07,12.15c0.5,3.26,0.98,6.52,1.44,9.78l-1.14-1.09
				c-1.66-1.48-3.28-3-4.97-4.44c-1.67-1.46-3.39-2.88-5.12-4.29c-1.76-1.37-3.51-2.76-5.37-4.03c1.33,1.82,2.76,3.53,4.19,5.24
				c1.46,1.69,2.93,3.36,4.44,4.99c1.49,1.65,3.06,3.22,4.59,4.84l4.09,4.04c0.98,7.4,1.81,14.82,2.45,22.26
				c-1.66-1.47-3.27-2.99-4.96-4.43c-1.67-1.46-3.39-2.88-5.12-4.29c-1.76-1.37-3.51-2.76-5.37-4.03c1.33,1.82,2.76,3.53,4.19,5.24
				c1.46,1.69,2.93,3.36,4.44,4.99c1.49,1.65,3.06,3.22,4.59,4.84l2.66,2.63l0.65,8.8c0.04,0.83,0.09,1.67,0.14,2.5
				c1.95-0.65,3.88-1.34,5.82-2.01c-0.02-0.31-0.05-0.61-0.07-0.92L496.31,696.01z"/>
		</g>
		<g>
			<path class="st126" d="M426.18,724.29c1.38-0.24,2.75-0.5,4.13-0.76C428.93,723.79,427.56,724.05,426.18,724.29z"/>
			<path class="st126" d="M421.71,710.82c-1.56-1.61-3.16-3.18-4.68-4.83c-1.54-1.63-3.05-3.3-4.53-4.98
				c-1.46-1.72-2.93-3.42-4.29-5.24c1.89,1.26,3.67,2.64,5.46,4.01c1.76,1.4,3.51,2.81,5.22,4.27c1.73,1.43,3.38,2.95,5.07,4.42
				l1.79,1.67c-0.34-5.87-0.77-11.74-1.36-17.6c-2.32-2.21-4.6-4.46-6.79-6.8c-2.3-2.43-4.53-4.94-6.59-7.63
				c2.8,1.91,5.42,4.01,7.97,6.18c1.7,1.44,3.36,2.93,4.99,4.43c-0.13-1.17-0.25-2.34-0.39-3.51c-0.46-3.77-0.98-7.52-1.52-11.28
				c-2.71-2.58-5.33-5.26-7.65-8.25c2.62,1.82,5.03,3.87,7.35,6.01c-0.66-4.46-1.38-8.91-2.15-13.35c-2.67-2.55-5.25-5.19-7.54-8.15
				c2.54,1.77,4.88,3.75,7.14,5.82c-0.6-3.32-1.23-6.64-1.89-9.96c-0.99-0.96-1.98-1.92-2.94-2.9c-1.07-1.11-2.13-2.23-3.12-3.42
				c1.24,0.93,2.41,1.93,3.58,2.94c0.75,0.66,1.49,1.35,2.22,2.03c-1.05-5.21-2.17-10.41-3.42-15.58
				c1.55,5.38,2.96,10.79,4.29,16.23c1.43-2.32,2.87-4.65,4.53-6.83c-1.21,2.7-2.68,5.24-4.14,7.78l-0.11,0.19
				c0.8,3.32,1.59,6.64,2.33,9.97c1.66-2.68,3.41-5.31,5.43-7.78c-1.38,3.42-3.13,6.62-4.96,9.77l-0.04,0.06
				c0.9,4.12,1.76,8.24,2.56,12.38c1.47-2.32,3.02-4.58,4.78-6.73c-1.24,3.07-2.78,5.96-4.41,8.8c0.75,3.96,1.47,7.92,2.13,11.9
				c0.17,1.04,0.32,2.07,0.48,3.11c1.01-1.61,2.03-3.21,3.1-4.78c1.79-2.65,3.65-5.25,5.72-7.73c-1.19,3-2.58,5.88-4.05,8.72
				c-1.32,2.58-2.74,5.09-4.19,7.59c0.81,5.61,1.49,11.25,2.08,16.9c1.29-2.05,2.6-4.09,3.96-6.09c2.4-3.54,4.89-7.03,7.67-10.36
				c-1.59,4.03-3.46,7.88-5.43,11.69c-1.78,3.49-3.71,6.89-5.67,10.27c0.25,3.11,0.45,6.23,0.61,9.35
				c9.25-1.73,18.41-3.75,27.47-6.11c-7.7-38.74-21.16-76.57-47.69-105.28c-12.79,37.23-17.65,77.13-14.42,116.36
				c10.23-1.02,20.41-2.43,30.5-4.21c-0.02-3.11-0.08-6.23-0.19-9.34L421.71,710.82z"/>
			<path class="st127" d="M430.31,723.53L430.31,723.53c-0.16-3.12-0.36-6.24-0.61-9.35c1.96-3.38,3.89-6.79,5.67-10.27
				c1.96-3.8,3.83-7.66,5.43-11.69c-2.77,3.32-5.27,6.81-7.67,10.36c-1.37,2-2.68,4.04-3.96,6.09c-0.58-5.65-1.26-11.29-2.08-16.9
				c1.45-2.5,2.87-5.01,4.19-7.59c1.47-2.84,2.86-5.72,4.05-8.72c-2.07,2.48-3.93,5.08-5.72,7.73c-1.07,1.57-2.1,3.17-3.1,4.78
				c-0.16-1.04-0.31-2.08-0.48-3.11c-0.66-3.98-1.38-7.94-2.13-11.9c1.63-2.84,3.17-5.73,4.41-8.8c-1.76,2.14-3.31,4.41-4.78,6.73
				c-0.8-4.14-1.67-8.26-2.56-12.38l0.04-0.06c1.84-3.15,3.58-6.35,4.96-9.77c-2.02,2.47-3.77,5.1-5.43,7.78
				c-0.74-3.33-1.53-6.65-2.33-9.97l0.11-0.19c1.46-2.55,2.93-5.09,4.14-7.78c-1.66,2.19-3.1,4.51-4.53,6.83
				c-1.33-5.44-2.74-10.85-4.29-16.23c1.25,5.17,2.37,10.37,3.42,15.58c-0.74-0.68-1.47-1.37-2.22-2.03
				c-1.16-1.01-2.34-2.01-3.58-2.94c0.99,1.19,2.05,2.31,3.12,3.42c0.96,0.99,1.96,1.94,2.94,2.9c0.66,3.31,1.29,6.63,1.89,9.96
				c-2.26-2.07-4.6-4.05-7.14-5.82c2.29,2.95,4.87,5.6,7.54,8.15c0.77,4.44,1.5,8.89,2.15,13.35c-2.32-2.14-4.73-4.19-7.35-6.01
				c2.32,2.99,4.94,5.67,7.65,8.25c0.54,3.76,1.06,7.52,1.52,11.28c0.14,1.17,0.26,2.34,0.39,3.51c-1.64-1.51-3.29-3-4.99-4.43
				c-2.55-2.17-5.17-4.27-7.97-6.18c2.05,2.69,4.29,5.2,6.59,7.63c2.19,2.34,4.47,4.59,6.79,6.8c0.59,5.86,1.02,11.73,1.36,17.6
				l-1.79-1.67c-1.69-1.47-3.34-2.99-5.07-4.42c-1.71-1.46-3.45-2.87-5.22-4.27c-1.79-1.37-3.57-2.75-5.46-4.01
				c1.36,1.82,2.83,3.53,4.29,5.24c1.49,1.69,2.99,3.36,4.53,4.98c1.52,1.65,3.12,3.22,4.68,4.83l4.27,4.13
				c0.11,3.12,0.17,6.23,0.19,9.34v0c0,0,0,0,0.01,0C427.56,724.05,428.93,723.79,430.31,723.53
				C430.31,723.53,430.31,723.53,430.31,723.53z"/>
		</g>
		<g>
			<path class="st124" d="M616.57,578.67c-2.84-2.09-5.94-3.82-9.27-5.1c-10.23-3.91-22.56-4.38-29.93-12.48
				c-9.19-10.09-7.3-28.79-19.45-35.03c-7.95-4.08-18.23,0.25-23.38,7.55c-5.15,7.31-6.23,16.69-6.26,25.63
				c-0.02,7.32,0.59,14.8,3.47,21.53c3.62,8.45,10.68,15.42,12.46,24.44c3.08,15.63-10.77,30.53-8.95,46.35
				c1.02,8.9,7.2,16.74,15.16,20.87c16.77-7.64,32.75-16.72,47.16-27.53c-2.56-2.56-5-5.23-7.39-7.95
				c-5.39-0.53-10.77-1.1-16.14-1.87c-6.11-0.86-12.21-1.85-18.28-3.26c6.22-0.33,12.4-0.24,18.57-0.01
				c4.02,0.13,8.03,0.38,12.04,0.67c-3.01-3.69-5.88-7.49-8.56-11.42c-0.86-1.26-1.69-2.53-2.51-3.8
				c-3.75-0.86-7.49-1.75-11.19-2.78c-4.03-1.1-8.04-2.3-11.99-3.78c4.2,0.32,8.35,0.91,12.47,1.6c2.9,0.47,5.77,1.04,8.64,1.62
				c-3.06-5.03-5.85-10.22-8.35-15.53c-2.98-1.24-5.95-2.5-8.87-3.88c-3.03-1.41-6.02-2.9-8.93-4.59c3.27,0.82,6.45,1.84,9.6,2.94
				c2.29,0.79,4.55,1.65,6.81,2.53c-2.46-5.51-4.59-11.14-6.4-16.87l-0.16-0.06c-4.33-1.71-8.62-3.53-12.75-5.79
				c4.2,1,8.26,2.38,12.28,3.87c-2.78-9.18-4.72-18.58-5.72-28.08c1.5,9.05,3.86,17.91,6.96,26.48c0.74-1.45,1.5-2.89,2.3-4.32
				c0.61-1.1,1.25-2.2,1.9-3.28c0.69-1.07,1.32-2.16,2.06-3.2c-0.39,1.22-0.87,2.38-1.31,3.57c-0.47,1.17-0.96,2.34-1.47,3.5
				c-0.86,1.96-1.78,3.9-2.72,5.82c2.19,5.81,4.72,11.49,7.57,16.99c1.03-2.07,2.08-4.13,3.19-6.16c1.62-3,3.32-5.96,5.23-8.82
				c-1.04,3.28-2.28,6.46-3.6,9.6c-1.1,2.64-2.29,5.24-3.5,7.82c2.78,5.14,5.83,10.12,9.13,14.91c0.8-2.64,1.62-5.28,2.52-7.9
				c1.37-4.04,2.85-8.05,4.6-11.98c-0.59,4.26-1.45,8.45-2.42,12.6c-0.79,3.43-1.69,6.83-2.63,10.22c0.98,1.36,1.98,2.7,3.01,4.03
				c3.07,3.98,6.33,7.8,9.75,11.46l0.71-4.37c0.59-3.09,1.09-6.2,1.76-9.28c0.61-3.09,1.3-6.17,2.02-9.24
				c0.76-3.07,1.51-6.14,2.45-9.18c0,3.18-0.19,6.33-0.36,9.49c-0.22,3.15-0.47,6.29-0.8,9.42c-0.27,3.14-0.71,6.26-1.06,9.39
				l-1.05,7.51c2.52,2.53,5.1,5,7.77,7.35c11.89-9.53,22.58-20.32,31.58-32.55c0.07-0.1,0.15-0.21,0.22-0.31
				C632.48,596.47,626,585.58,616.57,578.67z"/>
			<path class="st125" d="M594.97,633.54l1.05-7.51c0.35-3.13,0.79-6.24,1.06-9.39c0.33-3.13,0.57-6.28,0.8-9.42
				c0.18-3.16,0.37-6.31,0.36-9.49c-0.94,3.04-1.69,6.11-2.45,9.18c-0.71,3.07-1.41,6.15-2.02,9.24c-0.67,3.08-1.17,6.19-1.76,9.28
				l-0.71,4.37c-3.42-3.66-6.69-7.48-9.75-11.46c-1.02-1.33-2.02-2.67-3.01-4.03c0.94-3.39,1.84-6.79,2.63-10.22
				c0.97-4.15,1.83-8.34,2.42-12.6c-1.75,3.93-3.23,7.94-4.6,11.98c-0.9,2.62-1.72,5.25-2.52,7.9c-3.31-4.79-6.36-9.77-9.13-14.91
				c1.22-2.58,2.41-5.18,3.5-7.82c1.32-3.14,2.57-6.32,3.6-9.6c-1.91,2.86-3.61,5.82-5.23,8.82c-1.11,2.03-2.16,4.09-3.19,6.16
				c-2.85-5.5-5.38-11.18-7.57-16.99c0.95-1.92,1.86-3.85,2.72-5.82c0.51-1.16,0.99-2.32,1.47-3.5c0.44-1.19,0.92-2.36,1.31-3.57
				c-0.73,1.04-1.37,2.14-2.06,3.2c-0.65,1.09-1.29,2.18-1.9,3.28c-0.8,1.42-1.56,2.87-2.3,4.32c-3.09-8.57-5.45-17.43-6.96-26.48
				c1,9.5,2.94,18.9,5.72,28.08c-4.02-1.49-8.08-2.87-12.28-3.87c4.12,2.26,8.41,4.08,12.75,5.79l0.16,0.06
				c1.82,5.73,3.95,11.36,6.4,16.87c-2.25-0.88-4.52-1.74-6.81-2.53c-3.15-1.1-6.34-2.12-9.6-2.94c2.91,1.69,5.91,3.18,8.93,4.59
				c2.92,1.38,5.89,2.64,8.87,3.88c2.5,5.32,5.29,10.5,8.35,15.53c-2.87-0.59-5.75-1.15-8.64-1.62c-4.12-0.69-8.26-1.28-12.47-1.6
				c3.95,1.47,7.96,2.67,11.99,3.78c3.71,1.03,7.45,1.92,11.19,2.78c0.82,1.28,1.65,2.55,2.51,3.8c2.67,3.93,5.54,7.73,8.56,11.42
				c-4.01-0.29-8.02-0.54-12.04-0.67c-6.17-0.23-12.35-0.31-18.57,0.01c6.06,1.41,12.17,2.41,18.28,3.26
				c5.37,0.77,10.75,1.35,16.14,1.87c2.38,2.72,4.83,5.39,7.39,7.95c1.75-1.31,3.47-2.65,5.17-4.01
				C600.06,638.54,597.49,636.07,594.97,633.54z"/>
		</g>
		<g>
			<path class="st105" d="M633.96,531.41c-0.01-0.01-0.02-0.01-0.02-0.02l2.59,12.84c0.01,0.01,0.03,0.02,0.04,0.03L633.96,531.41z"
				/>
			<path class="st105" d="M640.74,564.83c-0.02-0.02-0.04-0.04-0.06-0.06l1.12,5.55l2.08,10.11c0.01,0.01,0.02,0.02,0.03,0.03
				L640.74,564.83z"/>
			<path class="st105" d="M629.89,511.34l3.74,18.55c0.01,0.01,0.01,0.01,0.02,0.02L629.89,511.34z"/>
			<path class="st105" d="M637.1,546.87c-0.01-0.01-0.03-0.03-0.04-0.04l2.9,14.36c0.02,0.02,0.04,0.03,0.06,0.05L637.1,546.87z"/>
			<path class="st105" d="M644.57,583.8l1.37,6.67l-1.35-6.65C644.58,583.81,644.57,583.8,644.57,583.8z"/>
			<path class="st122" d="M659.07,545.92c-2.94-6.39-6.13-12.66-9.57-18.81c-3.57-6.38-7.39-12.61-11.46-18.68
				c-2.09-3.11-4.31-6.11-6.52-9.12c-2.09-2.85-4.17-5.72-6.1-8.69c0.2,0.31-0.65,2.38-0.76,2.8c-0.29,1.1-0.56,2.21-0.83,3.32
				c-0.51,2.14-0.97,4.28-1.39,6.44c-0.83,4.31-1.49,8.66-1.96,13.02c-0.92,8.49-2.26,16.89-2.98,25.45
				c-0.75,8.93-1.12,17.89-1.04,26.86c0.03,3.29,0.04,6.7,0.1,10.16c9.43,6.92,15.91,17.8,17.97,29.37
				c3.94-5.38,7.77-11.3,11.4-17.56l-1.37-6.67c-2.13-1.86-4.24-3.76-6.29-5.72c-2.39-2.28-4.72-4.62-6.9-7.12
				c2.79,1.81,5.44,3.79,8.03,5.83c1.52,1.19,3,2.41,4.47,3.65l-2.08-10.11l-1.12-5.55c-2.37-2.07-4.71-4.17-6.99-6.34
				c-2.55-2.43-5.03-4.92-7.36-7.6c2.98,1.93,5.8,4.04,8.56,6.22c1.72,1.35,3.4,2.74,5.07,4.14l-2.9-14.36
				c-1.9-1.65-3.78-3.33-5.6-5.07c-0.94-0.89-1.86-1.8-2.76-2.72c-0.88-0.95-1.8-1.86-2.65-2.86c1.1,0.7,2.14,1.48,3.2,2.22
				c1.04,0.77,2.07,1.55,3.09,2.35c1.43,1.12,2.81,2.31,4.19,3.48l-2.59-12.84c-1.06-0.92-2.11-1.86-3.13-2.84
				c-1.08-1.05-2.15-2.1-3.15-3.24c1.27,0.82,2.47,1.74,3.66,2.66c0.79,0.62,1.55,1.27,2.32,1.92l-3.74-18.55l4.76,18.2
				c0.87-2.09,1.79-4.15,2.89-6.15c-0.65,2.62-1.54,5.15-2.5,7.65l3.14,12.01c1.45-3.46,3.01-6.87,4.84-10.17
				c-1.09,4.39-2.56,8.62-4.15,12.81l3.86,14.75c0.74-1.77,1.49-3.53,2.29-5.27c1.36-2.99,2.78-5.95,4.41-8.83
				c-0.77,3.22-1.75,6.36-2.78,9.47c-0.92,2.78-1.93,5.52-2.97,8.25l3.75,14.34c0.48-1.13,0.97-2.25,1.48-3.37
				c1.27-2.8,2.61-5.58,4.13-8.28c-0.72,3.02-1.64,5.96-2.61,8.88c-0.67,2.03-1.4,4.03-2.15,6.03l0.82,3.15
				c5.33-9.86,10.08-20.4,13.88-30.98C661.42,550.59,659.74,547.37,659.07,545.92z"/>
			<path class="st123" d="M650.44,575.63c0.97-2.92,1.89-5.86,2.61-8.88c-1.52,2.7-2.86,5.48-4.13,8.28c-0.51,1.11-1,2.24-1.48,3.37
				l-3.75-14.34c1.04-2.73,2.06-5.47,2.97-8.25c1.04-3.11,2.01-6.25,2.78-9.47c-1.63,2.88-3.05,5.84-4.41,8.83
				c-0.8,1.74-1.56,3.51-2.29,5.27l-3.86-14.75c1.59-4.19,3.07-8.43,4.15-12.81c-1.83,3.31-3.39,6.72-4.84,10.17l-3.14-12.01
				c0.95-2.5,1.84-5.03,2.5-7.65c-1.1,1.99-2.02,4.06-2.89,6.15l-4.76-18.2l3.77,18.57c-0.01-0.01-0.01-0.01-0.02-0.02
				c-0.77-0.65-1.52-1.31-2.32-1.92c-1.19-0.92-2.38-1.84-3.66-2.66c1,1.14,2.07,2.2,3.15,3.24c1.01,0.98,2.06,1.91,3.13,2.84
				c0.01,0.01,0.02,0.01,0.02,0.02l2.61,12.85c-0.01-0.01-0.03-0.02-0.04-0.03c-1.38-1.18-2.76-2.36-4.19-3.48
				c-1.01-0.8-2.05-1.58-3.09-2.35c-1.07-0.74-2.1-1.52-3.2-2.22c0.85,1,1.77,1.9,2.65,2.86c0.91,0.92,1.83,1.83,2.76,2.72
				c1.82,1.74,3.69,3.42,5.6,5.07c0.01,0.01,0.03,0.03,0.04,0.04l2.91,14.37c-0.02-0.02-0.04-0.03-0.06-0.05
				c-1.67-1.4-3.35-2.79-5.07-4.14c-2.76-2.18-5.58-4.29-8.56-6.22c2.33,2.67,4.82,5.17,7.36,7.6c2.27,2.18,4.61,4.28,6.99,6.34
				c0.02,0.02,0.04,0.04,0.06,0.06l3.17,15.64c-0.01-0.01-0.02-0.02-0.03-0.03c-1.47-1.24-2.96-2.46-4.47-3.65
				c-2.59-2.04-5.24-4.02-8.03-5.83c2.19,2.51,4.52,4.85,6.9,7.12c2.05,1.96,4.15,3.85,6.29,5.72c0.01,0.01,0.02,0.01,0.02,0.02
				l1.35,6.65l3.18-5.66l-0.82-3.15C649.04,579.66,649.77,577.66,650.44,575.63z"/>
		</g>
	</g>
</g>
</svg>
