<svg width="217" height="130" viewBox="0 0 217 130" fill="none" xmlns="http://www.w3.org/2000/svg">
<path d="M123.483 119.95C114.703 114.04 107.663 106.17 102.363 96.34C97.0631 86.51 94.4131 75.96 94.4131 64.7C94.4131 53.44 97.0631 43.36 102.363 33.47C107.663 23.59 114.703 15.66 123.483 9.7C132.263 3.74 141.623 0.75 151.563 0.75C161.503 0.75 170.363 3.68 178.813 9.53C187.263 15.39 193.973 23.23 198.943 33.06C203.913 42.89 206.403 53.44 206.403 64.7C206.403 75.96 203.943 87.18 199.033 97.01C194.113 106.84 187.463 114.6 179.073 120.29C170.683 125.98 161.513 128.82 151.573 128.82C141.633 128.82 132.273 125.87 123.493 119.96L123.483 119.95ZM165.563 84.66C169.043 79.75 170.783 73.09 170.783 64.7C170.783 55.31 169.043 47.91 165.563 42.5C162.083 37.09 157.413 34.38 151.563 34.38C147.363 34.38 143.613 35.68 140.293 38.27C136.983 40.87 134.413 44.48 132.593 49.12C130.773 53.76 129.863 58.95 129.863 64.69C129.863 73.08 131.793 79.74 135.663 84.65C139.523 89.57 144.833 92.02 151.563 92.02C157.413 92.02 162.083 89.56 165.563 84.65V84.66Z" fill="#E54A35"/>
<path d="M203.583 83.17C194.933 105.59 169.953 123.31 145.553 119.1C121.793 115 105.773 93.35 102.983 70.39C101.333 56.78 104.543 42.67 109.863 30.18C112.683 23.56 116.273 17.28 121.073 11.91C121.513 11.42 121.953 10.95 122.413 10.48C114.143 16.35 107.453 24 102.373 33.47C97.0728 43.36 94.4229 53.76 94.4229 64.7C94.4229 75.64 97.0728 86.51 102.373 96.34C107.673 106.17 114.713 114.04 123.493 119.95C132.273 125.86 141.633 128.81 151.573 128.81C161.513 128.81 170.683 125.97 179.073 120.28C187.463 114.59 194.123 106.83 199.033 97C201.843 91.37 203.853 85.43 205.053 79.19C204.583 80.53 204.093 81.86 203.583 83.17Z" fill="#AF322C"/>
<path d="M131.453 78.2299C132.193 79.7999 133.153 81.3099 134.283 82.6999C131.333 78.0199 129.863 72.0199 129.863 64.6899C129.863 58.9499 130.773 53.7599 132.593 49.1199C134.413 44.4799 136.983 40.8599 140.293 38.2699C143.603 35.6799 147.363 34.3799 151.563 34.3799C157.413 34.3799 162.083 37.0899 165.563 42.4999C169.043 47.9099 170.783 55.3099 170.783 64.6999C170.783 72.1599 169.403 78.2399 166.653 82.9499C167.853 81.8799 168.883 80.7699 169.653 79.7499C175.393 72.1999 177.233 62.4199 175.883 53.1299C174.753 45.2999 171.643 36.8999 164.953 32.0999C157.863 27.0099 148.913 27.3199 141.683 32.0199C128.053 40.8799 124.993 64.5699 131.443 78.2499L131.453 78.2299Z" fill="#EA435B"/>
<path d="M125.583 19.12C134.373 16.47 141.953 13.39 151.363 14.27C161.573 15.22 169.493 21.3 178.463 25.56C179.683 26.14 180.873 24.97 180.283 23.74C175.073 12.96 164.103 8.55996 152.753 7.06996C143.083 5.79996 129.833 8.90996 124.753 18.04C124.443 18.59 124.953 19.31 125.583 19.12Z" fill="#FF6E83"/>
<path d="M182.013 27.99C181.893 29.16 182.573 30.5 183.423 31.24C184.253 31.96 185.373 32.2 186.363 31.62C187.593 30.9 187.783 29.5 187.233 28.3C186.793 27.34 185.903 26.63 184.873 26.45C183.673 26.24 182.173 26.54 182.013 27.99Z" fill="#FF6E83"/>
<path d="M151.563 129.56C141.513 129.56 131.923 126.53 123.063 120.57C114.223 114.62 107.033 106.59 101.703 96.7C96.3631 86.81 93.6631 76.04 93.6631 64.7C93.6631 53.36 96.3731 43.07 101.703 33.12C107.043 23.17 114.223 15.08 123.063 9.08C131.933 3.06 141.523 0 151.563 0C161.603 0 170.703 3 179.243 8.91C187.763 14.81 194.613 22.82 199.613 32.71C204.613 42.6 207.153 53.36 207.153 64.69C207.153 76.02 204.643 87.44 199.703 97.33C194.753 107.23 187.953 115.16 179.493 120.89C171.013 126.64 161.623 129.55 151.573 129.55L151.563 129.56ZM151.563 1.5C141.823 1.5 132.513 4.47 123.903 10.32C115.263 16.19 108.243 24.1 103.023 33.83C97.8031 43.56 95.1631 53.95 95.1631 64.7C95.1631 75.45 97.8131 86.32 103.023 95.99C108.243 105.67 115.263 113.52 123.903 119.33C132.513 125.13 141.823 128.07 151.563 128.07C161.303 128.07 170.413 125.24 178.643 119.67C186.893 114.08 193.523 106.35 198.353 96.68C203.193 87 205.643 76.24 205.643 64.71C205.643 53.18 203.163 43.08 198.273 33.41C193.383 23.74 186.693 15.92 178.383 10.16C170.103 4.42 161.073 1.51 151.553 1.51L151.563 1.5ZM151.563 92.78C144.613 92.78 139.063 90.2 135.073 85.12C131.123 80.09 129.113 73.22 129.113 64.69C129.113 58.88 130.053 53.55 131.903 48.84C133.763 44.1 136.443 40.34 139.843 37.67C143.283 34.98 147.223 33.62 151.573 33.62C157.673 33.62 162.593 36.47 166.203 42.08C169.743 47.59 171.543 55.2 171.543 64.69C171.543 73.2 169.743 80.07 166.183 85.09C162.573 90.19 157.653 92.78 151.573 92.78H151.563ZM151.563 35.13C147.563 35.13 143.923 36.39 140.763 38.86C137.573 41.36 135.063 44.9 133.293 49.4C131.513 53.93 130.613 59.08 130.613 64.7C130.613 72.89 132.513 79.45 136.253 84.2C139.953 88.9 145.103 91.29 151.563 91.29C157.213 91.29 161.593 88.98 164.953 84.23C168.323 79.47 170.033 72.9 170.033 64.7C170.033 55.5 168.313 48.17 164.933 42.91C161.573 37.68 157.193 35.14 151.563 35.14V35.13Z" fill="#FF6779"/>
<path opacity="0.6" d="M146.193 78.01V78.03C146.223 78.06 146.243 78.08 146.273 78.11C146.243 78.07 146.213 78.05 146.193 78.01Z" fill="#FF6779"/>
<path d="M59.9928 3.07007L83.5228 5.56007V128.82H47.2428V37.7001H23.8828V3.07007H60.0028H59.9928Z" fill="#FF6779"/>
<path d="M59.9928 3.07007L83.5228 5.56007V128.82H47.2428V37.7001H23.8828V3.07007H60.0028H59.9928Z" fill="#E54A35"/>
<path d="M83.5129 5.55012L72.3329 4.37012C73.8829 5.63012 75.1429 7.27012 75.9329 9.50012C77.9529 15.1701 77.3629 21.8901 77.1229 27.7901C76.4929 42.9901 76.8229 58.3001 76.6029 73.5301C76.4829 81.8601 76.6329 90.1901 76.5129 98.5301C76.4029 105.93 77.5629 115.55 71.9929 121.23C67.2829 126.02 60.2829 126.89 53.9629 128.81H83.5229V5.55012H83.5129Z" fill="#AF322C"/>
<path d="M31.6429 15.5101C34.9529 17.9501 39.7429 17.4101 43.6529 17.2501C45.8929 17.1601 48.2329 17.4701 50.4429 17.0501C53.0529 16.5501 54.7529 15.3401 57.2029 14.4101C58.0129 14.1001 58.2129 13.0801 57.4429 12.5801C52.5029 9.36007 49.7129 8.49007 43.6629 8.99007C39.2229 9.36007 33.9829 10.0101 31.2029 13.8201C30.7729 14.4001 31.1529 15.1401 31.6429 15.5101Z" fill="#FF6E83"/>
<path d="M60.7733 15.84C60.7733 15.84 60.8333 15.91 60.8533 15.95C60.5933 15.5 60.3333 15.05 60.0733 14.61C60.6633 16.34 62.4233 17.4 64.2433 17.22C65.7233 17.07 67.0133 16.32 67.4333 14.79C67.7933 13.48 67.2433 11.66 65.9133 11.06C64.8333 10.57 64.0533 10.41 62.8433 10.59C62.6733 10.62 62.5133 10.65 62.3433 10.71C61.7933 10.86 61.3233 11.14 60.9233 11.54C60.3033 12.34 60.2533 12.41 60.7733 11.75C59.6333 13.05 59.7433 14.54 60.7733 15.85V15.84Z" fill="#FF6E83"/>
<path d="M83.513 129.56H47.233C46.823 129.56 46.483 129.22 46.483 128.81V38.4401H23.873C23.463 38.4401 23.123 38.1001 23.123 37.6901V3.06006C23.123 2.65006 23.463 2.31006 23.873 2.31006H59.993L83.593 4.80006C83.973 4.84006 84.263 5.16006 84.263 5.55006V128.81C84.263 129.22 83.923 129.56 83.513 129.56ZM47.983 128.06H82.763V6.23006L59.9131 3.82006H24.623V36.9501H47.233C47.643 36.9501 47.983 37.2901 47.983 37.7001V128.07V128.06Z" fill="#FF6779"/>
</svg>
