<?xml version="1.0" encoding="UTF-8"?>
<svg id="NUMEROS_TORIBIO" data-name="NUMEROS TORIBIO" xmlns="http://www.w3.org/2000/svg" viewBox="0 0 200 200">
  <defs>
    <style>
      .cls-1 {
        fill: #fd4a5f;
      }

      .cls-1, .cls-2, .cls-3, .cls-4 {
        stroke-width: 0px;
      }

      .cls-2 {
        fill: #91e366;
      }

      .cls-3 {
        fill: #149539;
      }

      .cls-4 {
        fill: #5aab31;
      }
    </style>
  </defs>
  <path class="cls-4" d="M106.35,155.17c-8.78-5.91-15.82-13.78-21.12-23.61-5.3-9.83-7.95-20.38-7.95-31.64s2.65-21.34,7.95-31.23c5.3-9.88,12.34-17.81,21.12-23.77,8.78-5.96,18.14-8.95,28.08-8.95s18.8,2.93,27.25,8.78c8.45,5.86,15.16,13.7,20.13,23.53,4.97,9.83,7.46,20.38,7.46,31.64s-2.46,22.48-7.37,32.31c-4.92,9.83-11.57,17.59-19.96,23.28-8.39,5.69-17.56,8.53-27.5,8.53s-19.3-2.95-28.08-8.86ZM148.43,119.88c3.48-4.91,5.22-11.57,5.22-19.96,0-9.39-1.74-16.79-5.22-22.2-3.48-5.41-8.15-8.12-14-8.12-4.2,0-7.95,1.3-11.27,3.89-3.31,2.6-5.88,6.21-7.7,10.85-1.82,4.64-2.73,9.83-2.73,15.57,0,8.39,1.93,15.05,5.8,19.96,3.86,4.92,9.17,7.37,15.9,7.37,5.85,0,10.52-2.46,14-7.37Z"/>
  <path class="cls-3" d="M186.45,118.39c-8.65,22.42-33.63,40.14-58.03,35.93-23.76-4.1-39.78-25.75-42.57-48.71-1.65-13.61,1.56-27.72,6.88-40.21,2.82-6.62,6.41-12.9,11.21-18.27.44-.49.88-.96,1.34-1.43-8.27,5.87-14.96,13.52-20.04,22.99-5.3,9.89-7.95,20.29-7.95,31.23s2.65,21.81,7.95,31.64c5.3,9.83,12.34,17.7,21.12,23.61,8.78,5.91,18.14,8.86,28.08,8.86s19.11-2.84,27.5-8.53c8.39-5.69,15.05-13.45,19.96-23.28,2.81-5.63,4.82-11.57,6.02-17.81-.47,1.34-.96,2.67-1.47,3.98Z"/>
  <path class="cls-3" d="M114.32,113.45c.74,1.57,1.7,3.08,2.83,4.47-2.95-4.68-4.42-10.68-4.42-18.01,0-5.74.91-10.93,2.73-15.57,1.82-4.64,4.39-8.26,7.7-10.85,3.31-2.59,7.07-3.89,11.27-3.89,5.85,0,10.52,2.71,14,8.12,3.48,5.41,5.22,12.81,5.22,22.2,0,7.46-1.38,13.54-4.13,18.25,1.2-1.07,2.23-2.18,3-3.2,5.74-7.55,7.58-17.33,6.23-26.62-1.13-7.83-4.24-16.23-10.93-21.03-7.09-5.09-16.04-4.78-23.27-.08-13.63,8.86-16.69,32.55-10.24,46.23Z"/>
  <g>
    <path class="cls-2" d="M108.44,54.34c8.79-2.65,16.37-5.73,25.78-4.85,10.21.95,18.13,7.03,27.1,11.29,1.22.58,2.41-.59,1.82-1.82-5.21-10.78-16.18-15.18-27.53-16.67-9.67-1.27-22.92,1.84-28,10.97-.31.55.2,1.27.83,1.08h0Z"/>
    <path class="cls-2" d="M164.87,63.21c-.12,1.17.56,2.51,1.41,3.25.83.72,1.95.96,2.94.38,1.23-.72,1.42-2.12.87-3.32-.44-.96-1.33-1.67-2.36-1.85-1.2-.21-2.7.09-2.86,1.54h0Z"/>
  </g>
  <path class="cls-3" d="M134.43,164.78c-10.05,0-19.64-3.03-28.5-8.99-8.84-5.95-16.03-13.98-21.36-23.87-5.34-9.89-8.04-20.66-8.04-32s2.71-21.63,8.04-31.58c5.34-9.95,12.52-18.04,21.36-24.04,8.87-6.02,18.46-9.08,28.5-9.08s19.14,3,27.68,8.91c8.52,5.9,15.37,13.91,20.37,23.8,5,9.89,7.54,20.65,7.54,31.98s-2.51,22.75-7.45,32.64c-4.95,9.9-11.75,17.83-20.21,23.56-8.48,5.75-17.87,8.66-27.92,8.66ZM134.43,36.72c-9.74,0-19.05,2.97-27.66,8.82-8.64,5.87-15.66,13.78-20.88,23.51-5.22,9.73-7.86,20.12-7.86,30.87s2.65,21.62,7.86,31.29c5.22,9.68,12.24,17.53,20.88,23.34,8.61,5.8,17.92,8.74,27.66,8.74s18.85-2.83,27.08-8.4c8.25-5.59,14.88-13.32,19.71-22.99,4.84-9.68,7.29-20.44,7.29-31.97s-2.48-21.63-7.37-31.3c-4.89-9.67-11.58-17.49-19.89-23.25-8.28-5.74-17.31-8.65-26.83-8.65ZM134.43,128c-6.95,0-12.5-2.58-16.49-7.66-3.95-5.03-5.96-11.9-5.96-20.43,0-5.81.94-11.14,2.79-15.85,1.86-4.74,4.54-8.5,7.94-11.17,3.44-2.69,7.38-4.05,11.73-4.05,6.1,0,11.02,2.85,14.63,8.46,3.54,5.51,5.34,13.12,5.34,22.61,0,8.51-1.8,15.38-5.36,20.4-3.61,5.1-8.53,7.69-14.61,7.69ZM134.43,70.35c-4,0-7.64,1.26-10.8,3.73-3.19,2.5-5.7,6.04-7.47,10.54-1.78,4.53-2.68,9.68-2.68,15.3,0,8.19,1.9,14.75,5.64,19.5,3.7,4.7,8.85,7.09,15.31,7.09,5.65,0,10.03-2.31,13.39-7.06,3.37-4.76,5.08-11.33,5.08-19.53,0-9.2-1.72-16.53-5.1-21.79-3.36-5.23-7.74-7.77-13.37-7.77Z"/>
  <path class="cls-1" d="M46.85,38.29l23.53,2.49v123.26h-36.28v-91.12H10.74v-34.63h36.12Z"/>
  <path class="cls-4" d="M46.85,38.29l23.53,2.49v123.26h-36.28v-91.12H10.74v-34.63h36.12Z"/>
  <path class="cls-3" d="M70.38,40.77l-11.18-1.18c1.55,1.26,2.81,2.9,3.6,5.13,2.02,5.67,1.43,12.39,1.19,18.29-.63,15.2-.3,30.51-.52,45.74-.12,8.33.03,16.66-.09,25-.11,7.4,1.05,17.02-4.52,22.7-4.71,4.79-11.71,5.66-18.03,7.58h29.56V40.77Z"/>
  <g>
    <path class="cls-2" d="M18.51,50.73c3.31,2.44,8.1,1.9,12.01,1.74,2.24-.09,4.58.22,6.79-.2,2.61-.5,4.31-1.71,6.76-2.64.81-.31,1.01-1.33.24-1.83-4.94-3.22-7.73-4.09-13.78-3.59-4.44.37-9.68,1.02-12.46,4.83-.43.58-.05,1.32.44,1.69h0Z"/>
    <path class="cls-2" d="M47.63,51.06s.06.07.08.11c-.26-.45-.52-.9-.78-1.34.59,1.73,2.35,2.79,4.17,2.61,1.48-.15,2.77-.9,3.19-2.43.36-1.31-.19-3.13-1.52-3.73-1.08-.49-1.86-.65-3.07-.47-.17.03-.33.06-.5.12-.55.15-1.02.43-1.42.83-.62.8-.67.87-.15.21-1.14,1.3-1.03,2.79,0,4.1h0Z"/>
  </g>
  <path class="cls-3" d="M70.38,164.78h-36.28c-.41,0-.75-.34-.75-.75v-90.37H10.74c-.41,0-.75-.34-.75-.75v-34.63c0-.41.34-.75.75-.75h36.12l23.6,2.49c.38.04.67.36.67.75v123.26c0,.41-.34.75-.75.75ZM34.85,163.28h34.78V41.45l-22.85-2.41H11.49v33.13h22.61c.41,0,.75.34.75.75v90.37Z"/>
</svg>