<?xml version="1.0" encoding="UTF-8"?>
<svg xmlns="http://www.w3.org/2000/svg" viewBox="0 0 250 250">
  <defs>
    <style>
      .cls-1 {
        fill: #00b1e0;
      }

      .cls-1, .cls-2, .cls-3, .cls-4, .cls-5, .cls-6, .cls-7, .cls-8, .cls-9, .cls-10, .cls-11, .cls-12, .cls-13, .cls-14, .cls-15, .cls-16, .cls-17, .cls-18, .cls-19, .cls-20, .cls-21, .cls-22, .cls-23, .cls-24, .cls-25, .cls-26, .cls-27, .cls-28, .cls-29, .cls-30, .cls-31, .cls-32, .cls-33, .cls-34, .cls-35, .cls-36, .cls-37, .cls-38, .cls-39, .cls-40, .cls-41, .cls-42, .cls-43, .cls-44, .cls-45, .cls-46, .cls-47, .cls-48, .cls-49, .cls-50, .cls-51, .cls-52, .cls-53 {
        stroke-width: 0px;
      }

      .cls-2 {
        fill: #545c6f;
      }

      .cls-3 {
        fill: #85c5ec;
      }

      .cls-4 {
        fill: #3f3a3d;
      }

      .cls-5 {
        fill: #fffcf4;
      }

      .cls-6 {
        fill: #f05c22;
      }

      .cls-7 {
        fill: #ee4023;
      }

      .cls-8 {
        fill: #4ba5dc;
      }

      .cls-9 {
        fill: #c7e9f4;
      }

      .cls-10 {
        fill: #f2ebea;
      }

      .cls-11 {
        fill: #f89c1c;
      }

      .cls-12 {
        fill: #4cc6e5;
      }

      .cls-13 {
        fill: #6c3f97;
      }

      .cls-14 {
        fill: #d6db46;
      }

      .cls-15 {
        fill: #7569a8;
      }

      .cls-16 {
        fill: #8b63a9;
      }

      .cls-17 {
        fill: #0062af;
      }

      .cls-18 {
        fill: #da1a21;
      }

      .cls-54 {
        isolation: isolate;
      }

      .cls-19 {
        fill: #eca3c8;
      }

      .cls-20 {
        fill: #b2cc35;
      }

      .cls-21 {
        fill: #f7973e;
      }

      .cls-22 {
        fill: #fffefe;
      }

      .cls-23 {
        fill: #c09ec9;
      }

      .cls-24 {
        fill: #ffefc1;
      }

      .cls-25 {
        fill: #e1e698;
      }

      .cls-26 {
        fill: #f28dba;
      }

      .cls-27 {
        fill: #fbc099;
      }

      .cls-28 {
        fill: #ffcd3b;
      }

      .cls-29 {
        fill: #2483c5;
      }

      .cls-30 {
        fill: #f9d4e4;
      }

      .cls-31 {
        fill: #78ba43;
      }

      .cls-32 {
        fill: #ce2f77;
      }

      .cls-33 {
        fill: #ffde40;
      }

      .cls-34 {
        fill: #c4b6b3;
      }

      .cls-35 {
        fill: #5c2d90;
      }

      .cls-36 {
        fill: #f37932;
      }

      .cls-37 {
        fill: #ed4999;
      }

      .cls-38 {
        fill: #f4d995;
      }

      .cls-39 {
        fill: #8caec4;
      }

      .cls-40 {
        fill: #f05a36;
      }

      .cls-41 {
        fill: #0c0e0d;
        opacity: .05;
      }

      .cls-42 {
        fill: #fbd3d1;
      }

      .cls-43 {
        fill: #f072ab;
      }

      .cls-44 {
        fill: #f1716c;
      }

      .cls-45 {
        fill: #ef4d91;
      }

      .cls-46 {
        fill: #051e21;
        mix-blend-mode: multiply;
        opacity: .18;
      }

      .cls-47 {
        fill: #8ed5e8;
      }

      .cls-48 {
        fill: #f5968e;
      }

      .cls-49 {
        fill: #4d4b4a;
      }

      .cls-50 {
        fill: #f9edcf;
      }

      .cls-51 {
        fill: #ee434a;
      }

      .cls-52 {
        fill: #ffca1e;
      }

      .cls-53 {
        fill: #fac2a4;
      }
    </style>
  </defs>
  <g class="cls-54">
    <g id="Capa_5" data-name="Capa 5">
      <g>
        <ellipse class="cls-46" cx="125" cy="152.61" rx="107.02" ry="26.7"/>
        <g>
          <g>
            <g>
              <polygon class="cls-40" points="67.15 107.9 59.55 113.21 82.14 113.21 89.75 107.9 67.15 107.9"/>
              <polygon class="cls-7" points="82.14 113.21 82.14 135.8 89.75 130.5 89.75 107.9 82.14 113.21"/>
              <rect class="cls-18" x="59.55" y="113.21" width="22.6" height="22.59"/>
            </g>
            <path class="cls-53" d="M69.74,130.65v-9.27h-2.19v-2.9l5.54-.73.18,1.09-.18,1.82v9.98h-3.35Z"/>
          </g>
          <g>
            <g>
              <polygon class="cls-33" points="102.03 107.9 94.43 113.21 117.02 113.21 124.63 107.9 102.03 107.9"/>
              <polygon class="cls-52" points="117.02 113.21 117.02 135.8 124.63 130.5 124.63 107.9 117.02 113.21"/>
              <rect class="cls-11" x="94.43" y="113.21" width="22.6" height="22.59"/>
            </g>
            <path class="cls-24" d="M105.16,131.35c-.39,0-.76-.01-1.1-.04-.35-.02-.67-.06-.97-.11l-2.3-1.04.91-2.9,3.64,1c.7,0,1.21-.12,1.53-.36.32-.24.47-.54.47-.9,0-.33-.12-.56-.35-.69-.23-.13-.62-.2-1.17-.2h-2.26v-2.93h2.04c.41,0,.74-.08.99-.26.25-.17.37-.41.37-.71,0-.39-.12-.66-.35-.81-.23-.15-.56-.23-.98-.23-.61,0-1.19.06-1.75.18-.56.12-1.06.26-1.49.43-.44.16-.8.31-1.07.43v-3.1c.24-.12.59-.26,1.04-.42.45-.16.99-.3,1.61-.42.63-.12,1.31-.18,2.05-.18,1.37,0,2.41.3,3.12.9.71.6,1.07,1.45,1.07,2.54,0,.63-.13,1.15-.39,1.56-.26.41-.54.73-.85.97.51.23.94.57,1.28,1.03.35.46.52,1.08.52,1.89,0,2.9-1.88,4.35-5.63,4.35Z"/>
          </g>
          <g>
            <g>
              <polygon class="cls-14" points="137.24 107.9 129.63 113.21 152.23 113.21 159.83 107.9 137.24 107.9"/>
              <polygon class="cls-20" points="152.23 113.21 152.23 135.8 159.83 130.5 159.83 107.9 152.23 113.21"/>
              <rect class="cls-31" x="129.63" y="113.21" width="22.6" height="22.59"/>
            </g>
            <path class="cls-25" d="M140.89,131.45c-.46,0-.89-.01-1.28-.04-.39-.02-.76-.06-1.1-.11l-2.66-.84.91-3.26,3.77,1.18c.64,0,1.14-.11,1.5-.32.36-.21.54-.59.54-1.12,0-.4-.14-.71-.41-.93-.27-.22-.75-.33-1.43-.33h-4.15v-7.32h8.84v3.08l-4.55-.18h-.77v1.75h1.22c1.69,0,2.92.35,3.68,1.06.77.7,1.15,1.69,1.15,2.95,0,.94-.22,1.73-.65,2.4-.43.66-1.04,1.17-1.82,1.51-.78.35-1.71.52-2.78.52Z"/>
          </g>
          <g>
            <g>
              <polygon class="cls-48" points="170.23 106.85 162.63 112.16 185.22 112.16 192.83 106.85 170.23 106.85"/>
              <polygon class="cls-44" points="185.22 112.16 185.22 134.75 192.83 129.44 192.83 106.85 185.22 112.16"/>
              <rect class="cls-51" x="162.63" y="112.16" width="22.6" height="22.59"/>
            </g>
            <path class="cls-42" d="M173.36,130.01c-.49,0-.91-.02-1.26-.06-.35-.04-.66-.09-.91-.14l-2.41-1.35,1.26-2.53,3.48.98c.83,0,1.43-.23,1.8-.68.38-.46.56-1.03.56-1.72l-2.81.55c-.86,0-1.64-.13-2.34-.4-.7-.27-1.25-.7-1.67-1.31-.41-.61-.62-1.42-.62-2.44,0-1.28.47-2.29,1.4-3.03.94-.75,2.27-1.12,3.99-1.12,1.14,0,2.14.22,2.99.66.85.44,1.51,1.14,1.98,2.1.47.97.7,2.26.7,3.87s-.27,2.8-.82,3.78c-.55.98-1.28,1.7-2.21,2.16-.93.46-1.97.69-3.12.69ZM173.64,122.4c.55,0,1.01-.02,1.39-.06.38-.04.67-.08.87-.12,0-.7-.19-1.27-.57-1.69-.38-.43-.93-.64-1.65-.64-.63,0-1.08.13-1.36.4-.27.27-.41.57-.41.91,0,.47.14.79.42.96.28.16.72.25,1.31.25Z"/>
          </g>
          <g>
            <g>
              <polygon class="cls-47" points="118.32 83.47 110.71 88.78 133.31 88.78 140.92 83.47 118.32 83.47"/>
              <polygon class="cls-12" points="133.31 88.78 133.31 111.37 140.92 106.06 140.92 83.47 133.31 88.78"/>
              <rect class="cls-1" x="110.71" y="88.78" width="22.6" height="22.59"/>
            </g>
            <path class="cls-9" d="M117.25,106.59v-2.53c.46-.29.87-.56,1.24-.82.36-.26.76-.54,1.18-.86.43-.32.83-.64,1.2-.98.55-.47,1-.9,1.37-1.27.36-.37.64-.74.82-1.1.18-.36.27-.78.27-1.26,0-.78-.52-1.17-1.55-1.17-.51,0-1.02.06-1.54.19-.52.13-.99.28-1.42.45-.43.17-.77.32-1.01.44v-3.1c.35-.19.92-.41,1.69-.66.78-.24,1.72-.36,2.84-.36,1.58,0,2.73.33,3.46.99.73.66,1.09,1.66,1.09,3,0,.69-.13,1.31-.38,1.86-.26.55-.58,1.04-.98,1.47-.4.43-.83.8-1.28,1.12-.46.32-.89.58-1.3.79-.41.21-.75.39-1.02.52l.09.36,4.88-.36v3.28h-9.66Z"/>
          </g>
          <g>
            <g>
              <polygon class="cls-16" points="154.52 83.47 146.91 88.78 169.51 88.78 177.11 83.47 154.52 83.47"/>
              <polygon class="cls-13" points="169.51 88.78 169.51 111.37 177.11 106.06 177.11 83.47 169.51 88.78"/>
              <rect class="cls-35" x="146.91" y="88.78" width="22.6" height="22.59"/>
            </g>
            <path class="cls-23" d="M158.61,106.49c-1.18,0-2.21-.22-3.09-.66-.88-.44-1.56-1.12-2.05-2.04-.49-.92-.73-2.11-.73-3.55,0-1.35.17-2.47.52-3.38.35-.9.81-1.62,1.4-2.15.59-.53,1.25-.91,1.99-1.14.73-.23,1.49-.35,2.27-.35.62,0,1.22.05,1.81.15.59.1,1.02.21,1.28.33l1.66,1.48-1.64,2.64-2.93-1.51c-.8,0-1.47.23-2.01.68-.54.46-.81,1.1-.81,1.94l2.7-.55c.86,0,1.66.12,2.4.36.73.24,1.32.64,1.77,1.22.44.58.67,1.38.67,2.4,0,1.25-.43,2.25-1.3,3.01-.87.75-2.17,1.13-3.89,1.13ZM158.6,103.36c.56,0,.99-.1,1.3-.3.31-.2.46-.47.46-.81s-.14-.67-.42-.97c-.28-.29-.72-.44-1.31-.44-.52,0-.97.11-1.33.34-.36.22-.61.42-.75.57.1.45.31.83.65,1.14.33.31.8.46,1.39.46Z"/>
          </g>
          <g>
            <g>
              <polygon class="cls-8" points="82.75 83.47 75.15 88.78 97.75 88.78 105.35 83.47 82.75 83.47"/>
              <polygon class="cls-29" points="97.75 88.78 97.75 111.37 105.35 106.06 105.35 83.47 97.75 88.78"/>
              <rect class="cls-17" x="75.15" y="88.78" width="22.6" height="22.59"/>
            </g>
            <path class="cls-3" d="M86.55,107.01c-.67,0-1.32-.06-1.97-.19-.64-.13-1.23-.34-1.76-.64-.53-.3-.95-.7-1.27-1.21-.32-.51-.47-1.15-.47-1.91s.16-1.4.49-1.88c.33-.47.76-.84,1.29-1.09-.44-.32-.75-.71-.95-1.18-.19-.47-.29-.99-.29-1.58,0-.7.19-1.32.57-1.86.38-.53.94-.96,1.67-1.27.73-.31,1.61-.46,2.64-.46,1.55,0,2.76.31,3.61.93.85.62,1.28,1.51,1.28,2.66,0,.64-.09,1.19-.27,1.63-.18.44-.45.8-.8,1.08.51.26.91.62,1.19,1.1.29.48.43,1.11.43,1.9s-.15,1.4-.46,1.91c-.3.51-.71.91-1.23,1.21-.52.3-1.1.51-1.74.64-.64.13-1.3.19-1.97.19ZM86.55,103.91c.66,0,1.14-.11,1.47-.32.32-.21.48-.46.48-.76,0-.36-.15-.67-.45-.9-.3-.24-.7-.41-1.2-.51-.5-.1-1.07-.14-1.69-.12-.15.16-.27.35-.37.58-.1.23-.15.47-.15.73,0,.38.15.69.46.93.31.24.79.36,1.45.36ZM86.55,99.06c.45,0,.8-.12,1.04-.36.24-.24.36-.51.36-.81s-.12-.57-.36-.77c-.24-.19-.59-.29-1.04-.29s-.79.09-1.07.26c-.27.18-.41.44-.41.79s.14.62.41.84c.27.22.63.33,1.07.33Z"/>
          </g>
          <g>
            <g>
              <polygon class="cls-21" points="100.4 59.24 92.79 64.55 115.39 64.55 122.99 59.24 100.4 59.24"/>
              <polygon class="cls-36" points="115.39 64.55 115.39 87.14 122.99 81.83 122.99 59.24 115.39 64.55"/>
              <rect class="cls-6" x="92.79" y="64.55" width="22.6" height="22.59"/>
            </g>
            <path class="cls-27" d="M101.21,82.45l3.04-8.09.97-1.91h-.55l-5.28.36v-3.26h9.55v2.2l-3.01,7.78-.91,2.92h-3.81Z"/>
          </g>
          <g>
            <g>
              <polygon class="cls-26" points="136.53 59.24 128.93 64.55 151.52 64.55 159.13 59.24 136.53 59.24"/>
              <polygon class="cls-43" points="151.52 64.55 151.52 87.14 159.13 81.83 159.13 59.24 151.52 64.55"/>
              <rect class="cls-37" x="128.93" y="64.55" width="22.6" height="22.59"/>
            </g>
            <path class="cls-30" d="M140.73,81.89v-1.82h-6.6v-2.41l5.21-8.67h4.74l.36,1.11-.36,1.82v5.19h2.37v2.77l-2.37.18v1.82h-3.35ZM138.03,77.11h2.7v-4.52h-.33l-2.37,4.52Z"/>
          </g>
        </g>
        <g>
          <g>
            <path class="cls-15" d="M66,166.78s-.02,3.2,1.74,4.15c1.75.94,45.66,20.31,46.83,19.83,1.17-.49,37.46-22.55,33.02-29.52l-81.58,5.55Z"/>
            <path class="cls-10" d="M66,166.78s28.06-24.25,31-24.87c2.94-.62,47.82,17.43,50.59,19.32,0,0-25.71,21.89-33.89,25.62,0,0-47.62-19.19-47.69-20.07Z"/>
            <path class="cls-22" d="M66,166.78s28.83-24.59,31.77-25.22c2.94-.62,46.27,15.84,49.04,17.73,0,0-26.74,20.95-34.92,24.69,0,0-45.81-16.32-45.89-17.2Z"/>
            <g>
              <g>
                <path class="cls-10" d="M73.62,167.54c-.18.5-.93.69-1.66.42-.73-.27-1.18-.89-.99-1.39.18-.5.93-.69,1.66-.42.73.27,1.18.89.99,1.39Z"/>
                <path class="cls-10" d="M76.73,164.94c-.18.5-.93.69-1.66.42-.73-.27-1.18-.89-.99-1.39.18-.5.93-.69,1.66-.42.73.27,1.18.89.99,1.39Z"/>
                <path class="cls-10" d="M79.48,162.02c-.18.5-.93.69-1.66.42-.73-.27-1.18-.89-.99-1.39.18-.5.93-.69,1.66-.42.73.27,1.18.89.99,1.39Z"/>
                <path class="cls-10" d="M82.37,159.52c-.18.5-.93.69-1.66.42-.73-.27-1.18-.89-.99-1.39.18-.5.93-.69,1.66-.42.73.27,1.18.89.99,1.39Z"/>
                <path class="cls-10" d="M85.24,156.71c-.18.5-.93.69-1.66.42-.73-.27-1.18-.89-.99-1.39.18-.5.93-.69,1.66-.42.73.27,1.18.89.99,1.39Z"/>
                <path class="cls-10" d="M88.57,154.21c-.18.5-.93.69-1.66.42-.73-.27-1.18-.89-.99-1.39.18-.5.93-.69,1.66-.42.73.27,1.18.89.99,1.39Z"/>
                <path class="cls-10" d="M91.46,151.51c-.18.5-.93.69-1.66.42-.73-.27-1.18-.89-.99-1.39.18-.5.93-.69,1.66-.42.73.27,1.18.89.99,1.39Z"/>
                <path class="cls-10" d="M94.57,149.1c-.18.5-.93.69-1.66.42-.73-.27-1.18-.89-.99-1.39.18-.5.93-.69,1.66-.42.73.27,1.18.89.99,1.39Z"/>
                <path class="cls-10" d="M97.49,146.4c-.18.5-.93.69-1.66.42-.73-.27-1.18-.89-.99-1.39.18-.5.93-.69,1.66-.42.73.27,1.18.89.99,1.39Z"/>
                <path class="cls-10" d="M100.54,143.92c-.18.5-.93.69-1.66.42-.73-.27-1.18-.89-.99-1.39.18-.5.93-.69,1.66-.42.73.27,1.18.89.99,1.39Z"/>
              </g>
              <path class="cls-4" d="M98.31,140.51c-1.04-1.11-2.5-2.16-4.05-2.31-1.25-.12-2.26.9-2.11,2.13.03.22.09.43.18.64-.4-.15-.81-.26-1.23-.3-1.25-.12-2.26.9-2.11,2.13.04.31.15.62.31.91-.34-.12-.69-.2-1.04-.24-1.25-.12-2.26.9-2.11,2.13.03.22.09.43.18.64-.4-.15-.81-.26-1.23-.3-1.25-.12-2.26.9-2.11,2.13.04.33.17.66.34.97-.34-.12-.68-.2-1.03-.23-1.25-.12-2.26.9-2.11,2.13.03.22.09.43.18.64-.4-.15-.81-.26-1.23-.3-1.25-.12-2.26.9-2.11,2.13.04.32.16.64.32.94-.34-.12-.69-.2-1.04-.24-1.25-.12-2.26.9-2.11,2.13.03.22.09.43.18.64-.4-.15-.81-.26-1.23-.3-1.25-.12-2.26.9-2.11,2.13.04.3.14.6.29.88-.3-.1-.61-.17-.93-.2-1.25-.12-2.26.9-2.11,2.13.03.22.09.43.18.64-.4-.15-.81-.26-1.23-.3-1.25-.12-2.26.9-2.11,2.13.11.87.76,1.7,1.41,2.33h0s.64-.56.64-.56c-.36-.36-.69-.77-.94-1.2-.65-1.13.09-2.02,1.32-1.81.81.14,1.57.65,2.23,1.18.06.06.12.12.18.17.04.03.07.05.11.07.08.07.15.13.23.2.52.46,1.8,1.68,1.47,2.49-.21.51.57.83.79.32.46-1.1-.58-2.29-1.27-3.03-.31-.33-.65-.64-1.02-.94-.33-.34-.63-.73-.87-1.13-.65-1.13.09-2.02,1.32-1.81.69.12,1.33.5,1.91.94.03.03.06.05.08.08.04.04.08.06.12.08.22.18.44.36.63.54.52.46,1.8,1.68,1.47,2.49-.21.51.57.83.79.32.46-1.1-.58-2.29-1.27-3.03-.39-.42-.85-.83-1.34-1.19-.37-.36-.71-.78-.96-1.23-.65-1.13.09-2.02,1.32-1.81.81.14,1.57.65,2.23,1.18.06.06.12.12.18.17.04.03.07.05.11.07.08.07.16.13.23.2.52.46,1.8,1.68,1.46,2.49-.21.51.57.83.79.32.46-1.1-.58-2.29-1.27-3.03-.31-.33-.65-.64-1.02-.94-.33-.34-.63-.73-.87-1.14-.65-1.13.09-2.02,1.32-1.8,1.04.18,1.99.95,2.75,1.63.52.46,1.8,1.68,1.47,2.49-.21.51.57.83.79.32.46-1.1-.58-2.29-1.27-3.03-.31-.33-.66-.65-1.03-.95-.02-.05-.06-.1-.11-.15-.42-.38-.8-.85-1.08-1.34-.65-1.13.09-2.02,1.32-1.81.81.14,1.57.65,2.23,1.18.06.06.12.12.18.17.04.03.07.05.11.07.08.07.15.13.23.2.52.46,1.8,1.68,1.47,2.49-.21.51.57.83.79.32.46-1.1-.58-2.29-1.27-3.03-.31-.33-.65-.64-1.02-.94-.33-.34-.63-.73-.87-1.14-.65-1.13.09-2.02,1.32-1.81,1.04.18,1.99.95,2.75,1.63.52.46,1.8,1.68,1.47,2.49-.21.51.57.83.79.32.46-1.1-.58-2.29-1.27-3.03-.31-.33-.67-.66-1.05-.96-.02-.06-.06-.12-.12-.17-.42-.38-.8-.85-1.08-1.34-.65-1.13.09-2.02,1.32-1.8.81.14,1.57.65,2.23,1.18.06.06.12.12.18.17.04.03.07.05.11.07.08.07.15.13.23.2.52.46,1.8,1.68,1.46,2.49-.21.51.57.83.79.32.46-1.1-.58-2.29-1.27-3.03-.3-.33-.65-.64-1.02-.94-.33-.34-.63-.73-.87-1.14-.65-1.13.09-2.02,1.32-1.81,1.03.18,1.99.95,2.75,1.63.52.46,1.8,1.68,1.47,2.49-.21.51.57.83.79.32.46-1.1-.58-2.29-1.27-3.03-.31-.33-.66-.65-1.03-.95-.02-.04-.05-.08-.09-.12-.42-.38-.8-.85-1.08-1.34-.65-1.13.09-2.02,1.32-1.8.81.14,1.57.65,2.23,1.18.06.06.12.12.18.17.04.03.07.05.11.07.08.07.16.13.23.2.52.46,1.8,1.68,1.47,2.49-.21.51.57.83.79.32.46-1.1-.58-2.29-1.27-3.03-.31-.33-.65-.64-1.02-.94-.33-.34-.63-.73-.87-1.14-.65-1.13.09-2.02,1.32-1.81,1.03.18,1.99.95,2.75,1.63.52.46,1.8,1.68,1.47,2.49-.21.51.57.83.79.32.46-1.1-.58-2.29-1.27-3.03Z"/>
            </g>
          </g>
          <g>
            <g>
              <g>
                <path class="cls-34" d="M82.87,167.98c1.1.66,2.22,1.28,3.36,1.87.72.37,2.28,1.42,3.15,1.08.36-.14.71-.6.98-.85.7-.66,1.39-1.34,2.08-2,1.76-1.68,3.59-3.49,5.73-4.69.18-.1.15-.39-.07-.26-3.24,1.81-5.73,4.79-8.45,7.25-.86.78-2.56-.48-3.41-.91-1.06-.55-2.11-1.14-3.13-1.75-.15-.09-.41.18-.25.28h0Z"/>
                <path class="cls-34" d="M85.24,168.91c1.8-2.82,5.12-3.33,7.9-1.65.15.09.42-.18.25-.28-2.99-1.8-6.53-1.16-8.45,1.85-.13.21.19.23.29.07h0Z"/>
                <path class="cls-34" d="M89.31,161.72c-.05,3.04-.09,6.09-.14,9.13,0,.21.34.07.34-.09.05-3.04.09-6.09.14-9.13,0-.21-.34-.07-.34.09h0Z"/>
              </g>
              <g>
                <path class="cls-34" d="M91.53,170.69c-.17.39-.62,1.52.01,1.7.33.1.85-.12.95-.46.12-.42-.18-.88-.42-1.2-.1.08-.2.15-.3.23.19.21.43.44.72.48.55.09.57-.71.54-1.04-.01-.12-.33.06-.32.18,0,.11.02.21.02.32,0,.04-.06.28,0,.27-.1,0-.2-.06-.28-.11-.14-.09-.27-.21-.38-.33-.08-.09-.38.13-.3.23.18.25.35.51.42.82.04.19.02.33-.19.37-.17.03-.31-.02-.39-.17-.19-.36.07-1,.22-1.34.08-.19-.24-.04-.29.06h0Z"/>
                <g>
                  <path class="cls-34" d="M93.06,168.76c.55.29,1.09.58,1.63.86.11.06.4-.17.27-.24-.54-.28-1.08-.57-1.62-.86-.11-.06-.4.17-.27.24h0Z"/>
                  <path class="cls-34" d="M93.62,169.94c.47-.54,1.06-1.28,1.74-1.67.15-.09.23-.27,0-.14-.82.47-1.47,1.25-2.03,1.9-.12.14.21,0,.28-.09h0Z"/>
                </g>
                <path class="cls-34" d="M94.08,167.03c.44.28.89.54,1.36.77.41.2.97.5,1.3.03.3-.43.11-1.28-.47-1.34-.51-.05-.98.4-.87.91.04.18.37,0,.33-.16-.1-.46.48-.58.7-.21.11.18.11.43.06.62-.05.21-.17.14-.33.08-.65-.21-1.26-.61-1.84-.97-.14-.09-.41.17-.25.27h0Z"/>
                <g>
                  <path class="cls-34" d="M96.91,165.85c.38-.34.77-.68,1.15-1.02.13-.11-.21.06-.26.11-.39.34-.77.68-1.15,1.02-.12.11.21-.06.26-.11h0Z"/>
                  <path class="cls-34" d="M97.54,166.39c.69-.45,1.38-.9,2.08-1.35.19-.12.1-.23-.09-.11-.7.45-1.39.9-2.08,1.35-.19.13-.1.24.1.11h0Z"/>
                </g>
                <path class="cls-34" d="M99.5,163.01c-.17.45-.44,1.44.29,1.5.73.05,1.28-.87,1.49-1.46.04-.13-.27.04-.31.14-.14.4-.68,1.44-1.21.97-.3-.27-.07-.96.05-1.28.05-.12-.27.04-.31.14h0Z"/>
              </g>
            </g>
            <g>
              <path class="cls-34" d="M98.41,158.22c1.86.27,3.72.54,5.58.81.09.01.41-.16.25-.25-.99-.6-1.96-1.23-2.92-1.88-.72-.49-1.43-.99-2.12-1.53-.39-.31-1.12-.77-1.22-1.29-.05-.25.93-1.06,1.09-1.22.64-.67,1.3-1.33,1.95-1.98.95-.95,1.9-1.9,2.86-2.84.18-.17-.15-.17-.26-.06-1.02,1-2.04,2.01-3.05,3.03-.69.69-1.38,1.39-2.06,2.1-.22.23-.85.7-.88,1.06-.07.93,2.19,2.15,2.79,2.57,1.15.8,2.33,1.57,3.53,2.3.09-.08.17-.17.25-.25-1.86-.27-3.72-.54-5.58-.81-.13-.02-.4.23-.23.26h0Z"/>
              <path class="cls-34" d="M102.61,154.69c-.28-.67-.54-1.36-.72-2.07-.03-.13-.05-.25-.06-.38,0,.06-.14,0,.09.15.3.2.58.44.85.68,1.04.88,2.03,1.82,3.01,2.76.1.1.41-.12.28-.24-1.25-1.2-2.5-2.52-3.94-3.49-.31-.21-.64-.15-.64.27,0,.81.5,1.77.8,2.5.06.14.39-.04.33-.19h0Z"/>
              <path class="cls-34" d="M104.15,149.68c-.43.45-.87.9-1.3,1.35-.06.07-.11.17,0,.22.49.21.97.43,1.46.64.11.05.26-.06.28-.17.08-.33.37-1.24.86-1.13.34.07.67.5.87.74.32.37,1.48,2.01.4,2.13-.18.02-.3.31-.05.29,1.63-.18.45-2.05-.12-2.72-.27-.31-.76-.87-1.24-.71-.62.21-.91.87-1.06,1.47.09-.06.19-.11.28-.17-.49-.21-.97-.43-1.46-.64,0,.07,0,.14,0,.22.43-.45.87-.9,1.3-1.35.17-.18-.07-.31-.21-.16h0Z"/>
            </g>
            <g>
              <g>
                <g>
                  <path class="cls-34" d="M105.84,164.46c.21.84.43,1.68.64,2.53.04.16.36-.04.33-.17-.21-.84-.43-1.68-.64-2.53-.04-.16-.36.04-.33.17h0Z"/>
                  <path class="cls-34" d="M104.62,165.86c1.04-.12,2.07-.24,3.11-.37.13-.02.34-.31.12-.28-1.04.12-2.07.24-3.11.37-.13.02-.34.31-.12.28h0Z"/>
                </g>
                <g>
                  <path class="cls-34" d="M106.88,163.2c.55.29,1.09.58,1.63.86.11.06.4-.17.27-.24-.54-.28-1.08-.57-1.63-.86-.11-.06-.4.17-.27.24h0Z"/>
                  <path class="cls-34" d="M107.44,164.38c.47-.54,1.06-1.28,1.74-1.67.15-.09.23-.27,0-.14-.82.47-1.47,1.25-2.03,1.9-.12.14.21,0,.28-.09h0Z"/>
                </g>
                <path class="cls-34" d="M108.15,161.79c.46-.16.94-.32,1.37-.55.19-.1.14-.39-.08-.28-.43.23-.91.38-1.37.55-.2.07-.15.36.08.28h0Z"/>
                <path class="cls-34" d="M108.82,159.98c.29.48.54.98.78,1.49.33.7,1.04,2.03.59,2.8-.1.17.23.01.28-.07.4-.68-.01-1.61-.27-2.27-.29-.75-.67-1.48-1.08-2.18-.05-.09-.36.12-.3.23h0Z"/>
              </g>
              <g>
                <path class="cls-34" d="M110.33,160.19c.38-.34.77-.68,1.15-1.02.13-.11-.21.06-.26.11-.39.34-.77.68-1.15,1.02-.12.11.21-.06.26-.11h0Z"/>
                <path class="cls-34" d="M110.96,160.72c.69-.45,1.38-.9,2.08-1.35.19-.12.1-.23-.09-.11-.7.45-1.39.9-2.08,1.35-.19.13-.1.24.1.11h0Z"/>
              </g>
              <path class="cls-34" d="M111.21,158.04c.11-.2.23-.4.36-.59.1-.15.2-.3.32-.45.14-.18.14-.2.23,0,.21.54.27,1.17.34,1.75.01.12.19.07.25.03.55-.44,1.28-1.01,1.48-1.72.06-.23-.28-.16-.33,0-.17.61-.83,1.12-1.31,1.5.08,0,.17.02.25.03-.04-.37-.1-.73-.17-1.09-.05-.27-.1-.81-.38-.96-.48-.26-1.17,1.15-1.32,1.43-.12.22.2.24.29.07h0Z"/>
            </g>
            <g>
              <path class="cls-34" d="M102.47,174.04c2.72,1.58,5.47,3.12,8.27,4.53.91.46,2.38,1.47,3.47,1.36.47-.05,1.08-.7,1.42-.97,5.8-4.48,11.39-9.26,17.02-13.95,1-.83,2-1.66,3-2.5.2-.17-.04-.13-.15-.04-4.84,4.04-9.69,8.07-14.57,12.06-2.09,1.71-4.15,3.6-6.41,5.09-.64.42-2.74-.93-3.3-1.2-1.85-.91-3.65-1.91-5.45-2.91-1.01-.57-2.02-1.14-3.03-1.72-.08-.05-.36.2-.27.25h0Z"/>
              <path class="cls-34" d="M111.31,178.49c-.52-1.09-.94-2.24-1.3-3.39-.55-1.75-1.27-4.22-.24-5.92,1.27-2.1,5.52-.75,7.34-.3,1.1.27,3.23,1.23,4.32.5,1.5-1.01-5.09-5.86-2.45-8.2,1.89-1.68,5.44-.72,7.61-.22,1.01.23,2.01.5,3.03.71.5.1,1.18.27,1.68.07.06-.02.11-.04.16-.08.17-.1.15-.39-.07-.26-.57.35-1.66-.04-2.26-.18-1.18-.26-2.34-.57-3.52-.82-1.98-.41-4.24-.73-6.14.16-3.72,1.74.48,5.87,1.63,7.85.65,1.13-.81.86-1.5.72-1.16-.23-2.29-.56-3.44-.83-1.86-.43-4.17-.91-5.92.1-2.78,1.6-.61,6.91.24,9.02.16.41.34.82.53,1.22.08.17.4-.02.33-.16h0Z"/>
              <path class="cls-34" d="M110.2,176.26c1.85.85,3.69,1.7,5.54,2.56.14.07.43-.22.28-.29-1.85-.85-3.69-1.7-5.54-2.56-.14-.06-.43.22-.28.29h0Z"/>
              <path class="cls-34" d="M109.03,172.24c3.08,1.56,6.16,3.12,9.24,4.68.11.06.41-.21.29-.28-3.08-1.56-6.16-3.12-9.24-4.68-.11-.06-.41.21-.29.28h0Z"/>
              <path class="cls-34" d="M109.84,169.03c3.65,1.88,7.3,3.77,10.95,5.65.11.06.41-.21.29-.28-3.65-1.88-7.3-3.77-10.95-5.65-.11-.06-.41.21-.29.28h0Z"/>
              <path class="cls-34" d="M114.46,168.43c2.99,1.44,5.97,2.89,8.96,4.33.17.08.46-.21.27-.3-2.99-1.44-5.97-2.89-8.96-4.33-.17-.08-.46.21-.27.3h0Z"/>
              <path class="cls-34" d="M120.61,167.31c1.93.99,3.86,1.98,5.79,2.96.14.07.44-.21.28-.29-1.93-.99-3.86-1.98-5.79-2.96-.14-.07-.44.21-.28.29h0Z"/>
              <path class="cls-34" d="M118.22,162.99c3.43,1.78,6.86,3.56,10.29,5.34.16.08.45-.2.27-.3-3.43-1.78-6.86-3.56-10.29-5.34-.16-.08-.45.2-.27.3h0Z"/>
              <path class="cls-34" d="M119.32,160.72c1.9,1.1,3.81,2.2,5.73,3.28,1.27.72,2.55,1.44,3.84,2.14.38.21,1.21.86,1.68.77.21-.04.27-.38.01-.33-.29.05-1.58-.83-1.96-1.04-1.26-.69-2.52-1.4-3.77-2.12-1.76-1-3.51-2-5.25-3.02-.17-.1-.45.19-.27.3h0Z"/>
              <path class="cls-34" d="M124.66,160.39c2.69,1.49,5.38,2.98,8.07,4.46.11.06.41-.21.29-.27-2.69-1.49-5.38-2.98-8.07-4.46-.11-.06-.41.21-.29.27h0Z"/>
            </g>
          </g>
        </g>
        <g>
          <path class="cls-41" d="M154.71,144.67c.06-.25-2.15-3.32-2.46-3.51,0,0-.01,0-.02,0,0,0-.01,0-.02,0,0,0-.02,0-.03,0,0,0-.02,0-.03,0-.01,0-.02,0-.04,0-.01,0-.02,0-.04,0-.01,0-.03,0-.04,0-.02,0-.03,0-.05,0-.02,0-.03,0-.05,0-.02,0-.04,0-.06,0h-.05s-.05,0-.08,0c-.02,0-.03,0-.05,0-.03,0-.06,0-.09,0-.02,0-.04,0-.05,0-.03,0-.07,0-.1,0-.02,0-.04,0-.06,0-.04,0-.08,0-.12,0-.02,0-.03,0-.05,0-.05,0-.1,0-.15,0-.01,0-.02,0-.03,0-.06,0-.12,0-.18,0,0,0-.01,0-.02,0-.06,0-.13,0-.2,0,0,0,0,0,0,0-.07,0-.14,0-.22,0h0c-.08,0-.15,0-.23.01,0,0,0,0,0,0-1.12.05-2.57.14-4.11.23-.03,0-.05,0-.08,0-.07,0-.13,0-.2.01-.05,0-.1,0-.15,0-.06,0-.12,0-.18.01-.06,0-.12,0-.18.01-.04,0-.08,0-.12,0-.05,0-.1,0-.15,0h0c-3.93.25-8,.53-8,.53,0,0-.12,3.94,0,4.25.12.31,2.28,2.4,2.58,2.46.26.05,10.74-.34,14.12-.54.01,0,.02,0,.03,0,.03,0,.06,0,.09,0,.03,0,.06,0,.09,0,.02,0,.04,0,.07,0,.03,0,.06,0,.09,0,.02,0,.04,0,.06,0,.03,0,.06,0,.09,0,.02,0,.03,0,.05,0,.03,0,.05,0,.08,0,.01,0,.03,0,.04,0,.02,0,.05,0,.07,0,.01,0,.02,0,.03,0,.02,0,.04,0,.06,0,.01,0,.02,0,.03,0,.02,0,.03,0,.05,0,0,0,.02,0,.02,0,.01,0,.03,0,.04,0,0,0,.01,0,.02,0,.01,0,.03,0,.03,0,.55-.12,0-3.45,0-3.45Z"/>
          <g>
            <path class="cls-50" d="M137.58,140.85s-.12,3.94,0,4.25c.12.31,2.28,2.4,2.58,2.46.31.06,14.59-.49,15.14-.62.55-.12,0-3.45,0-3.45l-17.72-2.65Z"/>
            <path class="cls-5" d="M137.58,140.85s14.95-1.05,15.26-.86c.31.18,2.52,3.26,2.46,3.51-.06.25-15.14.98-15.14.98l-2.58-3.63Z"/>
            <path class="cls-32" d="M155.3,143.49l-3.56-.53-3.39,1.08.25,3.24h0c3.34-.14,6.44-.28,6.7-.34.55-.12,0-3.45,0-3.45Z"/>
            <path class="cls-45" d="M152.84,139.99c-.15-.09-3.65.11-7.26.33,0,0,2.71,3.35,2.77,3.72h0c3.55-.21,6.92-.43,6.95-.55.06-.25-2.15-3.32-2.46-3.51Z"/>
          </g>
        </g>
        <g>
          <path class="cls-41" d="M209.32,143.15c-.58-.34-3.19,1-3.19,1l-3.62.85-56.46,8.67-6.15,3,1.83.44h0s4.96,1.18,4.96,1.18l56.63-7.45,3.69-.31s3.43.53,3.71.31-.82-7.34-1.41-7.68Z"/>
          <g>
            <g>
              <polygon class="cls-2" points="204.58 142.52 205.39 148.36 148.76 155.81 148.11 151.2 204.58 142.52"/>
              <polygon class="cls-28" points="204.81 144.15 205.16 146.73 148.56 154.41 148.28 152.37 204.81 144.15"/>
            </g>
            <polygon class="cls-39" points="205.39 148.36 209.08 148.05 208.2 141.67 204.58 142.52 205.39 148.36"/>
            <path class="cls-19" d="M208.2,141.67s2.6-1.34,3.19-1c.58.34,1.68,7.46,1.41,7.68s-3.71-.31-3.71-.31l-.89-6.38Z"/>
            <polygon class="cls-38" points="148.76 155.81 141.96 154.19 148.11 151.2 148.76 155.81"/>
            <polygon class="cls-49" points="141.96 154.19 143.79 154.63 143.9 153.25 141.96 154.19"/>
          </g>
        </g>
      </g>
    </g>
  </g>
</svg>