<?xml version="1.0" encoding="UTF-8"?>
<svg id="NUMEROS_TORIBIO" data-name="NUMEROS TORIBIO" xmlns="http://www.w3.org/2000/svg" xmlns:xlink="http://www.w3.org/1999/xlink" viewBox="0 0 200 200">
  <defs>
    <style>
      .cls-1 {
        fill: #ff8f52;
      }

      .cls-1, .cls-2, .cls-3, .cls-4, .cls-5 {
        stroke-width: 0px;
      }

      .cls-2 {
        fill: #dd1d39;
      }

      .cls-3 {
        fill: none;
      }

      .cls-4 {
        fill: #dd3200;
      }

      .cls-5 {
        fill: #ff521a;
      }
    </style>
    <clipPath id="clippath">
      <rect class="cls-3" x="694" y="-413" width="792" height="612"/>
    </clipPath>
    <clipPath id="clippath-1">
      <rect class="cls-3" x="694" y="-413" width="792" height="612"/>
    </clipPath>
    <clipPath id="clippath-2">
      <rect class="cls-3" x="694" y="-413" width="792" height="612"/>
    </clipPath>
    <clipPath id="clippath-3">
      <rect class="cls-3" x="-143.67" y="135.25" width="792" height="63.75"/>
    </clipPath>
  </defs>
  <path class="cls-5" d="M138.51,81.37c0,14.91-4.67,29.6-14,44.07-9.33,14.47-23.28,27.45-41.83,38.93l-21.7-22.86c4.97-2.43,10.35-6.02,16.15-10.77,5.8-4.75,10.74-9.66,14.83-14.75-8.06-.11-15.3-1.99-21.7-5.63-6.41-3.64-11.38-8.37-14.91-14.16-3.54-5.8-5.3-11.9-5.3-18.31,0-7.07,2.1-13.78,6.29-20.13,4.2-6.35,9.75-11.46,16.65-15.32,6.9-3.86,14.22-5.8,21.95-5.8,7.18,0,14.11,1.71,20.79,5.14,6.68,3.42,12.12,8.15,16.32,14.16,4.2,6.02,6.3,12.79,6.3,20.29v.17c.11,1.11.16,2.76.16,4.97ZM83.43,87.33c2.37,2.98,5.82,4.47,10.35,4.47s7.7-1.38,10.19-4.14c2.49-2.76,3.73-6.07,3.73-9.94,0-4.31-1.46-7.62-4.39-9.94-2.93-2.32-6.27-3.48-10.02-3.48s-6.79,1.16-9.44,3.48c-2.65,2.32-3.98,5.47-3.98,9.44,0,3.76,1.19,7.12,3.56,10.11Z"/>
  <path class="cls-4" d="M138.35,76.4v-.17c0-7.51-2.1-14.27-6.3-20.29-4.2-6.02-9.64-10.74-16.32-14.16-6.09-3.12-12.4-4.8-18.9-5.08,14.06,2.92,23.6,9.51,30.54,20.15,9.34,14.32,7.97,33.25,2.73,48.74-4.67,13.81-15.51,27.78-26.2,37.91-8.84,8.38-19.16,15.32-34.28,7.03-.06-.03-.12-.07-.18-.11l13.25,13.95c18.56-11.49,32.5-24.46,41.83-38.93,9.33-14.47,14-29.16,14-44.07,0-2.21-.06-3.86-.16-4.97Z"/>
  <path class="cls-2" d="M86.83,37.39c.36.03.73-.02,1.08-.17-.36.06-.72.11-1.08.17Z"/>
  <path class="cls-4" d="M94.28,91.79c-.17,0-.33.02-.5.02-4.53,0-7.98-1.49-10.35-4.47-2.38-2.98-3.56-6.35-3.56-10.11,0-3.98,1.33-7.12,3.98-9.44,2.65-2.32,5.8-3.48,9.44-3.48s7.09,1.16,10.02,3.48c2.93,2.32,4.39,5.63,4.39,9.94,0,2-.34,3.85-1.01,5.56,9.05-13.44-7.45-28.11-21.66-21.15-5.58,2.73-8.79,9.56-7.93,16.57.98,8.01,7.88,14.99,17.17,13.08Z"/>
  <g>
    <path class="cls-1" d="M73.17,48.72c-9.62,4.35-15.41,13.91-16.8,24.28-.68,5.09-.34,10.12,1.15,15.04,1.73,5.68,4.43,8.56,9.71,10.71.75.31,1.74-.47,1.66-1.27-.38-4-1.97-6.63-3.49-10.29-1.7-4.1-1.9-8.54-1.48-12.9.8-8.44,5.68-16.98,10.85-23.51.94-1.18-.2-2.69-1.59-2.06h0Z"/>
    <path class="cls-1" d="M70.1,101.35c-.04,1.03.63,2.19,1.41,2.83,1.37,1.14,3.19,1.66,4.84.84,1.16-.58,1.56-2.28.88-3.35-.91-1.43-2.62-2-4.07-2.14-1.27-.13-3,.27-3.05,1.82h0Z"/>
  </g>
  <path class="cls-4" d="M82.68,165.12c-.2,0-.4-.08-.54-.23l-21.7-22.86c-.16-.17-.24-.42-.19-.65.04-.24.19-.44.41-.54,4.89-2.39,10.28-5.98,16.01-10.67,5.28-4.32,9.9-8.84,13.75-13.46-7.55-.32-14.45-2.23-20.52-5.69-6.49-3.69-11.6-8.54-15.18-14.42-3.59-5.89-5.41-12.18-5.41-18.7,0-7.19,2.16-14.1,6.42-20.54,4.24-6.42,9.93-11.66,16.91-15.57,6.98-3.91,14.49-5.89,22.32-5.89,7.26,0,14.37,1.76,21.13,5.22,6.76,3.47,12.34,8.31,16.59,14.4,4.27,6.12,6.43,13.1,6.43,20.72v.17c.11,1.07.16,2.76.16,4.97,0,14.99-4.75,29.95-14.12,44.47-9.35,14.5-23.5,27.67-42.07,39.16-.12.08-.26.11-.39.11ZM62.22,141.73l20.58,21.68c18.12-11.29,31.94-24.21,41.08-38.38,9.21-14.28,13.88-28.97,13.88-43.66,0-2.16-.05-3.8-.16-4.9v-.24c0-7.32-2.08-14-6.17-19.87-4.11-5.89-9.51-10.57-16.04-13.93-6.55-3.35-13.43-5.05-20.45-5.05-7.57,0-14.83,1.92-21.58,5.7-6.77,3.79-12.28,8.87-16.39,15.08-4.09,6.2-6.17,12.83-6.17,19.72,0,6.24,1.75,12.27,5.19,17.92,3.45,5.66,8.38,10.34,14.64,13.9,6.27,3.57,13.45,5.43,21.34,5.54.29,0,.55.17.67.43.12.26.09.57-.09.79-4.1,5.1-9.13,10.1-14.94,14.86-5.47,4.48-10.64,7.98-15.39,10.41ZM93.78,92.56c-4.75,0-8.43-1.6-10.94-4.76-2.47-3.1-3.73-6.66-3.73-10.57,0-4.18,1.42-7.55,4.23-10.01,2.78-2.43,6.12-3.66,9.94-3.66s7.44,1.23,10.49,3.64c3.1,2.46,4.67,6,4.67,10.53,0,4.04-1.32,7.55-3.92,10.44-2.62,2.91-6.24,4.39-10.75,4.39ZM93.28,65.06c-3.44,0-6.45,1.11-8.95,3.29-2.5,2.19-3.72,5.09-3.72,8.88,0,3.57,1.14,6.81,3.4,9.64,2.24,2.82,5.44,4.19,9.77,4.19,4.07,0,7.31-1.31,9.63-3.89,2.35-2.6,3.54-5.78,3.54-9.44,0-4.1-1.34-7.16-4.11-9.35-2.78-2.2-5.99-3.32-9.56-3.32Z"/>
</svg>