<svg width="103" height="131" viewBox="0 0 103 131" fill="none" xmlns="http://www.w3.org/2000/svg">
<path d="M89.8809 46.4876C89.8809 61.3976 85.2109 76.0876 75.8809 90.5576C66.5509 105.028 52.6009 118.008 34.0509 129.488L12.3509 106.628C17.3209 104.198 22.7009 100.608 28.5009 95.8576C34.3009 91.1076 39.2409 86.1976 43.3309 81.1076C35.2709 80.9976 28.0309 79.1176 21.6309 75.4776C15.2209 71.8376 10.2509 67.1076 6.7209 61.3176C3.1809 55.5176 1.4209 49.4176 1.4209 43.0076C1.4209 35.9376 3.52091 29.2276 7.71091 22.8776C11.9109 16.5276 17.4609 11.4176 24.3609 7.55757C31.2609 3.69757 38.5809 1.75757 46.3109 1.75757C53.4909 1.75757 60.4209 3.46757 67.1009 6.89757C73.7809 10.3176 79.2209 15.0476 83.4209 21.0576C87.6209 27.0776 89.7209 33.8476 89.7209 41.3476V41.5176C89.8309 42.6276 89.8809 44.2776 89.8809 46.4876ZM34.8009 52.4476C37.1709 55.4276 40.6209 56.9176 45.1509 56.9176C49.6809 56.9176 52.8509 55.5376 55.3409 52.7776C57.8309 50.0176 59.0709 46.7076 59.0709 42.8376C59.0709 38.5276 57.6109 35.2176 54.6809 32.8976C51.7509 30.5776 48.4109 29.4176 44.6609 29.4176C40.9109 29.4176 37.8709 30.5776 35.2209 32.8976C32.5709 35.2176 31.2409 38.3676 31.2409 42.3376C31.2409 46.0976 32.4309 49.4576 34.8009 52.4476Z" fill="#6E963C"/>
<path d="M89.7108 41.5176V41.3476C89.7108 33.8376 87.6108 27.0776 83.4108 21.0576C79.2108 15.0376 73.7708 10.3176 67.0908 6.89763C61.0008 3.77763 54.6908 2.09763 48.1908 1.81763C62.2508 4.73763 71.7908 11.3276 78.7308 21.9676C88.0708 36.2876 86.7008 55.2176 81.4608 70.7076C76.7908 84.5176 65.9508 98.4876 55.2608 108.618C46.4208 116.998 36.1008 123.938 20.9808 115.648C20.9208 115.618 20.8608 115.578 20.8008 115.538L34.0508 129.488C52.6108 117.998 66.5508 105.028 75.8808 90.5576C85.2108 76.0876 89.8808 61.3976 89.8808 46.4876C89.8808 44.2776 89.8208 42.6276 89.7208 41.5176H89.7108Z" fill="#3A510E"/>
<path d="M38.2012 2.50764C38.5612 2.53764 38.9312 2.48765 39.2812 2.33765C38.9212 2.39765 38.5612 2.44764 38.2012 2.50764Z" fill="#8EBE31"/>
<path d="M45.6406 56.9076C45.4706 56.9076 45.3106 56.9276 45.1406 56.9276C40.6106 56.9276 37.1606 55.4376 34.7906 52.4576C32.4106 49.4776 31.2306 46.1076 31.2306 42.3476C31.2306 38.3676 32.5606 35.2276 35.2106 32.9076C37.8606 30.5876 41.0106 29.4276 44.6506 29.4276C48.2906 29.4276 51.7406 30.5876 54.6706 32.9076C57.6006 35.2276 59.0606 38.5376 59.0606 42.8476C59.0606 44.8476 58.7206 46.6976 58.0506 48.4076C67.1006 34.9676 50.6006 20.2976 36.3906 27.2576C30.8106 29.9876 27.6006 36.8176 28.4606 43.8276C29.4406 51.8376 36.3406 58.8176 45.6306 56.9076H45.6406Z" fill="#8EBE31"/>
<path d="M24.5308 13.8376C14.9108 18.1876 9.12084 27.7476 7.73084 38.1176C7.05084 43.2076 7.39085 48.2376 8.88085 53.1576C10.6108 58.8376 13.3108 61.7176 18.5908 63.8676C19.3408 64.1777 20.3308 63.3976 20.2508 62.5976C19.8708 58.5976 18.2808 55.9677 16.7608 52.3077C15.0608 48.2077 14.8608 43.7676 15.2808 39.4076C16.0808 30.9676 20.9608 22.4276 26.1308 15.8976C27.0708 14.7176 25.9308 13.2076 24.5408 13.8376H24.5308Z" fill="#ACD163"/>
<path d="M21.4705 66.4676C21.4305 67.4976 22.1005 68.6576 22.8805 69.2976C24.2505 70.4376 26.0705 70.9576 27.7205 70.1376C28.8805 69.5576 29.2805 67.8576 28.6005 66.7876C27.6905 65.3576 25.9805 64.7876 24.5305 64.6476C23.2605 64.5176 21.5304 64.9176 21.4804 66.4676H21.4705Z" fill="#ACD163"/>
<path d="M34.0507 130.238C33.8507 130.238 33.6507 130.158 33.5107 130.008L11.8107 107.148C11.6507 106.978 11.5707 106.728 11.6207 106.498C11.6607 106.258 11.8107 106.058 12.0307 105.958C16.9207 103.568 22.3107 99.9776 28.0407 95.2876C33.3207 90.9676 37.9407 86.4476 41.7907 81.8276C34.2407 81.5076 27.3407 79.5976 21.2707 76.1376C14.7807 72.4476 9.67067 67.5976 6.09067 61.7176C2.50067 55.8276 0.680664 49.5376 0.680664 43.0176C0.680664 35.8276 2.84068 28.9176 7.10068 22.4776C11.3407 16.0576 17.0307 10.8176 24.0107 6.90758C30.9907 2.99758 38.5007 1.01758 46.3307 1.01758C53.5907 1.01758 60.7007 2.77758 67.4607 6.23758C74.2207 9.70758 79.8007 14.5476 84.0507 20.6376C88.3207 26.7576 90.4807 33.7376 90.4807 41.3576V41.5276C90.5907 42.5976 90.6407 44.2876 90.6407 46.4976C90.6407 61.4876 85.8907 76.4476 76.5207 90.9676C67.1707 105.468 53.0207 118.638 34.4507 130.128C34.3307 130.208 34.1907 130.238 34.0607 130.238H34.0507ZM13.5907 106.848L34.1707 128.528C52.2907 117.238 66.1107 104.318 75.2507 90.1476C84.4607 75.8676 89.1307 61.1776 89.1307 46.4876C89.1307 44.3276 89.0807 42.6876 88.9707 41.5876V41.3476C88.9707 34.0276 86.8907 27.3476 82.8007 21.4776C78.6907 15.5876 73.2907 10.9076 66.7607 7.54758C60.2107 4.19758 53.3307 2.49757 46.3107 2.49757C38.7407 2.49757 31.4807 4.41758 24.7307 8.19758C17.9607 11.9876 12.4507 17.0676 8.34067 23.2776C4.25067 29.4776 2.17067 36.1076 2.17067 42.9976C2.17067 49.2376 3.92067 55.2676 7.36067 60.9176C10.8107 66.5776 15.7407 71.2576 22.0007 74.8176C28.2707 78.3876 35.4507 80.2476 43.3407 80.3576C43.6307 80.3576 43.8907 80.5276 44.0107 80.7876C44.1307 81.0476 44.1007 81.3576 43.9207 81.5776C39.8207 86.6776 34.7907 91.6776 28.9807 96.4376C23.5107 100.918 18.3407 104.418 13.5907 106.848ZM45.1507 57.6776C40.4007 57.6776 36.7207 56.0776 34.2107 52.9176C31.7407 49.8176 30.4807 46.2576 30.4807 42.3476C30.4807 38.1676 31.9007 34.7976 34.7107 32.3376C37.4907 29.9076 40.8307 28.6776 44.6507 28.6776C48.4707 28.6776 52.0907 29.9076 55.1407 32.3176C58.2407 34.7776 59.8107 38.3176 59.8107 42.8476C59.8107 46.8876 58.4907 50.3976 55.8907 53.2876C53.2707 56.1976 49.6507 57.6776 45.1407 57.6776H45.1507ZM44.6507 30.1776C41.2107 30.1776 38.2007 31.2876 35.7007 33.4676C33.2007 35.6576 31.9807 38.5576 31.9807 42.3476C31.9807 45.9176 33.1207 49.1576 35.3807 51.9876C37.6207 54.8076 40.8207 56.1776 45.1507 56.1776C49.2207 56.1776 52.4607 54.8676 54.7807 52.2876C57.1307 49.6876 58.3207 46.5076 58.3207 42.8476C58.3207 38.7476 56.9807 35.6876 54.2107 33.4976C51.4307 31.2976 48.2207 30.1776 44.6507 30.1776Z" fill="#8EBE31"/>
</svg>
