<?xml version="1.0" encoding="UTF-8"?>
<svg id="NUMEROS_TORIBIO" data-name="NUMEROS TORIBIO" xmlns="http://www.w3.org/2000/svg" xmlns:xlink="http://www.w3.org/1999/xlink" viewBox="0 0 200 200">
  <defs>
    <style>
      .cls-1 {
        fill: #024e92;
      }

      .cls-1, .cls-2, .cls-3, .cls-4 {
        stroke-width: 0px;
      }

      .cls-2 {
        fill: none;
      }

      .cls-3 {
        fill: #6f98e3;
      }

      .cls-4 {
        fill: #173f72;
      }
    </style>
    <clipPath id="clippath">
      <rect class="cls-2" x="914" y="-413" width="792" height="612"/>
    </clipPath>
    <clipPath id="clippath-1">
      <rect class="cls-2" x="914" y="-413" width="792" height="612"/>
    </clipPath>
    <clipPath id="clippath-2">
      <rect class="cls-2" x="914" y="-413" width="792" height="612"/>
    </clipPath>
    <clipPath id="clippath-3">
      <rect class="cls-2" x="76.33" y="135.25" width="792" height="63.75"/>
    </clipPath>
  </defs>
  <path class="cls-1" d="M133.67,108.53c4.03,5.47,6.05,11.46,6.05,17.98,0,7.29-1.74,13.83-5.22,19.63-3.48,5.8-8.37,10.3-14.66,13.5-6.3,3.2-13.48,4.8-21.54,4.8s-15.71-1.63-22.61-4.89c-6.9-3.26-12.4-7.62-16.48-13.09-4.09-5.47-6.13-11.4-6.13-17.81s1.91-12.01,5.72-17.48c3.81-5.47,9.25-10.13,16.32-14-7.18-3.64-12.4-7.59-15.66-11.85-3.26-4.25-4.89-9.14-4.89-14.66,0-6.3,1.88-12.12,5.63-17.48,3.75-5.36,8.83-9.63,15.24-12.84,6.4-3.2,13.36-4.8,20.87-4.8s14.16,1.57,20.29,4.72c6.13,3.15,10.99,7.43,14.58,12.84,3.59,5.41,5.38,11.32,5.38,17.73,0,5.86-1.35,10.93-4.06,15.24-2.71,4.31-7.37,8.01-14,11.1,6.07,2.1,11.12,5.88,15.16,11.35ZM87.45,64.05c-2.27,2.1-3.4,4.58-3.4,7.46s1.24,5.58,3.73,8.12c2.48,2.54,5.88,4.53,10.19,5.96,2.65-1.77,4.8-3.92,6.46-6.46,1.66-2.54,2.48-5.02,2.48-7.45,0-2.87-1.13-5.38-3.4-7.54-2.27-2.15-4.94-3.23-8.04-3.23s-5.77,1.05-8.04,3.15ZM106.58,135.12c2.65-2.54,3.98-5.52,3.98-8.95s-1.3-6.27-3.89-8.86c-2.6-2.59-6.05-4.5-10.35-5.72-5.19,1.99-8.42,4.45-9.69,7.37-1.27,2.93-1.91,5.5-1.91,7.7.11,3.42,1.43,6.32,3.98,8.7,2.54,2.38,5.47,3.56,8.78,3.56s6.46-1.27,9.11-3.81Z"/>
  <path class="cls-4" d="M112.66,118.38c-3.35-9.71-14.92-12.04-22.7-6.27-4.42,3.28-6,8.67-5.22,13.78.13-2.03.75-4.33,1.88-6.92,1.27-2.93,4.5-5.38,9.69-7.37,4.31,1.22,7.76,3.12,10.35,5.72,2.59,2.6,3.89,5.55,3.89,8.86s-1.25,6.21-3.74,8.7c5.24-3.44,8.07-10.02,5.84-16.49Z"/>
  <path class="cls-4" d="M124.16,150.81c-13.56,9.62-30.77,10.1-45.98,4.32-12-4.57-20.39-14.94-20.99-27.86-.67-14.41,11.83-22.23,23.06-28.16,1.23-.65,1.34-2.79,0-3.41-10.95-5.03-19.62-11.95-21.88-24.27-1.39-7.57.81-15.56,5.04-22.2-1.16,1.25-2.23,2.57-3.21,3.97-3.76,5.36-5.63,11.18-5.63,17.48,0,5.52,1.63,10.41,4.89,14.66,3.26,4.25,8.48,8.2,15.66,11.85-7.07,3.87-12.51,8.53-16.32,14-3.81,5.47-5.72,11.29-5.72,17.48s2.04,12.34,6.13,17.81c4.08,5.47,9.58,9.83,16.48,13.09,6.9,3.26,14.44,4.89,22.61,4.89s15.24-1.6,21.54-4.8c6.29-3.2,11.18-7.7,14.66-13.5,1.83-3.06,3.17-6.33,4.04-9.8-4.01,5.48-8.69,10.44-14.37,14.47Z"/>
  <path class="cls-4" d="M82.93,70.92c.3,1.55,1.02,3.18,2.04,4.72-.61-1.34-.92-2.72-.92-4.14,0-2.87,1.13-5.36,3.4-7.46,2.26-2.1,4.94-3.15,8.04-3.15s5.77,1.08,8.04,3.23c2.26,2.15,3.4,4.67,3.4,7.54,0,2.43-.83,4.92-2.48,7.45-.36.55-.75,1.06-1.15,1.57,3.07-2.52,4.72-7.03,4.9-10.91.29-6.38-4.25-12.16-10.63-12.96-7.96-1-16.29,5.46-14.62,14.09Z"/>
  <g>
    <path class="cls-3" d="M125.43,61.69c-.57-4.56-1.42-7.92-4.56-11.44-3.18-3.57-7.66-5.94-12.07-7.59-4.43-1.66-9.61-1.93-14.24-1.23-5.59.84-8.61,2.66-12.48,6.63-.67.69.02,1.67.88,1.51,7.32-1.29,15.53-2.53,22.78-.47,6.92,1.97,13.12,8.19,17.91,13.33.58.62,1.9.19,1.79-.74Z"/>
    <path class="cls-3" d="M124.99,67.25c-.06.31-.16.59-.27.88-.17.46-.14.98-.14,1.46.01,1.28,1.06,2.34,2.34,2.34s2.36-1.07,2.34-2.34c-.01-1.27-.44-2.21-1.29-3.14-.87-.94-2.74-.53-2.99.79Z"/>
    <path class="cls-3" d="M101.45,150.02c-6.05-2.64-12.38-3.68-18.54-5.99-6.72-2.51-11.15-7.12-15.8-12.29-.35-.39-1.13-.21-1.23.32-1.43,7.62,5.01,13.48,10.96,16.84,7.37,4.16,16.37,6.31,24.36,3.03.72-.3,1.19-1.5.25-1.91Z"/>
  </g>
  <path class="cls-4" d="M98.3,165.2c-8.25,0-15.97-1.67-22.93-4.96-6.98-3.29-12.62-7.77-16.76-13.32-4.17-5.57-6.28-11.72-6.28-18.26s1.97-12.34,5.85-17.91c3.64-5.22,8.8-9.77,15.35-13.54-6.62-3.51-11.55-7.34-14.67-11.42-3.35-4.36-5.04-9.45-5.04-15.12,0-6.42,1.94-12.45,5.77-17.91,3.81-5.43,9.03-9.83,15.52-13.08,6.48-3.24,13.62-4.88,21.21-4.88s14.43,1.62,20.64,4.8c6.21,3.19,11.21,7.6,14.86,13.09,3.66,5.52,5.51,11.62,5.51,18.14,0,5.97-1.4,11.23-4.17,15.64-2.55,4.06-6.84,7.63-12.74,10.61,5.47,2.24,10.13,5.93,13.87,10.99,4.11,5.57,6.19,11.77,6.19,18.42,0,7.4-1.79,14.13-5.33,20.02-3.54,5.9-8.57,10.53-14.96,13.79-6.37,3.24-13.73,4.89-21.88,4.89ZM96.31,36.3c-7.36,0-14.27,1.59-20.54,4.73-6.27,3.13-11.3,7.37-14.96,12.6-3.65,5.2-5.5,10.94-5.5,17.05,0,5.33,1.59,10.11,4.73,14.21,3.17,4.14,8.35,8.06,15.4,11.63.25.13.41.38.41.66,0,.28-.15.54-.39.67-6.93,3.79-12.34,8.43-16.06,13.77-3.7,5.31-5.58,11.05-5.58,17.05s2.01,12.05,5.98,17.36c3.99,5.35,9.45,9.67,16.2,12.86,6.77,3.2,14.27,4.82,22.29,4.82s15.04-1.59,21.2-4.72c6.14-3.12,10.97-7.57,14.36-13.22,3.39-5.65,5.11-12.13,5.11-19.25,0-6.32-1.99-12.22-5.9-17.53-3.92-5.32-8.9-9.05-14.8-11.08-.29-.1-.49-.37-.5-.67-.02-.31.16-.59.43-.72,6.46-3.01,11.06-6.65,13.68-10.82,2.62-4.17,3.94-9.16,3.94-14.84,0-6.22-1.77-12.05-5.26-17.31-3.5-5.28-8.31-9.51-14.3-12.59-5.99-3.08-12.71-4.64-19.95-4.64ZM97.47,139.68c-3.5,0-6.62-1.27-9.29-3.76-2.68-2.5-4.1-5.61-4.21-9.22,0-2.33.66-5.02,1.97-8.03,1.35-3.1,4.75-5.72,10.11-7.77.15-.06.32-.06.47-.02,4.41,1.25,8,3.23,10.68,5.91,2.73,2.73,4.11,5.89,4.11,9.39s-1.42,6.81-4.21,9.49c-2.78,2.67-6.02,4.02-9.63,4.02ZM96.35,112.39c-4.84,1.89-7.88,4.2-9.04,6.88-1.22,2.82-1.84,5.31-1.84,7.41.1,3.22,1.33,5.9,3.74,8.15,2.38,2.23,5.17,3.36,8.27,3.36s6.1-1.21,8.59-3.6c2.52-2.42,3.75-5.16,3.75-8.41s-1.2-5.86-3.67-8.33c-2.44-2.44-5.74-4.28-9.79-5.46ZM97.97,86.34c-.08,0-.16-.01-.24-.04-4.4-1.47-7.93-3.54-10.49-6.15-2.62-2.67-3.94-5.58-3.94-8.64s1.22-5.77,3.64-8.01c2.4-2.22,5.27-3.35,8.54-3.35s6.15,1.16,8.55,3.44c2.41,2.29,3.63,5.01,3.63,8.08,0,2.57-.88,5.21-2.61,7.86-1.7,2.62-3.95,4.86-6.67,6.68-.12.08-.27.13-.42.13ZM95.48,61.65c-2.88,0-5.41.99-7.53,2.95-2.12,1.97-3.16,4.23-3.16,6.91s1.18,5.21,3.51,7.59c2.32,2.38,5.53,4.28,9.54,5.66,2.42-1.66,4.42-3.69,5.95-6.04,1.57-2.4,2.36-4.77,2.36-7.05,0-2.68-1.03-4.97-3.16-7-2.14-2.03-4.6-3.02-7.52-3.02Z"/>
</svg>