<svg width="106" height="131" viewBox="0 0 106 131" fill="none" xmlns="http://www.w3.org/2000/svg">
<path d="M86.7902 73.73C90.8202 79.2 92.8402 85.19 92.8402 91.71C92.8402 99 91.1002 105.54 87.6202 111.34C84.1402 117.14 79.2502 121.64 72.9602 124.84C66.6602 128.04 59.4802 129.64 51.4202 129.64C43.3602 129.64 35.7102 128.01 28.8102 124.75C21.9102 121.49 16.4102 117.13 12.3302 111.66C8.2402 106.19 6.2002 100.26 6.2002 93.85C6.2002 87.44 8.1102 81.84 11.9202 76.37C15.7302 70.9 21.1702 66.24 28.2402 62.37C21.0602 58.73 15.8402 54.78 12.5802 50.52C9.3202 46.27 7.6902 41.38 7.6902 35.86C7.6902 29.56 9.57021 23.74 13.3202 18.38C17.0702 13.02 22.1502 8.74999 28.5602 5.53999C34.9602 2.33999 41.9202 0.73999 49.4302 0.73999C56.9402 0.73999 63.6002 2.30999 69.7202 5.45999C75.8502 8.60999 80.7102 12.89 84.3002 18.3C87.8902 23.71 89.6802 29.62 89.6802 36.03C89.6802 41.89 88.3302 46.96 85.6202 51.27C82.9102 55.58 78.2502 59.28 71.6202 62.37C77.6902 64.47 82.7402 68.25 86.7802 73.72L86.7902 73.73ZM40.5702 29.25C38.3002 31.35 37.1702 33.83 37.1702 36.71C37.1702 39.59 38.4102 42.29 40.9002 44.83C43.3802 47.37 46.7802 49.36 51.0902 50.79C53.7402 49.02 55.8902 46.87 57.5502 44.33C59.2102 41.79 60.0302 39.31 60.0302 36.88C60.0302 34.01 58.9002 31.5 56.6302 29.34C54.3602 27.19 51.6902 26.11 48.5902 26.11C45.4902 26.11 42.8202 27.16 40.5502 29.26L40.5702 29.25ZM59.7102 100.32C62.3602 97.78 63.6902 94.8 63.6902 91.37C63.6902 87.94 62.3902 85.1 59.8002 82.51C57.2002 79.92 53.7502 78.01 49.4502 76.79C44.2602 78.78 41.0302 81.24 39.7602 84.16C38.4902 87.09 37.8502 89.66 37.8502 91.86C37.9602 95.28 39.2802 98.18 41.8302 100.56C44.3702 102.94 47.3002 104.12 50.6102 104.12C53.9202 104.12 57.0702 102.85 59.7202 100.31L59.7102 100.32Z" fill="#9763B9"/>
<path d="M65.7802 83.5799C62.4302 73.8699 50.8602 71.5399 43.0802 77.3099C38.6602 80.5899 37.0802 85.9799 37.8602 91.0899C37.9902 89.0599 38.6102 86.7599 39.7402 84.1699C41.0102 81.2399 44.2402 78.7899 49.4302 76.7999C53.7402 78.0199 57.1902 79.9199 59.7802 82.5199C62.3702 85.1199 63.6702 88.0698 63.6702 91.3798C63.6702 94.6898 62.4202 97.5899 59.9302 100.08C65.1702 96.6399 68.0002 90.0599 65.7702 83.5899L65.7802 83.5799Z" fill="#754799"/>
<path d="M77.2802 116.01C63.7202 125.63 46.5102 126.11 31.3002 120.33C19.3002 115.76 10.9102 105.39 10.3102 92.4699C9.6402 78.0599 22.1402 70.2399 33.3702 64.3099C34.6002 63.6599 34.7102 61.5199 33.3702 60.8999C22.4202 55.8699 13.7502 48.9499 11.4902 36.6299C10.1002 29.0599 12.3002 21.0699 16.5302 14.4299C15.3702 15.6799 14.3002 16.9999 13.3202 18.3999C9.56021 23.7599 7.6902 29.5799 7.6902 35.8799C7.6902 41.3999 9.3202 46.2899 12.5802 50.5399C15.8402 54.7899 21.0602 58.7399 28.2402 62.3899C21.1702 66.2599 15.7302 70.9199 11.9202 76.3899C8.1102 81.8599 6.2002 87.6799 6.2002 93.8699C6.2002 100.06 8.2402 106.21 12.3302 111.68C16.4102 117.15 21.9102 121.51 28.8102 124.77C35.7102 128.03 43.2502 129.66 51.4202 129.66C59.5902 129.66 66.6602 128.06 72.9602 124.86C79.2502 121.66 84.1402 117.16 87.6202 111.36C89.4502 108.3 90.7902 105.03 91.6602 101.56C87.6502 107.04 82.9702 112 77.2902 116.03L77.2802 116.01Z" fill="#754799"/>
<path d="M36.0404 36.1199C36.3404 37.6699 37.0604 39.2999 38.0804 40.8399C37.4704 39.4999 37.1604 38.1199 37.1604 36.6999C37.1604 33.8299 38.2904 31.3399 40.5604 29.2399C42.8204 27.1399 45.5004 26.0899 48.6004 26.0899C51.7004 26.0899 54.3704 27.1699 56.6404 29.3199C58.9004 31.4699 60.0404 33.9899 60.0404 36.8599C60.0404 39.2899 59.2104 41.7799 57.5604 44.3099C57.2004 44.8599 56.8104 45.3699 56.4104 45.8799C59.4804 43.3599 61.1304 38.8499 61.3104 34.9699C61.6004 28.5899 57.0604 22.8099 50.6804 22.0099C42.7204 21.0099 34.3904 27.4699 36.0604 36.0999L36.0404 36.1199Z" fill="#754799"/>
<path d="M78.5399 26.8899C77.9699 22.3299 77.1199 18.9699 73.9799 15.4499C70.7999 11.8799 66.32 9.50994 61.91 7.85994C57.48 6.19994 52.2999 5.92994 47.6699 6.62994C42.0799 7.46994 39.06 9.28994 35.19 13.2599C34.52 13.9499 35.21 14.9299 36.07 14.7699C43.39 13.4799 51.6 12.2399 58.85 14.2999C65.77 16.2699 71.9699 22.4899 76.7599 27.6299C77.3399 28.2499 78.66 27.8199 78.5499 26.8899H78.5399Z" fill="#BE84EC"/>
<path d="M78.1103 32.4499C78.0503 32.7599 77.9503 33.0399 77.8403 33.3299C77.6703 33.7899 77.7003 34.3099 77.7003 34.7899C77.7103 36.0699 78.7603 37.1299 80.0403 37.1299C81.3203 37.1299 82.4003 36.0599 82.3803 34.7899C82.3703 33.5199 81.9403 32.5799 81.0903 31.6499C80.2203 30.7099 78.3503 31.1199 78.1003 32.4399L78.1103 32.4499Z" fill="#BE84EC"/>
<path d="M54.5705 115.22C48.5205 112.58 42.1905 111.54 36.0305 109.23C29.3105 106.72 24.8805 102.11 20.2305 96.9399C19.8805 96.5499 19.1005 96.7299 19.0005 97.2599C17.5705 104.88 24.0105 110.74 29.9605 114.1C37.3305 118.26 46.3305 120.41 54.3205 117.13C55.0405 116.83 55.5105 115.63 54.5705 115.22Z" fill="#BE84EC"/>
<path d="M51.4202 130.4C43.1702 130.4 35.4502 128.73 28.4902 125.44C21.5102 122.15 15.8702 117.67 11.7302 112.12C7.56019 106.55 5.4502 100.4 5.4502 93.86C5.4502 87.32 7.4202 81.52 11.3002 75.95C14.9402 70.73 20.1002 66.18 26.6502 62.41C20.0302 58.9 15.1002 55.07 11.9802 50.99C8.63019 46.63 6.9402 41.54 6.9402 35.87C6.9402 29.45 8.88021 23.42 12.7102 17.96C16.5202 12.53 21.7402 8.13 28.2302 4.88C34.7102 1.64 41.8502 0 49.4402 0C57.0302 0 63.8702 1.62 70.0802 4.8C76.2902 7.99 81.2902 12.4 84.9402 17.89C88.6002 23.41 90.4502 29.51 90.4502 36.03C90.4502 42 89.0502 47.26 86.2802 51.67C83.7302 55.73 79.4402 59.3 73.5402 62.28C79.0102 64.52 83.6702 68.21 87.4102 73.27C91.5202 78.84 93.6002 85.04 93.6002 91.69C93.6002 99.09 91.8102 105.82 88.2702 111.71C84.7302 117.61 79.7002 122.24 73.3102 125.5C66.9402 128.74 59.5802 130.39 51.4302 130.39L51.4202 130.4ZM49.4302 1.50999C42.0702 1.50999 35.1602 3.1 28.8902 6.24C22.6202 9.37 17.5902 13.61 13.9302 18.84C10.2802 24.04 8.43019 29.78 8.43019 35.89C8.43019 41.22 10.0202 46 13.1602 50.1C16.3302 54.24 21.5102 58.16 28.5602 61.73C28.8102 61.86 28.9702 62.11 28.9702 62.39C28.9702 62.67 28.8202 62.93 28.5802 63.06C21.6502 66.85 16.2402 71.49 12.5202 76.83C8.8202 82.14 6.9402 87.88 6.9402 93.88C6.9402 99.88 8.9502 105.93 12.9202 111.24C16.9102 116.59 22.3702 120.91 29.1202 124.1C35.8902 127.3 43.3902 128.92 51.4102 128.92C59.4302 128.92 66.4502 127.33 72.6102 124.2C78.7502 121.08 83.5802 116.63 86.9702 110.98C90.3602 105.33 92.0802 98.85 92.0802 91.73C92.0802 85.41 90.0902 79.51 86.1802 74.2C82.2602 68.88 77.2802 65.15 71.3802 63.12C71.0902 63.02 70.8902 62.75 70.8802 62.45C70.8602 62.14 71.0402 61.86 71.3102 61.73C77.7702 58.72 82.3702 55.08 84.9902 50.91C87.6102 46.74 88.9302 41.75 88.9302 36.07C88.9302 29.85 87.1602 24.02 83.6702 18.76C80.1702 13.48 75.3602 9.25 69.3702 6.17C63.3802 3.09 56.6602 1.53 49.4202 1.53L49.4302 1.50999ZM50.5902 104.89C47.0902 104.89 43.9702 103.62 41.3002 101.13C38.6202 98.63 37.2002 95.52 37.0902 91.91C37.0902 89.58 37.7502 86.89 39.0602 83.88C40.4102 80.78 43.8102 78.16 49.1702 76.11C49.3202 76.05 49.4902 76.05 49.6402 76.09C54.0502 77.34 57.6402 79.32 60.3202 82C63.0502 84.73 64.4302 87.89 64.4302 91.39C64.4302 94.89 63.0102 98.2 60.2202 100.88C57.4402 103.55 54.2002 104.9 50.5902 104.9V104.89ZM49.4702 77.59C44.6302 79.48 41.5902 81.79 40.4302 84.47C39.2102 87.29 38.5902 89.78 38.5902 91.88C38.6902 95.1 39.9202 97.78 42.3302 100.03C44.7102 102.26 47.5002 103.39 50.6002 103.39C53.7002 103.39 56.7002 102.18 59.1902 99.79C61.7102 97.37 62.9402 94.63 62.9402 91.38C62.9402 88.13 61.7402 85.52 59.2702 83.05C56.8302 80.61 53.5302 78.77 49.4802 77.59H49.4702ZM51.0902 51.54C51.0102 51.54 50.9302 51.53 50.8502 51.5C46.4502 50.03 42.9202 47.96 40.3602 45.35C37.7402 42.68 36.4202 39.77 36.4202 36.71C36.4202 33.65 37.6402 30.94 40.0602 28.7C42.4602 26.48 45.3302 25.35 48.6002 25.35C51.8702 25.35 54.7502 26.51 57.1502 28.79C59.5602 31.08 60.7802 33.8 60.7802 36.87C60.7802 39.44 59.9002 42.08 58.1702 44.73C56.4702 47.35 54.2202 49.59 51.5002 51.41C51.3802 51.49 51.2302 51.54 51.0802 51.54H51.0902ZM48.6102 26.85C45.7302 26.85 43.2002 27.84 41.0802 29.8C38.9602 31.77 37.9202 34.03 37.9202 36.71C37.9202 39.39 39.1002 41.92 41.4302 44.3C43.7502 46.68 46.9602 48.58 50.9702 49.96C53.3902 48.3 55.3902 46.27 56.9202 43.92C58.4902 41.52 59.2802 39.15 59.2802 36.87C59.2802 34.19 58.2502 31.9 56.1202 29.87C53.9802 27.84 51.5202 26.85 48.6002 26.85H48.6102Z" fill="#754799"/>
</svg>
