<?xml version="1.0" encoding="UTF-8"?>
<svg id="NUMEROS_TORIBIO" data-name="NUMEROS TORIBIO" xmlns="http://www.w3.org/2000/svg" viewBox="0 0 200 200">
  <defs>
    <style>
      .cls-1 {
        fill: #fd4a5f;
      }

      .cls-1, .cls-2, .cls-3, .cls-4 {
        stroke-width: 0px;
      }

      .cls-2 {
        fill: #ffed84;
      }

      .cls-3 {
        fill: #f7aa0a;
      }

      .cls-4 {
        fill: #fdc605;
      }
    </style>
  </defs>
  <path class="cls-1" d="M69.68,37.13l23.53,2.49v123.26h-36.28v-91.12h-23.36v-34.63h36.12Z"/>
  <path class="cls-4" d="M69.68,37.13l23.53,2.49v123.26h-36.28v-91.12h-23.36v-34.63h36.12Z"/>
  <path class="cls-3" d="M93.2,39.61l-11.18-1.18c1.55,1.26,2.81,2.9,3.6,5.13,2.02,5.67,1.43,12.39,1.19,18.29-.63,15.2-.3,30.51-.52,45.74-.12,8.33.03,16.66-.09,25-.11,7.4,1.05,17.02-4.52,22.7-4.71,4.79-11.71,5.66-18.03,7.58h29.56V39.61Z"/>
  <g>
    <path class="cls-2" d="M41.33,49.57c3.31,2.44,8.1,1.9,12.01,1.74,2.24-.09,4.58.22,6.79-.2,2.61-.5,4.31-1.71,6.76-2.64.81-.31,1.01-1.33.24-1.83-4.94-3.22-7.73-4.09-13.78-3.59-4.44.37-9.68,1.02-12.46,4.83-.43.58-.05,1.32.44,1.69h0Z"/>
    <path class="cls-2" d="M70.46,49.9s.06.07.08.11c-.26-.45-.52-.9-.78-1.34.59,1.73,2.35,2.79,4.17,2.61,1.48-.15,2.77-.9,3.19-2.43.36-1.31-.19-3.13-1.52-3.73-1.08-.49-1.86-.65-3.07-.47-.17.03-.33.06-.5.12-.55.15-1.02.43-1.42.83-.62.8-.67.87-.15.21-1.14,1.3-1.03,2.79,0,4.1h0Z"/>
  </g>
  <path class="cls-3" d="M93.2,163.62h-36.28c-.41,0-.75-.34-.75-.75v-90.37h-22.61c-.41,0-.75-.34-.75-.75v-34.63c0-.41.34-.75.75-.75h36.12l23.6,2.49c.38.04.67.36.67.75v123.26c0,.41-.34.75-.75.75ZM57.67,162.12h34.78V40.29l-22.85-2.41h-35.29v33.13h22.61c.41,0,.75.34.75.75v90.37Z"/>
  <path class="cls-1" d="M143.68,37.13l23.53,2.49v123.26h-36.28v-91.12h-23.36v-34.63h36.12Z"/>
  <path class="cls-4" d="M143.68,37.13l23.53,2.49v123.26h-36.28v-91.12h-23.36v-34.63h36.12Z"/>
  <path class="cls-3" d="M167.2,39.19l-11.18-1.19c1.55,1.26,2.81,2.91,3.6,5.15,2.02,5.69,1.43,12.43,1.19,18.36-.63,15.26-.3,30.62-.52,45.89-.12,8.36.03,16.72-.09,25.08-.11,7.42,1.05,17.08-4.52,22.78-4.71,4.81-11.71,5.67-18.03,7.61h29.56V39.19Z"/>
  <g>
    <path class="cls-2" d="M115.33,49.57c3.31,2.44,8.1,1.9,12.01,1.74,2.24-.09,4.58.22,6.79-.2,2.61-.5,4.31-1.71,6.76-2.64.81-.31,1.01-1.33.24-1.83-4.94-3.22-7.73-4.09-13.78-3.59-4.44.37-9.68,1.02-12.46,4.83-.43.58-.05,1.32.44,1.69h0Z"/>
    <path class="cls-2" d="M144.46,49.9s.06.07.08.11c-.26-.45-.52-.9-.78-1.34.59,1.73,2.35,2.79,4.17,2.61,1.48-.15,2.77-.9,3.19-2.43.36-1.31-.19-3.13-1.52-3.73-1.08-.49-1.86-.65-3.07-.47-.17.03-.33.06-.5.12-.55.15-1.02.43-1.42.83-.62.8-.67.87-.15.21-1.14,1.3-1.03,2.79,0,4.1h0Z"/>
  </g>
  <path class="cls-3" d="M167.2,163.62h-36.28c-.41,0-.75-.34-.75-.75v-90.37h-22.61c-.41,0-.75-.34-.75-.75v-34.63c0-.41.34-.75.75-.75h36.12l23.6,2.49c.38.04.67.36.67.75v123.26c0,.41-.34.75-.75.75ZM131.67,162.12h34.78V40.29l-22.85-2.41h-35.29v33.13h22.61c.41,0,.75.34.75.75v90.37Z"/>
</svg>