<svg width="180" height="128" viewBox="0 0 180 128" fill="none" xmlns="http://www.w3.org/2000/svg">
<path d="M59.3707 0.76001L82.9007 3.25002V126.51H46.6207V35.39H23.2607V0.76001H59.3807H59.3707Z" fill="#FD4A5F"/>
<path d="M59.3707 0.76001L82.9007 3.25002V126.51H46.6207V35.39H23.2607V0.76001H59.3807H59.3707Z" fill="#F8B334"/>
<path d="M82.8908 3.24006L71.7108 2.06006C73.2608 3.32006 74.5208 4.96006 75.3108 7.19006C77.3308 12.8601 76.7408 19.5801 76.5008 25.4801C75.8708 40.6801 76.2008 55.9901 75.9808 71.2201C75.8608 79.5501 76.0108 87.8801 75.8908 96.2201C75.7808 103.62 76.9408 113.24 71.3708 118.92C66.6608 123.71 59.6608 124.58 53.3408 126.5H82.9008V3.24006H82.8908Z" fill="#E1A022"/>
<path d="M31.0208 13.2C34.3308 15.64 39.1208 15.1 43.0308 14.94C45.2708 14.85 47.6108 15.16 49.8208 14.74C52.4308 14.24 54.1308 13.03 56.5808 12.1C57.3908 11.79 57.5908 10.77 56.8208 10.27C51.8808 7.05 49.0908 6.18001 43.0408 6.68001C38.6008 7.05001 33.3608 7.7 30.5808 11.51C30.1508 12.09 30.5308 12.83 31.0208 13.2Z" fill="#F7CF8F"/>
<path d="M60.1512 13.53C60.1512 13.53 60.2112 13.6 60.2312 13.64C59.9712 13.19 59.7112 12.74 59.4512 12.3C60.0412 14.03 61.8012 15.09 63.6212 14.91C65.1012 14.76 66.3912 14.01 66.8112 12.48C67.1712 11.17 66.6212 9.35003 65.2912 8.75003C64.2112 8.26003 63.4312 8.10003 62.2212 8.28003C62.0512 8.31003 61.8912 8.34003 61.7212 8.40003C61.1712 8.55003 60.7012 8.83003 60.3012 9.23003C59.6812 10.03 59.6312 10.1 60.1512 9.44003C59.0112 10.74 59.1212 12.23 60.1512 13.54V13.53Z" fill="#F7CF8F"/>
<path d="M82.891 127.25H46.611C46.201 127.25 45.861 126.91 45.861 126.5V36.13H23.251C22.841 36.13 22.501 35.79 22.501 35.38V0.75C22.501 0.34 22.841 0 23.251 0H59.371L82.971 2.49C83.351 2.53 83.641 2.85 83.641 3.24V126.5C83.641 126.91 83.301 127.25 82.891 127.25ZM47.361 125.75H82.141V3.92L59.291 1.50999H24.001V34.64H46.611C47.021 34.64 47.361 34.98 47.361 35.39V125.76V125.75Z" fill="#FD8329"/>
<path d="M133.371 0.76001L156.901 3.25002V126.51H120.621V35.39H97.2607V0.76001H133.381H133.371Z" fill="#FD4A5F"/>
<path d="M133.371 0.76001L156.901 3.25002V126.51H120.621V35.39H97.2607V0.76001H133.381H133.371Z" fill="#F8B334"/>
<path d="M156.891 3.24006L145.711 2.06006C147.261 3.32006 148.521 4.96006 149.311 7.19006C151.331 12.8601 150.741 19.5801 150.501 25.4801C149.871 40.6801 150.201 55.9901 149.981 71.2201C149.861 79.5501 150.011 87.8801 149.891 96.2201C149.781 103.62 150.941 113.24 145.371 118.92C140.661 123.71 133.661 124.58 127.341 126.5H156.901V3.24006H156.891Z" fill="#E1A022"/>
<path d="M105.021 13.2C108.331 15.64 113.121 15.1 117.031 14.94C119.271 14.85 121.611 15.16 123.821 14.74C126.431 14.24 128.131 13.03 130.581 12.1C131.391 11.79 131.591 10.77 130.821 10.27C125.881 7.05 123.091 6.18001 117.041 6.68001C112.601 7.05001 107.361 7.7 104.581 11.51C104.151 12.09 104.531 12.83 105.021 13.2Z" fill="#F7CF8F"/>
<path d="M134.151 13.53C134.151 13.53 134.211 13.6 134.231 13.64C133.971 13.19 133.711 12.74 133.451 12.3C134.041 14.03 135.801 15.09 137.621 14.91C139.101 14.76 140.391 14.01 140.811 12.48C141.171 11.17 140.621 9.35003 139.291 8.75003C138.211 8.26003 137.431 8.10003 136.221 8.28003C136.051 8.31003 135.891 8.34003 135.721 8.40003C135.171 8.55003 134.701 8.83003 134.301 9.23003C133.681 10.03 133.631 10.1 134.151 9.44003C133.011 10.74 133.121 12.23 134.151 13.54V13.53Z" fill="#F7CF8F"/>
<path d="M156.891 127.25H120.611C120.201 127.25 119.861 126.91 119.861 126.5V36.13H97.251C96.841 36.13 96.501 35.79 96.501 35.38V0.75C96.501 0.34 96.841 0 97.251 0H133.371L156.971 2.49C157.351 2.53 157.641 2.85 157.641 3.24V126.5C157.641 126.91 157.301 127.25 156.891 127.25ZM121.361 125.75H156.141V3.92L133.291 1.50999H98.001V34.64H120.611C121.021 34.64 121.361 34.98 121.361 35.39V125.76V125.75Z" fill="#FD8329"/>
</svg>
