<svg width="106" height="128" viewBox="0 0 106 128" fill="none" xmlns="http://www.w3.org/2000/svg">
<path d="M60.0241 1.4751L83.5541 3.9651V127.225H47.2741V36.1051H23.9141V1.4751H60.0341H60.0241Z" fill="#FF6779"/>
<path d="M60.0241 1.4751L83.5541 3.9651V127.225H47.2741V36.1051H23.9141V1.4751H60.0341H60.0241Z" fill="#E54A35"/>
<path d="M83.5539 3.96492L72.3739 2.78491C73.9239 4.04491 75.1839 5.68492 75.9739 7.91492C77.9939 13.5849 77.4039 20.3049 77.1639 26.2049C76.5339 41.4049 76.8639 56.7149 76.6439 71.9449C76.5239 80.2749 76.6739 88.6049 76.5539 96.9449C76.4439 104.345 77.6039 113.965 72.0339 119.645C67.3239 124.435 60.3239 125.305 54.0039 127.225H83.5639V3.96492H83.5539Z" fill="#AF322C"/>
<path d="M31.6839 13.9249C34.9939 16.3649 39.7839 15.8249 43.6939 15.6649C45.9339 15.5749 48.2739 15.8849 50.4839 15.4649C53.0939 14.9649 54.7939 13.7549 57.2439 12.8249C58.0539 12.5149 58.2539 11.4949 57.4839 10.9949C52.5439 7.77486 49.7539 6.90486 43.7039 7.40486C39.2639 7.77486 34.0239 8.42486 31.2439 12.2349C30.8139 12.8149 31.1939 13.5549 31.6839 13.9249Z" fill="#FF6E83"/>
<path d="M60.8133 14.255C60.8133 14.255 60.8733 14.325 60.8933 14.365C60.6333 13.915 60.3733 13.465 60.1133 13.025C60.7033 14.755 62.4633 15.815 64.2833 15.635C65.7633 15.485 67.0533 14.735 67.4733 13.205C67.8333 11.895 67.2833 10.075 65.9533 9.47501C64.8733 8.98501 64.0933 8.82501 62.8833 9.00501C62.7133 9.03501 62.5533 9.06502 62.3833 9.12502C61.8333 9.27502 61.3633 9.55502 60.9633 9.95502C60.3433 10.755 60.2933 10.825 60.8133 10.165C59.6733 11.465 59.7833 12.955 60.8133 14.265V14.255Z" fill="#FF6E83"/>
<path d="M83.5541 127.975H47.2741C46.8641 127.975 46.5241 127.635 46.5241 127.225V36.8551H23.9141C23.5041 36.8551 23.1641 36.5151 23.1641 36.1051V1.4751C23.1641 1.0651 23.5041 0.725098 23.9141 0.725098H60.0341L83.6341 3.2151C84.0141 3.2551 84.3041 3.5751 84.3041 3.9651V127.225C84.3041 127.635 83.9641 127.975 83.5541 127.975ZM48.0241 126.475H82.8041V4.6451L59.9541 2.23511H24.6641V35.3651H47.2741C47.6841 35.3651 48.0241 35.7051 48.0241 36.1151V126.485V126.475Z" fill="#EA435B"/>
</svg>
