<?xml version="1.0" encoding="utf-8"?>
<!-- Generator: Adobe Illustrator 25.0.0, SVG Export Plug-In . SVG Version: 6.00 Build 0)  -->
<svg version="1.1" id="elelmentos" xmlns="http://www.w3.org/2000/svg" xmlns:xlink="http://www.w3.org/1999/xlink" x="0px" y="0px"
	 viewBox="0 0 800 800" style="enable-background:new 0 0 800 800;" xml:space="preserve">
<style type="text/css">
	.st0{fill:#80CCF3;}
	.st1{clip-path:url(#SVGID_2_);}
	.st2{fill:url(#SVGID_3_);}
	.st3{fill:url(#SVGID_4_);}
	.st4{fill:#3BB244;}
	.st5{fill:#1E8B2A;}
	.st6{clip-path:url(#SVGID_6_);}
	.st7{fill:#E89C62;}
	.st8{fill:#CE814D;}
	.st9{fill:#F18951;}
	.st10{fill:#492A08;}
	.st11{fill:#312E31;}
	.st12{fill:#FFFFFF;}
	.st13{fill:#1D1E1C;}
	.st14{fill:#F6AF00;}
	.st15{fill:#F1F1F1;}
	.st16{fill:#333333;}
	.st17{fill:#1A1A1A;}
	.st18{fill:#8E56F1;}
	.st19{fill:#4ABBF1;}
	.st20{fill:#30D848;}
	.st21{fill:#259332;}
	.st22{fill:#45FF67;}
	.st23{fill:#263238;}
	.st24{fill:#B9BAB9;}
	.st25{fill:#FF725E;}
	.st26{fill:#E0E0E0;}
	.st27{fill:#3E5B65;}
	.st28{opacity:0.3;}
	.st29{fill:#FFDE17;}
	.st30{fill:#FFF22B;}
	.st31{fill:#6D6E71;}
	.st32{fill:#595957;}
	.st33{fill:#D7D5D5;}
	.st34{fill:none;stroke:#1A1A1A;stroke-width:1.6001;stroke-miterlimit:10;}
	.st35{fill:#9E0000;}
	.st36{clip-path:url(#SVGID_8_);}
	.st37{fill:#666060;}
	.st38{fill:#680000;}
	.st39{opacity:0.5;fill:#9E0000;}
	.st40{opacity:0.7;fill:#666060;}
	.st41{clip-path:url(#SVGID_6_);fill:#FFF22B;}
	.st42{fill:#FFE821;}
	.st43{opacity:0.5;fill:#808080;}
	.st44{fill:#E6E7E8;}
	.st45{fill:#414042;}
	.st46{fill:#58595B;}
	.st47{fill:#808285;}
	.st48{fill:#D1D3D4;}
	.st49{fill:#BCBEC0;}
	.st50{fill:#004B78;}
	.st51{fill:#006496;}
	.st52{fill:#939598;}
	.st53{opacity:0.5;fill:#FFFFFF;}
	.st54{fill:#166E98;}
	.st55{clip-path:url(#SVGID_10_);}
	.st56{fill:#47547C;}
	.st57{opacity:0.5;fill:#2B2B3F;}
	.st58{fill:#3D2412;}
	.st59{fill:#BA7038;}
	.st60{fill:#EB5F00;}
	.st61{fill:none;stroke:#DC831E;stroke-width:3.6166;stroke-miterlimit:10;}
	.st62{fill:#A35D2E;}
	.st63{fill:#EB3B00;}
	.st64{fill:#422918;}
	.st65{fill:#80ABBD;}
	.st66{fill:#4B7195;}
	.st67{opacity:0.4;fill:#5A93A0;}
	.st68{fill:none;stroke:#FFFFFF;stroke-width:10.2281;stroke-miterlimit:10;}
	.st69{opacity:0.4;fill:#A3D5E6;}
	.st70{fill:#C33E5D;}
	.st71{fill:#0C8068;}
	.st72{fill:none;stroke:#0A6D53;stroke-width:1.004;stroke-miterlimit:10;}
	.st73{opacity:0.5;fill:#0A6D53;}
	.st74{fill:#159A7A;}
	.st75{fill:none;stroke:#0C8068;stroke-width:1.004;stroke-miterlimit:10;}
	.st76{opacity:0.5;fill:#0C8068;}
	.st77{fill:#EBA154;}
	.st78{fill:#DC831E;}
	.st79{fill:#49496B;}
	.st80{fill:#323247;}
	.st81{fill:#B83D5D;}
	.st82{fill:#64648E;}
	.st83{fill:#FD783D;}
	.st84{fill:none;stroke:#E85481;stroke-width:1.512;stroke-miterlimit:10;}
	.st85{fill:none;stroke:#E85481;stroke-width:1.512;stroke-miterlimit:10;stroke-dasharray:7.6674,7.6674;}
	.st86{fill:none;stroke:#E85481;stroke-width:1.512;stroke-miterlimit:10;stroke-dasharray:5.6557,5.6557;}
	.st87{fill:none;stroke:#E85481;stroke-width:1.512;stroke-miterlimit:10;stroke-dasharray:5.1346,5.1346;}
	.st88{clip-path:url(#SVGID_12_);}
	.st89{clip-path:url(#SVGID_14_);fill:url(#SVGID_15_);}
	.st90{clip-path:url(#SVGID_14_);fill:url(#SVGID_16_);}
	.st91{clip-path:url(#SVGID_14_);fill:url(#SVGID_17_);}
	.st92{clip-path:url(#SVGID_14_);}
	.st93{fill:#FFFDFF;}
	.st94{fill:#EECC42;}
	.st95{fill:#C2C2C2;}
	.st96{clip-path:url(#SVGID_12_);fill:#EECC42;}
	.st97{fill:#231308;}
	.st98{fill:#310137;}
	.st99{fill:#D58A66;}
	.st100{fill:#C17E5C;}
	.st101{fill:#E89CAA;}
	.st102{fill:#B97C88;}
	.st103{fill:#1D1D1B;}
	.st104{fill:#E37657;}
	.st105{fill:none;}
	.st106{fill:#E8005B;}
	.st107{opacity:0.2;}
	.st108{fill:#EB996E;}
	.st109{fill:#FAFAFA;}
	.st110{fill:#D9B534;}
	.st111{fill:#63C140;}
	.st112{fill:#FFEE17;}
	.st113{fill:#EAA877;}
	.st114{fill:#31DB52;}
	.st115{fill:#587C07;}
	.st116{fill:#BA702D;}
	.st117{fill:#A3591C;}
	.st118{fill:#FFE8D6;}
	.st119{fill:#F4C6A1;}
	.st120{opacity:0.41;fill:#F4C6A1;}
	.st121{clip-path:url(#SVGID_19_);}
	.st122{fill:#0A8E4F;}
	.st123{fill:#7FDD7F;}
	.st124{fill:#0FA391;}
	.st125{fill:#0E7A6A;}
	.st126{fill:#80AF35;}
	.st127{fill:#689127;}
	.st128{fill:#FBED21;}
	.st129{fill:#F9C623;}
	.st130{fill:#DAD9D9;}
	.st131{fill:#A41726;}
	.st132{fill:#C2333B;}
	.st133{fill:#D5AB28;}
	.st134{fill:#F1CD30;}
	.st135{clip-path:url(#SVGID_21_);fill:#283135;}
	.st136{clip-path:url(#SVGID_21_);fill:#DC5152;}
	.st137{fill:none;stroke:#283135;stroke-width:1.8583;stroke-miterlimit:10;}
	.st138{fill:#C93D45;}
	.st139{fill:#DC5152;}
</style>
<circle class="st14" cx="408.9" cy="444.66" r="316.81"/>
<g>
	<defs>
		<path id="SVGID_9_" d="M723.81,449.57c0,174.97-141.84,316.81-316.81,316.81S90.2,624.53,90.2,449.57S225.03,55,400,55
			S723.81,274.6,723.81,449.57z"/>
	</defs>
	<clipPath id="SVGID_2_">
		<use xlink:href="#SVGID_9_"  style="overflow:visible;"/>
	</clipPath>
	<g class="st1">
		<g>
			<path class="st56" d="M785.44,624.78v2.56c0,7.82-6.35,14.16-14.17,14.16H46.73c-6.59,0-12.13-4.5-13.71-10.58
				c0-0.01,0-0.02-0.01-0.03c-0.29-1.14-0.44-2.33-0.44-3.54v-2.56c0-7.82,6.34-14.16,14.17-14.16h724.54
				C779.09,610.62,785.44,616.96,785.44,624.78z"/>
			<path class="st57" d="M785.44,624.78v2.56c0,7.82-6.35,14.16-14.17,14.16H46.73c-6.59,0-12.13-4.5-13.71-10.58
				c0-0.01,0-0.02-0.01-0.03c-0.3-2.27-0.44-3.54-0.44-3.54c406.29,14.16,738.71-16.72,738.71-16.72
				C779.09,610.62,785.44,616.96,785.44,624.78z"/>
		</g>
		<g>
			<path class="st58" d="M410.65,553.53c0,0-21.95-15.68-22.29-46.05c0,0-7.1,17.9,2.31,34.56c0,0-15.78-6.58-14.96-38.33
				c0,0,8.9,46.95,1.99,49.82c0,0-4.67-42.69-11.25-46.05c0,0-7.78,23.07,0,35.13c0,0-15.56-8.59-17.96-27.28
				c0,0,6.21,32.45-2.4,38.19c0,0,0.57-19.53-6.89-28.15c0,0-9.19,14.36,1.15,35.04c0,0-22.89-13.88-18.34-41.12
				c0,0,1.78,29.63-7.17,31.93c0,0,0.44-19.05-6.56-31.93c0,0-9.09,25.04,0,41.12c0,0-21.36-5.75-12-77.97l8.45-103
				c0,0,0.84-42.87,4.72-42.87c3.71,0,11.83-0.57,11.83-0.57s20.51,67.71,89.38,74.64C410.65,410.65,397.66,487.89,410.65,553.53z"
				/>
			<path class="st58" d="M460.99,406.14c70.4-22.82,74.12-73.3,74.12-73.3s8.9,0.57,12.97,0.57c4.25,0,5.17,42.87,5.17,42.87
				l9.27,103c10.26,72.23-13.16,77.97-13.16,77.97c9.97-16.09,0-41.12,0-41.12c-7.67,12.88-7.19,31.93-7.19,31.93
				c-9.82-2.3-7.87-31.93-7.87-31.93c4.99,27.24-20.11,41.12-20.11,41.12c11.34-20.68,1.26-35.04,1.26-35.04
				c-8.19,8.62-7.56,28.15-7.56,28.15c-9.45-5.74-2.63-38.19-2.63-38.19c-2.63,18.68-19.7,27.28-19.7,27.28
				c8.53-12.06,0-35.13,0-35.13s-6.28,8.58-4.79,21.35c0,0-21.19-15.72-8.91-42.84c12.28-27.12-9.71-47.8-9.71-47.8L460.99,406.14z"
				/>
			<rect x="407.67" y="373.95" class="st59" width="53.87" height="67.44"/>
			<path class="st60" d="M621.49,608.91l-394.17,0.41c0,0,7.35-15.38,17.94-35.77c0.78-1.51,1.59-3.05,2.41-4.62
				c14.45-27.57,33.9-62.4,49.08-81.29c17.48-21.75,58.78-37.25,86.84-45.73c16.35-4.93,28.19-7.47,28.19-7.47h45.28
				c0,0,10.63,2.28,25.65,6.73c28.03,8.28,69.93,25.28,89.37,46.47c4.27,4.65,8.28,10.28,12.04,16.53
				C608.04,543.92,621.49,608.91,621.49,608.91z"/>
			<path class="st59" d="M482.71,441.16c-48.79,53.68-99.12,0.76-99.12,0.76c16.35-4.94,28.19-7.49,28.19-7.49h45.28
				C457.06,434.44,467.69,436.72,482.71,441.16z"/>
			<g>
				<line class="st61" x1="326.87" y1="548.17" x2="326.87" y2="609.39"/>
				<line class="st61" x1="326.87" y1="587.19" x2="310.43" y2="566.23"/>
			</g>
			<g>
				<line class="st61" x1="541.22" y1="548.17" x2="541.22" y2="609.39"/>
				<line class="st61" x1="541.22" y1="587.19" x2="555.82" y2="568.58"/>
			</g>
			<path class="st61" d="M381.25,465.22c0,0,60.5,41.32,101.46-2.01"/>
			<g>
				<g>
					
						<ellipse transform="matrix(0.9941 -0.1084 0.1084 0.9941 -29.9662 60.7619)" class="st62" cx="543.95" cy="306.03" rx="34.17" ry="33.85"/>
					<rect x="544.53" y="335.86" class="st63" width="6.21" height="8.5"/>
				</g>
				<g>
					<ellipse class="st62" cx="312.99" cy="306.03" rx="34.17" ry="33.85"/>
					<rect x="306.77" y="335.86" class="st63" width="6.21" height="8.5"/>
				</g>
				<g>
					<path class="st59" d="M438.85,413.14h-20.5c-58.42,0-105.78-47.36-105.78-105.78v-70.96c0-58.42,47.36-105.78,105.78-105.78
						h20.5c58.42,0,105.78,47.36,105.78,105.78v70.96C544.63,365.79,497.27,413.14,438.85,413.14z"/>
					<path class="st9" d="M376.36,334.67c0,10.06-9.77,18.21-21.83,18.21c-12.06,0-21.83-8.15-21.83-18.21
						c0-10.06,9.77-18.21,21.83-18.21S376.36,324.62,376.36,334.67z"/>
					<path class="st9" d="M525.21,334.67c0,10.06-9.77,18.21-21.83,18.21c-12.06,0-21.83-8.15-21.83-18.21
						c0-10.06,9.77-18.21,21.83-18.21C515.44,316.46,525.21,324.62,525.21,334.67z"/>
				</g>
				<path class="st64" d="M479.24,129.57c0,0-9.64-33.85,0-35.51c9.64-1.66,5.83,27.86,5.83,27.86s6.32-18.76,15.52-13.79
					C509.78,113.11,491.33,129.47,479.24,129.57z"/>
				<g>
					<path class="st58" d="M430.61,196.79c0,0-7.71,57.41-135.71,82.73l0,0c0,0-13.2-154.09,131.5-159.19
						C437.01,119.95,430.61,178.16,430.61,196.79z"/>
					<path class="st58" d="M421.89,188.74c0,0,11.7,65.46,139.69,90.78l-0.29-9.53c0,0,12.54-149.67-126.47-149.66
						C424.2,120.33,421.89,170.11,421.89,188.74z"/>
					<path class="st63" d="M294.9,277.21c0,0,3.93-132.52,135.71-128.26c131.78,4.26,130.97,130.57,130.97,130.57l-8.67-6.39
						c0,0-8.61-100.02-115.14-98.6C331.26,175.95,294.9,277.21,294.9,277.21z"/>
				</g>
				<path class="st11" d="M429.6,323.47c-2.48,1.37-4.93,2.69-7.23,4.16c-1.12,0.76-2.26,1.51-3.18,2.4
					c-0.93,0.85-1.73,1.86-1.78,2.73c-0.1,0.82,0.47,1.69,1.5,2.53c0.92,0.85,1.99,1.5,3.16,1.84c2.37,0.67,5.14-0.15,7.52-1.64
					c-1.71,2.19-4.65,3.89-7.88,3.42c-1.6-0.2-3.02-1.01-4.23-1.94c-1.12-0.81-2.59-2.39-2.4-4.44c0.28-1.96,1.53-3.17,2.64-4.14
					c1.18-0.95,2.44-1.7,3.74-2.32C424.07,324.82,426.79,323.94,429.6,323.47z"/>
				<path class="st11" d="M412.75,358.44c2.58,1.91,5.34,3.47,8.14,4.74c2.83,1.23,5.79,2.08,8.78,2.19
					c2.98,0.18,5.99-0.42,8.72-1.76c1.45-0.53,2.67-1.49,4.02-2.28c1.32-0.85,2.44-1.96,3.78-2.89c-0.94,1.28-1.92,2.58-3.04,3.76
					c-1.24,1.05-2.39,2.27-3.91,3.01c-1.39,0.96-3.01,1.44-4.62,2c-1.66,0.31-3.36,0.6-5.06,0.48c-3.4-0.17-6.67-1.24-9.51-2.9
					C417.21,363.14,414.7,360.99,412.75,358.44z"/>
				<path class="st13" d="M378.26,298.25c0,6.78-3.66,12.28-8.17,12.28c-4.51,0-8.17-5.5-8.17-12.28c0-6.78,3.66-12.28,8.17-12.28
					C374.6,285.97,378.26,291.47,378.26,298.25z"/>
				<path class="st13" d="M351.44,271.11c1.68-2.85,4.2-5.26,7.16-6.98c2.97-1.71,6.49-2.71,10.01-2.56c3.51,0.2,6.93,1.2,9.85,2.97
					c1.5,0.8,2.77,1.96,4.11,2.94c1.19,1.18,2.34,2.38,3.41,3.63c-1.47-0.81-2.83-1.7-4.2-2.55c-1.47-0.69-2.82-1.54-4.29-2.12
					c-2.9-1.26-5.92-2-8.96-2.14c-3.05-0.18-6.09,0.56-8.97,1.73C356.69,267.25,353.98,269,351.44,271.11z"/>
				<path class="st13" d="M497.18,298.25c0,6.78-3.66,12.28-8.17,12.28c-4.51,0-8.17-5.5-8.17-12.28c0-6.78,3.66-12.28,8.17-12.28
					C493.52,285.97,497.18,291.47,497.18,298.25z"/>
				<path class="st13" d="M471.74,275.09c1.68-2.85,4.2-5.26,7.16-6.98c2.97-1.71,6.49-2.71,10.01-2.56c3.51,0.2,6.93,1.2,9.85,2.97
					c1.5,0.8,2.77,1.96,4.11,2.94c1.19,1.18,2.34,2.38,3.41,3.63c-1.47-0.81-2.83-1.7-4.2-2.55c-1.47-0.69-2.82-1.54-4.29-2.12
					c-2.9-1.26-5.92-2-8.96-2.14c-3.05-0.18-6.09,0.56-8.97,1.73C476.99,271.24,474.28,272.98,471.74,275.09z"/>
			</g>
		</g>
		<g>
			<g>
				<path class="st65" d="M478.55,610.6c-0.04,0.01-0.08,0.02-0.13,0.02c-0.32,0.04-0.66,0.05-0.99,0.05H215.05
					c-3.49,0-6.59-1.62-8.61-4.16c-1.51-1.88-2.41-4.28-2.41-6.88l-0.04-0.12l-40.86-115.44c-3.13-8.82,3.41-18.08,12.77-18.08
					h170.35c5.75,0,10.87,3.62,12.78,9.03l44.03,124.39c0.05,0.14,0.07,0.22,0.07,0.22h74.53
					C484.52,599.64,485.28,609.87,478.55,610.6z"/>
				
					<ellipse transform="matrix(0.9456 -0.3252 0.3252 0.9456 -161.9398 115.3923)" class="st12" cx="264.21" cy="542.11" rx="19.75" ry="23.98"/>
				<path class="st66" d="M477.68,599.64h-74.54c0,0-0.02-0.08-0.06-0.22l-44.04-124.39c-1.92-5.41-7.03-9.03-12.78-9.03h-5.69
					c0,0,12.73,0.83,15.91,12.22c3.18,11.38,46.67,132.21,46.67,132.21l3.21,0.24h71.07c0.35,0,0.68-0.01,1-0.04
					C485.29,610,484.56,599.64,477.68,599.64z"/>
			</g>
			<path class="st67" d="M478.55,610.6c-0.04,0.01-0.08,0.02-0.13,0.02c-0.32,0.04-0.66,0.05-0.99,0.05H215.05
				c-3.49,0-6.59-1.62-8.61-4.16C361.52,619.84,346.26,466,346.26,466c5.75,0,10.87,3.62,12.78,9.03l44.03,124.39
				c0.05,0.14,0.07,0.22,0.07,0.22h73.36C477.3,603.27,477.99,606.92,478.55,610.6z"/>
		</g>
		<g>
			
				<ellipse transform="matrix(0.2622 -0.965 0.965 0.2622 -13.3616 567.3557)" class="st68" cx="364.35" cy="292.42" rx="49.67" ry="49.67"/>
			
				<ellipse transform="matrix(0.2669 -0.9637 0.9637 0.2669 78.8036 688.4298)" class="st68" cx="491.92" cy="292.42" rx="49.67" ry="49.67"/>
			<line class="st68" x1="415.02" y1="300.86" x2="441.25" y2="300.86"/>
		</g>
		<g>
			<g>
				<g>
					<g>
						<path class="st66" d="M655.32,560v2.59c-4.68,0.54-5.83,4.49-5.83,9.31v1.59c0,4.82,1.15,8.78,5.83,9.31v2.58h-89.5
							c-3.67,0-6.65-2.98-6.65-6.65v-12.08c0-3.67,2.98-6.66,6.65-6.66H655.32z"/>
						<path class="st12" d="M653.92,580.16c0.54,1.27-0.45,2.65-1.82,2.65l-85.53,0.06v-20.34l85.53,0.06c0.5,0,0.95,0.19,1.28,0.49
							c0.6,0.5,0.87,1.36,0.54,2.17c-0.71,1.69-0.68,4.05-0.68,6.66v1.59C653.24,576.11,653.21,578.46,653.92,580.16z"/>
						<path class="st69" d="M653.39,563.08c-1.64,0.09-77.23,4-82.41,11.34c-1.41,1.99-3,3.1-4.41,3.32v-15.21l85.53,0.06
							C652.6,562.59,653.05,562.78,653.39,563.08z"/>
					</g>
					<path class="st66" d="M570.98,585.39h-7.52c-2.37,0-4.29-1.92-4.29-4.29v-16.8c0-2.37,1.92-4.29,4.29-4.29h7.52V585.39z"/>
					<path class="st69" d="M653.92,580.16c0.54,1.27-0.45,2.65-1.82,2.65l-17.07,0.01c13.56-1.54,12.72-12.69,12.72-12.69
						c0.15-0.54-10.72-7.07-10.53-7.56l14.89,0.01c0.5,0,0.95,0.19,1.28,0.49c0.6,0.5,0.87,1.36,0.54,2.17
						c-0.71,1.69-0.68,4.05-0.68,6.66v1.59C653.24,576.11,653.21,578.46,653.92,580.16z"/>
				</g>
				<g>
					<rect x="571.13" y="571.21" class="st69" width="82.11" height="1.83"/>
					<rect x="571.13" y="567.08" class="st69" width="82.11" height="1.83"/>
					<rect x="571.13" y="576.47" class="st69" width="82.11" height="1.83"/>
				</g>
				<polygon class="st70" points="626.79,579.07 622.42,574.72 618.06,579.07 618.06,567.08 626.79,567.08 				"/>
			</g>
			<g>
				<g>
					<g>
						<path class="st70" d="M664.89,585.3v2.59c-4.68,0.54-5.83,4.49-5.83,9.31v1.59c0,4.82,1.15,8.78,5.83,9.31v2.58h-89.5
							c-3.67,0-6.65-2.98-6.65-6.65v-12.08c0-3.67,2.98-6.66,6.65-6.66H664.89z"/>
						<path class="st12" d="M663.49,605.46c0.54,1.27-0.45,2.65-1.82,2.65l-85.53,0.06v-20.34l85.53,0.06c0.5,0,0.95,0.19,1.28,0.49
							c0.6,0.5,0.87,1.36,0.54,2.17c-0.71,1.69-0.68,4.05-0.68,6.66v1.59C662.81,601.41,662.79,603.76,663.49,605.46z"/>
						<path class="st69" d="M662.96,588.37c-1.64,0.09-77.23,4-82.41,11.34c-1.41,1.99-3,3.1-4.41,3.32v-15.21l85.53,0.06
							C662.18,587.89,662.62,588.08,662.96,588.37z"/>
					</g>
					<path class="st70" d="M580.55,610.69h-7.52c-2.37,0-4.29-1.92-4.29-4.29v-16.8c0-2.37,1.92-4.29,4.29-4.29h7.52V610.69z"/>
					<path class="st69" d="M663.49,605.46c0.54,1.27-0.45,2.65-1.82,2.65l-17.07,0.01c13.56-1.54,12.72-12.69,12.72-12.69
						c0.15-0.54-10.72-7.07-10.53-7.56l14.89,0.01c0.5,0,0.95,0.19,1.28,0.49c0.6,0.5,0.87,1.36,0.54,2.17
						c-0.71,1.69-0.68,4.05-0.68,6.66v1.59C662.81,601.41,662.79,603.76,663.49,605.46z"/>
				</g>
				<g>
					<rect x="580.7" y="596.51" class="st69" width="82.11" height="1.83"/>
					<rect x="580.7" y="592.38" class="st69" width="82.11" height="1.83"/>
					<rect x="580.7" y="601.77" class="st69" width="82.11" height="1.83"/>
				</g>
				<polygon class="st70" points="653.83,605.97 649.22,601.37 644.6,605.97 644.6,593.3 653.83,593.3 				"/>
			</g>
		</g>
		<g>
			<g>
				<path class="st71" d="M157.22,573.2c-6.54,0.49-12.01-1.06-16.58-3.9c-18.44-11.41-22.29-43.6-22.56-46.02
					c0.16,0.74,1.98,4.68,21.15,17.58c1.6,1.08,3.06,2.17,4.39,3.27c0,0,0.02,0.02,0.07,0.05
					C160.41,558.02,157.22,573.2,157.22,573.2z"/>
				<path class="st72" d="M118.08,523.14c0,0,17.22,42.26,36.33,46.71"/>
				<path class="st73" d="M157.22,573.2c-6.54,0.49-12.01-1.06-16.58-3.9c3.67-8.69,2.98-25.18,2.98-25.18s0.02,0.02,0.07,0.05
					C160.41,558.02,157.22,573.2,157.22,573.2z"/>
			</g>
			<g>
				<path class="st71" d="M206.18,525.63c-0.07,0.45-0.33,2.01-0.85,4.31c0,0,0,0,0,0.01c-2.72,12.19-12.54,44.98-38.97,41.69
					c0,0-0.45-2.81,0.45-7.02c1.31-6.19,5.51-15.4,18.29-23.13C204.07,530.02,205.99,526.33,206.18,525.63z"/>
				<path class="st72" d="M205.33,528.24c0,0-13.56,35.14-37.09,42.3"/>
				<path class="st73" d="M205.33,529.94C205.33,529.94,205.33,529.95,205.33,529.94c-2.72,12.19-12.54,44.98-38.97,41.7
					c0,0-0.45-2.81,0.45-7.02h0.03C188.82,565.79,205.33,529.94,205.33,529.94z"/>
			</g>
			<g>
				<path class="st74" d="M164.95,572.81c-0.65,1.13-10.3-2.88-14.65-14.48h0c-2.61-6.97-3.31-16.68,1.01-29.65
					c11.33-34.07,6.66-40.5,6.52-40.68c0.23,0.11,10.08,5,16.43,16.9c0,0,0.01,0.02,0.03,0.05
					C181.26,518.07,183.99,539.7,164.95,572.81z"/>
				<path class="st75" d="M157.82,488c0,0,14.78,18.65,9.15,54.11c-5.63,35.46-2.02,30.7-2.02,30.7"/>
				<path class="st76" d="M164.95,572.81c-0.65,1.13-10.3-2.88-14.65-14.48c24.33,6.91,23.95-53.44,23.95-53.44s0.01,0.02,0.03,0.05
					C181.26,518.07,183.99,539.7,164.95,572.81z"/>
			</g>
			<path class="st71" d="M118.07,523.14c0,0,0,0.04,0.01,0.12C118.07,523.17,118.07,523.14,118.07,523.14z"/>
			<path class="st77" d="M183.65,572.31v27.24c0,7.97-6.46,14.43-14.43,14.43h-12.81c-5.22,0-9.79-2.77-12.32-6.92h0
				c-1.33-2.19-2.1-4.76-2.1-7.51v-27.24H183.65z"/>
			<path class="st77" d="M185.16,568.77h-44.69c-0.59,0-1.06,0.48-1.06,1.06v1.41c0,0.59,0.48,1.06,1.06,1.06h44.69
				c0.59,0,1.06-0.48,1.06-1.06v-1.41C186.23,569.25,185.75,568.77,185.16,568.77z"/>
			<path class="st78" d="M183.65,572.31v27.24c0,7.97-6.46,14.43-14.43,14.43h-12.81c-5.22,0-9.79-2.77-12.32-6.92
				c30.52,9.58,37.14-12.85,35.96-21.75c-1.18-8.9-12.17-12.99-12.17-12.99H183.65z"/>
		</g>
		<g>
			<g>
				<rect x="178.31" y="280.68" class="st79" width="90.59" height="178.02"/>
				<rect x="188.63" y="318.54" class="st12" width="68.02" height="7.22"/>
				<rect x="188.63" y="334.54" class="st12" width="45.02" height="7.22"/>
				<rect x="240.33" y="334.54" class="st77" width="16.31" height="7.22"/>
				<rect x="214.5" y="350.54" class="st77" width="42.15" height="7.22"/>
				<rect x="188.63" y="350.54" class="st12" width="19.74" height="7.22"/>
				<rect x="188.63" y="366.53" class="st12" width="35.95" height="7.22"/>
				<rect x="230.12" y="366.53" class="st77" width="26.53" height="7.22"/>
				<rect x="208.37" y="382.53" class="st77" width="48.28" height="7.22"/>
				<rect x="188.63" y="382.53" class="st12" width="14.59" height="7.22"/>
				<rect x="188.63" y="398.52" class="st12" width="29.19" height="7.22"/>
				<rect x="222.64" y="398.52" class="st77" width="34.01" height="7.22"/>
				<g>
					<g>
						<path class="st77" d="M254.64,441.15v2.03l-7.44,2.83v-1.95l5.21-1.89l-5.21-1.91v-1.94L254.64,441.15z"/>
					</g>
					<g>
						<path class="st77" d="M233.47,438.32v1.94l-5.21,1.91l5.21,1.89v1.95l-7.44-2.83v-2.03L233.47,438.32z"/>
					</g>
					<g>
						<path class="st77" d="M242.27,432.84h2.33l-5.53,15.78h-2.33L242.27,432.84z"/>
					</g>
				</g>
				<g>
					<g>
						<path class="st77" d="M220.46,302.23v2.66l-9.76,3.71v-2.56l6.83-2.48l-6.83-2.5v-2.54L220.46,302.23z"/>
					</g>
					<g>
						<path class="st77" d="M202.52,298.52v2.54l-6.83,2.5l6.83,2.48v2.56l-9.76-3.71v-2.66L202.52,298.52z"/>
					</g>
				</g>
			</g>
			<g>
				<path class="st12" d="M192.67,253.27v12.9h-4.35v-4.76h-4.02v4.76h-4.35v-12.9h4.35v4.57h4.02v-4.57H192.67z"/>
				<path class="st12" d="M197.57,256.65h-3.78v-3.37h11.91v3.37h-3.78v9.53h-4.35V256.65z"/>
				<path class="st12" d="M218.34,266.18l-0.04-5.88l-2.8,4.72h-1.92l-2.8-4.52v5.68h-3.96v-12.9h3.58l4.2,6.88l4.09-6.88h3.58
					l0.04,12.9H218.34z"/>
				<path class="st12" d="M224.39,253.27h4.35v9.53h5.83v3.37h-10.17V253.27z"/>
			</g>
		</g>
		<path class="st80" d="M689.88,490.12c0-0.09,0.01-0.17,0.01-0.26c0-0.09-0.01-0.17-0.01-0.25c1.29-0.59,2.58-1.28,3.86-2.1
			c1.36-0.94,2.75-2.03,4.04-3.27l-0.28-1.1c-0.27-1.24-0.75-2.44-1.19-3.64c-0.25-0.58-0.54-1.15-0.82-1.72
			c-0.26-0.59-0.57-1.14-0.92-1.68l-0.58-0.96c-1.76,0.01-3.54,0.24-5.16,0.54c-1.47,0.3-2.89,0.74-4.21,1.24l-0.36-0.36
			c0.49-1.33,0.94-2.74,1.23-4.21c0.31-1.62,0.54-3.4,0.55-5.16l-0.96-0.58c-0.54-0.35-1.1-0.66-1.68-0.92
			c-0.57-0.28-1.14-0.57-1.73-0.82c-1.2-0.44-2.38-0.92-3.63-1.19l-1.1-0.28c-1.24,1.29-2.33,2.66-3.27,4.04
			c-0.83,1.26-1.51,2.56-2.1,3.86c-0.08,0-0.17-0.02-0.25-0.02c-0.09,0-0.17,0.02-0.26,0.02c-0.58-1.3-1.28-2.6-2.1-3.86
			c-0.93-1.38-2.02-2.75-3.26-4.04l-1.1,0.28c-1.25,0.27-2.44,0.75-3.64,1.19c-0.58,0.25-1.15,0.54-1.73,0.82
			c-0.58,0.26-1.13,0.57-1.68,0.92l-0.96,0.58c0.02,1.76,0.25,3.54,0.55,5.16c0.3,1.47,0.74,2.88,1.24,4.21
			c-0.12,0.12-0.25,0.23-0.36,0.36c-1.33-0.5-2.74-0.94-4.21-1.24c-1.62-0.3-3.41-0.53-5.16-0.54l-0.59,0.96
			c-0.34,0.54-0.65,1.09-0.92,1.68c-0.27,0.57-0.56,1.14-0.81,1.72c-0.45,1.2-0.92,2.39-1.19,3.64l-0.28,1.1
			c1.29,1.24,2.66,2.33,4.04,3.27c1.26,0.83,2.56,1.51,3.85,2.1c0,0.08-0.01,0.16-0.01,0.25c0,0.09,0.01,0.17,0.01,0.26
			c-1.29,0.58-2.58,1.28-3.85,2.1c-1.38,0.93-2.75,2.03-4.04,3.26l0.28,1.1c0.27,1.24,0.74,2.44,1.19,3.64
			c0.25,0.58,0.54,1.15,0.81,1.73c0.27,0.58,0.58,1.13,0.92,1.67l0.59,0.96c1.75-0.01,3.54-0.24,5.16-0.54
			c1.47-0.3,2.88-0.74,4.21-1.24c0.11,0.12,0.23,0.25,0.36,0.36c-0.5,1.33-0.94,2.74-1.24,4.21c-0.3,1.62-0.53,3.41-0.55,5.16
			l0.96,0.59c0.55,0.34,1.1,0.65,1.68,0.91c0.58,0.28,1.15,0.57,1.73,0.82c1.2,0.45,2.38,0.92,3.64,1.19l1.1,0.28
			c1.23-1.29,2.33-2.66,3.26-4.04c0.83-1.26,1.52-2.56,2.1-3.86c0.09,0.01,0.17,0.02,0.26,0.02c0.08,0,0.17-0.01,0.25-0.02
			c0.59,1.3,1.28,2.6,2.1,3.86c0.94,1.38,2.03,2.75,3.27,4.04l1.1-0.28c1.24-0.27,2.43-0.74,3.63-1.19
			c0.59-0.25,1.16-0.54,1.73-0.82c0.58-0.26,1.14-0.57,1.68-0.91l0.96-0.59c-0.01-1.75-0.24-3.54-0.55-5.16
			c-0.29-1.47-0.74-2.88-1.23-4.21c0.12-0.11,0.24-0.24,0.36-0.36c1.32,0.5,2.74,0.94,4.21,1.24c1.62,0.3,3.4,0.53,5.16,0.54
			l0.58-0.96c0.35-0.54,0.66-1.09,0.92-1.67c0.28-0.58,0.57-1.15,0.82-1.73c0.44-1.2,0.92-2.39,1.19-3.64l0.28-1.1
			c-1.29-1.23-2.67-2.33-4.04-3.26C692.47,491.39,691.17,490.7,689.88,490.12z M671.34,498.73c-4.9,0-8.87-3.97-8.87-8.87
			c0-4.9,3.97-8.87,8.87-8.87c4.9,0,8.87,3.97,8.87,8.87C680.21,494.76,676.24,498.73,671.34,498.73z"/>
		<g>
			<g>
				<rect x="640.99" y="301.41" class="st81" width="14.09" height="63.46"/>
				<rect x="620.21" y="329.37" class="st82" width="15.1" height="35.5"/>
				<rect x="599.29" y="340.72" class="st83" width="15.1" height="24.14"/>
			</g>
			<g>
				<g>
					<line class="st84" x1="596.62" y1="354.75" x2="593.59" y2="354.75"/>
					<line class="st85" x1="585.93" y1="354.75" x2="574.43" y2="354.75"/>
					<polyline class="st84" points="570.59,354.75 567.57,354.75 567.57,357.78 					"/>
					<line class="st86" x1="567.57" y1="363.43" x2="567.57" y2="405.85"/>
					<polyline class="st84" points="567.57,408.68 567.57,411.7 570.59,411.7 					"/>
					<line class="st87" x1="575.73" y1="411.7" x2="593.7" y2="411.7"/>
					<line class="st84" x1="596.26" y1="411.7" x2="599.29" y2="411.7"/>
				</g>
			</g>
			<g>
				<rect x="604.07" y="408.88" class="st12" width="39.96" height="7.14"/>
				<rect x="604.07" y="422.1" class="st12" width="27.64" height="7.14"/>
				<rect x="604.07" y="435.31" class="st12" width="34.99" height="7.14"/>
				<rect x="646.3" y="435.31" class="st82" width="8.17" height="7.14"/>
				<rect x="661.95" y="435.31" class="st82" width="30.05" height="7.14"/>
				<rect x="640.57" y="422.1" class="st82" width="51.43" height="7.14"/>
				<rect x="652.04" y="408.88" class="st82" width="39.96" height="7.14"/>
			</g>
		</g>
		<rect x="107" y="641" class="st56" width="587" height="143"/>
	</g>
</g>
</svg>
