<svg width="90" height="127" viewBox="0 0 90 127" fill="none" xmlns="http://www.w3.org/2000/svg">
<path d="M66.0701 45.69C72.7001 48.67 78.0801 53.2 82.2201 59.27C86.3601 65.35 88.4301 72.86 88.4301 81.8C88.4301 89.86 86.4401 97.26 82.4701 104C78.4901 110.74 73.0501 116.07 66.1501 119.99C59.2501 123.91 51.6501 125.87 43.3701 125.87C35.0901 125.87 27.3301 123.8 20.0901 119.66C12.8501 115.52 6.53012 109.53 1.12012 101.68L24.9801 86.27C26.4101 89.14 28.5401 91.43 31.3601 93.15C34.1801 94.86 37.2401 95.72 40.5501 95.72C44.7501 95.72 48.3601 94.37 51.4001 91.66C54.4401 88.95 55.9601 85.67 55.9601 81.8C55.9601 77.93 54.4701 74.92 51.4901 72.44C48.5101 69.95 44.7501 68.71 40.2201 68.71C36.8001 68.71 33.8101 69.35 31.2701 70.61C28.7301 71.88 26.9601 73.57 25.9701 75.66L4.43011 66.38L5.9201 0.77002H82.1301V28.6H35.5801L36.0801 41.85C38.6201 41.41 41.5501 41.19 44.8601 41.19C52.3701 41.19 59.4401 42.68 66.0701 45.66V45.69Z" fill="#81CDF4"/>
<path d="M66.1501 119.99C73.0501 116.07 78.4901 110.74 82.4701 104C86.4501 97.2602 88.4301 89.8602 88.4301 81.8002C88.4301 72.8502 86.3601 65.3402 82.2201 59.2702C78.0801 53.2002 72.6901 48.6702 66.0701 45.6902C59.4401 42.7102 52.3701 41.2202 44.8601 41.2202C41.5501 41.2202 38.6201 41.4402 36.0801 41.8802L35.5801 28.6302H82.1301V11.9302C80.9601 18.4702 78.9001 23.6902 71.1201 24.1802C67.4801 24.4102 44.1801 24.8702 38.1201 24.8502C33.5201 24.8302 32.5801 26.0402 32.3601 29.6002C32.1801 32.4102 32.1101 36.6902 32.2001 39.8602C32.3901 45.8802 36.6201 45.5502 39.6201 45.5002C54.6901 45.2102 66.6101 45.7802 76.4601 59.3502C89.9101 77.9002 81.7401 112.7 57.6301 120.18C46.2101 123.72 32.1301 123.35 19.3301 115.65C13.0901 111.9 11.3701 105.42 14.2701 98.9902C16.1401 94.8402 18.6601 92.1802 21.7701 88.3502L1.12012 101.69C6.53012 109.53 12.8501 115.52 20.0901 119.67C27.3201 123.81 35.0801 125.88 43.3701 125.88C51.6601 125.88 59.2501 123.92 66.1501 120V119.99Z" fill="#45C3D0"/>
<path d="M14.6194 12.1901C19.4694 16.1801 26.2494 15.5801 32.1994 15.6201C39.1894 15.6701 48.0194 16.7101 54.4394 13.5301C56.1594 12.6701 56.1194 9.89005 54.4394 9.02005C48.4394 5.92005 40.6294 7.11007 34.0994 7.22007C27.7494 7.33007 19.7594 6.90006 14.6094 11.1701C14.3294 11.4001 14.3294 11.9501 14.6094 12.1901H14.6194Z" fill="#8BE6EF"/>
<path d="M60.0494 13.1701C61.0994 14.0001 61.9594 14.3901 63.3094 14.4901C64.8894 14.6001 66.0694 13.8901 66.9594 12.6401C67.5594 11.7801 67.5594 10.2701 66.9594 9.41013C66.0494 8.12013 64.9094 7.50012 63.3094 7.56012C61.9694 7.61012 61.0794 8.07012 60.0494 8.88012C58.8494 9.82012 58.8494 12.2401 60.0494 13.1901V13.1701Z" fill="#8BE6EF"/>
<path d="M43.3797 126.63C34.9997 126.63 27.0398 124.51 19.7298 120.32C12.4298 116.14 5.95976 110.02 0.519762 102.12C0.399762 101.95 0.359766 101.75 0.399766 101.55C0.439766 101.35 0.559753 101.18 0.729753 101.07L24.5898 85.6601C24.7698 85.5401 24.9898 85.5101 25.1998 85.5701C25.4098 85.6301 25.5798 85.7701 25.6698 85.9601C27.0298 88.6901 29.0798 90.9001 31.7698 92.5301C34.4498 94.1601 37.4097 94.9901 40.5697 94.9901C44.5597 94.9901 48.0398 93.6901 50.9198 91.1201C53.8198 88.5401 55.2198 85.5001 55.2198 81.8201C55.2198 78.1401 53.8498 75.3901 51.0198 73.0401C48.1898 70.6801 44.5598 69.4901 40.2298 69.4901C36.9398 69.4901 34.0398 70.1001 31.6198 71.3201C29.2498 72.5101 27.5797 74.09 26.6597 76.0201C26.4897 76.3901 26.0597 76.5501 25.6897 76.3901L4.14977 67.1101C3.86977 66.9901 3.68975 66.7101 3.69975 66.4001L5.18974 0.790054C5.18974 0.380054 5.52974 0.0600586 5.93974 0.0600586H82.1498C82.5598 0.0600586 82.8998 0.400059 82.8998 0.810059V28.6401C82.8998 29.0501 82.5598 29.3901 82.1498 29.3901H36.3797L36.8197 41.0201C39.1997 40.66 41.9097 40.4801 44.8797 40.4801C52.4597 40.4801 59.6998 42.0101 66.3898 45.0201C73.1098 48.0401 78.6497 52.7001 82.8497 58.8701C87.0597 65.0401 89.1897 72.7701 89.1897 81.8201C89.1897 89.9801 87.1498 97.5801 83.1198 104.4C79.0898 111.22 73.5098 116.69 66.5298 120.66C59.5498 124.63 51.7597 126.64 43.3797 126.64V126.63ZM2.18974 101.9C7.40974 109.3 13.5598 115.06 20.4698 119.02C27.5498 123.08 35.2598 125.13 43.3698 125.13C51.4798 125.13 59.0198 123.18 65.7798 119.35C72.5298 115.51 77.9297 110.23 81.8197 103.63C85.7097 97.0401 87.6798 89.7001 87.6798 81.8101C87.6798 73.0601 85.6297 65.6201 81.5997 59.7001C77.5597 53.7701 72.2298 49.2901 65.7598 46.3801C59.2598 43.4601 52.2298 41.9701 44.8598 41.9701C41.6098 41.9701 38.6998 42.1901 36.2098 42.6201C35.9998 42.6601 35.7798 42.6001 35.6098 42.4601C35.4398 42.3201 35.3398 42.1201 35.3298 41.9101L34.8298 28.6601C34.8298 28.4601 34.8997 28.2601 35.0397 28.1101C35.1797 27.9601 35.3798 27.8801 35.5798 27.8801H81.3797V1.55006H6.65975L5.19975 65.9201L25.6297 74.7201C26.7397 72.7701 28.5197 71.1701 30.9397 69.9601C33.5797 68.6401 36.6998 67.9801 40.2198 67.9801C44.9098 67.9801 48.8598 69.2901 51.9698 71.8801C55.1198 74.5001 56.7098 77.8501 56.7098 81.8201C56.7098 85.7901 55.0898 89.4001 51.8998 92.2401C48.7398 95.0601 44.9198 96.4901 40.5498 96.4901C37.1098 96.4901 33.8798 95.5901 30.9698 93.8101C28.2898 92.1801 26.1798 90.0201 24.6998 87.3701L2.17977 101.91L2.18974 101.9Z" fill="#40BCC9"/>
</svg>
