<?xml version="1.0" encoding="UTF-8"?>
<svg id="NUMEROS_TORIBIO" data-name="NUMEROS TORIBIO" xmlns="http://www.w3.org/2000/svg" xmlns:xlink="http://www.w3.org/1999/xlink" viewBox="0 0 200 200">
  <defs>
    <style>
      .cls-1 {
        fill: none;
      }

      .cls-1, .cls-2, .cls-3, .cls-4 {
        stroke-width: 0px;
      }

      .cls-2 {
        fill: #e52022;
      }

      .cls-3 {
        fill: #ff807c;
      }

      .cls-4 {
        fill: #c9151e;
      }
    </style>
    <clipPath id="clippath">
      <rect class="cls-1" x="914" y="-193" width="792" height="612"/>
    </clipPath>
    <clipPath id="clippath-1">
      <rect class="cls-1" x="914" y="-193" width="792" height="612"/>
    </clipPath>
  </defs>
  <path class="cls-2" d="M105.57,82.36c6.63,2.98,12.01,7.51,16.15,13.58,4.14,6.08,6.21,13.59,6.21,22.53,0,8.06-1.99,15.46-5.96,22.2-3.98,6.74-9.42,12.07-16.32,15.99-6.9,3.92-14.5,5.88-22.78,5.88s-16.04-2.07-23.28-6.21c-7.24-4.14-13.56-10.13-18.97-17.98l23.86-15.41c1.43,2.87,3.56,5.16,6.38,6.88,2.82,1.71,5.88,2.57,9.19,2.57,4.2,0,7.81-1.35,10.85-4.06,3.04-2.71,4.56-5.99,4.56-9.86s-1.49-6.88-4.47-9.36c-2.98-2.49-6.74-3.73-11.27-3.73-3.42,0-6.41.64-8.95,1.9-2.54,1.27-4.31,2.96-5.3,5.05l-21.54-9.28,1.49-65.61h76.21v27.83h-46.55l.5,13.25c2.54-.44,5.47-.66,8.78-.66,7.51,0,14.58,1.49,21.21,4.47Z"/>
  <path class="cls-4" d="M105.65,156.66c6.9-3.92,12.34-9.25,16.32-15.99,3.98-6.74,5.96-14.14,5.96-22.2,0-8.95-2.07-16.46-6.21-22.53-4.14-6.07-9.53-10.6-16.15-13.58-6.63-2.98-13.7-4.47-21.21-4.47-3.31,0-6.24.22-8.78.66l-.5-13.25h46.55v-16.7c-1.17,6.54-3.23,11.76-11.01,12.25-3.64.23-26.94.69-33,.67-4.6-.02-5.54,1.19-5.76,4.75-.18,2.81-.25,7.09-.16,10.26.19,6.02,4.42,5.69,7.42,5.64,15.07-.29,26.99.28,36.84,13.85,13.45,18.55,5.28,53.35-18.83,60.83-11.42,3.54-25.5,3.17-38.3-4.53-6.24-3.75-7.96-10.23-5.06-16.66,1.87-4.15,4.39-6.81,7.5-10.64l-20.65,13.34c5.41,7.84,11.73,13.83,18.97,17.98,7.23,4.14,14.99,6.21,23.28,6.21s15.88-1.96,22.78-5.88Z"/>
  <g>
    <path class="cls-3" d="M54.12,48.85c4.85,3.99,11.63,3.39,17.58,3.43,6.99.05,15.82,1.09,22.24-2.09,1.72-.86,1.68-3.64,0-4.51-6-3.1-13.81-1.91-20.34-1.8-6.35.11-14.34-.32-19.49,3.95-.28.23-.28.78,0,1.02h0Z"/>
    <path class="cls-3" d="M99.54,49.83c1.05.83,1.91,1.22,3.26,1.32,1.58.11,2.76-.6,3.65-1.85.6-.86.6-2.37,0-3.23-.91-1.29-2.05-1.91-3.65-1.85-1.34.05-2.23.51-3.26,1.32-1.2.94-1.2,3.36,0,4.31h0Z"/>
  </g>
  <path class="cls-4" d="M82.87,163.29c-8.38,0-16.34-2.12-23.65-6.31-7.3-4.18-13.77-10.3-19.21-18.2-.12-.17-.16-.37-.12-.57.04-.2.16-.37.33-.48l23.86-15.41c.18-.12.4-.15.61-.09.21.06.38.2.47.39,1.36,2.73,3.41,4.94,6.1,6.57,2.68,1.63,5.64,2.46,8.8,2.46,3.99,0,7.47-1.3,10.35-3.87,2.9-2.58,4.3-5.62,4.3-9.3s-1.37-6.43-4.2-8.78c-2.83-2.36-6.46-3.55-10.79-3.55-3.29,0-6.19.61-8.61,1.83-2.37,1.19-4.04,2.77-4.96,4.7-.17.37-.6.53-.97.37l-21.54-9.28c-.28-.12-.46-.4-.45-.71l1.49-65.61c0-.41.34-.73.75-.73h76.21c.41,0,.75.34.75.75v27.83c0,.41-.34.75-.75.75h-45.77l.44,11.63c2.38-.36,5.09-.54,8.06-.54,7.58,0,14.82,1.53,21.51,4.54,6.72,3.02,12.26,7.68,16.46,13.85,4.21,6.17,6.34,13.9,6.34,22.95,0,8.16-2.04,15.76-6.07,22.58-4.03,6.82-9.61,12.29-16.59,16.26-6.98,3.97-14.77,5.98-23.15,5.98ZM41.68,138.56c5.22,7.4,11.37,13.16,18.28,17.12,7.08,4.06,14.79,6.11,22.9,6.11s15.65-1.95,22.41-5.78c6.75-3.84,12.15-9.12,16.04-15.72,3.89-6.59,5.86-13.93,5.86-21.82,0-8.75-2.05-16.19-6.08-22.11-4.04-5.93-9.37-10.41-15.84-13.32-6.5-2.92-13.53-4.41-20.9-4.41-3.25,0-6.16.22-8.65.65-.21.04-.43-.02-.6-.16-.17-.14-.27-.34-.28-.55l-.5-13.25c0-.2.07-.4.21-.55.14-.15.34-.23.54-.23h45.8v-26.33H46.16l-1.46,64.37,20.43,8.8c1.11-1.95,2.89-3.55,5.31-4.76,2.64-1.32,5.76-1.98,9.28-1.98,4.69,0,8.64,1.31,11.75,3.9,3.15,2.62,4.74,5.97,4.74,9.94s-1.62,7.58-4.81,10.42c-3.16,2.82-6.98,4.25-11.35,4.25-3.44,0-6.67-.9-9.58-2.68-2.68-1.63-4.79-3.79-6.27-6.44l-22.52,14.54Z"/>
</svg>