<?xml version="1.0" encoding="UTF-8"?>
<svg id="Capa_1" data-name="Capa 1" xmlns="http://www.w3.org/2000/svg" viewBox="0 0 200 200">
  <defs>
    <style>
      .cls-1 {
        fill: #fffdf0;
      }

      .cls-1, .cls-2, .cls-3, .cls-4, .cls-5, .cls-6, .cls-7, .cls-8, .cls-9, .cls-10, .cls-11, .cls-12, .cls-13 {
        stroke-width: 0px;
      }

      .cls-14 {
        opacity: .28;
      }

      .cls-2 {
        fill: #dbd8b9;
      }

      .cls-3 {
        fill: #c2bf8f;
      }

      .cls-4, .cls-9 {
        fill: #d38407;
      }

      .cls-5 {
        fill: #cc7f05;
      }

      .cls-6 {
        fill: #9b966a;
      }

      .cls-15 {
        opacity: .45;
      }

      .cls-7 {
        fill: #faab18;
      }

      .cls-8 {
        fill: #fff;
      }

      .cls-9, .cls-16 {
        opacity: .32;
      }

      .cls-10 {
        fill: #9b9665;
      }

      .cls-11 {
        fill: #ddd8c0;
      }

      .cls-12 {
        fill: #a39e6f;
      }

      .cls-13 {
        fill: #aaa571;
      }
    </style>
  </defs>
  <g id="_1" data-name="1">
    <g>
      <path class="cls-7" d="M165.6,138.45c4.39,3.33,6.16,9.97,2.49,15.25-1.62,2.33-5.51.18-3.88-2.17,2.36-3.39,1.38-7.94-1.56-9.85,1.16-.9,2.15-2,2.95-3.23Z"/>
      <path class="cls-3" d="M148.74,124.51l7.19-2.04,8.33-2.35,1.89,6.69c1.11,3.91.4,7.9-1.58,10.94-.85,1.3-1.93,2.43-3.2,3.31-1,.69-2.12,1.23-3.35,1.58-1.22.35-2.46.47-3.68.41-1.54-.08-3.06-.47-4.46-1.14-3.29-1.55-5.97-4.58-7.08-8.48l-1.89-6.69,7.82-2.21Z"/>
      <path class="cls-4" d="M161.37,141.06c1.27-.88,2.35-2.01,3.2-3.31.36.21.7.44,1.03.69-.81,1.23-1.8,2.33-2.95,3.23-.39-.26-.82-.46-1.28-.62Z"/>
      <path class="cls-7" d="M157.42,153.45c2.62,1.15.43,5.01-2.17,3.88-5.9-2.58-7.86-9.17-5.87-14.3,1.33.63,2.75,1.04,4.21,1.21-1.5,3.17.05,7.56,3.83,9.21Z"/>
      <path class="cls-4" d="M155.93,122.48l-7.19,2.04c-.39-.89-.8-1.76-1.23-2.63-.14-.28-.28-.56-.42-.84l7.18-2.23c.04.08.08.16.12.24.53,1.12,1.05,2.26,1.54,3.42Z"/>
      <path class="cls-7" d="M154.26,118.82l-7.18,2.23c-1.96-3.8-4.27-7.32-6.88-10.25-1.69-1.89-3.5-3.56-5.44-5.01l-7.95-12.48c2.18.69,4.31,1.57,6.37,2.62,9.43,4.85,16.53,13.44,21.07,22.89Z"/>
      <path class="cls-4" d="M149.89,141.9c1.4.67,2.91,1.06,4.46,1.14h0c-.31.38-.57.77-.76,1.2-1.46-.16-2.88-.58-4.21-1.21.15-.38.32-.76.51-1.13h0Z"/>
      <path class="cls-7" d="M146.54,46.83v8.19c0,5.69-4.65,10.33-10.33,10.33h-1.47v-28.86h1.47c5.68,0,10.33,4.65,10.33,10.33Z"/>
      <path class="cls-3" d="M143.81,158.2v22.56c0,.7-.2,1.36-.55,1.91-1.8-1.32-4.93-2.2-8.49-2.2s-6.69.88-8.49,2.2c-.35-.55-.56-1.21-.56-1.91v-22.56c0-1.97,1.62-3.58,3.58-3.58h10.93c1.97,0,3.58,1.61,3.58,3.58Z"/>
      <path class="cls-7" d="M143.55,185.84c0,.41-.13.81-.37,1.19h-16.84c-.23-.38-.36-.78-.36-1.19,0-.79.46-1.53,1.26-2.15,1.54-1.21,4.34-2.02,7.53-2.02s5.99.81,7.53,2.02c.8.62,1.26,1.36,1.26,2.15Z"/>
      <path class="cls-4" d="M139.31,154.62h-8.17c-.02-.65-.05-1.3-.09-1.95h8.17c.04.65.06,1.3.08,1.95Z"/>
      <path class="cls-7" d="M139.23,152.68h-8.17c-.06-1.17-.14-2.34-.23-3.5-.16-2.02-.42-4.25-.65-5.83-.06-.41-.13-.81-.19-1.21,2.79-1.86,5.19-3.97,7.11-6.29,1.22,5.52,1.87,11.2,2.14,16.83Z"/>
      <path class="cls-7" d="M135.4,112.95c2.07,3.14,3.22,6.61,3.22,10.26,0,3.16-.86,6.19-2.44,8.98-1.56,2.77-3.82,5.32-6.64,7.54-7.09,5.59-17.69,9.13-29.54,9.13s-22.46-3.55-29.54-9.13c-2.82-2.22-5.08-4.77-6.64-7.54-1.58-2.8-2.44-5.82-2.44-8.98,0-3.65,1.15-7.12,3.22-10.26h0l6.36-10.82,5.87-9.98h0l1.27-2.16h0c2.83,1.3,5.97,2.03,9.28,2.03h25.23c3.31,0,6.45-.73,9.28-2.02l1.39,2.35,5.9,10.02,6.23,10.59h0ZM112.72,102.9c0-2.62-2.15-4.77-4.77-4.77h-15.91c-1.31,0-2.5.54-3.37,1.4-.87.86-1.4,2.05-1.4,3.37,0,2.62,2.15,4.77,4.77,4.77h15.91c1.31,0,2.5-.54,3.37-1.4.86-.87,1.4-2.06,1.4-3.37Z"/>
      <path class="cls-4" d="M136.19,132.19c.33,1.21.63,2.43.9,3.65-1.93,2.31-4.32,4.43-7.11,6.29-.13-.81-.27-1.61-.43-2.4,2.82-2.22,5.08-4.77,6.64-7.54h0Z"/>
      <path class="cls-4" d="M126.82,93.3l7.95,12.48c-1.77-1.33-3.63-2.47-5.58-3.43l-5.9-10.02c1.19.27,2.37.59,3.54.96Z"/>
      <rect class="cls-4" x="132.53" y="36.49" width="2.21" height="28.86"/>
      <path class="cls-3" d="M120.18,87.07c-2.59,1.16-5.46,1.81-8.47,1.81h-23.42c-3.01,0-5.88-.65-8.47-1.81-7.26-3.26-12.35-10.57-12.35-19.01v-34.27c0-11.45,9.37-20.82,20.82-20.82h23.42c11.45,0,20.82,9.37,20.82,20.82v34.27c0,8.44-5.09,15.75-12.35,19.01ZM125.32,44.88v-16.02c0-2.92-2.39-5.31-5.31-5.31h-40.01c-2.92,0-5.31,2.39-5.31,5.31v16.02h50.63ZM111.29,82.5v-4.19c0-.32-.13-.62-.35-.83s-.5-.34-.82-.34c-.65,0-1.17.52-1.17,1.17v4.19c0,.64.53,1.17,1.17,1.17s1.17-.53,1.17-1.17ZM107.29,82.5v-4.19c0-.32-.13-.62-.35-.83-.21-.21-.5-.34-.82-.34-.65,0-1.17.52-1.17,1.17v4.19c0,.64.53,1.17,1.17,1.17s1.17-.53,1.17-1.17ZM103.29,82.5v-4.19c0-.32-.13-.62-.35-.83-.21-.21-.5-.34-.83-.34-.64,0-1.17.52-1.17,1.17v4.19c0,.64.53,1.17,1.17,1.17s1.17-.53,1.17-1.17ZM99.29,82.5v-4.19c0-.32-.13-.62-.35-.83-.21-.21-.5-.34-.83-.34-.64,0-1.17.52-1.17,1.17v4.19c0,.64.53,1.17,1.17,1.17s1.17-.53,1.17-1.17ZM95.05,82.5v-4.19c0-.32-.13-.62-.35-.83-.21-.21-.5-.34-.82-.34-.64,0-1.17.52-1.17,1.17v4.19c0,.64.53,1.17,1.17,1.17s1.17-.53,1.17-1.17ZM91.05,82.5v-4.19c0-.32-.13-.62-.35-.83-.21-.21-.5-.34-.82-.34-.65,0-1.17.52-1.17,1.17v4.19c0,.64.53,1.17,1.17,1.17s1.17-.53,1.17-1.17Z"/>
      <path class="cls-13" d="M134.76,181.67c-3.19,0-5.99.81-7.53,2.02-.38-.27-.71-.62-.96-1.01,1.8-1.32,4.93-2.2,8.49-2.2s6.69.88,8.49,2.2c-.25.4-.58.74-.96,1.01-1.54-1.21-4.34-2.02-7.53-2.02Z"/>
      <path class="cls-1" d="M125.32,28.86v16.02h-50.63v-16.02c0-2.92,2.39-5.31,5.31-5.31h40.01c2.92,0,5.31,2.39,5.31,5.31ZM115.14,35.9c0-2.75-2.23-4.98-4.98-4.98s-4.98,2.23-4.98,4.98,2.23,4.98,4.98,4.98,4.98-2.23,4.98-4.98ZM94.82,35.9c0-2.75-2.23-4.98-4.98-4.98s-4.98,2.23-4.98,4.98,2.23,4.98,4.98,4.98,4.98-2.23,4.98-4.98Z"/>
      <path class="cls-4" d="M120.18,87.07l1.71,2.92c-2.83,1.3-5.97,2.02-9.28,2.02h-25.23c-3.31,0-6.45-.73-9.28-2.02h0s1.72-2.92,1.72-2.92c2.59,1.16,5.46,1.81,8.47,1.81h23.42c3.01,0,5.88-.65,8.47-1.81Z"/>
      <path class="cls-7" d="M110.16,30.92c2.75,0,4.98,2.23,4.98,4.98s-2.23,4.98-4.98,4.98-4.98-2.23-4.98-4.98,2.23-4.98,4.98-4.98Z"/>
      <path class="cls-1" d="M107.96,98.13c2.62,0,4.77,2.15,4.77,4.77,0,1.31-.54,2.5-1.4,3.37-.87.86-2.06,1.4-3.37,1.4h-15.91c-2.62,0-4.77-2.15-4.77-4.77,0-1.31.54-2.5,1.4-3.37.86-.87,2.06-1.4,3.37-1.4h15.91ZM106.36,102.9c0-1-.82-1.82-1.82-1.82h-9.08c-.5,0-.96.2-1.28.54-.33.33-.54.79-.54,1.29,0,1,.82,1.82,1.82,1.82h9.08c.5,0,.96-.2,1.29-.54.33-.33.54-.78.54-1.28Z"/>
      <path class="cls-1" d="M111.29,78.31v4.19c0,.64-.53,1.17-1.17,1.17s-1.17-.53-1.17-1.17v-4.19c0-.65.53-1.17,1.17-1.17.32,0,.62.13.82.34s.35.5.35.83Z"/>
      <path class="cls-1" d="M107.29,78.31v4.19c0,.64-.53,1.17-1.17,1.17s-1.17-.53-1.17-1.17v-4.19c0-.65.53-1.17,1.17-1.17.32,0,.62.13.82.34.21.21.35.5.35.83Z"/>
      <path class="cls-3" d="M104.54,101.08c1,0,1.82.82,1.82,1.82,0,.5-.2.96-.54,1.28-.33.33-.79.54-1.29.54h-9.08c-1,0-1.82-.82-1.82-1.82,0-.5.2-.96.54-1.29.33-.33.78-.54,1.28-.54h9.08Z"/>
      <path class="cls-1" d="M103.29,78.31v4.19c0,.64-.53,1.17-1.17,1.17s-1.17-.53-1.17-1.17v-4.19c0-.65.53-1.17,1.17-1.17.32,0,.62.13.83.34.21.21.35.5.35.83Z"/>
      <path class="cls-1" d="M99.29,78.31v4.19c0,.64-.53,1.17-1.17,1.17s-1.17-.53-1.17-1.17v-4.19c0-.65.53-1.17,1.17-1.17.32,0,.62.13.83.34.21.21.35.5.35.83Z"/>
      <path class="cls-1" d="M95.05,78.31v4.19c0,.64-.53,1.17-1.17,1.17s-1.17-.53-1.17-1.17v-4.19c0-.65.53-1.17,1.17-1.17.32,0,.61.13.82.34.21.21.35.5.35.83Z"/>
      <path class="cls-7" d="M89.84,30.92c2.75,0,4.98,2.23,4.98,4.98s-2.23,4.98-4.98,4.98-4.98-2.23-4.98-4.98,2.23-4.98,4.98-4.98Z"/>
      <path class="cls-1" d="M91.05,78.31v4.19c0,.64-.53,1.17-1.17,1.17s-1.17-.53-1.17-1.17v-4.19c0-.65.53-1.17,1.17-1.17.32,0,.61.13.82.34.21.21.35.5.35.83Z"/>
      <path class="cls-4" d="M76.83,92.14l-5.87,9.98c-2.08,1.01-4.07,2.23-5.95,3.66l7.65-12.48c1.37-.46,2.77-.85,4.17-1.16Z"/>
      <path class="cls-3" d="M74.28,158.2v22.56c0,.7-.2,1.36-.56,1.91-1.8-1.32-4.93-2.2-8.49-2.2s-6.69.88-8.49,2.2c-.35-.55-.56-1.21-.56-1.91v-22.56c0-1.97,1.62-3.58,3.58-3.58h10.93c1.97,0,3.58,1.61,3.58,3.58Z"/>
      <path class="cls-7" d="M57.7,183.69c1.54-1.21,4.34-2.02,7.53-2.02s5.99.81,7.53,2.02c.8.62,1.26,1.36,1.26,2.15,0,.41-.13.81-.37,1.19h-16.84c-.23-.38-.37-.78-.37-1.19,0-.79.46-1.53,1.26-2.16Z"/>
      <path class="cls-7" d="M72.66,93.3l-7.65,12.48c-1.85,1.41-3.6,3.02-5.22,4.84-2.62,2.93-4.93,6.45-6.88,10.24h0l-7.17-2.23c4.54-9.44,11.64-18.04,21.07-22.89,1.89-.97,3.85-1.79,5.85-2.45Z"/>
      <path class="cls-4" d="M70.45,139.73c-.15.8-.3,1.6-.42,2.4-2.79-1.86-5.19-3.97-7.12-6.29.27-1.23.57-2.44.9-3.65h0c1.56,2.77,3.82,5.32,6.64,7.54Z"/>
      <path class="cls-7" d="M70.03,142.13c-.07.4-.13.81-.19,1.21-.24,1.58-.49,3.81-.66,5.83-.1,1.17-.18,2.34-.23,3.5h-8.17c.27-5.64.92-11.32,2.14-16.84,1.93,2.32,4.32,4.43,7.12,6.29Z"/>
      <path class="cls-4" d="M60.78,152.68h8.17c-.04.65-.06,1.3-.08,1.95h-8.17c.02-.65.05-1.3.08-1.95Z"/>
      <rect class="cls-4" x="65.26" y="36.49" width="2.2" height="28.86"/>
      <path class="cls-7" d="M65.26,36.49v28.86h-1.47c-5.69,0-10.33-4.65-10.33-10.33v-8.19c0-5.68,4.65-10.33,10.33-10.33h1.47Z"/>
      <path class="cls-13" d="M65.24,180.48c3.56,0,6.69.88,8.49,2.2-.25.4-.57.74-.96,1.01-1.54-1.21-4.34-2.02-7.53-2.02s-5.99.81-7.53,2.02c-.38-.27-.7-.62-.96-1.01,1.8-1.32,4.93-2.2,8.49-2.2Z"/>
      <path class="cls-3" d="M51.26,124.34l7.82,2.21-1.89,6.69c-1.11,3.91-3.79,6.93-7.08,8.49-1.4.67-2.91,1.06-4.46,1.14-1.22.07-2.46-.06-3.68-.41-1.23-.35-2.35-.89-3.35-1.58-1.27-.88-2.35-2-3.2-3.31-1.99-3.04-2.69-7.03-1.58-10.94l1.89-6.69,8.33,2.35,7.19,2.04Z"/>
      <path class="cls-4" d="M45.74,118.64l7.17,2.23c-.14.28-.28.56-.42.84-.43.87-.84,1.74-1.23,2.63l-7.19-2.04c.49-1.16,1.01-2.3,1.54-3.42.04-.08.08-.16.12-.24h0Z"/>
      <path class="cls-7" d="M50.63,142.87c1.99,5.13.03,11.72-5.87,14.29-2.6,1.14-4.79-2.73-2.17-3.88,3.78-1.65,5.33-6.05,3.83-9.21,1.46-.16,2.88-.57,4.21-1.2Z"/>
      <path class="cls-4" d="M50.63,142.87c-1.33.63-2.75,1.04-4.21,1.2-.2-.42-.45-.82-.76-1.19,1.55-.08,3.06-.47,4.46-1.14h0c.19.37.37.75.51,1.13Z"/>
      <path class="cls-4" d="M35.43,137.58c.85,1.3,1.93,2.43,3.2,3.31-.46.15-.89.36-1.27.62-1.16-.9-2.15-2-2.95-3.23.33-.25.67-.49,1.03-.69Z"/>
      <path class="cls-7" d="M34.4,138.28c.8,1.23,1.79,2.33,2.95,3.23-2.94,1.91-3.93,6.46-1.56,9.86,1.64,2.35-2.26,4.5-3.88,2.17-3.68-5.29-1.89-11.93,2.49-15.25Z"/>
    </g>
    <path class="cls-9" d="M100,143.96c-14.99,0-28.26-4.78-36.37-12.11,5.34,9.91,19.61,17.01,36.37,17.01s31.03-7.09,36.37-17.01c-8.11,7.33-21.38,12.11-36.37,12.11Z"/>
    <g class="cls-16">
      <g>
        <path class="cls-13" d="M70.23,181.11c-1.47-.4-3.18-.63-4.99-.63-3.56,0-6.69.88-8.49,2.2-.35-.55-.56-1.21-.56-1.91v-22.56l14.04,22.9Z"/>
        <path class="cls-4" d="M65.24,181.67c1.85,0,3.58.27,4.99.74-9.35-.92-9.79,3.22-9.79,3.22l4.8,1.41h-8.42c-.24-.38-.37-.78-.37-1.19,0-.79.46-1.53,1.26-2.15,1.54-1.21,4.34-2.02,7.53-2.02Z"/>
      </g>
    </g>
    <g class="cls-16">
      <g>
        <path class="cls-13" d="M139.76,181.11c-1.47-.4-3.18-.63-4.99-.63-3.56,0-6.69.88-8.49,2.2-.35-.55-.56-1.21-.56-1.91v-22.56l14.04,22.9Z"/>
        <path class="cls-4" d="M134.76,181.67c1.85,0,3.58.27,4.99.74-9.35-.92-9.79,3.22-9.79,3.22l4.8,1.41h-8.42c-.24-.38-.37-.78-.37-1.19,0-.79.46-1.53,1.26-2.15,1.54-1.21,4.34-2.02,7.53-2.02Z"/>
      </g>
    </g>
    <g class="cls-16">
      <g>
        <path class="cls-8" d="M45.74,118.64c4.54-9.44,11.65-18.04,21.07-22.89,1.89-.97,3.85-1.78,5.85-2.45l-3.01,4.91c-14.59,3.87-23.44,20.42-23.44,20.42l-.04.13-.43-.13Z"/>
        <path class="cls-12" d="M44.07,122.31l7.19,2.03,7.82,2.21-1.89,6.7c-1.95,6.89-8.8,11.03-15.21,9.22-1.66-.47-3.12-1.29-4.36-2.36h0c11.16,4.31,15.88-6.55,15.88-6.55l2.04-6.32-16.18-6.25,4.71,1.33h0Z"/>
      </g>
    </g>
    <g class="cls-16">
      <g>
        <path class="cls-8" d="M154.26,118.81c-4.54-9.44-11.64-18.04-21.07-22.89-1.89-.97-3.85-1.78-5.85-2.45l3.01,4.91h0c14.59,3.87,23.44,20.42,23.44,20.42l.04.13.43-.13Z"/>
        <path class="cls-12" d="M148.74,124.51l-7.82,2.21,1.89,6.7c1.95,6.89,8.79,11.03,15.21,9.22,1.66-.47,3.12-1.29,4.36-2.36h0c-11.16,4.31-15.88-6.55-15.88-6.55l-2.04-6.32,16.18-6.25-4.71,1.33h0s-7.19,2.04-7.19,2.04Z"/>
      </g>
    </g>
    <g class="cls-14">
      <path class="cls-4" d="M133.25,136.26c-6.72,7.54-19.1,12.6-33.25,12.6-21.33,0-38.62-11.49-38.62-25.65,0-3.65,1.16-7.12,3.22-10.26h0l12.33-20.95s1.97,54.51,56.33,44.27Z"/>
    </g>
    <g class="cls-15">
      <g>
        <path class="cls-11" d="M111.27,99.48c.89.87,1.45,2.08,1.45,3.42s-.54,2.5-1.4,3.37c-.86.86-2.05,1.4-3.37,1.4h-15.91c-2.62,0-4.77-2.15-4.77-4.77,0-1.31.54-2.5,1.4-3.37.02-.02.03-.03.05-.05,1.34,1.25,3.04,2.28,4.97,2.99-.04.14-.05.28-.05.43,0,1,.82,1.82,1.82,1.82h9.09c.5,0,.96-.2,1.28-.54.33-.33.54-.78.54-1.28,0-.15-.02-.29-.05-.43,1.93-.71,3.62-1.73,4.97-2.99Z"/>
        <path class="cls-10" d="M104.54,104.72h-9.09c-1,0-1.82-.82-1.82-1.82,0-.15.02-.29.05-.43,1.91.7,4.05,1.09,6.31,1.09s4.4-.39,6.31-1.09c.04.14.05.28.05.43,0,.5-.2.96-.54,1.28-.33.33-.78.54-1.28.54Z"/>
      </g>
    </g>
    <g class="cls-16">
      <g>
        <path class="cls-2" d="M125.32,32.37v12.51h-50.63v-15.4s3.37,3.32,10.23,5.73c-.03.23-.05.45-.05.69,0,2.75,2.23,4.98,4.98,4.98,2.24,0,4.13-1.47,4.76-3.51,3.21.34,6.81.4,10.81,0,.63,2.03,2.52,3.5,4.75,3.5,2.75,0,4.98-2.23,4.98-4.98,0-.08,0-.16,0-.24,3.2-.8,6.59-1.88,10.18-3.28Z"/>
        <path class="cls-5" d="M105.41,37.38c3.02-.3,6.26-.85,9.73-1.72,0,.08,0,.16,0,.24,0,2.75-2.23,4.98-4.98,4.98-2.23,0-4.12-1.47-4.75-3.5Z"/>
        <path class="cls-5" d="M94.6,37.37c-.62,2.04-2.52,3.51-4.76,3.51-2.75,0-4.98-2.23-4.98-4.98,0-.23.02-.46.05-.69,2.69.94,5.92,1.75,9.69,2.16Z"/>
      </g>
    </g>
    <g class="cls-16">
      <path class="cls-6" d="M132.53,67.22v.84c0,11.45-9.37,20.82-20.82,20.82h-23.42c-11.45,0-20.82-9.37-20.82-20.82v-32.11s6.01,40.57,65.06,31.27Z"/>
    </g>
  </g>
</svg>