<?xml version="1.0" encoding="utf-8"?>
<!-- Generator: Adobe Illustrator 25.0.0, SVG Export Plug-In . SVG Version: 6.00 Build 0)  -->
<svg version="1.1" id="elelmentos" xmlns="http://www.w3.org/2000/svg" xmlns:xlink="http://www.w3.org/1999/xlink" x="0px" y="0px"
	 viewBox="0 0 800 800" style="enable-background:new 0 0 800 800;" xml:space="preserve">
<style type="text/css">
	.st0{fill:#80CCF3;}
	.st1{clip-path:url(#SVGID_2_);}
	.st2{fill:url(#SVGID_3_);}
	.st3{fill:url(#SVGID_4_);}
	.st4{fill:#3BB244;}
	.st5{fill:#1E8B2A;}
	.st6{clip-path:url(#SVGID_6_);}
	.st7{fill:#E89C62;}
	.st8{fill:#CE814D;}
	.st9{fill:#F18951;}
	.st10{fill:#492A08;}
	.st11{fill:#312E31;}
	.st12{fill:#FFFFFF;}
	.st13{fill:#1D1E1C;}
	.st14{fill:#F6AF00;}
	.st15{fill:#F1F1F1;}
	.st16{fill:#333333;}
	.st17{fill:#1A1A1A;}
	.st18{fill:#8E56F1;}
	.st19{fill:#4ABBF1;}
	.st20{fill:#30D848;}
	.st21{fill:#259332;}
	.st22{fill:#45FF67;}
	.st23{fill:#263238;}
	.st24{fill:#B9BAB9;}
	.st25{fill:#FF725E;}
	.st26{fill:#E0E0E0;}
	.st27{fill:#3E5B65;}
	.st28{opacity:0.3;}
	.st29{fill:#FFDE17;}
	.st30{fill:#FFF22B;}
	.st31{fill:#6D6E71;}
	.st32{fill:#595957;}
	.st33{fill:#D7D5D5;}
	.st34{fill:none;stroke:#1A1A1A;stroke-width:1.6001;stroke-miterlimit:10;}
	.st35{fill:#9E0000;}
	.st36{clip-path:url(#SVGID_8_);}
	.st37{fill:#666060;}
	.st38{fill:#680000;}
	.st39{opacity:0.5;fill:#9E0000;}
	.st40{opacity:0.7;fill:#666060;}
	.st41{clip-path:url(#SVGID_6_);fill:#FFF22B;}
	.st42{fill:#FFE821;}
	.st43{opacity:0.5;fill:#808080;}
	.st44{fill:#E6E7E8;}
	.st45{fill:#414042;}
	.st46{fill:#58595B;}
	.st47{fill:#808285;}
	.st48{fill:#D1D3D4;}
	.st49{fill:#BCBEC0;}
	.st50{fill:#004B78;}
	.st51{fill:#006496;}
	.st52{fill:#939598;}
	.st53{opacity:0.5;fill:#FFFFFF;}
	.st54{fill:#166E98;}
	.st55{clip-path:url(#SVGID_10_);}
	.st56{fill:#47547C;}
	.st57{opacity:0.5;fill:#2B2B3F;}
	.st58{fill:#3D2412;}
	.st59{fill:#BA7038;}
	.st60{fill:#EB5F00;}
	.st61{fill:none;stroke:#DC831E;stroke-width:3.6166;stroke-miterlimit:10;}
	.st62{fill:#A35D2E;}
	.st63{fill:#EB3B00;}
	.st64{fill:#422918;}
	.st65{fill:#80ABBD;}
	.st66{fill:#4B7195;}
	.st67{opacity:0.4;fill:#5A93A0;}
	.st68{fill:none;stroke:#FFFFFF;stroke-width:10.2281;stroke-miterlimit:10;}
	.st69{opacity:0.4;fill:#A3D5E6;}
	.st70{fill:#C33E5D;}
	.st71{fill:#0C8068;}
	.st72{fill:none;stroke:#0A6D53;stroke-width:1.004;stroke-miterlimit:10;}
	.st73{opacity:0.5;fill:#0A6D53;}
	.st74{fill:#159A7A;}
	.st75{fill:none;stroke:#0C8068;stroke-width:1.004;stroke-miterlimit:10;}
	.st76{opacity:0.5;fill:#0C8068;}
	.st77{fill:#EBA154;}
	.st78{fill:#DC831E;}
	.st79{fill:#49496B;}
	.st80{fill:#323247;}
	.st81{fill:#B83D5D;}
	.st82{fill:#64648E;}
	.st83{fill:#FD783D;}
	.st84{fill:none;stroke:#E85481;stroke-width:1.512;stroke-miterlimit:10;}
	.st85{fill:none;stroke:#E85481;stroke-width:1.512;stroke-miterlimit:10;stroke-dasharray:7.6674,7.6674;}
	.st86{fill:none;stroke:#E85481;stroke-width:1.512;stroke-miterlimit:10;stroke-dasharray:5.6557,5.6557;}
	.st87{fill:none;stroke:#E85481;stroke-width:1.512;stroke-miterlimit:10;stroke-dasharray:5.1346,5.1346;}
	.st88{clip-path:url(#SVGID_12_);}
	.st89{clip-path:url(#SVGID_14_);fill:url(#SVGID_15_);}
	.st90{clip-path:url(#SVGID_14_);fill:url(#SVGID_16_);}
	.st91{clip-path:url(#SVGID_14_);fill:url(#SVGID_17_);}
	.st92{clip-path:url(#SVGID_14_);}
	.st93{fill:#FFFDFF;}
	.st94{fill:#EECC42;}
	.st95{fill:#C2C2C2;}
	.st96{clip-path:url(#SVGID_12_);fill:#EECC42;}
	.st97{fill:#231308;}
	.st98{fill:#310137;}
	.st99{fill:#D58A66;}
	.st100{fill:#C17E5C;}
	.st101{fill:#E89CAA;}
	.st102{fill:#B97C88;}
	.st103{fill:#1D1D1B;}
	.st104{fill:#E37657;}
	.st105{fill:none;}
	.st106{fill:#E8005B;}
	.st107{opacity:0.2;}
	.st108{fill:#EB996E;}
	.st109{fill:#FAFAFA;}
	.st110{fill:#D9B534;}
	.st111{fill:#63C140;}
	.st112{fill:#FFEE17;}
	.st113{fill:#EAA877;}
	.st114{fill:#31DB52;}
	.st115{fill:#587C07;}
	.st116{fill:#BA702D;}
	.st117{fill:#A3591C;}
	.st118{fill:#FFE8D6;}
	.st119{fill:#F4C6A1;}
	.st120{opacity:0.41;fill:#F4C6A1;}
	.st121{clip-path:url(#SVGID_19_);}
	.st122{fill:#0A8E4F;}
	.st123{fill:#7FDD7F;}
	.st124{fill:#0FA391;}
	.st125{fill:#0E7A6A;}
	.st126{fill:#80AF35;}
	.st127{fill:#689127;}
	.st128{fill:#FBED21;}
	.st129{fill:#F9C623;}
	.st130{fill:#DAD9D9;}
	.st131{fill:#A41726;}
	.st132{fill:#C2333B;}
	.st133{fill:#D5AB28;}
	.st134{fill:#F1CD30;}
	.st135{clip-path:url(#SVGID_21_);fill:#283135;}
	.st136{clip-path:url(#SVGID_21_);fill:#DC5152;}
	.st137{fill:none;stroke:#283135;stroke-width:1.8583;stroke-miterlimit:10;}
	.st138{fill:#C93D45;}
	.st139{fill:#DC5152;}
</style>
<g>
	<circle class="st0" cx="434.31" cy="476.19" r="316.81"/>
	<g>
		<defs>
			<path id="SVGID_5_" d="M758.25,466.4c0,179.88-145.82,325.7-325.7,325.7c-128.44,0-239.51-74.34-292.54-182.35
				c-21.24-43.26-122.26-191.9-122.26-243.34C17.75,186.53,229.9,12,409.78,12S758.25,286.52,758.25,466.4z"/>
		</defs>
		<clipPath id="SVGID_2_">
			<use xlink:href="#SVGID_5_"  style="overflow:visible;"/>
		</clipPath>
		<g class="st1">
			<g>
				<path class="st7" d="M444.33,423.84L444.33,423.84c-19.47,0-35.25-15.78-35.25-35.25v-73.42h70.49v73.42
					C479.57,408.06,463.79,423.84,444.33,423.84z"/>
				<rect x="409.08" y="315.17" class="st8" width="70.49" height="40.96"/>
			</g>
			<ellipse class="st8" cx="552.86" cy="238.49" rx="32.38" ry="32.08"/>
			<ellipse class="st8" cx="333.98" cy="238.49" rx="32.38" ry="32.08"/>
			<g>
				<path class="st7" d="M453.26,340h-19.43c-55.36,0-100.25-44.88-100.25-100.25v-67.25c0-55.36,44.88-100.25,100.25-100.25h19.43
					c55.36,0,100.25,44.88,100.25,100.25v67.25C553.5,295.12,508.62,340,453.26,340z"/>
				<path class="st9" d="M394.03,265.63c0,9.53-9.26,17.26-20.69,17.26s-20.69-7.73-20.69-17.26c0-9.53,9.26-17.26,20.69-17.26
					C384.77,248.38,394.03,256.1,394.03,265.63z"/>
				<path class="st9" d="M535.1,265.63c0,9.53-9.26,17.26-20.69,17.26c-11.43,0-20.69-7.73-20.69-17.26
					c0-9.53,9.26-17.26,20.69-17.26S535.1,256.1,535.1,265.63z"/>
			</g>
			<g>
				<path class="st10" d="M324.08,144.76c0,0-0.39,62.41,4.95,79.74c2.88,9.34,2.12,20.41,9.57,5.63
					c19.49-38.69,15.63-79.17,15.63-79.17L324.08,144.76z"/>
				<path class="st10" d="M553.03,238.25c0,0,26.12-125.22,0.06-124.55C527.02,114.37,522.16,215.63,553.03,238.25z"/>
			</g>
			<path class="st11" d="M444.5,255.02c-2.35,1.3-4.68,2.55-6.85,3.94c-1.06,0.72-2.14,1.43-3.01,2.27
				c-0.88,0.8-1.64,1.77-1.68,2.58c-0.1,0.78,0.44,1.6,1.42,2.4c0.88,0.81,1.88,1.42,3,1.75c2.25,0.64,4.87-0.14,7.12-1.55
				c-1.62,2.08-4.41,3.68-7.47,3.24c-1.51-0.19-2.86-0.96-4.01-1.83c-1.06-0.77-2.45-2.26-2.28-4.21c0.26-1.86,1.45-3,2.51-3.93
				c1.12-0.9,2.31-1.61,3.54-2.2C439.25,256.29,441.83,255.46,444.5,255.02z"/>
			<path class="st12" d="M416.92,283.72c0,0,14.28,12.61,52.56,1.39c0,0,2.16,22.87-25.75,22.87
				C415.4,307.98,416.92,283.72,416.92,283.72z"/>
			<path class="st13" d="M395.84,231.12c0,6.43-3.47,11.64-7.75,11.64c-4.28,0-7.74-5.21-7.74-11.64c0-6.43,3.47-11.64,7.74-11.64
				C392.37,219.48,395.84,224.69,395.84,231.12z"/>
			<path class="st13" d="M370.42,205.39c1.59-2.7,3.98-4.98,6.79-6.61c2.81-1.62,6.15-2.57,9.49-2.43c3.32,0.19,6.57,1.14,9.34,2.81
				c1.42,0.76,2.62,1.85,3.89,2.78c1.13,1.12,2.22,2.26,3.23,3.44c-1.4-0.76-2.68-1.61-3.98-2.42c-1.39-0.65-2.68-1.46-4.06-2.01
				c-2.74-1.2-5.61-1.89-8.49-2.03c-2.89-0.17-5.77,0.53-8.5,1.64C375.4,201.74,372.83,203.39,370.42,205.39z"/>
			<path class="st13" d="M508.54,231.12c0,6.43-3.47,11.64-7.75,11.64c-4.28,0-7.74-5.21-7.74-11.64c0-6.43,3.47-11.64,7.74-11.64
				C505.07,219.48,508.54,224.69,508.54,231.12z"/>
			<path class="st13" d="M484.43,209.17c1.59-2.7,3.98-4.98,6.79-6.61c2.81-1.62,6.15-2.57,9.49-2.43c3.32,0.19,6.57,1.14,9.34,2.81
				c1.42,0.76,2.62,1.85,3.89,2.78c1.13,1.12,2.22,2.26,3.23,3.44c-1.4-0.76-2.68-1.61-3.98-2.42c-1.39-0.65-2.68-1.46-4.06-2.01
				c-2.74-1.2-5.61-1.89-8.49-2.03c-2.89-0.17-5.77,0.53-8.5,1.64C489.4,205.52,486.83,207.17,484.43,209.17z"/>
			<g>
				<g>
					<path class="st14" d="M624.33,741.15c1.85,0,1.85-2.87,0-2.87C622.49,738.28,622.48,741.15,624.33,741.15L624.33,741.15z"/>
				</g>
			</g>
			<g>
				<polygon class="st18" points="404.97,1059.88 314.19,1055.62 326.2,753.69 460.44,754.18 				"/>
			</g>
			<circle class="st19" cx="393.32" cy="753.94" r="67.12"/>
			<g>
				<g>
					<polygon class="st18" points="485.27,1059.88 576.05,1055.62 564.04,753.69 429.8,754.18 					"/>
				</g>
				<circle class="st18" cx="496.92" cy="753.94" r="67.12"/>
			</g>
			<g>
				<g>
					<polygon class="st7" points="603.2,644.02 666.22,618.19 577.07,409.78 498.19,438.2 					"/>
					<circle class="st7" cx="634.06" cy="629.51" r="34.09"/>
				</g>
				<circle class="st7" cx="537.63" cy="423.99" r="41.92"/>
			</g>
			<g>
				<path class="st20" d="M572.46,603.91c0,0,72.68-6.65,92.13-37.77l-87.06-157.02l-82.19,29.62L572.46,603.91z"/>
			</g>
			<g>
				<path class="st21" d="M572.46,603.91c0,0,72.68-6.65,92.13-37.77l-11.93-21.52c0,0-38.57,33.84-89.08,40.26L572.46,603.91z"/>
			</g>
			<circle class="st20" cx="536.43" cy="423.94" r="43.68"/>
			<g>
				<g>
					<polygon class="st7" points="302.13,647.54 237.34,626.56 310.45,411.99 391.26,434.35 					"/>
					<circle class="st7" cx="270.27" cy="635.41" r="34.09"/>
				</g>
				<circle class="st7" cx="350.85" cy="423.17" r="41.92"/>
			</g>
			<g>
				<g>
					<path class="st20" d="M329.75,605.22c0,0-72.98-1.12-94.72-30.68l74.91-163.16l84.2,23.31L329.75,605.22z"/>
				</g>
				<circle class="st20" cx="352.04" cy="423.03" r="43.68"/>
			</g>
			<g>
				<path class="st21" d="M329.75,605.22c0,0-72.98-1.12-94.72-30.68l11.49-25.03c0,0,41.13,28.95,93.75,27.85L329.75,605.22z"/>
			</g>
			<g>
				<g>
					<path class="st22" d="M557.15,453.32c0-54.27-18.18-69.7-18.18-69.7c-10.1-4.36-32.85-9.14-45.18-11.13
						c-2.45-0.4-5.03,0.02-7.7,0.99c-2.07-0.21-4.26-0.42-6.59-0.63c-9.59-0.85-18.36,18.31-29.77,25.99c-3.3,1.83-6.49,3-9.5,3.1
						c-3.01-0.1-6.19-1.27-9.5-3.1c-11.41-7.68-20.17-26.85-29.77-25.99c-2.32,0.21-4.51,0.42-6.59,0.63
						c-2.67-0.97-5.25-1.39-7.7-0.99c-12.33,1.99-35.09,6.77-45.18,11.13c0,0-18.18,15.43-18.18,69.7
						c0,15.93,6.34,267.66,6.34,267.66s80.35,16.32,109.49,16.35c29.58,0.03,109.73-16.35,109.73-16.35S557.15,469.25,557.15,453.32
						z"/>
					<path class="st22" d="M440.23,401.94c-3.01-0.1-6.19-1.27-9.5-3.1c-11.41-7.68-20.17-26.85-29.77-25.99
						c-2.32,0.21-4.51,0.42-6.59,0.63c-2.67-0.97-5.25-1.39-7.7-0.99c-12.33,1.99-35.09,6.77-45.18,11.13
						c0,0-18.18,15.43-18.18,69.7c0,15.93,6.34,267.66,6.34,267.66s80.35,16.32,109.49,16.35L440.23,401.94z"/>
				</g>
				<g>
					<path class="st22" d="M524.92,534.55h-35.59c-7.47,0-13.53-6.06-13.53-13.53v-61.64h62.65v61.64
						C538.45,528.5,532.39,534.55,524.92,534.55z"/>
					<rect x="475.8" y="459.39" class="st22" width="62.65" height="20.35"/>
				</g>
			</g>
			<g>
				<path class="st21" d="M409.45,370.03l33.77,31.85l-19.99,39.02c0,0-34.38-27.15-32.7-63.54c19.34-32.08,18.4-21.29,18.4-21.29
					L409.45,370.03z"/>
				<path class="st21" d="M479.2,370.03l-35.99,31.85l22.21,39.02c0,0,34.38-27.15,32.7-63.54c-19.34-32.08-18.4-21.29-18.4-21.29
					L479.2,370.03z"/>
			</g>
			<g>
				<g>
					<polygon class="st23" points="189.93,609.16 196.79,627.47 266.73,586.95 248.47,567.24 213.74,572.64 					"/>
				</g>
				<g>
					
						<ellipse transform="matrix(0.9898 -0.1425 0.1425 0.9898 -87.6973 41.8973)" class="st24" cx="248.57" cy="633.03" rx="53.78" ry="53.78"/>
				</g>
				<g>
					<g>
						<path class="st23" d="M283.19,648.44c0,0,0.06-0.2,0.19-0.59c0.15-0.41,0.36-0.97,0.62-1.7c0.14-0.37,0.3-0.79,0.47-1.25
							c0.15-0.47,0.27-0.99,0.42-1.55c0.3-1.12,0.68-2.41,0.87-3.9c0.58-2.95,0.74-6.68,0.26-10.92c-0.5-4.23-1.82-9.01-4.42-13.72
							c-2.59-4.68-6.41-9.37-11.64-12.92c-1.34-0.84-2.65-1.78-4.13-2.45c-0.73-0.36-1.45-0.76-2.21-1.09
							c-0.77-0.3-1.55-0.6-2.33-0.9c-0.39-0.14-0.78-0.32-1.18-0.44l-1.23-0.34c-0.82-0.22-1.64-0.47-2.49-0.66
							c-1.71-0.27-3.42-0.66-5.2-0.7c-1.77-0.2-3.56-0.08-5.38-0.03c-0.9,0.07-1.81,0.22-2.72,0.32c-0.92,0.08-1.82,0.29-2.72,0.5
							c-1.83,0.34-3.59,0.99-5.39,1.57c-1.73,0.76-3.51,1.48-5.16,2.48c-3.32,1.93-6.53,4.29-9.16,7.29
							c-2.67,2.95-4.91,6.36-6.63,10.07c-1.62,3.76-2.66,7.7-3.08,11.66c-0.47,3.96-0.1,7.93,0.68,11.69c0.35,1.9,1,3.7,1.59,5.5
							c0.76,1.73,1.45,3.48,2.42,5.07c0.44,0.82,0.89,1.63,1.44,2.36c0.53,0.75,1.02,1.52,1.57,2.24c1.17,1.38,2.29,2.8,3.61,3.98
							c1.22,1.3,2.66,2.31,3.99,3.4c0.7,0.5,1.44,0.94,2.15,1.41l1.07,0.69c0.36,0.22,0.75,0.39,1.12,0.59
							c0.75,0.38,1.49,0.76,2.23,1.14c0.75,0.35,1.53,0.61,2.29,0.92c1.5,0.66,3.07,1.01,4.58,1.45c6.14,1.54,12.18,1.24,17.4,0.06
							c5.24-1.21,9.68-3.41,13.17-5.86c3.48-2.47,6.15-5.07,7.96-7.47c0.99-1.14,1.69-2.28,2.33-3.25c0.31-0.49,0.62-0.93,0.87-1.35
							c0.23-0.43,0.43-0.82,0.62-1.18c0.36-0.68,0.65-1.21,0.85-1.6C283.08,648.62,283.19,648.44,283.19,648.44s-0.07,0.2-0.25,0.56
							c-0.19,0.39-0.45,0.93-0.79,1.63c-0.18,0.36-0.38,0.76-0.59,1.2c-0.24,0.43-0.54,0.88-0.85,1.37
							c-0.62,0.99-1.31,2.15-2.29,3.31c-1.79,2.44-4.46,5.1-7.95,7.62c-3.5,2.5-7.97,4.76-13.27,6.01
							c-5.27,1.23-11.4,1.55-17.63,0.02c-1.54-0.44-3.14-0.79-4.66-1.45c-0.77-0.31-1.56-0.57-2.32-0.93
							c-0.75-0.38-1.5-0.76-2.26-1.15c-0.38-0.2-0.77-0.37-1.14-0.6l-1.09-0.7c-0.72-0.48-1.47-0.92-2.19-1.43
							c-1.36-1.11-2.82-2.13-4.06-3.45c-1.35-1.2-2.48-2.64-3.68-4.04c-0.56-0.73-1.06-1.51-1.6-2.27c-0.56-0.75-1.01-1.57-1.47-2.4
							c-0.99-1.61-1.69-3.39-2.47-5.15c-0.6-1.83-1.27-3.66-1.62-5.59c-0.79-3.83-1.18-7.86-0.7-11.89
							c0.43-4.03,1.48-8.04,3.13-11.86c1.75-3.78,4.03-7.24,6.75-10.24c2.69-3.04,5.95-5.45,9.33-7.4c1.68-1.02,3.49-1.75,5.25-2.52
							c1.83-0.59,3.62-1.25,5.48-1.59c0.92-0.22,1.83-0.43,2.76-0.51c0.93-0.11,1.84-0.25,2.76-0.32c1.84-0.05,3.67-0.16,5.46,0.04
							c1.81,0.05,3.55,0.45,5.28,0.73c0.86,0.19,1.69,0.45,2.52,0.68l1.25,0.35c0.41,0.12,0.8,0.3,1.2,0.45
							c0.79,0.31,1.58,0.62,2.37,0.92c0.77,0.33,1.5,0.75,2.24,1.11c1.51,0.69,2.84,1.65,4.19,2.5c5.3,3.62,9.14,8.4,11.74,13.15
							c2.6,4.78,3.9,9.62,4.37,13.9c0.45,4.28,0.25,8.04-0.37,11.01c-0.21,1.51-0.61,2.79-0.94,3.91c-0.17,0.56-0.3,1.08-0.46,1.55
							c-0.18,0.45-0.35,0.87-0.5,1.24c-0.29,0.72-0.52,1.27-0.69,1.68C283.29,648.26,283.19,648.44,283.19,648.44z"/>
					</g>
				</g>
				<g>
					
						<ellipse transform="matrix(0.5744 -0.8186 0.8186 0.5744 -412.3942 472.9051)" class="st23" cx="248.57" cy="633.03" rx="14.85" ry="14.85"/>
				</g>
				<g>
					<path class="st25" d="M258.31,637.39c-2.4,5.38-8.71,7.79-14.09,5.38c-5.38-2.4-7.79-8.71-5.38-14.09
						c2.4-5.38,8.71-7.79,14.09-5.38C258.3,625.7,260.71,632.01,258.31,637.39z"/>
				</g>
				<g>
					<g>
						<path class="st23" d="M211.34,671.15c-0.03-0.02,0.34-0.52,1.06-1.44c0.78-0.97,1.83-2.28,3.13-3.9l0.02,0.27
							c-2.34-2.02-5.18-5.02-7.65-9.06c-2.47-4.03-4.5-9.12-5.48-14.74c-0.92-5.15-0.97-10.13-0.6-14.53
							c0.38-4.4,1.14-8.22,2.04-11.21l0.06-0.19l0.19,0.04c2.53,0.56,4.57,1.01,6.08,1.35c0.65,0.16,1.18,0.28,1.62,0.39
							c0.37,0.1,0.56,0.15,0.55,0.17c0,0.02-0.2,0-0.58-0.06c-0.44-0.08-0.98-0.17-1.64-0.28c-1.52-0.29-3.57-0.68-6.12-1.16
							l0.25-0.15c-0.82,2.95-1.52,6.77-1.86,11.13c-0.33,4.36-0.26,9.29,0.65,14.36c0.97,5.55,2.94,10.56,5.33,14.55
							c2.4,4.01,5.15,7.01,7.41,9.07l0.14,0.13l-0.12,0.14c-1.36,1.57-2.45,2.84-3.27,3.79
							C211.79,670.71,211.37,671.17,211.34,671.15z"/>
					</g>
				</g>
				<g>
					<path class="st25" d="M213.36,609.16c0,1.26-1.02,2.28-2.28,2.28c-1.26,0-2.28-1.02-2.28-2.28c0-1.26,1.02-2.28,2.28-2.28
						C212.34,606.88,213.36,607.9,213.36,609.16z"/>
				</g>
				<g>
					<circle class="st25" cx="216.03" cy="602.75" r="2.28"/>
				</g>
				<g>
					<path class="st25" d="M224.48,597.15c0,1.26-1.02,2.28-2.28,2.28c-1.26,0-2.28-1.02-2.28-2.28c0-1.26,1.02-2.28,2.28-2.28
						C223.45,594.87,224.48,595.89,224.48,597.15z"/>
				</g>
				<g>
					<g>
						
							<rect x="145.4" y="518.78" transform="matrix(-0.8507 0.5256 -0.5256 -0.8507 546.7594 884.7985)" class="st26" width="4.66" height="2.54"/>
					</g>
					<g>
						<g>
							
								<rect x="143.44" y="484.77" transform="matrix(-0.8507 0.5256 -0.5256 -0.8507 549.884 836.307)" class="st23" width="25.49" height="22.94"/>
						</g>
						<g>
							
								<rect x="148.41" y="505.81" transform="matrix(-0.8507 0.5256 -0.5256 -0.8507 569.5847 855.4521)" class="st23" width="29.81" height="5.61"/>
						</g>
						<g>
							
								<rect x="142.74" y="510.72" transform="matrix(-0.8507 0.5256 -0.5256 -0.8507 577.3788 863.3915)" class="st23" width="46.68" height="5.94"/>
						</g>
						<g>
							
								<rect x="154.74" y="514.55" transform="matrix(-0.8507 0.5256 -0.5256 -0.8507 598.3807 883.2418)" class="st25" width="38.04" height="24.1"/>
						</g>
						<g>
							<g>
								<path class="st23" d="M172.31,483.36c2.03,6.17,7.54,9.8,12.55,13.43c2.79,2.02,5.6,4.2,7.53,7.1
									c2.14,3.21,2.94,7.01,2.59,10.82c-0.09,1,1.48,1,1.57,0c0.66-7.17-2.83-12.98-8.3-17.32c-5.27-4.18-12.17-7.63-14.42-14.45
									C173.51,481.99,171.99,482.4,172.31,483.36L172.31,483.36z"/>
							</g>
						</g>
						<g>
							<g>
								<path class="st23" d="M151.77,524.26c-9.36-4.88-15.27-14.52-15.32-25.09c-0.01-1.01-1.57-1.01-1.57,0
									c0.06,11.09,6.26,21.32,16.1,26.45C151.87,526.08,152.67,524.73,151.77,524.26L151.77,524.26z"/>
							</g>
						</g>
						<g>
							<path class="st24" d="M188.21,615.92l-37.01-81.14c12.34,2.12,21-0.72,21.75-14.24l19.82-13.22l59.72,61.74
								c0,0-21.15,0.45-40.91,16.54C191.82,601.7,188.21,615.92,188.21,615.92z"/>
						</g>
						<g>
							<g>
								<path class="st12" d="M180.72,515.37c0.01-0.01,0.09,0.08,0.23,0.26c0.17,0.21,0.38,0.47,0.64,0.79
									c0.58,0.74,1.38,1.77,2.39,3.08c2.08,2.74,5.05,6.62,8.7,11.41c3.66,4.85,8.01,10.6,12.83,16.98
									c1.21,1.6,2.44,3.24,3.7,4.91c1.21,1.7,2.69,3.28,3.63,5.36c1.84,4.09,1.18,9.4-2.01,12.97c-0.78,0.89-1.68,1.68-2.68,2.29
									c-0.98,0.64-2.06,1.11-3.17,1.43c-2.22,0.65-4.59,0.61-6.74,0.01c-2.15-0.62-4.09-1.81-5.55-3.39
									c-0.75-0.78-1.34-1.67-1.9-2.51c-0.58-0.85-1.14-1.69-1.71-2.52c-4.48-6.63-8.52-12.6-11.92-17.63
									c-3.35-5-6.07-9.06-7.99-11.92c-0.91-1.38-1.63-2.47-2.14-3.26c-0.22-0.35-0.4-0.63-0.54-0.86c-0.12-0.19-0.18-0.3-0.17-0.3
									c0.01-0.01,0.08,0.08,0.22,0.27c0.16,0.22,0.35,0.49,0.6,0.82c0.54,0.77,1.29,1.84,2.25,3.19c1.96,2.83,4.74,6.85,8.16,11.8
									c3.43,5.01,7.51,10.95,12.03,17.55c0.57,0.83,1.14,1.66,1.72,2.51c0.58,0.86,1.15,1.71,1.85,2.44
									c1.39,1.5,3.23,2.62,5.27,3.2c2.04,0.57,4.28,0.6,6.38-0.02c1.05-0.3,2.07-0.74,3-1.36c0.95-0.58,1.8-1.33,2.54-2.17
									c3.02-3.38,3.65-8.41,1.91-12.29c-0.85-1.93-2.33-3.54-3.54-5.24c-1.26-1.68-2.48-3.32-3.68-4.92
									c-4.78-6.41-9.09-12.19-12.72-17.06c-3.58-4.84-6.49-8.77-8.53-11.54c-0.97-1.34-1.74-2.4-2.29-3.16
									c-0.24-0.34-0.43-0.61-0.58-0.83C180.78,515.48,180.71,515.38,180.72,515.37z"/>
							</g>
						</g>
						<g>
							<g>
								<path class="st23" d="M237.11,553.16c-0.01,0.03-0.48-0.03-1.35-0.18c-0.95-0.17-2.21-0.4-3.75-0.69
									c-3.31-0.65-7.86-1.54-13.25-2.6l-0.11-0.02l-0.07-0.09c-2.72-3.65-5.84-7.84-9.14-12.27
									c-5.53-7.53-10.54-14.34-14.23-19.36c-1.76-2.44-3.19-4.44-4.25-5.91c-0.46-0.66-0.83-1.19-1.13-1.63
									c-0.25-0.38-0.38-0.58-0.36-0.59c0.02-0.01,0.18,0.16,0.46,0.52c0.33,0.41,0.73,0.93,1.23,1.55c1.1,1.44,2.6,3.4,4.42,5.79
									c3.73,4.99,8.79,11.76,14.39,19.24c3.28,4.45,6.38,8.65,9.09,12.31l-0.18-0.11c5.37,1.15,9.91,2.12,13.21,2.83
									c1.53,0.35,2.78,0.63,3.72,0.85C236.66,553.01,237.12,553.13,237.11,553.16z"/>
							</g>
						</g>
						<g>
							<g>
								<path class="st23" d="M199.82,597.28c-0.03,0.02-0.29-0.27-0.74-0.84c-0.45-0.56-1.08-1.39-1.85-2.44
									c-1.55-2.08-3.68-5.01-6.06-8.34l0.21,0.13c-0.7-0.12-1.43-0.25-2.18-0.38c-4.54-0.81-8.64-1.58-11.6-2.16
									c-1.48-0.29-2.68-0.54-3.5-0.73c-0.82-0.19-1.28-0.31-1.27-0.36s0.48,0,1.31,0.1c0.84,0.11,2.05,0.29,3.54,0.52
									c2.98,0.47,7.1,1.17,11.64,1.98c0.74,0.13,1.48,0.27,2.18,0.39l0.13,0.02l0.08,0.11c2.36,3.34,4.43,6.31,5.89,8.46
									c0.73,1.07,1.31,1.94,1.69,2.55C199.65,596.91,199.85,597.26,199.82,597.28z"/>
							</g>
						</g>
						<g>
							<g>
								<path class="st27" d="M176.18,510.24c-0.15,0.09-0.82-0.7-1.48-1.78c-0.67-1.08-1.08-2.03-0.93-2.12
									c0.15-0.09,0.82,0.7,1.48,1.78C175.92,509.2,176.33,510.15,176.18,510.24z"/>
							</g>
						</g>
						<g>
							<g>
								<path class="st27" d="M167.62,515.63c-0.15,0.09-0.89-0.82-1.65-2.05c-0.76-1.22-1.25-2.29-1.09-2.39
									c0.15-0.09,0.89,0.82,1.65,2.05C167.28,514.46,167.77,515.53,167.62,515.63z"/>
							</g>
						</g>
						<g>
							<g>
								<path class="st27" d="M158.69,520.86c-0.15,0.09-0.88-0.81-1.63-2.01c-0.75-1.21-1.23-2.26-1.07-2.36
									c0.15-0.09,0.88,0.81,1.63,2.01C158.36,519.71,158.84,520.77,158.69,520.86z"/>
							</g>
						</g>
						<g>
							
								<rect x="177.86" y="498.72" transform="matrix(-0.8507 0.5256 -0.5256 -0.8507 596.293 830.617)" class="st26" width="4.66" height="2.54"/>
						</g>
						<g>
							<g>
								<path class="st27" d="M184.12,499.28c0.02,0.04-0.51,0.4-1.49,1.01c-1.09,0.67-2.49,1.53-4.17,2.57
									c-3.63,2.22-8.45,5.17-13.78,8.43c-5.31,3.3-10.11,6.28-13.72,8.52c-1.68,1.03-3.08,1.9-4.17,2.57
									c-0.99,0.6-1.55,0.91-1.57,0.87c-0.02-0.04,0.49-0.42,1.44-1.09c0.95-0.66,2.33-1.6,4.06-2.75
									c3.45-2.29,8.26-5.38,13.63-8.69c5.37-3.31,10.3-6.21,13.89-8.27c1.8-1.03,3.26-1.84,4.28-2.39
									C183.53,499.53,184.1,499.24,184.12,499.28z"/>
							</g>
						</g>
						<g>
							<g>
								<path class="st27" d="M174.2,498.76c0.05,0.08-1.32,0.95-3.55,2.33c-2.39,1.47-5.39,3.32-8.72,5.36
									c-3.32,2.06-6.31,3.92-8.7,5.4c-2.23,1.38-3.62,2.21-3.67,2.13c-0.05-0.07,1.25-1.04,3.42-2.52c2.17-1.48,5.2-3.46,8.6-5.57
									c3.4-2.1,6.53-3.93,8.82-5.21C172.71,499.42,174.16,498.69,174.2,498.76z"/>
							</g>
						</g>
						<g>
							<path class="st25" d="M201.37,561.78l-0.37,0.25c-1.61,1.09-3.8,0.66-4.88-0.95l-7.84-11.65c-1.09-1.61-0.66-3.8,0.95-4.88
								l0.37-0.25c1.61-1.09,3.8-0.66,4.88,0.95l7.84,11.65C203.41,558.51,202.98,560.7,201.37,561.78z"/>
						</g>
					</g>
					<g>
						<g>
							<polygon class="st23" points="79.35,454.68 57.26,437.89 63.14,427.46 85.88,442.63 							"/>
						</g>
						<g>
							<polygon class="st23" points="94.51,363.97 103.83,377.26 115.36,398.47 122.56,417.44 136.6,414.26 132.66,402.35 
								118.34,376.23 104.79,356.33 							"/>
						</g>
						<g>
							<path class="st23" d="M85.88,398.4c0,0,18.77,29.27,19.32,28.98c0.55-0.29,15.13-8.57,15.13-8.57l-23.11-28.6L85.88,398.4z"
								/>
						</g>
						<g>
							<polygon class="st23" points="66.51,415.38 90.32,439.67 102.92,428.44 75.48,404.87 57.2,390.21 47.99,401.18 							"/>
						</g>
						<g>
							<path class="st23" d="M158.56,442.39c-4.09-0.27-8.01-9.57-9.91-13.2c-2.18-4.14-4.52-9.71-7.01-12.91l-18.18,6.53
								c-14.33,7.66-27.22,18.02-37.79,30.36c-1.04,1.21-2.1,2.56-2.16,4.16c-0.05,1.41,0.71,2.71,1.49,3.89
								c4.28,6.47,9.98,11.99,16.59,16.05c1.5,0.92,3.12,1.79,4.88,1.87c2.46,0.11,4.69-1.33,6.73-2.71
								c10.42-7.06,20.83-14.11,31.25-21.17c2.13-1.44,26.82,3.2,28,0.92C174.03,453.09,173.63,443.4,158.56,442.39z"/>
						</g>
						<g>
							<path class="st23" d="M165.95,411.69c0,0,4.29,9.28,5.38,12.64s-3.61,10.56-3.61,10.56l-10.08-0.66l-2.38-7.6l-3.12-5.32
								L165.95,411.69z"/>
						</g>
						<g>
							<path class="st24" d="M174.89,489.08c0.14-0.94,0.02-7.72-0.36-12.83c-0.38-5.12,1.62-17.37,1.51-21.06
								c0,0-21-2.17-22.18-3.39c-1.18-1.22-7.82-6.76-10.77-6c-2.96,0.76-48.11,30.58-48.57,30.87
								c-0.46,0.29,25.51,30.9,32.26,35.93c6.75,5.03,7.97,3.21,7.97,3.21s-3.52-9.17-0.51-12.95c3.01-3.79,7.06-6.93,16.92-5.53
								c9.86,1.4,11.53,2.72,17.05-0.47C173.73,493.65,174.89,489.08,174.89,489.08z"/>
						</g>
						<g>
							<path class="st24" d="M138.6,412.67c0,0,7.69,11.04,6.33,15.36c-1.36,4.32-16.8,11.45-33,23.33
								c-12.52,9.18-19.77,18.15-21.94,18.05c-2.16-0.1-10.52-12.63-11-13.51c-1.82-3.41,7.23-17.65,20.01-27.2
								C111.78,419.15,136.17,410.51,138.6,412.67z"/>
						</g>
						<g>
							<path class="st24" d="M98.14,343.21c-4.14-3.91-9.56-1.18-9.56-1.18c-3.06,1.89-4.21,6-2.4,9.91
								c1.81,3.91,7.42,14.59,8.18,14.52c6.18-1.89,11.14-4.48,14.29-8.09C108.65,358.37,101.53,346.4,98.14,343.21z"/>
						</g>
						<g>
							<path class="st24" d="M110.48,363.11l-11.89,7.82c-0.8,0.52-1.02,1.53-0.51,2.31c2.28,3.42,8.11,12.2,10.35,15.6
								c0.51,0.77,1.56,1.04,2.42,0.62c1.81-0.89,4.79-2.37,6.38-3.26c2.87-1.61,6.41-3.94,6.41-5.82c0-2.05-7.51-12.56-10.57-16.82
								C112.5,362.75,111.33,362.56,110.48,363.11z"/>
						</g>
						<g>
							<path class="st24" d="M126.82,385.81c-0.5-0.62-1.43-0.76-2.23-0.35c-3.71,1.89-14.09,7.26-14.16,8.33
								c-0.08,1.3,6.82,14.77,9.18,16.73c2.37,1.96,17.13-4.85,16.72-7.23C135.98,401.14,129.99,389.76,126.82,385.81z"/>
						</g>
						<g>
							<path class="st24" d="M56.65,356.99c0.53-0.39,5.4-3.34,10.11-0.08c4.72,3.26,11.79,9.79,12.28,11.62
								c0.49,1.84,1.03,5.29-1.52,7c-2.55,1.7-8.82,6.8-10.01,6.12c-1.19-0.68-3.39-2.16-7.31-7.25
								C56.29,369.3,49.61,362.24,56.65,356.99z"/>
						</g>
						<g>
							<path class="st23" d="M79.44,370.83c0,0,3.08,1.93,3.19,2.72c0.11,0.79,1.18,2.94-0.59,4.59c-1.34,1.26-4.97,3.49-7.13,4.78
								c-1.04,0.62-2.18,1.1-3.19,0.45l-2.64-2.08L79.44,370.83z"/>
						</g>
						<g>
							<path class="st24" d="M102.89,394.72c0,0,1.31-0.37,2.44,1.26c1.13,1.62,10.84,13.2,10.47,14.77
								c-0.37,1.57-15,10.65-15.95,9.9s-10.8-14.74-10.34-16.24C89.96,402.91,102.25,394.73,102.89,394.72z"/>
						</g>
						<g>
							<path class="st24" d="M81.75,409.47c0.37-0.09,0.9-1.05,2.52,0.44c1.63,1.49,11.85,10.08,12.1,12.31
								c0.25,2.23-8.9,12.67-11.46,11.72c-2.56-0.95-10.11-8.49-12.72-11.92c0,0-1.14-1.51-0.52-2.52
								C72.16,418.73,81.75,409.47,81.75,409.47z"/>
						</g>
						<g>
							<path class="st24" d="M78.16,405.38c-0.17-0.6-12.71-10.67-14.94-11.03c-0.99-0.16-7.93,6.83-8.32,9.13
								c-0.4,2.3-0.14,4.2,1.87,6.57c2.01,2.38,9.43,8.45,11.63,7.22c2.19-1.23,8.24-7.24,8.24-7.24S78.83,407.81,78.16,405.38z"/>
						</g>
						<g>
							<path class="st24" d="M47.26,383.37c-4.22-1.44-8.35-0.28-10.06,3.3c-1.67,3.52,0.99,8.15,2.97,10.44
								c1.98,2.29,6.91,6.24,9.78,6.13c3.03-1.62,7.39-6.87,9.21-11.06c0.33-0.76,0.09-1.65-0.57-2.16
								C55.95,387.98,49.45,384.11,47.26,383.37z"/>
						</g>
						<g>
							<path class="st24" d="M50.8,421.47l0.5-0.31c0,0,10.21,3.31,12.21,5.4c2,2.09-0.15,5.29-0.56,6.26
								c-0.4,0.96-3.57,6.86-5.47,6.85c-1.91-0.01-5.7-1.13-8.24-3.23c-2.54-2.1-3-2.65-3-2.65L50.8,421.47z"/>
						</g>
						<g>
							<path class="st24" d="M67.96,429.58c0,0,0.99-0.5,1.68-0.34s12.24,7.85,13.05,9.34c0.8,1.49-0.14,3.65-1.18,5.71
								c-1.04,2.07-5.4,7.97-7.17,7.76c-1.77-0.22-11.61-7.79-12.63-9.17c-1.02-1.38-0.68-2.8-0.68-2.8L67.96,429.58z"/>
						</g>
						<g>
							<path class="st24" d="M150.88,391.5c0,0,2.51,0.47,4.41,2.61c1.9,2.14,12.86,19.49,12.86,19.49s0,2.96-5.42,6.47
								c-2.25,1.46-9.6,4.04-9.6,4.04s-3.99-5.31-6.65-9.81c-2.65-4.5-4.76-12.49-2.91-16.91
								C145.43,392.97,148.95,391.12,150.88,391.5z"/>
						</g>
						<g>
							<path class="st24" d="M170.33,418.48c0,0-3.36,3.96-5.51,4.81c-2.08,0.82-9.99,3.23-9.99,3.23l0.75,10.86
								c0,0-2.14,7.34-1.91,7.89c0.23,0.55,19.07,6.96,20.11,5.87c1.04-1.09,2.36-12.19,2.19-15.88
								C175.8,431.57,170.33,418.48,170.33,418.48z"/>
						</g>
						<g>
							<path class="st24" d="M82.67,374.37c0.86-0.68,2.08-0.61,2.85,0.17c3.25,3.31,11.34,11.61,12.07,12.79
								c0.91,1.48,1.75,3.22-0.67,5.6c-2.56,2.52-8.2,7.6-10.68,7.38c-2.47-0.22-14.51-12.11-14.53-14.77
								c-0.02-3.05,6.19-7.28,6.19-7.28C80.52,375.79,80.53,376.07,82.67,374.37z"/>
						</g>
						<g class="st28">
							<g>
								<path d="M48.39,436.3c2.92-0.15,5.75-1.66,7.51-4c0.86-1.15,1.48-2.54,1.44-3.98c-0.05-1.51-0.84-2.93-1.88-4.02
									c-1.04-1.1-2.34-1.92-3.61-2.73"/>
							</g>
						</g>
						<g>
							<path class="st24" d="M50.72,420.9c2.23,0.72,5.75,5.47,4.89,7.91c-0.87,2.44-6.37,7.38-8.8,8.05
								c-2.43,0.67-6.42-1.74-8.52-3.41c-2.1-1.67-1.85-4.54-0.13-6.56C39.88,424.87,48.04,420.03,50.72,420.9z"/>
						</g>
						<g class="st28">
							<g>
								<path d="M43.17,423.24c0-0.06,0.98,0.08,1.99,1.2c0.49,0.55,0.93,1.35,1.12,2.32c0.2,0.96,0.14,2.09-0.28,3.15
									c-0.84,2.14-2.66,3.41-4.01,3.87c-1.39,0.49-2.31,0.32-2.3,0.26c-0.01-0.11,0.88-0.13,2.13-0.69
									c1.23-0.54,2.83-1.76,3.58-3.67c0.77-1.91,0.22-3.89-0.59-4.94C43.98,423.64,43.11,423.35,43.17,423.24z"/>
							</g>
						</g>
						<g class="st28">
							<g>
								<path d="M52.37,432.72c0.03,0.17-1.79,0.49-3.96-0.06c-2.17-0.53-3.63-1.65-3.53-1.79c0.1-0.17,1.63,0.66,3.69,1.15
									C50.62,432.55,52.36,432.53,52.37,432.72z"/>
							</g>
						</g>
						<g class="st28">
							<g>
								<path d="M60.84,435.54c-0.04,0.17-1.92-0.14-4.05-1.1c-2.13-0.96-3.61-2.16-3.51-2.3c0.11-0.16,1.71,0.78,3.78,1.71
									C59.12,434.78,60.89,435.36,60.84,435.54z"/>
							</g>
						</g>
						<g class="st28">
							<g>
								<path d="M78.42,447.53c-0.04,0.07-1.01-0.32-2.5-1.12c-1.49-0.8-3.5-2.02-5.57-3.56c-2.08-1.54-3.82-3.11-5.02-4.31
									c-1.2-1.2-1.85-2.01-1.79-2.07c0.14-0.14,3.08,2.82,7.2,5.86C74.83,445.39,78.51,447.35,78.42,447.53z"/>
							</g>
						</g>
						<g class="st28">
							<g>
								<path d="M48.85,384.46c0.07,0.01,0.01,0.89-0.45,2.23c-0.45,1.34-1.36,3.11-2.8,4.74c-1.44,1.62-3.1,2.74-4.37,3.34
									c-1.28,0.61-2.14,0.78-2.16,0.71c-0.1-0.19,3.27-1.31,6.04-4.49C47.94,387.87,48.65,384.39,48.85,384.46z"/>
							</g>
						</g>
						<g class="st28">
							<g>
								<path d="M53.78,399.52c-0.1,0.14-2.34-1.23-4.76-3.36c-2.43-2.13-4.07-4.18-3.94-4.29c0.14-0.13,1.98,1.7,4.37,3.8
									C51.84,397.78,53.88,399.37,53.78,399.52z"/>
							</g>
						</g>
						<g class="st28">
							<g>
								<path d="M71.74,413.18c-0.04,0.07-1.02-0.41-2.51-1.34c-1.49-0.93-3.48-2.34-5.52-4.1c-2.04-1.75-3.73-3.51-4.88-4.84
									c-1.15-1.33-1.77-2.23-1.71-2.28c0.15-0.13,2.97,3.17,7.01,6.63C68.16,410.73,71.84,413.01,71.74,413.18z"/>
							</g>
						</g>
						<g class="st28">
							<g>
								<path d="M88.52,430.2c-0.05,0.07-0.97-0.5-2.36-1.57c-1.38-1.07-3.21-2.67-5.03-4.63c-1.82-1.96-3.29-3.9-4.26-5.35
									c-0.97-1.46-1.47-2.42-1.4-2.47c0.17-0.11,2.52,3.51,6.13,7.37C85.2,427.43,88.64,430.04,88.52,430.2z"/>
							</g>
						</g>
						<g class="st28">
							<g>
								<path d="M67.08,357.8c0.07,0.02-0.08,0.91-0.71,2.23c-0.62,1.31-1.82,2.99-3.57,4.38c-1.76,1.38-3.67,2.15-5.09,2.45
									c-1.42,0.31-2.33,0.24-2.33,0.17c-0.01-0.11,0.87-0.21,2.21-0.62c1.34-0.4,3.12-1.2,4.8-2.52c1.67-1.32,2.86-2.88,3.57-4.08
									C66.68,358.6,66.98,357.76,67.08,357.8z"/>
							</g>
						</g>
						<g class="st28">
							<g>
								<path d="M73.93,377.07c-0.12,0.13-3-2.32-6.23-5.67c-3.24-3.35-5.59-6.31-5.46-6.42c0.14-0.12,2.7,2.64,5.93,5.97
									C71.39,374.28,74.06,376.93,73.93,377.07z"/>
							</g>
						</g>
						<g class="st28">
							<g>
								<path d="M92.24,396.39c-0.05,0.06-1.1-0.68-2.67-2.05c-1.57-1.36-3.64-3.35-5.73-5.74c-2.09-2.39-3.79-4.71-4.93-6.45
									c-1.14-1.74-1.74-2.87-1.67-2.92c0.08-0.05,0.82,0.99,2.05,2.65c1.23,1.66,2.97,3.91,5.04,6.28
									c2.07,2.37,4.07,4.39,5.56,5.83C91.36,395.44,92.3,396.31,92.24,396.39z"/>
							</g>
						</g>
						<g class="st28">
							<g>
								<path d="M108.36,417.1c-0.14,0.11-3.18-3.56-6.78-8.19c-3.6-4.63-6.41-8.48-6.27-8.59c0.14-0.11,3.18,3.55,6.78,8.19
									C105.69,413.15,108.5,416.99,108.36,417.1z"/>
							</g>
						</g>
						<g class="st28">
							<g>
								<path d="M127.66,408.9c-0.07,0.05-0.76-0.86-1.79-2.38c-1.03-1.52-2.4-3.66-3.84-6.07c-1.44-2.41-2.68-4.62-3.54-6.25
									c-0.86-1.63-1.34-2.66-1.26-2.7c0.08-0.04,0.7,0.91,1.66,2.48c1.07,1.78,2.32,3.85,3.7,6.14c1.37,2.29,2.61,4.37,3.67,6.16
									C127.19,407.86,127.74,408.85,127.66,408.9z"/>
							</g>
						</g>
						<g class="st28">
							<g>
								<path d="M115.05,386.25c-0.07,0.05-0.88-0.86-2.06-2.44c-1.18-1.57-2.72-3.83-4.24-6.42c-1.52-2.6-2.73-5.05-3.52-6.85
									c-0.79-1.8-1.19-2.96-1.11-2.99c0.09-0.04,0.63,1.05,1.53,2.79c0.89,1.74,2.16,4.14,3.66,6.72
									c1.51,2.58,2.98,4.85,4.06,6.49C114.45,385.18,115.13,386.19,115.05,386.25z"/>
							</g>
						</g>
						<g class="st28">
							<g>
								<path d="M97.65,344.72c0.07,0.02-0.04,0.88-0.69,2.11c-0.63,1.22-1.9,2.78-3.79,3.81c-1.9,1.02-3.9,1.22-5.27,1.08
									c-1.39-0.14-2.17-0.52-2.15-0.59c0.03-0.1,0.84,0.11,2.17,0.12c1.31,0.02,3.17-0.24,4.93-1.19c1.76-0.95,3-2.36,3.71-3.47
									C97.28,345.49,97.54,344.69,97.65,344.72z"/>
							</g>
						</g>
						<g class="st28">
							<g>
								<path d="M100.7,364.09c-0.16,0.09-1.96-2.92-4.02-6.71c-2.06-3.79-3.6-6.93-3.44-7.02c0.16-0.09,1.96,2.92,4.02,6.71
									C99.32,360.86,100.86,364.01,100.7,364.09z"/>
							</g>
						</g>
						<g class="st28">
							<g>
								<path d="M156.89,396.33c0.07,0.05-0.43,0.89-1.35,2.18c-0.92,1.28-2.28,3.04-4.19,4.59c-1.91,1.56-4.03,2.44-5.62,2.71
									c-1.6,0.28-2.6,0.05-2.58-0.02c0-0.11,0.99-0.06,2.49-0.44c1.5-0.36,3.47-1.27,5.3-2.76c1.83-1.5,3.22-3.17,4.23-4.37
									C156.18,397.02,156.82,396.27,156.89,396.33z"/>
							</g>
						</g>
						<g class="st28">
							<g>
								<path d="M157.9,421.69c-0.16,0.09-2.46-3.64-5.15-8.33c-2.69-4.69-4.74-8.57-4.58-8.66c0.16-0.09,2.46,3.64,5.15,8.33
									C156,417.72,158.05,421.6,157.9,421.69z"/>
							</g>
						</g>
						<g class="st28">
							<g>
								<path d="M160.74,446.87c-0.1-0.01,0.02-1.2,0.13-3.12c0.11-1.92,0.18-4.57,0-7.49c-0.18-2.92-0.57-5.55-0.91-7.44
									c-0.34-1.89-0.6-3.06-0.5-3.08c0.08-0.02,0.5,1.1,0.96,2.99c0.46,1.88,0.93,4.53,1.11,7.49c0.18,2.96,0.04,5.65-0.19,7.57
									C161.1,445.71,160.82,446.88,160.74,446.87z"/>
							</g>
						</g>
						<g class="st28">
							<g>
								<path d="M101.8,449.87c-0.09-0.01-0.09-1.05,0.02-2.72c0.1-1.68,0.32-3.99,0.65-6.53c0.34-2.54,0.73-4.83,1.06-6.47
									c0.33-1.65,0.6-2.65,0.69-2.64c0.18,0.03-0.44,4.13-1.1,9.2C102.45,445.77,101.99,449.89,101.8,449.87z"/>
							</g>
						</g>
						<g class="st28">
							<g>
								<path d="M107.03,444.02c-0.18-0.02,0.04-3.02,0.5-6.7c0.45-3.68,0.97-6.64,1.15-6.62c0.18,0.02-0.04,3.02-0.5,6.7
									C107.72,441.08,107.21,444.04,107.03,444.02z"/>
							</g>
						</g>
						<g class="st28">
							<g>
								<path d="M135.82,498.93c-0.02,0.01-0.09-0.15-0.21-0.46c-0.11-0.31-0.29-0.77-0.46-1.38c-0.37-1.2-0.81-2.98-1.15-5.21
									c-0.69-4.44-0.75-10.84,1.2-17.49c1.95-6.65,5.45-12.01,8.43-15.37c1.49-1.7,2.82-2.95,3.78-3.77
									c0.47-0.42,0.87-0.7,1.13-0.91c0.26-0.2,0.41-0.3,0.42-0.28c0.03,0.04-0.48,0.51-1.38,1.38c-0.9,0.86-2.17,2.16-3.6,3.88
									c-2.86,3.41-6.24,8.71-8.16,15.26c-1.92,6.54-1.94,12.83-1.37,17.24c0.28,2.22,0.64,3.99,0.94,5.21
									C135.69,498.25,135.87,498.92,135.82,498.93z"/>
							</g>
						</g>
						<g>
							<path class="st25" d="M73.75,435.82l-0.04,0.06c-0.19,0.26-0.57,0.32-0.83,0.13l-2.76-2.04c-0.26-0.19-0.32-0.57-0.13-0.83
								l0.04-0.06c0.19-0.26,0.57-0.32,0.83-0.13l2.76,2.04C73.89,435.19,73.94,435.56,73.75,435.82z"/>
						</g>
						<g>
							<path class="st25" d="M87.11,416.46l-0.05,0.06c-0.22,0.24-0.6,0.26-0.84,0.04l-2.54-2.31c-0.24-0.22-0.26-0.6-0.04-0.84
								l0.05-0.06c0.22-0.24,0.6-0.26,0.84-0.04l2.54,2.31C87.32,415.84,87.33,416.22,87.11,416.46z"/>
						</g>
						<g>
							<path class="st25" d="M107.13,402.38l-0.06,0.05c-0.25,0.21-0.63,0.17-0.84-0.08l-2.18-2.65c-0.21-0.25-0.17-0.63,0.08-0.84
								l0.06-0.05c0.25-0.21,0.63-0.17,0.84,0.08l2.18,2.65C107.42,401.8,107.38,402.17,107.13,402.38z"/>
						</g>
						<g>
							<path class="st25" d="M75.39,367.61l-0.05,0.05c-0.23,0.24-0.6,0.24-0.84,0.01l-2.46-2.39c-0.24-0.23-0.24-0.6-0.01-0.84
								l0.05-0.05c0.23-0.24,0.6-0.24,0.84-0.01l2.46,2.39C75.61,367,75.62,367.38,75.39,367.61z"/>
						</g>
						<g>
							<path class="st25" d="M127.9,393.48l-0.07,0.04c-0.28,0.16-0.65,0.07-0.81-0.22l-1.72-2.97c-0.16-0.28-0.07-0.65,0.22-0.81
								l0.07-0.04c0.28-0.16,0.65-0.07,0.81,0.22l1.72,2.97C128.28,392.95,128.18,393.31,127.9,393.48z"/>
						</g>
						<g>
							<path class="st25" d="M115.05,370.07c0,0.42-0.34,0.76-0.76,0.76c-0.42,0-0.76-0.34-0.76-0.76c0-0.42,0.34-0.76,0.76-0.76
								C114.71,369.3,115.05,369.64,115.05,370.07z"/>
						</g>
						<g>
							<path class="st25" d="M116.58,372.03c0,0.42-0.34,0.76-0.76,0.76c-0.42,0-0.76-0.34-0.76-0.76s0.34-0.76,0.76-0.76
								C116.24,371.27,116.58,371.61,116.58,372.03z"/>
						</g>
						<g>
							<path class="st25" d="M71.5,362.99c0.05,0.42-0.25,0.8-0.67,0.85c-0.42,0.05-0.8-0.25-0.85-0.67
								c-0.05-0.42,0.25-0.8,0.67-0.84C71.07,362.27,71.45,362.57,71.5,362.99z"/>
						</g>
						<g>
							<path class="st25" d="M52.86,389.65c0,0.42-0.34,0.76-0.76,0.76c-0.42,0-0.76-0.34-0.76-0.76c0-0.42,0.34-0.76,0.76-0.76
								C52.52,388.89,52.86,389.23,52.86,389.65z"/>
						</g>
						<g>
							<g>
								<path class="st27" d="M149.86,433.37c0.01,0.02-0.18,0.16-0.57,0.41c-0.45,0.28-1.01,0.63-1.69,1.06
									c-1.55,0.96-3.65,2.27-6.22,3.87c-5.24,3.29-12.4,7.95-20.09,13.42c-7.69,5.47-14.44,10.71-19.27,14.58
									c-2.35,1.9-4.28,3.46-5.69,4.61c-0.63,0.5-1.14,0.92-1.56,1.25c-0.36,0.28-0.56,0.42-0.57,0.4
									c-0.01-0.02,0.15-0.19,0.49-0.5c0.39-0.36,0.88-0.8,1.48-1.34c1.29-1.16,3.19-2.79,5.57-4.77
									c4.75-3.97,11.48-9.27,19.18-14.75c7.7-5.48,14.92-10.09,20.22-13.28c2.65-1.6,4.82-2.86,6.34-3.69
									c0.71-0.39,1.29-0.7,1.75-0.96C149.63,433.45,149.85,433.35,149.86,433.37z"/>
							</g>
						</g>
					</g>
				</g>
			</g>
			<g>
				
					<rect x="321.98" y="374.7" transform="matrix(0.9968 -0.0804 0.0804 0.9968 -34.2775 28.8863)" class="st29" width="39.35" height="130.98"/>
				<rect x="326.95" y="513.6" class="st29" width="229.84" height="191.06"/>
				
					<rect x="328.33" y="374.71" transform="matrix(0.9968 -0.0804 0.0804 0.9968 -34.297 28.9039)" class="st30" width="26.65" height="130.98"/>
				<g>
					<g>
						<path class="st30" d="M335.33,661.07c-0.99,0-1.78-0.8-1.78-1.78v-7.15c0-0.99,0.8-1.78,1.78-1.78c0.98,0,1.78,0.79,1.78,1.78
							v7.15C337.1,660.27,336.31,661.07,335.33,661.07z M335.33,643.18c-0.99,0-1.78-0.8-1.78-1.78v-7.15c0-0.99,0.8-1.78,1.78-1.78
							c0.98,0,1.78,0.79,1.78,1.78v7.15C337.1,642.39,336.31,643.18,335.33,643.18z M335.33,625.3c-0.99,0-1.78-0.79-1.78-1.78
							v-7.15c0-0.99,0.8-1.78,1.78-1.78c0.98,0,1.78,0.8,1.78,1.78v7.15C337.1,624.51,336.31,625.3,335.33,625.3z M335.33,607.42
							c-0.99,0-1.78-0.8-1.78-1.78v-7.15c0-0.99,0.8-1.78,1.78-1.78c0.98,0,1.78,0.79,1.78,1.78v7.15
							C337.1,606.62,336.31,607.42,335.33,607.42z M335.33,589.54c-0.99,0-1.78-0.8-1.78-1.78v-7.15c0-0.99,0.8-1.78,1.78-1.78
							c0.98,0,1.78,0.79,1.78,1.78v7.15C337.1,588.74,336.31,589.54,335.33,589.54z M335.33,571.65c-0.99,0-1.78-0.8-1.78-1.78
							v-7.15c0-0.99,0.8-1.78,1.78-1.78c0.98,0,1.78,0.79,1.78,1.78v7.15C337.1,570.85,336.31,571.65,335.33,571.65z M335.33,553.76
							c-0.99,0-1.78-0.79-1.78-1.78v-7.15c0-0.98,0.8-1.78,1.78-1.78c0.98,0,1.78,0.8,1.78,1.78v7.15
							C337.1,552.97,336.31,553.76,335.33,553.76z M335.33,535.89c-0.99,0-1.78-0.8-1.78-1.78v-4.17c0-0.99,0.8-1.78,1.78-1.78
							c0.98,0,1.78,0.79,1.78,1.78v4.17C337.1,535.09,336.31,535.89,335.33,535.89z"/>
					</g>
					<g>
						<path class="st30" d="M335.33,525.93c-0.99,0-1.78-0.8-1.78-1.78v-5.62h5.08c0.98,0,1.78,0.8,1.78,1.78
							c0,0.98-0.8,1.78-1.78,1.78h-1.52v2.06C337.1,525.13,336.31,525.93,335.33,525.93z"/>
					</g>
					<g>
						<path class="st30" d="M532.46,522.08h-7.08c-0.99,0-1.78-0.8-1.78-1.78c0-0.98,0.79-1.78,1.78-1.78h7.08
							c0.99,0,1.78,0.8,1.78,1.78C534.24,521.28,533.45,522.08,532.46,522.08z M514.77,522.08h-7.08c-0.99,0-1.78-0.8-1.78-1.78
							c0-0.98,0.8-1.78,1.78-1.78h7.08c0.99,0,1.78,0.8,1.78,1.78C516.55,521.28,515.75,522.08,514.77,522.08z M497.08,522.08H490
							c-0.99,0-1.78-0.8-1.78-1.78c0-0.98,0.79-1.78,1.78-1.78h7.08c0.99,0,1.78,0.8,1.78,1.78
							C498.85,521.28,498.06,522.08,497.08,522.08z M479.38,522.08h-7.07c-0.99,0-1.78-0.8-1.78-1.78c0-0.98,0.8-1.78,1.78-1.78
							h7.07c0.99,0,1.78,0.8,1.78,1.78C481.16,521.28,480.37,522.08,479.38,522.08z M461.69,522.08h-7.08
							c-0.98,0-1.78-0.8-1.78-1.78c0-0.98,0.8-1.78,1.78-1.78h7.08c0.98,0,1.78,0.8,1.78,1.78
							C463.47,521.28,462.67,522.08,461.69,522.08z M444,522.08h-7.08c-0.98,0-1.78-0.8-1.78-1.78c0-0.98,0.8-1.78,1.78-1.78H444
							c0.98,0,1.78,0.8,1.78,1.78C445.78,521.28,444.98,522.08,444,522.08z M426.3,522.08h-7.08c-0.99,0-1.78-0.8-1.78-1.78
							c0-0.98,0.79-1.78,1.78-1.78h7.08c0.98,0,1.78,0.8,1.78,1.78C428.08,521.28,427.29,522.08,426.3,522.08z M408.61,522.08h-7.08
							c-0.99,0-1.78-0.8-1.78-1.78c0-0.98,0.79-1.78,1.78-1.78h7.08c0.99,0,1.79,0.8,1.79,1.78
							C410.39,521.28,409.59,522.08,408.61,522.08z M390.92,522.08h-7.08c-0.99,0-1.78-0.8-1.78-1.78c0-0.98,0.79-1.78,1.78-1.78
							h7.08c0.99,0,1.78,0.8,1.78,1.78C392.7,521.28,391.91,522.08,390.92,522.08z M373.23,522.08h-7.08c-0.99,0-1.78-0.8-1.78-1.78
							c0-0.98,0.8-1.78,1.78-1.78h7.08c0.99,0,1.78,0.8,1.78,1.78C375,521.28,374.21,522.08,373.23,522.08z M355.53,522.08h-7.08
							c-0.99,0-1.78-0.8-1.78-1.78c0-0.98,0.79-1.78,1.78-1.78h7.08c0.99,0,1.78,0.8,1.78,1.78
							C357.31,521.28,356.52,522.08,355.53,522.08z"/>
					</g>
					<g>
						<path class="st30" d="M548.42,525.93c-0.99,0-1.78-0.8-1.78-1.78v-2.06h-1.52c-0.99,0-1.78-0.8-1.78-1.78
							c0-0.98,0.79-1.78,1.78-1.78h5.08v5.62C550.2,525.13,549.4,525.93,548.42,525.93z"/>
					</g>
					<g>
						<path class="st30" d="M546.64,660.92c0-0.99,0.8-1.78,1.78-1.78c0.98,0,1.78,0.8,1.78,1.78H546.64z M548.42,651.97
							c-0.99,0-1.78-0.8-1.78-1.78v-7.15c0-0.99,0.8-1.78,1.78-1.78c0.98,0,1.78,0.8,1.78,1.78v7.15
							C550.2,651.17,549.4,651.97,548.42,651.97z M548.42,634.08c-0.99,0-1.78-0.8-1.78-1.78v-7.15c0-0.99,0.8-1.78,1.78-1.78
							c0.98,0,1.78,0.79,1.78,1.78v7.15C550.2,633.29,549.4,634.08,548.42,634.08z M548.42,616.2c-0.99,0-1.78-0.8-1.78-1.78v-7.15
							c0-0.99,0.8-1.78,1.78-1.78c0.98,0,1.78,0.79,1.78,1.78v7.15C550.2,615.4,549.4,616.2,548.42,616.2z M548.42,598.32
							c-0.99,0-1.78-0.79-1.78-1.78v-7.15c0-0.99,0.8-1.78,1.78-1.78c0.98,0,1.78,0.8,1.78,1.78v7.15
							C550.2,597.52,549.4,598.32,548.42,598.32z M548.42,580.43c-0.99,0-1.78-0.8-1.78-1.78v-7.15c0-0.98,0.8-1.78,1.78-1.78
							c0.98,0,1.78,0.8,1.78,1.78v7.15C550.2,579.63,549.4,580.43,548.42,580.43z M548.42,562.55c-0.99,0-1.78-0.8-1.78-1.78v-7.15
							c0-0.99,0.8-1.78,1.78-1.78c0.98,0,1.78,0.79,1.78,1.78v7.15C550.2,561.76,549.4,562.55,548.42,562.55z M548.42,544.67
							c-0.99,0-1.78-0.8-1.78-1.78v-7.15c0-0.99,0.8-1.78,1.78-1.78c0.98,0,1.78,0.79,1.78,1.78v7.15
							C550.2,543.87,549.4,544.67,548.42,544.67z"/>
					</g>
					<g>
						<path class="st30" d="M548.87,704.21c-0.99,0-1.78-0.8-1.78-1.78v-7.15c0-0.98,0.8-1.78,1.78-1.78c0.98,0,1.78,0.8,1.78,1.78
							v7.15C550.65,703.41,549.86,704.21,548.87,704.21z M548.87,686.33c-0.99,0-1.78-0.8-1.78-1.78v-7.15
							c0-0.99,0.8-1.78,1.78-1.78c0.98,0,1.78,0.79,1.78,1.78v7.15C550.65,685.53,549.86,686.33,548.87,686.33z M548.87,668.44
							c-0.99,0-1.78-0.8-1.78-1.78v-7.15c0-0.99,0.8-1.78,1.78-1.78c0.98,0,1.78,0.79,1.78,1.78v7.15
							C550.65,667.64,549.86,668.44,548.87,668.44z"/>
					</g>
				</g>
				<rect x="332.85" y="494.77" class="st31" width="27.35" height="33.76"/>
				<polygon class="st30" points="485.99,636.89 393.33,636.89 386.63,558.66 492.69,558.66 				"/>
				
					<rect x="477.11" y="420.52" transform="matrix(0.0804 -0.9968 0.9968 0.0804 60.216 945.6614)" class="st29" width="130.98" height="39.35"/>
				
					<rect x="477.11" y="426.87" transform="matrix(0.0804 -0.9968 0.9968 0.0804 60.1928 945.6394)" class="st30" width="130.98" height="26.65"/>
				<rect x="524.05" y="494.77" class="st31" width="27.35" height="33.76"/>
			</g>
			<g>
				<g>
					<path class="st29" d="M566.08,791.71l-0.1,12.99c0,26.95-22.93,36.66-51.19,36.66h-142.2c-28.29,0-55.06-21.86-55.06-48.81
						l0.22-3.93c0.26-16.43,5.71-85.47,5.71-85.47h239.09C562.54,703.15,566.27,773.24,566.08,791.71z"/>
					<path class="st32" d="M564.67,743.19c0,0-89.85,6.23-120.98,6.23c-31.84,0-124.08-6.25-124.08-6.25l3.28-43.35
						c0,0,88.96,6.25,120.8,6.25c31.13,0,119.59-6.25,119.59-6.25L564.67,743.19z"/>
					<rect x="345.14" y="701.56" class="st33" width="12.9" height="44.16"/>
					<rect x="520.18" y="701.56" class="st33" width="12.9" height="44.16"/>
					<rect x="405.89" y="703.13" class="st33" width="12.9" height="44.16"/>
					<rect x="462.83" y="703.13" class="st33" width="12.78" height="43.75"/>
					
						<rect x="435.41" y="676.47" transform="matrix(6.123234e-17 -1 1 6.123234e-17 -269.5942 1152.0759)" class="st33" width="11.66" height="68.74"/>
					
						<rect x="435.36" y="712.18" transform="matrix(6.123234e-17 -1 1 6.123234e-17 -305.6326 1188.1143)" class="st33" width="11.77" height="69.39"/>
				</g>
				<path class="st34" d="M318.67,796.54c0,0,35.09,2.93,52.93-36.43"/>
				<path class="st34" d="M561.85,796.59c0,0-31.35,2.88-49.19-36.48"/>
			</g>
			<g>
				<g>
					<path class="st35" d="M420.62,585.59l-11.42-2.46c-2.96-0.64-4.84-3.55-4.21-6.51l9.26-43.05c0.64-2.96,3.55-4.84,6.51-4.21
						l11.42,2.46c2.96,0.64,4.84,3.55,4.21,6.51l-9.26,43.05C426.49,584.35,423.58,586.23,420.62,585.59z"/>
					<g>
						<defs>
							<path id="SVGID_7_" d="M411.59,537.46c0,0,9.52,11.88,4.66,19.72c-0.96,1.55-3.46,2.01-3.46,2.01s4.47,6.22-0.61,9.88
								c0,0,1.72,3.29-0.91,5.45c0,0,5.67,4.21-0.23,6.87c0,0-4.12,2.32-4.86,9.09s4.09,7.91,14.52,9.43s19.8-11.56,10.93-23.4
								c-1.85-2.47-4.57-9.58,2.74-16.58c0,0-4.46-3.48-5.23-10.64c-0.77-7.16,5.88-5.35,9.85-1.71l6.37-35.85
								c0,0,21.21-98.57,8.64-101.28c-16.73-3.6-35.93,96.44-35.93,96.44L411.59,537.46z"/>
						</defs>
						<clipPath id="SVGID_3_">
							<use xlink:href="#SVGID_7_"  style="overflow:visible;"/>
						</clipPath>
						<g style="clip-path:url(#SVGID_3_);">
							<g>
								<polygon class="st37" points="432.44,513.09 427.57,512.05 444.44,433.64 440.62,432.2 448.75,413.63 453.61,414.68 
									453.37,435.05 449.31,434.67 								"/>
								<g>
									<path class="st35" d="M423.16,585.4l-16.86-3.63c0,0-2.26-3.19,4.82-36.11c7.08-32.93,10.45-34.9,10.45-34.9l16.86,3.63
										c0,0,2.28,3.09-4.89,36.41C426.38,584.12,423.16,585.4,423.16,585.4z"/>
									<g>
										<path class="st38" d="M426.02,517.84c0,0-0.28,0.94-0.76,2.57c-0.52,1.62-1.12,3.99-1.93,6.79
											c-0.42,1.4-0.8,2.93-1.22,4.55c-0.42,1.62-0.86,3.32-1.32,5.09c-0.42,1.77-0.85,3.6-1.3,5.47
											c-0.47,1.85-0.92,3.74-1.28,5.65c-0.4,1.9-0.8,3.8-1.2,5.67c-0.43,1.87-0.73,3.72-1.03,5.52
											c-0.32,1.79-0.63,3.53-0.93,5.17c-0.15,0.82-0.3,1.62-0.44,2.39c-0.1,0.78-0.2,1.53-0.29,2.25
											c-0.35,2.89-0.74,5.3-0.96,6.99c-0.26,1.69-0.41,2.66-0.41,2.66s0.04-0.97,0.1-2.68c0.1-1.7,0.17-4.15,0.37-7.07
											c0.05-0.73,0.1-1.49,0.16-2.28c0.1-0.78,0.2-1.59,0.31-2.43c0.22-1.67,0.45-3.42,0.69-5.24c0.26-1.81,0.48-3.7,0.91-5.58
											c0.38-1.89,0.77-3.8,1.15-5.72c0.38-1.92,0.85-3.82,1.34-5.68c0.49-1.86,0.97-3.69,1.44-5.46
											c0.49-1.77,1.06-3.45,1.56-5.05c0.51-1.6,0.98-3.12,1.48-4.49C424.38,521.39,426.02,517.84,426.02,517.84z"/>
									</g>
									<g>
										<path class="st38" d="M431.65,519.05c0,0,0.04,3.91-0.49,9.75c-0.1,1.46-0.3,3.04-0.5,4.71c-0.2,1.67-0.37,3.43-0.65,5.24
											c-0.3,1.81-0.62,3.68-0.94,5.57c-0.32,1.9-0.67,3.82-1.11,5.73c-0.44,1.91-0.87,3.81-1.3,5.69
											c-0.38,1.89-0.96,3.7-1.47,5.46c-0.53,1.76-1.04,3.45-1.52,5.06c-0.25,0.8-0.49,1.58-0.72,2.34
											c-0.27,0.74-0.54,1.46-0.79,2.15c-1.02,2.75-1.96,5.01-2.57,6.6c-0.65,1.58-1.01,2.48-1.01,2.48s0.26-0.94,0.72-2.59
											c0.49-1.64,1.12-3.99,2-6.77c0.21-0.7,0.44-1.42,0.66-2.17c0.19-0.76,0.38-1.55,0.58-2.37c0.41-1.62,0.84-3.33,1.28-5.1
											c0.46-1.76,0.95-3.58,1.33-5.45c0.41-1.87,0.82-3.77,1.24-5.66c0.46-1.89,0.83-3.8,1.16-5.68
											c0.36-1.88,0.72-3.73,1.07-5.52c0.31-1.8,0.61-3.53,0.89-5.18c0.28-1.65,0.57-3.2,0.76-4.65
											c0.41-2.89,0.84-5.29,1.03-6.98C431.52,520.02,431.65,519.05,431.65,519.05z"/>
									</g>
								</g>
							</g>
							<path class="st39" d="M438.44,514.38c0,0-10.56,67.38-22.75,64.75c-12.18-2.62,5.89-68.38,5.89-68.38s-3.37,1.98-10.45,34.9
								c-7.08,32.93-4.82,36.11-4.82,36.11l16.86,3.63c0,0,3.22-1.28,10.39-34.6C440.72,517.47,438.44,514.38,438.44,514.38z"/>
							<path class="st39" d="M418.42,545.37c-9.01,41.86-0.67,43.89,8.38,1.8C435.85,505.09,426.81,506.37,418.42,545.37z"/>
							<g>
								<path class="st37" d="M430.53,506.62c1.47-6.85,15.73-73.13,15.73-73.13l-3.22-2.35l5.71-17.51l-8.13,18.57l3.83,1.44
									l-16.87,78.4l4.37,0.94C430.77,511.83,429.82,509.88,430.53,506.62z"/>
							</g>
							<polygon class="st40" points="453.61,414.68 451.52,433.38 448.21,434.04 431.26,512.84 432.44,513.09 449.31,434.67 
								453.37,435.05 							"/>
						</g>
					</g>
				</g>
				<g>
					<g>
						<polygon class="st7" points="615.15,665.06 637.66,600.85 470.27,538.21 446.68,581.57 						"/>
						<circle class="st7" cx="628.57" cy="633.71" r="34.09"/>
					</g>
					<circle class="st7" cx="458.47" cy="559.89" r="24.68"/>
				</g>
				<g>
					<g>
						<path class="st7" d="M443.84,579.1c0,0-8.85-9.81-15.29-15.21c-1.32-1.1-6.41-1.76-11.27-2.48
							c-5.03-0.75-8.81-4.96-9.01-10.04l-0.79-20c1.25-5.5,13.61-19.83,18.2-19.96c6.29-0.18,30.2,4.48,31.35,5.51
							c0,0,9.82,12.25,19.84,25.66C483.44,551.39,455.6,586.29,443.84,579.1z"/>
					</g>
					<circle class="st7" cx="459.18" cy="559.79" r="24.68"/>
				</g>
			</g>
		</g>
		<path style="clip-path:url(#SVGID_2_);fill:#FFF22B;" d="M335.59,692.53c-0.99,0-1.78-0.8-1.78-1.78v-7.15
			c0-0.99,0.8-1.78,1.78-1.78c0.98,0,1.78,0.79,1.78,1.78v7.15C337.36,691.73,336.57,692.53,335.59,692.53z M335.59,674.64
			c-0.99,0-1.78-0.8-1.78-1.78v-7.15c0-0.99,0.8-1.78,1.78-1.78c0.98,0,1.78,0.79,1.78,1.78v7.15
			C337.36,673.85,336.57,674.64,335.59,674.64z"/>
	</g>
	<g>
		<path class="st29" d="M587.18,178.97c0,3.82-8.06,7.41-22,10.35c-25.2,5.5-69.71,9.08-120.4,9.08c-50.65,0-95.18-3.59-120.38-9.08
			c-13.81-2.94-21.87-6.52-21.87-10.35c0-3.85,8.05-7.29,21.87-10.26c25.2-5.49,69.72-9.07,120.38-9.07
			c50.68,0,95.2,3.58,120.4,9.07C579.12,171.68,587.18,175.12,587.18,178.97z"/>
		<path class="st29" d="M565.18,137.91v51.41c-25.2,5.5-69.71,9.08-120.4,9.08c-50.65,0-95.18-3.59-120.38-9.08v-51.41
			C324.41-14.22,565.18-14.22,565.18,137.91z"/>
		<path class="st29" d="M565.18,137.91v32.36c-8.84,0.76-17.66,1.41-26.74,2.04c-1.41,0-2.67,0.14-4.08,0.26
			c-28.16,1.8-57.71,2.67-88.16,2.67c-30.57,0-60.26-0.88-88.51-2.67c-0.91,0-1.67-0.12-2.44-0.12
			c-10.49-0.76-20.72-1.56-30.84-2.44v-32.09c0-24.2,6.01-44.54,16.25-61.03c1.27-1.94,2.56-3.85,3.97-5.75
			c46.06-64.11,158.62-63.08,202.62,3.2c1.41,2.18,2.7,4.36,3.97,6.65C560.04,96.69,565.18,115.63,565.18,137.91z"/>
		<path class="st42" d="M445.64,23.85v151.39c0.17,0,0.37,0,0.55,0c41.72,0,81.75-1.76,118.99-4.97v-32.36
			C565.18,62.19,505.54,24.2,445.64,23.85z"/>
		<path class="st42" d="M361.64,172.56h-6.39v-0.12c0-61.4-10.49-87.65-14.58-95.57c1.27-1.94,2.56-3.85,3.97-5.75
			C348.09,76.35,361.64,101.69,361.64,172.56z"/>
		<path class="st30" d="M564.92,167.07c-38.39,3.32-78.42,4.97-118.73,4.97c-42.47,0-83.27-1.77-121.52-5.24c-0.11,0-0.11,0-0.27,0
			v6.41c38.24,3.44,79.31,5.23,121.78,5.23c40.45,0,80.45-1.64,118.99-4.97v-6.41C565.04,167.07,565.04,167.07,564.92,167.07z"/>
		<path class="st30" d="M551.23,80.97c-4.86,11.25-12.79,37.97-12.79,91.33c0,0.14,0,0.14,0,0.26h-6.41
			c0-61.52,10.25-88.66,15.23-98.24C548.67,76.5,549.95,78.68,551.23,80.97z"/>
		<path class="st42" d="M495.09,25.25c2.82,1.12,4.47,4.07,3.94,7.05l-18.94,107.19h-67.8L393.22,31.27
			c-0.54-3.05,1.18-6.03,4.09-7.1C428.3,12.73,464.43,13.1,495.09,25.25z"/>
		<path class="st30" d="M499.05,32.32c0.53-3-1.12-5.94-3.94-7.06c-15.38-6.08-32.12-9.2-48.89-9.37v123.61h33.86L499.05,32.32z"/>
	</g>
</g>
<g>
	
		<ellipse transform="matrix(0.0321 -0.9995 0.9995 0.0321 266.0557 982.4384)" class="st43" cx="640.27" cy="353.85" rx="58.43" ry="58.43"/>
	<g>
		
			<ellipse transform="matrix(0.9994 -0.0356 0.0356 0.9994 -12.0271 22.863)" class="st44" cx="636.51" cy="349.43" rx="55.26" ry="55.26"/>
		<rect x="597.55" y="331.25" class="st45" width="77.93" height="18.19"/>
		<g>
			<rect x="597.55" y="331.25" class="st46" width="15.29" height="18.19"/>
			<rect x="613.21" y="331.25" class="st46" width="15.29" height="18.19"/>
			<rect x="628.87" y="331.25" class="st46" width="15.29" height="18.19"/>
			<rect x="644.53" y="331.25" class="st46" width="15.29" height="18.19"/>
			<rect x="660.19" y="331.25" class="st46" width="15.29" height="18.19"/>
		</g>
		<g>
			<path class="st12" d="M600.74,336.79c0-1.89,1.35-2.83,3.01-2.83h2.87c2.13,0,2.92,1.33,2.92,2.83v7.13
				c0,2.08-1.19,2.83-2.92,2.83h-2.87c-1.59,0-3.01-0.73-3.01-2.83V336.79z M603.74,345.46h2.87c1.12,0,1.63-0.59,1.63-1.54v-7.13
				c0-0.8-0.33-1.54-1.63-1.54h-2.87c-1.22,0-1.71,0.7-1.71,1.54v7.13C602.03,345.09,602.9,345.46,603.74,345.46z"/>
		</g>
		<g>
			<path class="st12" d="M615.89,334.13c1.78-0.23,3.37-0.35,5.32-0.35c2.53,0,3.55,1.89,3.55,3.67c0,3.43-4.98,7.15-6.24,8.01h6.24
				v1.29h-8.74v-1.19c1.91-1.29,7.43-5.24,7.43-8.15c0-1.28-0.65-2.32-2.26-2.32h-5.3V334.13z"/>
		</g>
		<g>
			<path class="st12" d="M632.59,342.35c0-1.29,0.79-1.64,1.49-1.87c-1.12-0.38-1.49-1.52-1.49-2.45v-1.14
				c0-2.34,1.28-3.02,3.08-3.02h2.55c1.87,0,2.83,0.87,2.83,3.02v1.14c0.02,0.38-0.05,1.77-1.31,2.03c0.94,0.18,1.33,1.54,1.31,2.29
				v1.71c0,2.27-1.73,2.69-2.85,2.69h-2.53c-3.01,0-3.08-1.98-3.08-2.69V342.35z M635.47,339.58h2.78c1.28,0,1.5-0.84,1.5-1.47
				v-1.19c0-1.29-0.51-1.77-1.54-1.77h-2.55c-1.12,0-1.78,0.19-1.78,1.77v1.19C633.88,339.29,634.88,339.58,635.47,339.58z
				 M635.67,345.46h2.53c0.75,0,1.56-0.42,1.56-1.35v-1.84c0-1-0.73-1.42-1.5-1.42h-2.78c-0.8,0-1.59,0.33-1.59,1.42v1.84
				C633.88,344.97,634.39,345.46,635.67,345.46z"/>
		</g>
		<g>
			<path class="st12" d="M648.19,345.44h5.31c1.21,0,1.57-0.86,1.57-1.63v-1.92c0-0.58-0.02-1.64-1.57-1.64h-2.69
				c-0.68,0-1.43,0.37-1.43,1.31h-1.15l0.38-7.6h7.38v1.29h-6.19l-0.21,4.23c0.24-0.3,0.73-0.45,1.29-0.52c0.94-0.12,2.08,0,2.62,0
				c2.06,0,2.87,1.21,2.87,2.9v1.99c0,2.4-1.78,2.97-2.87,2.97c-2.17,0-2.97-0.02-5.31-0.42V345.44z"/>
		</g>
		<g>
			<path class="st12" d="M668.51,333.95h1.54l-5.14,8.16h4.96v-3.62l0.65-1.31h0.65v4.93h1.57v1.03l-1.57,0.33v3.23h-1.29v-3.23
				h-6.38l-0.59-0.65L668.51,333.95z"/>
		</g>
		<rect x="609.84" y="318.41" class="st12" width="54.01" height="7.81"/>
		<g>
			<rect x="595.56" y="354.94" class="st45" width="77.59" height="1.59"/>
			<g>
				<rect x="595.08" y="352.64" class="st45" width="0.95" height="6.19"/>
			</g>
			<g>
				<path class="st45" d="M677.94,355.73c-2.26,0.84-5.05,2.26-6.79,3.78l1.37-3.78l-1.37-3.78
					C672.89,353.47,675.69,354.9,677.94,355.73z"/>
			</g>
		</g>
		<rect x="609.18" y="352.96" class="st46" width="54.66" height="5.56"/>
		<rect x="600.9" y="366.85" class="st47" width="31.11" height="4.9"/>
		<rect x="641.27" y="366.85" class="st47" width="31.11" height="4.9"/>
		<path class="st46" d="M614.11,380.49c0,1.97-1.6,3.57-3.57,3.57c-1.97,0-3.57-1.6-3.57-3.57c0-1.97,1.6-3.57,3.57-3.57
			C612.51,376.91,614.11,378.51,614.11,380.49z"/>
		<path class="st46" d="M631.65,380.49c0,1.97-1.6,3.57-3.58,3.57c-1.97,0-3.57-1.6-3.57-3.57c0-1.97,1.6-3.57,3.57-3.57
			C630.04,376.91,631.65,378.51,631.65,380.49z"/>
		<path class="st46" d="M649.18,380.49c0,1.97-1.6,3.57-3.57,3.57c-1.97,0-3.57-1.6-3.57-3.57c0-1.97,1.6-3.57,3.57-3.57
			C647.58,376.91,649.18,378.51,649.18,380.49z"/>
		<path class="st46" d="M666.72,380.49c0,1.97-1.6,3.57-3.57,3.57c-1.97,0-3.57-1.6-3.57-3.57c0-1.97,1.6-3.57,3.57-3.57
			C665.12,376.91,666.72,378.51,666.72,380.49z"/>
		<path class="st46" d="M642.33,307.95c0,3.22-2.61,5.82-5.82,5.82c-3.22,0-5.82-2.61-5.82-5.82c0-3.22,2.61-5.82,5.82-5.82
			C639.73,302.13,642.33,304.73,642.33,307.95z"/>
		<path class="st48" d="M636.51,403.5c-29.81,0-54.07-24.25-54.07-54.07c0-29.81,24.25-54.07,54.07-54.07
			c29.81,0,54.06,24.25,54.06,54.07C690.58,379.25,666.32,403.5,636.51,403.5z M636.51,296.96c-28.94,0-52.48,23.54-52.48,52.48
			c0,28.94,23.54,52.48,52.48,52.48c28.94,0,52.48-23.54,52.48-52.48C688.99,320.5,665.45,296.96,636.51,296.96z"/>
		<path class="st49" d="M636.51,294.18c30.52,0,55.26,24.74,55.26,55.26c0,30.52-24.74,55.26-55.26,55.26
			c-30.52,0-55.26-24.74-55.26-55.26C581.25,318.92,605.99,294.18,636.51,294.18L636.51,294.18z M636.51,291
			c-32.22,0-58.43,26.21-58.43,58.43c0,32.22,26.21,58.43,58.43,58.43c32.22,0,58.43-26.21,58.43-58.43
			C694.94,317.21,668.73,291,636.51,291L636.51,291z"/>
		<path class="st31" d="M640.36,307.95c0,2.12-1.72,3.84-3.84,3.84c-2.12,0-3.84-1.72-3.84-3.84c0-2.12,1.72-3.84,3.84-3.84
			C638.63,304.1,640.36,305.83,640.36,307.95z"/>
	</g>
</g>
<g>
	<path class="st43" d="M294,348.57l-0.01-1.88l-6.83,0.03l-0.03-8.95c0-0.18-0.04-0.35-0.11-0.51c-0.04-0.09-0.1-0.16-0.16-0.24
		c-0.04-0.06-0.07-0.13-0.12-0.18c-0.01-0.01-0.02-0.01-0.03-0.02c-0.12-0.11-0.25-0.2-0.4-0.26c-0.03-0.01-0.07-0.01-0.1-0.02
		c-0.13-0.04-0.27-0.08-0.41-0.08l-0.28,0c-0.73,0-1.32,0.59-1.32,1.33l0.01,4.03h0l0.02,4.92l-6.91,0.03l-0.02-4.92h0l-0.01-1.33
		l-0.01-2.71c0-0.33-0.14-0.63-0.34-0.86c-0.24-0.28-0.59-0.47-0.99-0.46h-0.28c-0.18,0-0.34,0.04-0.49,0.1c0,0-0.01,0-0.01,0
		c-0.32,0.14-0.58,0.39-0.71,0.72c-0.05,0.13-0.07,0.28-0.08,0.42c0,0.03-0.02,0.06-0.02,0.09v0l0,0l0.03,8.95l-6.83,0.03l0.01,1.88
		l1.71-0.01l0.03,8.96c2.28-0.01,4.14,1.93,4.15,4.34v0.43c0.01,2.57,2,4.65,4.44,4.64l0.24,0l0,1.14l1.14,0l0,1.03l-1.14,0l0,0.96
		l1.14,0l0.01,1.03l-1.14,0l0,1l1.67-0.01c0.01,1.46,0.02,2.99,0.03,4.58c0.13,14.94,0.35,39.94-3.2,43.52
		c-0.24,0.24-0.39,0.24-0.44,0.24c-0.84,0-1.45-0.22-1.9-0.67c-1.82-1.85-1.73-7.93-1.6-17.12c0.04-2.87,0.09-6.09,0.09-9.66
		c0-9.28-0.68-14.71-2.2-17.61c-1.15-2.2-2.69-2.79-4.24-2.96v-63v0c0-5.94-4.82-10.76-10.76-10.76h-50.27
		c-5.94,0-10.76,4.82-10.76,10.76V424.7c0,5.94,4.82,10.76,10.76,10.76h50.27c5.94,0,10.76-4.82,10.76-10.76v0v-50.01
		c0.97,0.14,1.68,0.57,2.33,1.81c1.31,2.5,1.95,7.94,1.95,16.61c0,3.56-0.05,6.77-0.09,9.63c-0.15,10.43-0.24,16.17,2.22,18.66
		c0.86,0.87,2.01,1.32,3.43,1.32c0.5,0,1.24-0.15,1.96-0.88c3.86-3.9,4.02-22.71,3.83-45.06c-0.01-1.59-0.03-3.12-0.03-4.57
		l1.6-0.01l0-1l-1.14,0.01l0-1.03l1.14,0l0-0.96l-1.14,0.01l0-1.03h1.14l0-1.15l0.24,0c2.44-0.01,4.42-2.1,4.4-4.68l0-0.43
		c-0.01-2.4,1.83-4.36,4.11-4.37l-0.03-8.97L294,348.57z"/>
	<g>
		<path class="st47" d="M273.04,418.94c-1.42,0-2.57-0.45-3.43-1.32c-2.46-2.49-2.37-8.23-2.22-18.66c0.04-2.86,0.09-6.06,0.09-9.63
			c0-8.67-0.64-14.11-1.95-16.61c-0.98-1.87-2.07-1.9-4.04-1.87l-0.1-1.08l0.1-1.08c2.06-0.01,4.37,0,5.95,3.02
			c1.52,2.9,2.2,8.33,2.2,17.61c0,3.57-0.05,6.79-0.09,9.66c-0.13,9.19-0.22,15.26,1.6,17.12c0.45,0.46,1.06,0.67,1.9,0.67
			c0.05,0,0.2,0,0.44-0.24c3.54-3.58,3.33-28.59,3.2-43.52c-0.02-3-0.05-5.8-0.05-8.26h2.15c0,2.46,0.02,5.25,0.05,8.24
			c0.19,22.35,0.04,41.16-3.83,45.06C274.28,418.78,273.54,418.94,273.04,418.94z"/>
		<path class="st50" d="M263.19,420.94c0,5.94-4.82,10.76-10.76,10.76h-50.27c-5.94,0-10.76-4.82-10.76-10.76V305.76
			c0-5.94,4.82-10.76,10.76-10.76h50.27c5.94,0,10.76,4.82,10.76,10.76V420.94z"/>
		<path class="st51" d="M252.43,431.7c5.94,0,10.76-4.82,10.76-10.76V305.77c0-5.94-4.82-10.76-10.76-10.76h-25.14V431.7H252.43z"/>
		<path class="st52" d="M254.47,334.45c0,3.57-2.89,6.46-6.46,6.46h-41.44c-3.57,0-6.46-2.89-6.46-6.46v-21.53
			c0-3.57,2.89-6.46,6.46-6.46h41.44c3.57,0,6.46,2.89,6.46,6.46V334.45z"/>
		<path class="st53" d="M248.01,306.46h-28.1l32.6,32.6c1.2-1.17,1.96-2.81,1.96-4.62v-21.53
			C254.47,309.35,251.58,306.46,248.01,306.46z"/>
		<path class="st54" d="M248.27,371.93c0,11.58-9.39,20.98-20.98,20.98c-11.59,0-20.98-9.4-20.98-20.98
			c0-11.59,9.39-20.98,20.98-20.98C238.88,350.96,248.27,360.35,248.27,371.93z"/>
		<g>
			<polygon class="st45" points="279.24,367.43 279.24,366.4 280.38,366.4 280.38,365.44 279.24,365.44 279.23,364.41 
				280.37,364.41 280.34,355.93 274.92,355.95 274.96,364.43 276.1,364.42 276.1,365.45 274.96,365.46 274.96,366.42 276.11,366.41 
				276.11,367.44 274.97,367.45 274.97,368.44 280.39,368.42 280.39,367.43 			"/>
			<path class="st31" d="M289.08,342.94l-23,0.09l0.04,10.85c2.28-0.01,4.14,1.93,4.15,4.34v0.43c0.01,2.57,2,4.65,4.44,4.64
				l5.9-0.02c2.44-0.01,4.42-2.1,4.4-4.68l0-0.43c-0.01-2.4,1.83-4.36,4.11-4.37L289.08,342.94z"/>
			
				<rect x="266.1" y="342.98" transform="matrix(1 -3.630990e-03 3.630990e-03 1 -1.2622 1.0103)" class="st47" width="23" height="10.28"/>
			<path class="st49" d="M274.13,343.44l-2.93,0.01l-0.04-9.4c0-0.35,0.14-0.69,0.39-0.94c0.25-0.25,0.59-0.39,0.94-0.39l0.28,0
				c0.73,0,1.33,0.59,1.33,1.32L274.13,343.44z"/>
			
				<rect x="277.6" y="342.96" transform="matrix(1 -3.712695e-03 3.712695e-03 1 -1.2904 1.0544)" class="st52" width="11.5" height="10.28"/>
			<path class="st49" d="M283.97,343.4l-2.93,0.01l-0.03-9.4c0-0.73,0.59-1.33,1.32-1.33h0.28c0.35,0,0.69,0.14,0.94,0.38
				c0.25,0.25,0.39,0.59,0.39,0.94L283.97,343.4z"/>
			
				<rect x="264.37" y="342.98" transform="matrix(1 -3.840184e-03 3.840184e-03 1 -1.3187 1.0685)" class="st31" width="26.43" height="1.88"/>
			<path class="st52" d="M272.76,332.72h-0.28c-0.73,0-1.33,0.6-1.32,1.33l0.02,4.04l2.93-0.01l-0.02-4.04
				C274.09,333.31,273.49,332.71,272.76,332.72z"/>
			<path class="st52" d="M282.6,332.68l-0.28,0c-0.73,0-1.32,0.59-1.32,1.33l0.01,4.03l2.93-0.01l-0.01-4.04
				C283.93,333.27,283.34,332.68,282.6,332.68z"/>
		</g>
		<polygon class="st29" points="232.19,371.59 225.24,371.58 236.27,357.47 228.17,357.47 219.49,372.45 217.67,375.58 
			221.15,375.57 228.5,375.56 219.15,389.49 233.72,374.82 236.92,371.61 		"/>
	</g>
</g>
<g>
	<path class="st43" d="M740.31,509.07l-40.29-70.45c-0.8-1.42-1.92-2.2-3.14-2.21c-1.22,0-2.34,0.77-3.16,2.18l-40.87,70.11
		c-0.82,1.41-0.94,2.76-0.33,3.82c0.61,1.05,1.84,1.64,3.46,1.65l81.15,0.34c1.63,0,2.86-0.57,3.47-1.62
		C741.22,511.83,741.11,510.48,740.31,509.07z"/>
	<g>
		<path class="st42" d="M653.1,510.78c-1.63-0.01-2.86-0.59-3.46-1.65c-0.6-1.06-0.49-2.41,0.33-3.82l40.87-70.11
			c0.82-1.41,1.95-2.18,3.16-2.18c1.22,0.01,2.34,0.79,3.14,2.21l40.29,70.45c0.81,1.41,0.92,2.77,0.3,3.82
			c-0.61,1.05-1.84,1.62-3.47,1.62L653.1,510.78z"/>
		<path class="st50" d="M729.74,502.51l-33.77-59.06c-1.09-1.92-2.92-1.93-4.02-0.02l-34.25,58.78c-1.12,1.91-0.22,3.49,1.99,3.5
			l68.03,0.28C729.92,505.99,730.84,504.43,729.74,502.51z M663.57,501.16l30.36-52.09l29.93,52.34L663.57,501.16z"/>
		<polygon class="st50" points="695.18,464.39 684.62,483.01 693.27,483.05 689.51,498.47 701.45,479.03 692.23,479 		"/>
	</g>
</g>
</svg>
