<?xml version="1.0" encoding="UTF-8"?>
<svg id="NUMEROS_TORIBIO" data-name="NUMEROS TORIBIO" xmlns="http://www.w3.org/2000/svg" xmlns:xlink="http://www.w3.org/1999/xlink" viewBox="0 0 200 200">
  <defs>
    <style>
      .cls-1 {
        fill: #ff8f52;
      }

      .cls-1, .cls-2, .cls-3, .cls-4 {
        stroke-width: 0px;
      }

      .cls-2 {
        fill: none;
      }

      .cls-3 {
        fill: #dd3200;
      }

      .cls-4 {
        fill: #ff521a;
      }
    </style>
    <clipPath id="clippath">
      <rect class="cls-2" x="914" y="27" width="792" height="612"/>
    </clipPath>
    <clipPath id="clippath-1">
      <rect class="cls-2" x="914" y="27" width="792" height="612"/>
    </clipPath>
  </defs>
  <path class="cls-4" d="M143.39,164.14l-94.43.17-2.82-28.5c7.73-3.42,15.96-8.31,24.69-14.66,8.72-6.35,16.07-13.06,22.03-20.13,5.96-7.07,8.95-13.36,8.95-18.89,0-3.31-.99-6.3-2.98-8.95-1.99-2.65-4.47-3.98-7.46-3.98-3.64,0-6.85,1.8-9.61,5.38-2.76,3.59-4.36,7.65-4.8,12.18l-30.32-5.3c.44-8.39,2.68-15.93,6.71-22.61,4.03-6.68,9.5-11.95,16.4-15.82,6.9-3.86,14.66-5.8,23.28-5.8s15.96,1.88,22.37,5.63c6.4,3.76,11.35,9,14.83,15.74,3.48,6.74,5.22,14.36,5.22,22.86,0,16.9-9.17,34.68-27.5,53.35l31.97-.5,3.48,29.82Z"/>
  <path class="cls-3" d="M120.77,159.65c-22.11,2.04-61.64,1.78-65.56-.5-5.12-2.98-4.87-18.29-.87-20.88,28-18.12,40.63-31.22,46.79-39.44,6.22-8.29,9.66-23.65.65-31.25-5.67-4.78-17.92-4.29-24.11,5.68-.92,1.49-1.79,2.83-2.58,3.76-5.06,5.93-24.99,5.05-26.83-6.06-.88,3.34-1.44,6.84-1.63,10.51l30.32,5.3c.44-4.53,2.04-8.59,4.8-12.18,2.76-3.59,5.96-5.38,9.61-5.38,2.98,0,5.47,1.33,7.46,3.98,1.99,2.65,2.98,5.63,2.98,8.95,0,5.52-2.98,11.82-8.95,18.89-5.96,7.07-13.31,13.78-22.03,20.13-8.73,6.35-16.96,11.24-24.69,14.66l2.82,28.5,94.43-.17-1.69-14.49c-1.98,7.5-7.01,8.72-20.92,10Z"/>
  <g>
    <g>
      <path class="cls-1" d="M65.14,59.01c6.68-5.07,14.83-9.26,23.33-9.85,4.82-.33,9.51.4,14.11,1.82,4.24,1.31,9.2,3.01,13.15,5.02.85.43,1.83-.45,1.33-1.33-2.51-4.34-4.96-7.49-9.74-9.49-5.52-2.32-11.35-3.34-17.33-3.2-10.37.23-21.73,6.13-26,15.87-.29.67.4,1.73,1.15,1.15h0Z"/>
      <path class="cls-1" d="M118.21,57.57c.1-.21.08-.15-.07.2-.08.29-.02.55.03.84v-.76c-.05.12-.03,1.24-.04.76,0,.33.08.63.25.92-.2-.45.16.38.22.51.14.19.29.37.44.56-.39-.48.63.83.34.46.33.42.74.7,1.26.83.96.24,2.05-.3,2.29-1.3.3-1.23-.35-2.14-1.16-2.99-.3-.32-.91-.62-1.33-.74-.16-.02-.32-.04-.48-.07.29.05.2.04-.27-.03-.32,0-.59.09-.86.25.24-.06.48-.13.72-.19-.53,0-1.13.22-1.32.76h0Z"/>
    </g>
    <path class="cls-1" d="M78.51,155.27c5.28,2.11,11.84,1.85,17.45,1.93,6.31.09,12-.03,17.79-2.75.89-.42.54-1.68-.25-1.94-5.83-1.94-11.44-1.86-17.53-1.64-5.7.21-12.52.2-17.64,3-.64.35-.39,1.17.18,1.4h0Z"/>
  </g>
  <path class="cls-3" d="M48.95,165.06c-.39,0-.71-.29-.75-.68l-2.82-28.5c-.03-.32.15-.63.44-.76,7.65-3.39,15.91-8.29,24.55-14.58,8.64-6.29,16.01-13.02,21.9-20.01,5.82-6.9,8.77-13.09,8.77-18.4,0-3.13-.95-5.99-2.83-8.5-1.85-2.47-4.1-3.68-6.85-3.68-3.38,0-6.42,1.71-9.01,5.09-2.66,3.46-4.23,7.43-4.65,11.79-.02.21-.13.4-.29.52-.17.13-.38.18-.58.14l-30.32-5.3c-.37-.07-.64-.4-.62-.78.44-8.48,2.74-16.2,6.82-22.96,4.08-6.76,9.69-12.17,16.68-16.09,6.98-3.91,14.94-5.89,23.64-5.89s16.25,1.93,22.74,5.74c6.5,3.81,11.59,9.21,15.12,16.04,3.52,6.81,5.3,14.62,5.3,23.21,0,16.63-8.9,34.31-26.45,52.57l30.16-.47c.37-.03.71.28.76.66l3.48,29.82c.02.21-.04.43-.18.58-.14.16-.35.25-.56.25l-94.43.17h0ZM46.94,136.28l2.7,27.28,92.91-.16-3.3-28.31-31.3.49c-.3-.02-.58-.17-.7-.45-.12-.28-.06-.6.15-.82,18.11-18.43,27.29-36.2,27.29-52.82,0-8.34-1.73-15.92-5.13-22.52-3.4-6.58-8.29-11.77-14.54-15.44-6.26-3.67-13.66-5.53-21.99-5.53s-16.15,1.92-22.91,5.7c-6.76,3.79-12.18,9.02-16.13,15.55-3.84,6.37-6.05,13.63-6.56,21.6l28.87,5.05c.56-4.33,2.19-8.28,4.87-11.76,2.9-3.77,6.33-5.68,10.2-5.68,3.22,0,5.93,1.44,8.06,4.28,2.08,2.77,3.13,5.93,3.13,9.4,0,5.68-3.07,12.2-9.12,19.37-5.97,7.08-13.43,13.89-22.17,20.25-8.54,6.22-16.72,11.1-24.33,14.52Z"/>
</svg>