<svg width="111" height="131" viewBox="0 0 111 131" fill="none" xmlns="http://www.w3.org/2000/svg">
<path d="M98.8965 129.495L4.46649 129.665L1.64648 101.165C9.37648 97.745 17.6065 92.855 26.3365 86.505C35.0565 80.155 42.4065 73.445 48.3665 66.375C54.3265 59.305 57.3165 53.015 57.3165 47.485C57.3165 44.175 56.3265 41.185 54.3365 38.535C52.3465 35.885 49.8665 34.555 46.8765 34.555C43.2365 34.555 40.0265 36.355 37.2665 39.935C34.5065 43.525 32.9065 47.585 32.4665 52.115L2.14648 46.815C2.58648 38.425 4.82648 30.885 8.85648 24.205C12.8865 17.525 18.3565 12.255 25.2565 8.38496C32.1565 4.52496 39.9165 2.58496 48.5365 2.58496C57.1565 2.58496 64.4965 4.46497 70.9065 8.21497C77.3065 11.975 82.2565 17.215 85.7365 23.955C89.2165 30.695 90.9565 38.315 90.9565 46.815C90.9565 63.715 81.7865 81.495 63.4565 100.165L95.4265 99.665L98.9065 129.485L98.8965 129.495Z" fill="#F8B334"/>
<path d="M76.2865 125.005C54.1765 127.045 14.6465 126.785 10.7265 124.505C5.6065 121.525 5.85648 106.215 9.85648 103.625C37.8565 85.5051 50.4865 72.4051 56.6465 64.1851C62.8665 55.8951 66.3065 40.5351 57.2965 32.9351C51.6265 28.1551 39.3765 28.6451 33.1865 38.6151C32.2665 40.1051 31.3965 41.4451 30.6065 42.3751C25.5465 48.3051 5.61649 47.4251 3.77649 36.3151C2.89649 39.6551 2.33648 43.1551 2.14648 46.8251L32.4665 52.1251C32.9065 47.5951 34.5065 43.5351 37.2665 39.9451C40.0265 36.3551 43.2265 34.5651 46.8765 34.5651C49.8565 34.5651 52.3465 35.8951 54.3365 38.5451C56.3265 41.1951 57.3165 44.1751 57.3165 47.4951C57.3165 53.0151 54.3365 59.3151 48.3665 66.3851C42.4065 73.4551 35.0565 80.1651 26.3365 86.5151C17.6065 92.8651 9.37648 97.7551 1.64648 101.175L4.46649 129.675L98.8965 129.505L97.2065 115.015C95.2265 122.515 90.1965 123.735 76.2865 125.015V125.005Z" fill="#E1A022"/>
<path d="M20.6464 24.3549C27.3264 19.2849 35.4764 15.0949 43.9764 14.5049C48.7964 14.1749 53.4864 14.9049 58.0864 16.3249C62.3264 17.6349 67.2864 19.3349 71.2364 21.3449C72.0864 21.7749 73.0664 20.8949 72.5664 20.0149C70.0564 15.6749 67.6064 12.5249 62.8264 10.5249C57.3064 8.20489 51.4764 7.1849 45.4964 7.3249C35.1264 7.5549 23.7664 13.4549 19.4964 23.1949C19.2064 23.8649 19.8964 24.9249 20.6464 24.3449V24.3549Z" fill="#F7CF8F"/>
<path d="M73.7164 22.925C73.8164 22.715 73.7964 22.775 73.6464 23.125C73.5664 23.415 73.6264 23.675 73.6764 23.965V23.205C73.6264 23.325 73.6464 24.445 73.6364 23.965C73.6364 24.295 73.7164 24.595 73.8864 24.885C73.6864 24.435 74.0464 25.265 74.1064 25.395C74.2464 25.585 74.3964 25.765 74.5464 25.955C74.1564 25.475 75.1764 26.785 74.8864 26.415C75.2164 26.835 75.6264 27.115 76.1464 27.245C77.1064 27.485 78.1964 26.945 78.4364 25.945C78.7364 24.715 78.0864 23.805 77.2764 22.955C76.9764 22.635 76.3664 22.335 75.9464 22.215C75.7864 22.195 75.6264 22.175 75.4664 22.145C75.7564 22.195 75.6664 22.185 75.1964 22.115C74.8764 22.115 74.6064 22.205 74.3364 22.365C74.5764 22.305 74.8164 22.235 75.0564 22.175C74.5264 22.175 73.9264 22.395 73.7364 22.935L73.7164 22.925Z" fill="#F7CF8F"/>
<path d="M34.0167 120.615C39.2967 122.725 45.8567 122.465 51.4667 122.545C57.7767 122.635 63.4667 122.515 69.2567 119.795C70.1467 119.375 69.7967 118.115 69.0067 117.855C63.1767 115.915 57.5667 115.995 51.4767 116.215C45.7767 116.425 38.9567 116.415 33.8367 119.215C33.1967 119.565 33.4467 120.385 34.0167 120.615Z" fill="#F7CF8F"/>
<path d="M4.46681 130.405C4.07681 130.405 3.75681 130.115 3.71681 129.725L0.896806 101.225C0.866806 100.905 1.04681 100.595 1.33681 100.465C8.98681 97.0749 17.2468 92.1749 25.8868 85.8849C34.5268 79.5949 41.8968 72.8649 47.7868 65.8749C53.6068 58.9749 56.5568 52.7849 56.5568 47.4749C56.5568 44.3449 55.6068 41.4849 53.7268 38.9749C51.8768 36.5049 49.6268 35.2949 46.8768 35.2949C43.4968 35.2949 40.4568 37.0049 37.8668 40.3849C35.2068 43.8449 33.6368 47.8149 33.2168 52.1749C33.1968 52.3849 33.0868 52.5749 32.9268 52.6949C32.7568 52.8249 32.5468 52.8749 32.3468 52.8349L2.02681 47.5349C1.65681 47.4649 1.38682 47.1349 1.40682 46.7549C1.84682 38.2749 4.14682 30.5549 8.22682 23.7949C12.3068 17.0349 17.9168 11.6249 24.9068 7.70494C31.8868 3.79494 39.8468 1.81494 48.5468 1.81494C57.2468 1.81494 64.7968 3.74493 71.2868 7.55493C77.7868 11.3649 82.8768 16.7649 86.4068 23.5949C89.9268 30.4049 91.7068 38.2149 91.7068 46.8049C91.7068 63.4349 82.8068 81.1149 65.2568 99.3749L95.4168 98.9049C95.7868 98.8749 96.1268 99.1849 96.1768 99.5649L99.6568 129.385C99.6768 129.595 99.6168 129.815 99.4768 129.965C99.3368 130.125 99.1268 130.215 98.9168 130.215L4.4868 130.385L4.46681 130.405ZM2.44679 101.625L5.14681 128.905L98.0568 128.745L94.7568 100.435L63.4568 100.925C63.1568 100.905 62.8768 100.755 62.7568 100.475C62.6368 100.195 62.6968 99.8749 62.9068 99.6549C81.0168 81.2249 90.1968 63.4549 90.1968 46.8349C90.1968 38.4949 88.4668 30.9149 85.0668 24.3149C81.6668 17.7349 76.7768 12.5449 70.5268 8.87494C64.2668 5.20494 56.8668 3.34494 48.5368 3.34494C40.2068 3.34494 32.3868 5.26494 25.6268 9.04494C18.8668 12.8349 13.4468 18.0649 9.49681 24.5949C5.65681 30.9649 3.44681 38.2249 2.93681 46.1949L31.8068 51.2449C32.3668 46.9149 33.9968 42.9649 36.6768 39.4849C39.5768 35.7149 43.0068 33.8049 46.8768 33.8049C50.0968 33.8049 52.8068 35.2449 54.9368 38.0849C57.0168 40.8549 58.0668 44.0149 58.0668 47.4849C58.0668 53.1649 54.9968 59.6849 48.9468 66.8549C42.9768 73.9349 35.5168 80.7449 26.7768 87.1049C18.2368 93.3249 10.0568 98.2049 2.44679 101.625Z" fill="#FD8329"/>
</svg>
