<?xml version="1.0" encoding="UTF-8"?>
<svg id="NUMEROS_TORIBIO" data-name="NUMEROS TORIBIO" xmlns="http://www.w3.org/2000/svg" xmlns:xlink="http://www.w3.org/1999/xlink" viewBox="0 0 200 200">
  <defs>
    <style>
      .cls-1 {
        fill: #ffed84;
      }

      .cls-1, .cls-2, .cls-3, .cls-4 {
        stroke-width: 0px;
      }

      .cls-2 {
        fill: #f7aa0a;
      }

      .cls-3 {
        fill: none;
      }

      .cls-4 {
        fill: #fdc605;
      }
    </style>
    <clipPath id="clippath">
      <rect class="cls-3" x="694" y="-193" width="792" height="612"/>
    </clipPath>
    <clipPath id="clippath-1">
      <rect class="cls-3" x="694" y="-193" width="792" height="612"/>
    </clipPath>
  </defs>
  <path class="cls-4" d="M114.98,86.91c5.91,3.76,10.46,8.64,13.67,14.66,3.2,6.02,4.8,12.73,4.8,20.13,0,8.06-1.82,15.24-5.47,21.54-3.64,6.3-8.73,11.24-15.24,14.83-6.52,3.59-13.92,5.38-22.2,5.38-8.84,0-16.73-2.07-23.69-6.21-6.96-4.14-12.37-9.58-16.24-16.32-3.87-6.74-5.96-13.92-6.3-21.54-.11-.99-.17-2.43-.17-4.31,0-12.59,4.22-25.54,12.67-38.85,8.45-13.31,23.11-26.53,43.99-39.68l21.7,22.86c-4.09,1.77-8.64,4.5-13.67,8.2-5.03,3.7-9.8,7.87-14.33,12.51,7.73.77,14.55,3.04,20.46,6.79ZM99.83,132.14c2.87-2.98,4.31-6.52,4.31-10.6s-1.44-7.59-4.31-10.52c-2.87-2.92-6.57-4.39-11.1-4.39-3.98,0-7.54,1.11-10.69,3.31-3.15,2.21-4.83,5.47-5.05,9.77v1.16c.11,4.75,1.88,8.56,5.3,11.43,3.42,2.87,7.18,4.31,11.27,4.31s7.4-1.49,10.27-4.47Z"/>
  <path class="cls-2" d="M124.76,139.81c-16.3,16.11-42.02,24.31-60.28,6.42-15.7-15.37-13.91-41.62-6.62-60.42,4.12-10.63,10.75-20.32,18.14-28.93,3.16-3.68,6.62-7.03,10.14-10.31-13.22,9.84-22.99,19.72-29.3,29.65-8.45,13.31-12.67,26.26-12.67,38.85,0,1.88.05,3.31.17,4.31.33,7.62,2.43,14.8,6.3,21.54,3.86,6.74,9.28,12.18,16.24,16.32,6.96,4.14,14.85,6.21,23.69,6.21,8.28,0,15.68-1.79,22.2-5.38,6.52-3.59,11.6-8.53,15.24-14.83,2.2-3.79,3.72-7.92,4.59-12.36-2.39,3.14-5,6.14-7.82,8.93Z"/>
  <path class="cls-2" d="M96.28,134.91c9.15-2.94,14.04-14.12,10.19-23.04-3.88-8.97-16.45-10.59-24.51-7.41-5.39,2.13-7.89,6.44-8.21,11.19.81-2.35,2.23-4.26,4.29-5.71,3.15-2.21,6.71-3.31,10.69-3.31,4.53,0,8.23,1.47,11.1,4.39,2.87,2.93,4.31,6.44,4.31,10.52s-1.44,7.62-4.31,10.6c-1.1,1.14-2.28,2.06-3.54,2.77Z"/>
  <g>
    <path class="cls-1" d="M100.25,49.87c-7.87-1.3-16.5,7.4-21.55,12.41-6,5.96-14.18,14.89-12.77,23.95.12.77,1.1,1.02,1.7.69,3.27-1.79,5.3-4.29,7.41-7.32,2.87-4.11,5.85-8.05,9.19-11.79,2.81-3.14,5.96-6.02,9.12-8.81,2.69-2.38,6.04-4.82,7.41-8.22.14-.35-.15-.86-.52-.92h0Z"/>
    <path class="cls-1" d="M62.88,89.65c-2.14.56-3.42,3-3.72,5.04-.25,1.69.4,3.37,2.19,3.86,1.69.46,3.36-.56,3.86-2.19.11-.34.18-.69.26-1.04.04-.19.34-1.92.26-1.33.17-1.17.15-2.25-.37-3.33-.43-.89-1.58-1.25-2.49-1.01h0Z"/>
  </g>
  <path class="cls-2" d="M90.55,164.2c-8.93,0-17.03-2.13-24.07-6.32-7.04-4.19-12.59-9.77-16.5-16.59-3.91-6.8-6.06-14.17-6.39-21.88-.11-.97-.17-2.41-.17-4.34,0-12.67,4.3-25.88,12.79-39.25,8.47-13.34,23.35-26.77,44.22-39.91.3-.19.7-.14.94.12l21.7,22.86c.17.18.24.43.19.67-.05.24-.21.44-.44.54-4.02,1.74-8.57,4.47-13.52,8.12-4.58,3.37-9,7.18-13.16,11.33,7.19.92,13.66,3.18,19.24,6.73,5.99,3.81,10.68,8.84,13.93,14.94,3.25,6.1,4.89,13,4.89,20.48,0,8.16-1.87,15.53-5.57,21.91-3.7,6.39-8.92,11.47-15.53,15.11-6.6,3.63-14.19,5.48-22.56,5.48ZM100.7,37.51c-20.41,12.92-34.95,26.08-43.23,39.12-8.33,13.13-12.56,26.06-12.56,38.45,0,1.85.05,3.27.16,4.22.33,7.52,2.41,14.65,6.2,21.25,3.78,6.59,9.15,11.99,15.97,16.05,6.81,4.05,14.65,6.11,23.31,6.11,8.12,0,15.46-1.78,21.84-5.29,6.36-3.5,11.4-8.4,14.95-14.55,3.56-6.15,5.37-13.27,5.37-21.16,0-7.24-1.59-13.89-4.72-19.78-3.13-5.88-7.64-10.71-13.41-14.38-5.78-3.67-12.56-5.92-20.13-6.68-.29-.03-.53-.22-.63-.49-.1-.27-.03-.57.17-.78,4.53-4.64,9.38-8.88,14.42-12.59,4.65-3.42,8.96-6.06,12.84-7.85l-20.55-21.65ZM89.55,137.36c-4.25,0-8.21-1.51-11.75-4.48-3.58-3-5.46-7.04-5.57-11.99v-1.18c.23-4.56,2.04-8.05,5.37-10.39,3.26-2.29,7-3.45,11.12-3.45,4.71,0,8.63,1.55,11.63,4.62,3,3.06,4.52,6.78,4.52,11.05s-1.52,8.01-4.52,11.12c-3.01,3.12-6.64,4.7-10.81,4.7ZM88.73,107.38c-3.8,0-7.25,1.07-10.26,3.18-2.98,2.09-4.53,5.1-4.73,9.2v1.12c.1,4.49,1.8,8.14,5.03,10.86,3.27,2.74,6.89,4.13,10.78,4.13s6.98-1.39,9.73-4.24c2.72-2.82,4.1-6.22,4.1-10.08s-1.38-7.23-4.09-10c-2.71-2.76-6.27-4.17-10.56-4.17Z"/>
</svg>