<svg width="115" height="129" viewBox="0 0 115 129" fill="none" xmlns="http://www.w3.org/2000/svg">
<path d="M72.4875 51.1149C78.3975 54.8749 82.9475 59.7549 86.1575 65.7749C89.3575 71.7949 90.9575 78.5049 90.9575 85.9049C90.9575 93.9649 89.1375 101.145 85.4875 107.445C81.8475 113.745 76.7575 118.685 70.2475 122.275C63.7275 125.865 56.3275 127.655 48.0475 127.655C39.2075 127.655 31.3175 125.585 24.3575 121.445C17.3975 117.305 11.9875 111.865 8.11746 105.125C4.24746 98.3849 2.15746 91.2049 1.81746 83.5849C1.70746 82.5949 1.64746 81.1549 1.64746 79.2749C1.64746 66.6849 5.86746 53.7349 14.3175 40.4249C22.7675 27.1149 37.4275 13.8949 58.3075 0.744873L80.0075 23.6049C75.9175 25.3749 71.3675 28.1049 66.3375 31.8049C61.3075 35.5049 56.5375 39.6749 52.0075 44.3149C59.7375 45.0849 66.5575 47.3549 72.4675 51.1049L72.4875 51.1149ZM57.3275 96.3449C60.1975 93.3649 61.6375 89.8249 61.6375 85.7449C61.6375 81.6649 60.1975 78.1549 57.3275 75.2249C54.4575 72.3049 50.7575 70.8349 46.2275 70.8349C42.2475 70.8349 38.6875 71.9449 35.5375 74.1449C32.3875 76.3549 30.7075 79.6149 30.4875 83.9149V85.0749C30.5975 89.8249 32.3675 93.6349 35.7875 96.5049C39.2075 99.3749 42.9675 100.815 47.0575 100.815C51.1475 100.815 54.4575 99.3249 57.3275 96.3449Z" fill="#E54A35"/>
<path d="M82.2677 104.015C65.9677 120.125 40.2477 128.325 21.9877 110.435C6.28775 95.0649 8.07774 68.8149 15.3677 50.0149C19.4877 39.3849 26.1177 29.6949 33.5077 21.0849C36.6677 17.4049 40.1277 14.0549 43.6477 10.7749C30.4277 20.6149 20.6577 30.4949 14.3477 40.4249C5.89775 53.7349 1.67773 66.6849 1.67773 79.2749C1.67773 81.1549 1.72775 82.5849 1.84775 83.5849C2.17775 91.2049 4.27774 98.3849 8.14774 105.125C12.0077 111.865 17.4277 117.305 24.3877 121.445C31.3477 125.585 39.2377 127.655 48.0777 127.655C56.3577 127.655 63.7577 125.865 70.2777 122.275C76.7977 118.685 81.8777 113.745 85.5177 107.445C87.7177 103.655 89.2377 99.5249 90.1077 95.0849C87.7177 98.2249 85.1077 101.225 82.2877 104.015H82.2677Z" fill="#AF322C"/>
<path d="M53.7878 99.1148C62.9378 96.1748 67.8278 84.9948 63.9778 76.0748C60.0978 67.1048 47.5278 65.4848 39.4678 68.6648C34.0778 70.7948 31.5778 75.1048 31.2578 79.8548C32.0678 77.5048 33.4878 75.5948 35.5478 74.1448C38.6978 71.9348 42.2578 70.8348 46.2378 70.8348C50.7678 70.8348 54.4678 72.3048 57.3378 75.2248C60.2078 78.1548 61.6478 81.6648 61.6478 85.7448C61.6478 89.8248 60.2078 93.3648 57.3378 96.3448C56.2378 97.4848 55.0578 98.4048 53.7978 99.1148H53.7878Z" fill="#EA435B"/>
<path d="M57.7481 14.0749C49.8781 12.7749 41.2481 21.4749 36.1981 26.4849C30.1981 32.4449 22.0181 41.3749 23.4281 50.4349C23.5481 51.2049 24.5281 51.4549 25.1281 51.1249C28.3981 49.3349 30.4281 46.8349 32.5381 43.8049C35.4081 39.6949 38.3881 35.7549 41.7281 32.0149C44.5381 28.8749 47.6881 25.9949 50.8481 23.2049C53.5381 20.8249 56.8881 18.3849 58.2581 14.9849C58.3981 14.6349 58.1081 14.1249 57.7381 14.0649L57.7481 14.0749Z" fill="#FF6E83"/>
<path d="M20.3877 53.8548C18.2477 54.4148 16.9677 56.8548 16.6677 58.8948C16.4177 60.5848 17.0677 62.2648 18.8577 62.7548C20.5477 63.2148 22.2177 62.1948 22.7177 60.5648C22.8277 60.2248 22.8977 59.8748 22.9777 59.5248C23.0177 59.3348 23.3177 57.6048 23.2377 58.1948C23.4077 57.0248 23.3877 55.9448 22.8677 54.8648C22.4377 53.9748 21.2877 53.6148 20.3777 53.8548H20.3877Z" fill="#FF6E83"/>
<path d="M48.0577 128.405C39.1277 128.405 31.0277 126.275 23.9877 122.085C16.9477 117.895 11.3977 112.315 7.48775 105.495C3.57775 98.6947 1.42775 91.3247 1.09775 83.6147C0.987748 82.6447 0.927734 81.2048 0.927734 79.2747C0.927734 66.6048 5.22774 53.3947 13.7177 40.0247C22.1877 26.6847 37.0677 13.2547 57.9377 0.114748C58.2377 -0.0752524 58.6377 -0.0252573 58.8777 0.234743L80.5777 23.0947C80.7477 23.2747 80.8177 23.5247 80.7677 23.7647C80.7177 24.0047 80.5577 24.2047 80.3277 24.3047C76.3077 26.0447 71.7577 28.7747 66.8077 32.4247C62.2277 35.7947 57.8077 39.6047 53.6477 43.7547C60.8377 44.6747 67.3077 46.9347 72.8877 50.4847C78.8777 54.2947 83.5677 59.3247 86.8177 65.4247C90.0677 71.5247 91.7077 78.4247 91.7077 85.9047C91.7077 94.0647 89.8377 101.435 86.1377 107.815C82.4377 114.205 77.2177 119.285 70.6077 122.925C64.0077 126.555 56.4177 128.405 48.0477 128.405H48.0577ZM58.2077 1.71475C37.7977 14.6347 23.2577 27.7947 14.9777 40.8347C6.64774 53.9647 2.41774 66.8947 2.41774 79.2847C2.41774 81.1347 2.46774 82.5547 2.57774 83.5047C2.90774 91.0247 4.98774 98.1547 8.77774 104.755C12.5577 111.345 17.9277 116.745 24.7477 120.805C31.5577 124.855 39.3977 126.915 48.0577 126.915C56.1777 126.915 63.5177 125.135 69.8977 121.625C76.2577 118.125 81.2977 113.225 84.8477 107.075C88.4077 100.925 90.2177 93.8047 90.2177 85.9147C90.2177 78.6748 88.6277 72.0247 85.4977 66.1347C82.3677 60.2547 77.8577 55.4247 72.0877 51.7547C66.3077 48.0847 59.5277 45.8347 51.9577 45.0747C51.6677 45.0447 51.4277 44.8547 51.3277 44.5847C51.2277 44.3147 51.2977 44.0147 51.4977 43.8047C56.0277 39.1647 60.8777 34.9247 65.9177 31.2147C70.5677 27.7947 74.8777 25.1547 78.7577 23.3647L58.2077 1.71475ZM47.0577 101.565C42.8077 101.565 38.8477 100.055 35.3077 97.0847C31.7277 94.0847 29.8477 90.0447 29.7377 85.0947V83.9147C29.9677 79.3548 31.7777 75.8647 35.1077 73.5247C38.3677 71.2347 42.1077 70.0747 46.2277 70.0747C50.9377 70.0747 54.8577 71.6247 57.8577 74.6947C60.8577 77.7547 62.3777 81.4747 62.3777 85.7447C62.3777 90.0147 60.8577 93.7547 57.8577 96.8647C54.8477 99.9847 51.2177 101.565 47.0477 101.565H47.0577ZM46.2277 71.5747C42.4277 71.5747 38.9777 72.6447 35.9677 74.7547C32.9877 76.8447 31.4377 79.8547 31.2377 83.9547V85.0747C31.3377 89.5647 33.0377 93.2147 36.2677 95.9347C39.5377 98.6747 43.1577 100.065 47.0477 100.065C50.9377 100.065 54.0277 98.6747 56.7777 95.8247C59.4977 93.0047 60.8777 89.6047 60.8777 85.7447C60.8777 81.8847 59.4977 78.5147 56.7877 75.7447C54.0777 72.9847 50.5177 71.5747 46.2277 71.5747Z" fill="#EA435B"/>
</svg>
