<svg width="99" height="128" viewBox="0 0 99 128" fill="none" xmlns="http://www.w3.org/2000/svg">
<path d="M91.2881 29.9C85.3281 36.97 79.9681 44.31 75.2181 51.93C70.4681 59.55 65.7181 68.06 60.9681 77.44C55.6681 87.93 49.2581 104.44 41.7481 126.98H2.81812C8.66812 108.09 14.7481 91.8 21.0381 78.11C30.6481 56.68 38.9881 41.11 46.0581 31.39L0.828125 32.72V0.75H90.4581L91.2881 29.91V29.9Z" fill="#F8B334"/>
<path d="M90.7981 12.5901C89.3581 27.7801 77.3881 40.5301 72.0281 47.2701C61.6781 60.2801 43.9381 110.84 40.6981 118.05C37.4181 125.35 16.7381 122.76 14.7081 122.64C12.2781 122.5 10.2081 121.5 9.29813 118.42C7.95813 113.91 9.36811 108.66 10.4881 104.27C10.5481 104.03 10.6081 103.8 10.6781 103.56C8.01812 110.86 5.39812 118.66 2.82812 126.97H41.7581C49.2681 104.44 55.6781 87.9301 60.9781 77.4301C65.7281 68.0401 70.4781 59.5401 75.2281 51.9201C79.9781 44.3001 85.3381 36.9601 91.2981 29.8901L90.8081 12.5901H90.7981Z" fill="#E1A022"/>
<path d="M6.95794 12.2201C12.8579 17.3201 23.4479 15.4701 30.6779 15.3301C35.1779 15.2401 39.688 15.0301 44.188 14.8401C48.688 14.6501 52.9179 14.6301 56.9179 12.3301C58.4279 11.4601 58.368 9.27005 56.9179 8.39005C49.6079 3.93005 38.7979 6.26005 30.6779 6.74005C26.1779 7.00005 21.638 7.33005 17.168 7.88005C13.268 8.36005 10.0579 8.53005 6.95794 11.1001C6.63794 11.3601 6.64794 11.9601 6.95794 12.2301V12.2201Z" fill="#F7CF8F"/>
<path d="M62.2882 12.39C64.1682 14.32 68.4882 14.34 69.8482 11.77C70.5282 10.47 70.2582 9.27002 69.3882 8.17002C67.7282 6.08002 64.0682 6.98002 62.2982 8.38002C61.0682 9.35002 61.3182 11.39 62.2982 12.4L62.2882 12.39Z" fill="#F3AA34"/>
<path d="M41.7479 127.73H2.81789C2.57789 127.73 2.3579 127.62 2.2179 127.43C2.0779 127.24 2.03789 126.99 2.10789 126.76C7.93789 107.93 14.0879 91.46 20.3679 77.8C29.5579 57.31 37.6979 41.98 44.5779 32.19L0.857895 33.47C0.657895 33.48 0.457886 33.4 0.317886 33.26C0.167886 33.12 0.0878906 32.92 0.0878906 32.72V0.75C0.0878906 0.34 0.427891 0 0.837891 0H90.4679C90.8779 0 91.2079 0.320003 91.2179 0.730003L92.0479 29.89C92.0479 30.07 91.9879 30.25 91.8679 30.39C85.9479 37.41 80.5579 44.79 75.8579 52.34C71.1379 59.91 66.3579 68.48 61.6379 77.8C56.3779 88.22 49.9179 104.85 42.4579 127.23C42.3579 127.54 42.0679 127.74 41.7479 127.74V127.73ZM3.83789 126.23H41.2079C48.6179 104.04 55.0379 87.51 60.2979 77.11C65.0279 67.75 69.8379 59.15 74.5779 51.54C79.2679 44.01 84.6279 36.65 90.5279 29.64L89.7279 1.5H1.5779V31.95L46.0379 30.65C46.3179 30.65 46.5879 30.8 46.7179 31.05C46.8479 31.3 46.8279 31.61 46.6579 31.84C39.6579 41.47 31.2679 57.14 21.7179 78.42C15.5679 91.8 9.5479 107.88 3.8279 126.24L3.83789 126.23Z" fill="#E17022"/>
</svg>
