<svg width="123" height="145" viewBox="0 0 123 145" fill="none" xmlns="http://www.w3.org/2000/svg">
<path d="M87.7047 64.7301C91.7347 68.9301 94.9347 73.8401 97.3147 79.4701C99.6847 85.1001 100.875 90.9001 100.875 96.8701C100.875 105.04 98.6647 112.42 94.2447 118.99C89.8247 125.56 83.6647 130.7 75.7747 134.4C67.8747 138.1 59.0147 139.95 49.1847 139.95C39.3547 139.95 31.6247 138.13 24.9947 134.48C18.3647 130.84 12.7347 125.09 8.09473 117.25L25.3247 92.5601C28.3047 97.4201 31.7547 101.12 35.6747 103.66C39.5947 106.2 43.8147 107.47 48.3447 107.47C52.8747 107.47 56.9547 106.06 59.9447 103.25C62.9247 100.43 64.4147 96.8201 64.4147 92.4001C64.4147 88.3201 63.0347 84.8401 60.2747 81.9601C57.5147 79.0901 54.1447 77.6501 50.1647 77.6501C47.2947 77.6501 44.6647 78.0401 42.2947 78.8101C39.9147 79.5801 37.2947 80.9101 34.4247 82.7901L25.9747 61.0901L50.1647 41.2101L11.2347 41.7101V13.0501L96.2247 12.8801L96.8847 40.5501L74.3547 55.7901C79.2147 57.5601 83.6547 60.5401 87.6947 64.7401L87.7047 64.7301Z" fill="#9763B9"/>
<path d="M94.244 118.98C98.664 112.41 100.874 105.04 100.874 96.86C100.874 90.9 99.684 85.1001 97.314 79.4601C94.934 73.8301 91.734 68.91 87.704 64.72C83.674 60.52 79.224 57.5401 74.364 55.7701L96.894 40.53L96.384 19.3C95.924 21.99 95.364 24.66 94.344 27.3C92.564 31.94 89.414 35.99 86.054 39.58C83.454 42.36 80.474 44.78 77.444 47.06C75.484 48.53 72.994 49.91 71.594 52C70.154 54.16 69.804 56.93 72.234 58.59C75.994 61.15 79.234 63.6601 82.154 67.2101C88.624 75.0601 92.294 85.4 92.784 95.5C93.994 120.3 70.784 132.74 48.794 132.26C40.074 132.07 23.664 129.54 19.804 120.28C16.824 113.14 20.114 103.87 22.784 96.1801L8.08398 117.24C12.724 125.08 18.354 130.82 24.984 134.47C31.614 138.12 39.674 139.94 49.174 139.94C58.674 139.94 67.864 138.09 75.764 134.39C83.654 130.69 89.814 125.55 94.234 118.98H94.244Z" fill="#754799"/>
<path d="M19.3743 25.4601C25.4043 28.4001 34.3743 26.6401 40.9143 26.7001C49.4443 26.7901 58.6843 28.8201 66.9143 26.0101C69.4743 25.1401 69.2543 21.9901 66.9143 21.0401C58.9643 17.8001 49.3743 18.3501 40.9143 18.3101C34.1443 18.2701 23.5743 18.1001 19.0143 24.0701C18.6943 24.4901 18.9243 25.2401 19.3743 25.4601Z" fill="#BE84EC"/>
<path d="M72.3442 25.3002C73.1242 26.3202 74.0543 26.9602 75.3343 27.1802C76.7943 27.4302 78.1243 27.2302 79.4743 26.6202C82.0343 25.4502 81.4443 20.9802 78.6743 20.5002C76.5443 20.1302 73.8742 20.4202 72.3442 22.5502C71.8442 23.2502 71.8042 24.6102 72.3442 25.3102V25.3002Z" fill="#BE84EC"/>
<path opacity="0.6" d="M49.1841 140.69C39.6041 140.69 31.3441 138.82 24.6341 135.13C17.9141 131.44 12.1341 125.55 7.4541 117.63C7.3041 117.38 7.3141 117.06 7.4841 116.82L24.7141 92.1401C24.8641 91.9301 25.0941 91.8001 25.3541 91.8201C25.6041 91.8201 25.8341 91.9601 25.9741 92.1801C28.8841 96.9201 32.2941 100.58 36.0941 103.04C39.8641 105.49 43.9941 106.73 48.3641 106.73C52.7341 106.73 56.6241 105.38 59.4441 102.71C62.2541 100.05 63.6841 96.5901 63.6841 92.4001C63.6841 88.5401 62.3641 85.2001 59.7541 82.4801C57.1141 79.7401 53.9841 78.4001 50.1941 78.4001C47.4241 78.4001 44.8541 78.7801 42.5541 79.5201C40.2541 80.2701 37.6641 81.5801 34.8641 83.4101C34.6741 83.5301 34.4441 83.5601 34.2241 83.5001C34.0041 83.4301 33.8341 83.2701 33.7541 83.0601L25.3041 61.3601C25.1841 61.0601 25.2741 60.7101 25.5241 60.5101L48.0641 41.9901L11.2641 42.4601C11.0441 42.4401 10.8741 42.3801 10.7241 42.2401C10.5841 42.1001 10.5041 41.9101 10.5041 41.7101V13.0501C10.5041 12.6401 10.8341 12.3001 11.2541 12.3001L96.2441 12.1301C96.6541 12.1301 96.9841 12.4501 96.9941 12.8601L97.6541 40.5301C97.6541 40.7901 97.5341 41.0301 97.3241 41.1701L75.9741 55.6101C80.4041 57.4601 84.5241 60.3501 88.2441 64.2201C92.3241 68.4701 95.6041 73.5001 98.0041 79.1901C100.404 84.8901 101.624 90.8401 101.624 96.8801C101.624 105.17 99.3541 112.75 94.8741 119.42C90.4041 126.08 84.0841 131.35 76.1041 135.09C68.1441 138.82 59.0941 140.71 49.1941 140.71L49.1841 140.69ZM8.99408 117.28C13.4941 124.76 19.0041 130.32 25.3641 133.82C31.8441 137.39 39.8641 139.19 49.1941 139.19C58.5241 139.19 67.7141 137.35 75.4641 133.71C83.2041 130.09 89.3141 124.99 93.6341 118.56C97.9441 112.14 100.134 104.84 100.134 96.8601C100.134 91.0301 98.9541 85.2701 96.6341 79.7601C94.3041 74.2401 91.1241 69.3601 87.1741 65.2401C83.2441 61.1501 78.8441 58.2001 74.1241 56.4801C73.8641 56.3801 73.6741 56.1501 73.6341 55.8701C73.5941 55.5901 73.7241 55.3101 73.9541 55.1601L96.1441 40.1501L95.5041 13.6301L11.9941 13.7901V40.9401L50.1641 40.4501C50.4741 40.4501 50.7641 40.6501 50.8641 40.9401C50.9741 41.2401 50.8841 41.5701 50.6341 41.7801L26.8641 61.3201L34.7841 81.6601C37.4041 80.0101 39.8441 78.8201 42.0541 78.1001C44.4941 77.3101 47.2241 76.9001 50.1541 76.9001C54.3241 76.9001 57.9041 78.4301 60.8041 81.4401C63.6941 84.4501 65.1541 88.1301 65.1541 92.4001C65.1541 97.0101 63.5741 100.85 60.4441 103.8C57.3341 106.74 53.2541 108.23 48.3341 108.23C43.6741 108.23 39.2741 106.91 35.2541 104.3C31.5241 101.88 28.1641 98.4001 25.2741 93.9301L8.96408 117.29L8.99408 117.28Z" fill="#754799"/>
</svg>
