<?xml version="1.0" encoding="UTF-8"?>
<svg id="NUMEROS_TORIBIO" data-name="NUMEROS TORIBIO" xmlns="http://www.w3.org/2000/svg" xmlns:xlink="http://www.w3.org/1999/xlink" viewBox="0 0 200 200">
  <defs>
    <style>
      .cls-1 {
        fill: #ffed84;
      }

      .cls-1, .cls-2, .cls-3, .cls-4 {
        stroke-width: 0px;
      }

      .cls-2 {
        fill: #f7aa0a;
      }

      .cls-3 {
        fill: none;
      }

      .cls-4 {
        fill: #fdc605;
      }
    </style>
    <clipPath id="clippath">
      <rect class="cls-3" x="694" y="27" width="792" height="612"/>
    </clipPath>
    <clipPath id="clippath-1">
      <rect class="cls-3" x="694" y="27" width="792" height="612"/>
    </clipPath>
  </defs>
  <path class="cls-4" d="M126.33,92.37c4.03,4.2,7.23,9.11,9.61,14.74,2.37,5.63,3.56,11.43,3.56,17.4,0,8.17-2.21,15.55-6.63,22.12-4.42,6.57-10.58,11.71-18.47,15.41-7.9,3.7-16.76,5.55-26.59,5.55s-17.56-1.82-24.19-5.47c-6.63-3.64-12.26-9.39-16.9-17.23l17.23-24.69c2.98,4.86,6.43,8.56,10.35,11.1,3.92,2.54,8.14,3.81,12.67,3.81s8.61-1.41,11.6-4.22c2.98-2.82,4.47-6.43,4.47-10.85,0-4.08-1.38-7.56-4.14-10.44-2.76-2.87-6.13-4.31-10.11-4.31-2.87,0-5.5.39-7.87,1.16-2.38.77-5,2.1-7.87,3.98l-8.45-21.7,24.19-19.88-38.93.5v-28.66l84.99-.17.66,27.67-22.53,15.24c4.86,1.77,9.3,4.75,13.34,8.95Z"/>
  <path class="cls-2" d="M132.88,146.63c4.42-6.57,6.63-13.94,6.63-22.12,0-5.96-1.19-11.76-3.56-17.4-2.38-5.63-5.58-10.55-9.61-14.74-4.03-4.2-8.48-7.18-13.34-8.95l22.53-15.24-.51-21.23c-.46,2.69-1.02,5.36-2.04,8-1.78,4.64-4.93,8.69-8.29,12.28-2.6,2.78-5.58,5.2-8.61,7.48-1.96,1.47-4.45,2.85-5.85,4.94-1.44,2.16-1.79,4.93.64,6.59,3.76,2.56,7,5.07,9.92,8.62,6.47,7.85,10.14,18.19,10.63,28.29,1.21,24.8-22,37.24-43.99,36.76-8.72-.19-25.13-2.72-28.99-11.98-2.98-7.14.31-16.41,2.98-24.1l-14.7,21.06c4.64,7.84,10.27,13.58,16.9,17.23,6.63,3.65,14.69,5.47,24.19,5.47s18.69-1.85,26.59-5.55c7.89-3.7,14.05-8.84,18.47-15.41Z"/>
  <g>
    <path class="cls-1" d="M58.01,53.11c6.03,2.94,15,1.18,21.54,1.24,8.53.09,17.77,2.12,26-.69,2.56-.87,2.34-4.02,0-4.97-7.95-3.24-17.54-2.69-26-2.73-6.77-.04-17.34-.21-21.9,5.76-.32.42-.09,1.17.36,1.39h0Z"/>
    <path class="cls-1" d="M110.98,52.94c.78,1.02,1.71,1.66,2.99,1.88,1.46.25,2.79.05,4.14-.56,2.56-1.17,1.97-5.64-.8-6.12-2.13-.37-4.8-.08-6.33,2.05-.5.7-.54,2.06,0,2.76h0Z"/>
  </g>
  <path class="cls-2" d="M87.82,168.34c-9.58,0-17.84-1.87-24.55-5.56-6.72-3.69-12.5-9.58-17.18-17.5-.15-.25-.14-.57.03-.81l17.23-24.68c.15-.21.38-.34.64-.32.25,0,.48.14.62.36,2.91,4.74,6.32,8.4,10.12,10.86,3.77,2.45,7.9,3.69,12.27,3.69s8.26-1.35,11.08-4.02c2.81-2.66,4.24-6.12,4.24-10.31,0-3.86-1.32-7.2-3.93-9.92-2.64-2.74-5.77-4.08-9.56-4.08-2.77,0-5.34.38-7.64,1.12-2.3.75-4.89,2.06-7.69,3.89-.19.12-.42.15-.64.09-.22-.07-.39-.23-.47-.44l-8.45-21.7c-.12-.3-.03-.65.22-.85l22.54-18.52-36.8.47c-.22-.02-.39-.08-.54-.22-.14-.14-.22-.33-.22-.53v-28.66c0-.41.33-.75.75-.75l84.99-.17h0c.41,0,.74.32.75.73l.66,27.67c0,.26-.12.5-.33.64l-21.35,14.44c4.43,1.85,8.55,4.74,12.27,8.61,4.08,4.25,7.36,9.28,9.76,14.97,2.4,5.7,3.62,11.65,3.62,17.69,0,8.29-2.27,15.87-6.75,22.54-4.47,6.66-10.79,11.93-18.77,15.67-7.96,3.73-17.01,5.62-26.91,5.62ZM47.62,144.92c4.5,7.48,10.01,13.04,16.37,16.54,6.48,3.57,14.5,5.37,23.83,5.37s18.52-1.84,26.27-5.48c7.74-3.62,13.85-8.72,18.17-15.15,4.31-6.42,6.5-13.72,6.5-21.7,0-5.83-1.18-11.59-3.5-17.1-2.33-5.52-5.51-10.4-9.46-14.52-3.93-4.09-8.33-7.04-13.05-8.76-.26-.1-.45-.33-.49-.61-.04-.28.09-.56.32-.71l22.19-15.01-.64-26.52-83.51.16v27.15l38.17-.49h0c.31,0,.6.2.7.49.11.3.02.63-.23.84l-23.77,19.54,7.92,20.34c2.62-1.65,5.06-2.84,7.27-3.56,2.44-.79,5.17-1.2,8.1-1.2,4.17,0,7.75,1.53,10.65,4.54,2.89,3.01,4.35,6.69,4.35,10.96,0,4.61-1.58,8.45-4.71,11.4-3.11,2.94-7.19,4.43-12.11,4.43-4.66,0-9.06-1.32-13.08-3.93-3.73-2.42-7.09-5.9-9.98-10.37l-16.31,23.36Z"/>
</svg>