<?xml version="1.0" encoding="UTF-8"?>
<svg xmlns="http://www.w3.org/2000/svg" viewBox="0 0 200 200">
  <defs>
    <style>
      .cls-1 {
        fill: #8886f7;
      }

      .cls-1, .cls-2, .cls-3, .cls-4, .cls-5, .cls-6, .cls-7, .cls-8, .cls-9, .cls-10 {
        stroke-width: 0px;
      }

      .cls-2 {
        fill: #f99;
      }

      .cls-3 {
        fill: #ebb868;
      }

      .cls-11 {
        opacity: .34;
      }

      .cls-11, .cls-12 {
        mix-blend-mode: multiply;
      }

      .cls-12 {
        opacity: .32;
      }

      .cls-13 {
        isolation: isolate;
      }

      .cls-4 {
        fill: #ffe675;
      }

      .cls-5 {
        fill: #ffcc54;
      }

      .cls-6 {
        fill: #878787;
      }

      .cls-7 {
        fill: #f7c980;
      }

      .cls-8 {
        fill: #b36161;
      }

      .cls-9 {
        fill: #ff6161;
      }

      .cls-10 {
        fill: #a5a3ff;
      }
    </style>
  </defs>
  <g class="cls-13">
    <g id="Capa_1" data-name="Capa 1">
      <g>
        <path class="cls-6" d="M163.54,158.41H36.64c-.45,0-.81-.36-.81-.81s.36-.81.81-.81h126.91c.45,0,.81.36.81.81s-.36.81-.81.81Z"/>
        <path class="cls-6" d="M163.54,136.66H36.64c-.45,0-.81-.36-.81-.81s.36-.81.81-.81h126.91c.45,0,.81.36.81.81s-.36.81-.81.81Z"/>
        <path class="cls-6" d="M163.54,114.92H36.64c-.45,0-.81-.36-.81-.81s.36-.81.81-.81h126.91c.45,0,.81.36.81.81s-.36.81-.81.81Z"/>
        <path class="cls-6" d="M163.54,93.18H36.64c-.45,0-.81-.36-.81-.81s.36-.81.81-.81h126.91c.45,0,.81.36.81.81s-.36.81-.81.81Z"/>
        <path class="cls-6" d="M163.54,71.44H36.64c-.45,0-.81-.36-.81-.81s.36-.81.81-.81h126.91c.45,0,.81.36.81.81s-.36.81-.81.81Z"/>
        <path class="cls-6" d="M163.54,49.93H36.64c-.45,0-.81-.36-.81-.81s.36-.81.81-.81h126.91c.45,0,.81.36.81.81s-.36.81-.81.81Z"/>
        <path class="cls-7" d="M41.19,33.93v134.71h-22.22s-1.65-1.65-1.89-3.07c-.06-.37.39-7.76,1.13-18.74,2.09-30.61,6.53-89.21,8.79-102.26,0,0,1.89-9.69,6.62-12.29,4.73-2.6,7.56,1.65,7.56,1.65Z"/>
        <path class="cls-3" d="M41.19,33.93v134.71h-7.56V32.28c4.73-2.6,7.56,1.65,7.56,1.65Z"/>
        <path class="cls-7" d="M182.92,165.57c-.18,1.08-1.22,2.38-1.89,3.07h-22.22V33.93c6.75-7.62,13.01,3.4,14.18,10.64,2.82,19.99,4.48,45.67,6.26,67.39.02.27.04.53.06.79,1.22,16.85,2.82,36.68,3.6,52.82Z"/>
        <path class="cls-3" d="M158.81,33.93v134.71h7.56V32.28c-4.73-2.6-7.56,1.65-7.56,1.65Z"/>
        <g class="cls-12">
          <path class="cls-3" d="M41.19,74.77v93.87h-22.22s-1.65-1.65-1.89-3.07c-.06-.37.39-7.76,1.13-18.74,3.56-.89,8.09-3.28,12.51-9.14,9.46-12.52,10.46-62.91,10.46-62.91Z"/>
        </g>
        <g class="cls-12">
          <path class="cls-3" d="M182.92,165.57c-.08.5-.34,1.02-.64,1.49-.31.49-.65.92-.91,1.21-.2.23-.34.37-.34.37h-22.22v-72.34c1.56,14.57,4.48,32.1,9.69,37.84,4.47,4.92,9.21,7.09,12.95,8.01,0,.14.02.27.03.41.02.3.04.59.06.88.06.95.13,1.87.19,2.77h0c.02.25.03.49.05.73.15,2.27.3,4.39.42,6.33.06.85.11,1.67.16,2.45.03.44.06.85.08,1.26h0c.03.43.06.85.08,1.25.28,4.44.42,7.13.38,7.35Z"/>
        </g>
        <g>
          <path class="cls-1" d="M51.35,156.47v4.61s-.17,2.9-2.23,5.62c-1.36,1.8-4.11,1.8-5.47,0-2.06-2.72-2.23-5.62-2.23-5.62v-4.61c0-4.18,1.1-6.63,2.27-8.04,1.25-1.52,3.47-1.68,4.92-.47.17.14.32.29.47.47,1.17,1.42,2.27,3.86,2.27,8.04Z"/>
          <g class="cls-11">
            <path class="cls-1" d="M51.35,156.47v4.61s-.17,2.9-2.23,5.62c-1.36,1.8-4.11,1.8-5.47,0-2.06-2.72-2.23-5.62-2.23-5.62v-4.61s.35,6.2,4.08,4.96c2.94-.98,3.34-9.39,3.11-13.47.17.14.32.29.47.47,1.17,1.42,2.27,3.86,2.27,8.04Z"/>
          </g>
          <ellipse class="cls-10" cx="44.97" cy="152.88" rx="1.77" ry="3.19"/>
        </g>
        <g>
          <path class="cls-1" d="M61.08,156.47v4.61s-.17,2.9-2.23,5.62c-1.36,1.8-4.11,1.8-5.47,0-2.06-2.72-2.23-5.62-2.23-5.62v-4.61c0-4.18,1.1-6.63,2.27-8.04,1.25-1.52,3.47-1.68,4.92-.47.17.14.32.29.47.47,1.17,1.42,2.27,3.86,2.27,8.04Z"/>
          <g class="cls-11">
            <path class="cls-1" d="M61.08,156.47v4.61s-.17,2.9-2.23,5.62c-1.36,1.8-4.11,1.8-5.47,0-2.06-2.72-2.23-5.62-2.23-5.62v-4.61s.35,6.2,4.08,4.96c2.94-.98,3.34-9.39,3.11-13.47.17.14.32.29.47.47,1.17,1.42,2.27,3.86,2.27,8.04Z"/>
          </g>
          <ellipse class="cls-10" cx="54.69" cy="152.88" rx="1.77" ry="3.19"/>
        </g>
        <g>
          <path class="cls-1" d="M70.96,156.47v4.61s-.17,2.9-2.23,5.62c-1.36,1.8-4.11,1.8-5.47,0-2.06-2.72-2.23-5.62-2.23-5.62v-4.61c0-4.18,1.1-6.63,2.27-8.04,1.25-1.52,3.47-1.68,4.92-.47.17.14.32.29.47.47,1.17,1.42,2.27,3.86,2.27,8.04Z"/>
          <g class="cls-11">
            <path class="cls-1" d="M70.96,156.47v4.61s-.17,2.9-2.23,5.62c-1.36,1.8-4.11,1.8-5.47,0-2.06-2.72-2.23-5.62-2.23-5.62v-4.61s.35,6.2,4.08,4.96c2.94-.98,3.34-9.39,3.11-13.47.17.14.32.29.47.47,1.17,1.42,2.27,3.86,2.27,8.04Z"/>
          </g>
          <ellipse class="cls-10" cx="64.58" cy="152.88" rx="1.77" ry="3.19"/>
        </g>
        <g>
          <path class="cls-1" d="M80.69,156.47v4.61s-.17,2.9-2.23,5.62c-1.36,1.8-4.11,1.8-5.47,0-2.06-2.72-2.23-5.62-2.23-5.62v-4.61c0-4.18,1.1-6.63,2.27-8.04,1.25-1.52,3.47-1.68,4.92-.47.17.14.32.29.47.47,1.17,1.42,2.27,3.86,2.27,8.04Z"/>
          <g class="cls-11">
            <path class="cls-1" d="M80.69,156.47v4.61s-.17,2.9-2.23,5.62c-1.36,1.8-4.11,1.8-5.47,0-2.06-2.72-2.23-5.62-2.23-5.62v-4.61s.35,6.2,4.08,4.96c2.94-.98,3.34-9.39,3.11-13.47.17.14.32.29.47.47,1.17,1.42,2.27,3.86,2.27,8.04Z"/>
          </g>
          <ellipse class="cls-10" cx="74.31" cy="152.88" rx="1.77" ry="3.19"/>
        </g>
        <g>
          <path class="cls-1" d="M90.57,156.47v4.61s-.17,2.9-2.23,5.62c-1.36,1.8-4.11,1.8-5.47,0-2.06-2.72-2.23-5.62-2.23-5.62v-4.61c0-4.18,1.1-6.63,2.27-8.04,1.25-1.52,3.47-1.68,4.92-.47.17.14.32.29.47.47,1.17,1.42,2.27,3.86,2.27,8.04Z"/>
          <g class="cls-11">
            <path class="cls-1" d="M90.57,156.47v4.61s-.17,2.9-2.23,5.62c-1.36,1.8-4.11,1.8-5.47,0-2.06-2.72-2.23-5.62-2.23-5.62v-4.61s.35,6.2,4.08,4.96c2.94-.98,3.34-9.39,3.11-13.47.17.14.32.29.47.47,1.17,1.42,2.27,3.86,2.27,8.04Z"/>
          </g>
          <ellipse class="cls-10" cx="84.19" cy="152.88" rx="1.77" ry="3.19"/>
        </g>
        <g>
          <path class="cls-1" d="M100.3,156.47v4.61s-.17,2.9-2.23,5.62c-1.36,1.8-4.11,1.8-5.47,0-2.06-2.72-2.23-5.62-2.23-5.62v-4.61c0-4.18,1.1-6.63,2.27-8.04,1.25-1.52,3.47-1.68,4.92-.47.17.14.32.29.47.47,1.17,1.42,2.27,3.86,2.27,8.04Z"/>
          <g class="cls-11">
            <path class="cls-1" d="M100.3,156.47v4.61s-.17,2.9-2.23,5.62c-1.36,1.8-4.11,1.8-5.47,0-2.06-2.72-2.23-5.62-2.23-5.62v-4.61s.35,6.2,4.08,4.96c2.94-.98,3.34-9.39,3.11-13.47.17.14.32.29.47.47,1.17,1.42,2.27,3.86,2.27,8.04Z"/>
          </g>
          <ellipse class="cls-10" cx="93.92" cy="152.88" rx="1.77" ry="3.19"/>
        </g>
        <g>
          <path class="cls-1" d="M110.19,156.47v4.61s-.17,2.9-2.23,5.62c-1.36,1.8-4.11,1.8-5.47,0-2.06-2.72-2.23-5.62-2.23-5.62v-4.61c0-4.18,1.1-6.63,2.27-8.04,1.25-1.52,3.47-1.68,4.92-.47.17.14.32.29.47.47,1.17,1.42,2.27,3.86,2.27,8.04Z"/>
          <g class="cls-11">
            <path class="cls-1" d="M110.19,156.47v4.61s-.17,2.9-2.23,5.62c-1.36,1.8-4.11,1.8-5.47,0-2.06-2.72-2.23-5.62-2.23-5.62v-4.61s.35,6.2,4.08,4.96c2.94-.98,3.34-9.39,3.11-13.47.17.14.32.29.47.47,1.17,1.42,2.27,3.86,2.27,8.04Z"/>
          </g>
          <ellipse class="cls-10" cx="103.81" cy="152.88" rx="1.77" ry="3.19"/>
        </g>
        <g>
          <path class="cls-1" d="M119.92,156.47v4.61s-.17,2.9-2.23,5.62c-1.36,1.8-4.11,1.8-5.47,0-2.06-2.72-2.23-5.62-2.23-5.62v-4.61c0-4.18,1.1-6.63,2.27-8.04,1.25-1.52,3.47-1.68,4.92-.47.17.14.32.29.47.47,1.17,1.42,2.27,3.86,2.27,8.04Z"/>
          <g class="cls-11">
            <path class="cls-1" d="M119.92,156.47v4.61s-.17,2.9-2.23,5.62c-1.36,1.8-4.11,1.8-5.47,0-2.06-2.72-2.23-5.62-2.23-5.62v-4.61s.35,6.2,4.08,4.96c2.94-.98,3.34-9.39,3.11-13.47.17.14.32.29.47.47,1.17,1.42,2.27,3.86,2.27,8.04Z"/>
          </g>
          <ellipse class="cls-10" cx="113.54" cy="152.88" rx="1.77" ry="3.19"/>
        </g>
        <g>
          <path class="cls-9" d="M51.35,134.25v4.61s-.17,2.9-2.23,5.62c-1.36,1.8-4.11,1.8-5.47,0-2.06-2.72-2.23-5.62-2.23-5.62v-4.61c0-4.18,1.1-6.63,2.27-8.04,1.25-1.52,3.47-1.68,4.92-.47.17.14.32.29.47.47,1.17,1.42,2.27,3.86,2.27,8.04Z"/>
          <g class="cls-11">
            <path class="cls-8" d="M51.35,134.25v4.61s-.17,2.9-2.23,5.62c-1.36,1.8-4.11,1.8-5.47,0-2.06-2.72-2.23-5.62-2.23-5.62v-4.61s.35,6.2,4.08,4.96c2.94-.98,3.34-9.39,3.11-13.47.17.14.32.29.47.47,1.17,1.42,2.27,3.86,2.27,8.04Z"/>
          </g>
          <ellipse class="cls-2" cx="44.97" cy="130.67" rx="1.77" ry="3.19"/>
        </g>
        <g>
          <path class="cls-9" d="M61.08,134.25v4.61s-.17,2.9-2.23,5.62c-1.36,1.8-4.11,1.8-5.47,0-2.06-2.72-2.23-5.62-2.23-5.62v-4.61c0-4.18,1.1-6.63,2.27-8.04,1.25-1.52,3.47-1.68,4.92-.47.17.14.32.29.47.47,1.17,1.42,2.27,3.86,2.27,8.04Z"/>
          <g class="cls-11">
            <path class="cls-8" d="M61.08,134.25v4.61s-.17,2.9-2.23,5.62c-1.36,1.8-4.11,1.8-5.47,0-2.06-2.72-2.23-5.62-2.23-5.62v-4.61s.35,6.2,4.08,4.96c2.94-.98,3.34-9.39,3.11-13.47.17.14.32.29.47.47,1.17,1.42,2.27,3.86,2.27,8.04Z"/>
          </g>
          <ellipse class="cls-2" cx="54.69" cy="130.67" rx="1.77" ry="3.19"/>
        </g>
        <g>
          <path class="cls-9" d="M70.96,134.25v4.61s-.17,2.9-2.23,5.62c-1.36,1.8-4.11,1.8-5.47,0-2.06-2.72-2.23-5.62-2.23-5.62v-4.61c0-4.18,1.1-6.63,2.27-8.04,1.25-1.52,3.47-1.68,4.92-.47.17.14.32.29.47.47,1.17,1.42,2.27,3.86,2.27,8.04Z"/>
          <g class="cls-11">
            <path class="cls-8" d="M70.96,134.25v4.61s-.17,2.9-2.23,5.62c-1.36,1.8-4.11,1.8-5.47,0-2.06-2.72-2.23-5.62-2.23-5.62v-4.61s.35,6.2,4.08,4.96c2.94-.98,3.34-9.39,3.11-13.47.17.14.32.29.47.47,1.17,1.42,2.27,3.86,2.27,8.04Z"/>
          </g>
          <ellipse class="cls-2" cx="64.58" cy="130.67" rx="1.77" ry="3.19"/>
        </g>
        <g>
          <path class="cls-9" d="M80.69,134.25v4.61s-.17,2.9-2.23,5.62c-1.36,1.8-4.11,1.8-5.47,0-2.06-2.72-2.23-5.62-2.23-5.62v-4.61c0-4.18,1.1-6.63,2.27-8.04,1.25-1.52,3.47-1.68,4.92-.47.17.14.32.29.47.47,1.17,1.42,2.27,3.86,2.27,8.04Z"/>
          <g class="cls-11">
            <path class="cls-8" d="M80.69,134.25v4.61s-.17,2.9-2.23,5.62c-1.36,1.8-4.11,1.8-5.47,0-2.06-2.72-2.23-5.62-2.23-5.62v-4.61s.35,6.2,4.08,4.96c2.94-.98,3.34-9.39,3.11-13.47.17.14.32.29.47.47,1.17,1.42,2.27,3.86,2.27,8.04Z"/>
          </g>
          <ellipse class="cls-2" cx="74.31" cy="130.67" rx="1.77" ry="3.19"/>
        </g>
        <g>
          <path class="cls-9" d="M90.57,134.25v4.61s-.17,2.9-2.23,5.62c-1.36,1.8-4.11,1.8-5.47,0-2.06-2.72-2.23-5.62-2.23-5.62v-4.61c0-4.18,1.1-6.63,2.27-8.04,1.25-1.52,3.47-1.68,4.92-.47.17.14.32.29.47.47,1.17,1.42,2.27,3.86,2.27,8.04Z"/>
          <g class="cls-11">
            <path class="cls-8" d="M90.57,134.25v4.61s-.17,2.9-2.23,5.62c-1.36,1.8-4.11,1.8-5.47,0-2.06-2.72-2.23-5.62-2.23-5.62v-4.61s.35,6.2,4.08,4.96c2.94-.98,3.34-9.39,3.11-13.47.17.14.32.29.47.47,1.17,1.42,2.27,3.86,2.27,8.04Z"/>
          </g>
          <ellipse class="cls-2" cx="84.19" cy="130.67" rx="1.77" ry="3.19"/>
        </g>
        <g>
          <path class="cls-9" d="M100.3,134.25v4.61s-.17,2.9-2.23,5.62c-1.36,1.8-4.11,1.8-5.47,0-2.06-2.72-2.23-5.62-2.23-5.62v-4.61c0-4.18,1.1-6.63,2.27-8.04,1.25-1.52,3.47-1.68,4.92-.47.17.14.32.29.47.47,1.17,1.42,2.27,3.86,2.27,8.04Z"/>
          <g class="cls-11">
            <path class="cls-8" d="M100.3,134.25v4.61s-.17,2.9-2.23,5.62c-1.36,1.8-4.11,1.8-5.47,0-2.06-2.72-2.23-5.62-2.23-5.62v-4.61s.35,6.2,4.08,4.96c2.94-.98,3.34-9.39,3.11-13.47.17.14.32.29.47.47,1.17,1.42,2.27,3.86,2.27,8.04Z"/>
          </g>
          <ellipse class="cls-2" cx="93.92" cy="130.67" rx="1.77" ry="3.19"/>
        </g>
        <g>
          <path class="cls-9" d="M110.19,134.25v4.61s-.17,2.9-2.23,5.62c-1.36,1.8-4.11,1.8-5.47,0-2.06-2.72-2.23-5.62-2.23-5.62v-4.61c0-4.18,1.1-6.63,2.27-8.04,1.25-1.52,3.47-1.68,4.92-.47.17.14.32.29.47.47,1.17,1.42,2.27,3.86,2.27,8.04Z"/>
          <g class="cls-11">
            <path class="cls-8" d="M110.19,134.25v4.61s-.17,2.9-2.23,5.62c-1.36,1.8-4.11,1.8-5.47,0-2.06-2.72-2.23-5.62-2.23-5.62v-4.61s.35,6.2,4.08,4.96c2.94-.98,3.34-9.39,3.11-13.47.17.14.32.29.47.47,1.17,1.42,2.27,3.86,2.27,8.04Z"/>
          </g>
          <ellipse class="cls-2" cx="103.81" cy="130.67" rx="1.77" ry="3.19"/>
        </g>
        <g>
          <path class="cls-9" d="M158.67,134.25v4.61s-.17,2.9-2.23,5.62c-1.36,1.8-4.11,1.8-5.47,0-2.06-2.72-2.23-5.62-2.23-5.62v-4.61c0-4.18,1.1-6.63,2.27-8.04,1.25-1.52,3.47-1.68,4.92-.47.17.14.32.29.47.47,1.17,1.42,2.27,3.86,2.27,8.04Z"/>
          <g class="cls-11">
            <path class="cls-8" d="M158.67,134.25v4.61s-.17,2.9-2.23,5.62c-1.36,1.8-4.11,1.8-5.47,0-2.06-2.72-2.23-5.62-2.23-5.62v-4.61s.35,6.2,4.08,4.96c2.94-.98,3.34-9.39,3.11-13.47.17.14.32.29.47.47,1.17,1.42,2.27,3.86,2.27,8.04Z"/>
          </g>
          <ellipse class="cls-2" cx="152.29" cy="130.67" rx="1.77" ry="3.19"/>
        </g>
        <g>
          <path class="cls-5" d="M51.35,112.04v4.61s-.17,2.9-2.23,5.62c-1.36,1.8-4.11,1.8-5.47,0-2.06-2.72-2.23-5.62-2.23-5.62v-4.61c0-4.18,1.1-6.63,2.27-8.04,1.25-1.52,3.47-1.68,4.92-.47.17.14.32.29.47.47,1.17,1.42,2.27,3.86,2.27,8.04Z"/>
          <g class="cls-12">
            <path class="cls-3" d="M51.35,112.04v4.61s-.17,2.9-2.23,5.62c-1.36,1.8-4.11,1.8-5.47,0-2.06-2.72-2.23-5.62-2.23-5.62v-4.61s.35,6.2,4.08,4.96c2.94-.98,3.34-9.39,3.11-13.47.17.14.32.29.47.47,1.17,1.42,2.27,3.86,2.27,8.04Z"/>
          </g>
          <ellipse class="cls-4" cx="44.97" cy="108.45" rx="1.77" ry="3.19"/>
        </g>
        <g>
          <path class="cls-5" d="M61.08,112.04v4.61s-.17,2.9-2.23,5.62c-1.36,1.8-4.11,1.8-5.47,0-2.06-2.72-2.23-5.62-2.23-5.62v-4.61c0-4.18,1.1-6.63,2.27-8.04,1.25-1.52,3.47-1.68,4.92-.47.17.14.32.29.47.47,1.17,1.42,2.27,3.86,2.27,8.04Z"/>
          <g class="cls-12">
            <path class="cls-3" d="M61.08,112.04v4.61s-.17,2.9-2.23,5.62c-1.36,1.8-4.11,1.8-5.47,0-2.06-2.72-2.23-5.62-2.23-5.62v-4.61s.35,6.2,4.08,4.96c2.94-.98,3.34-9.39,3.11-13.47.17.14.32.29.47.47,1.17,1.42,2.27,3.86,2.27,8.04Z"/>
          </g>
          <ellipse class="cls-4" cx="54.69" cy="108.45" rx="1.77" ry="3.19"/>
        </g>
        <g>
          <path class="cls-5" d="M70.96,112.04v4.61s-.17,2.9-2.23,5.62c-1.36,1.8-4.11,1.8-5.47,0-2.06-2.72-2.23-5.62-2.23-5.62v-4.61c0-4.18,1.1-6.63,2.27-8.04,1.25-1.52,3.47-1.68,4.92-.47.17.14.32.29.47.47,1.17,1.42,2.27,3.86,2.27,8.04Z"/>
          <g class="cls-12">
            <path class="cls-3" d="M70.96,112.04v4.61s-.17,2.9-2.23,5.62c-1.36,1.8-4.11,1.8-5.47,0-2.06-2.72-2.23-5.62-2.23-5.62v-4.61s.35,6.2,4.08,4.96c2.94-.98,3.34-9.39,3.11-13.47.17.14.32.29.47.47,1.17,1.42,2.27,3.86,2.27,8.04Z"/>
          </g>
          <ellipse class="cls-4" cx="64.58" cy="108.45" rx="1.77" ry="3.19"/>
        </g>
        <g>
          <path class="cls-5" d="M80.69,112.04v4.61s-.17,2.9-2.23,5.62c-1.36,1.8-4.11,1.8-5.47,0-2.06-2.72-2.23-5.62-2.23-5.62v-4.61c0-4.18,1.1-6.63,2.27-8.04,1.25-1.52,3.47-1.68,4.92-.47.17.14.32.29.47.47,1.17,1.42,2.27,3.86,2.27,8.04Z"/>
          <g class="cls-12">
            <path class="cls-3" d="M80.69,112.04v4.61s-.17,2.9-2.23,5.62c-1.36,1.8-4.11,1.8-5.47,0-2.06-2.72-2.23-5.62-2.23-5.62v-4.61s.35,6.2,4.08,4.96c2.94-.98,3.34-9.39,3.11-13.47.17.14.32.29.47.47,1.17,1.42,2.27,3.86,2.27,8.04Z"/>
          </g>
          <ellipse class="cls-4" cx="74.31" cy="108.45" rx="1.77" ry="3.19"/>
        </g>
        <g>
          <path class="cls-5" d="M90.57,112.04v4.61s-.17,2.9-2.23,5.62c-1.36,1.8-4.11,1.8-5.47,0-2.06-2.72-2.23-5.62-2.23-5.62v-4.61c0-4.18,1.1-6.63,2.27-8.04,1.25-1.52,3.47-1.68,4.92-.47.17.14.32.29.47.47,1.17,1.42,2.27,3.86,2.27,8.04Z"/>
          <g class="cls-12">
            <path class="cls-3" d="M90.57,112.04v4.61s-.17,2.9-2.23,5.62c-1.36,1.8-4.11,1.8-5.47,0-2.06-2.72-2.23-5.62-2.23-5.62v-4.61s.35,6.2,4.08,4.96c2.94-.98,3.34-9.39,3.11-13.47.17.14.32.29.47.47,1.17,1.42,2.27,3.86,2.27,8.04Z"/>
          </g>
          <ellipse class="cls-4" cx="84.19" cy="108.45" rx="1.77" ry="3.19"/>
        </g>
        <g>
          <path class="cls-5" d="M100.3,112.04v4.61s-.17,2.9-2.23,5.62c-1.36,1.8-4.11,1.8-5.47,0-2.06-2.72-2.23-5.62-2.23-5.62v-4.61c0-4.18,1.1-6.63,2.27-8.04,1.25-1.52,3.47-1.68,4.92-.47.17.14.32.29.47.47,1.17,1.42,2.27,3.86,2.27,8.04Z"/>
          <g class="cls-12">
            <path class="cls-3" d="M100.3,112.04v4.61s-.17,2.9-2.23,5.62c-1.36,1.8-4.11,1.8-5.47,0-2.06-2.72-2.23-5.62-2.23-5.62v-4.61s.35,6.2,4.08,4.96c2.94-.98,3.34-9.39,3.11-13.47.17.14.32.29.47.47,1.17,1.42,2.27,3.86,2.27,8.04Z"/>
          </g>
          <ellipse class="cls-4" cx="93.92" cy="108.45" rx="1.77" ry="3.19"/>
        </g>
        <g>
          <path class="cls-5" d="M149.18,112.04v4.61s-.17,2.9-2.23,5.62c-1.36,1.8-4.11,1.8-5.47,0-2.06-2.72-2.23-5.62-2.23-5.62v-4.61c0-4.18,1.1-6.63,2.27-8.04,1.25-1.52,3.47-1.68,4.92-.47.17.14.32.29.47.47,1.17,1.42,2.27,3.86,2.27,8.04Z"/>
          <g class="cls-12">
            <path class="cls-3" d="M149.18,112.04v4.61s-.17,2.9-2.23,5.62c-1.36,1.8-4.11,1.8-5.47,0-2.06-2.72-2.23-5.62-2.23-5.62v-4.61s.35,6.2,4.08,4.96c2.94-.98,3.34-9.39,3.11-13.47.17.14.32.29.47.47,1.17,1.42,2.27,3.86,2.27,8.04Z"/>
          </g>
          <ellipse class="cls-4" cx="142.8" cy="108.45" rx="1.77" ry="3.19"/>
        </g>
        <g>
          <path class="cls-5" d="M158.91,112.04v4.61s-.17,2.9-2.23,5.62c-1.36,1.8-4.11,1.8-5.47,0-2.06-2.72-2.23-5.62-2.23-5.62v-4.61c0-4.18,1.1-6.63,2.27-8.04,1.25-1.52,3.47-1.68,4.92-.47.17.14.32.29.47.47,1.17,1.42,2.27,3.86,2.27,8.04Z"/>
          <g class="cls-12">
            <path class="cls-3" d="M158.91,112.04v4.61s-.17,2.9-2.23,5.62c-1.36,1.8-4.11,1.8-5.47,0-2.06-2.72-2.23-5.62-2.23-5.62v-4.61s.35,6.2,4.08,4.96c2.94-.98,3.34-9.39,3.11-13.47.17.14.32.29.47.47,1.17,1.42,2.27,3.86,2.27,8.04Z"/>
          </g>
          <ellipse class="cls-4" cx="152.53" cy="108.45" rx="1.77" ry="3.19"/>
        </g>
        <g>
          <path class="cls-1" d="M51.35,90.06v4.61s-.17,2.9-2.23,5.62c-1.36,1.8-4.11,1.8-5.47,0-2.06-2.72-2.23-5.62-2.23-5.62v-4.61c0-4.18,1.1-6.63,2.27-8.04,1.25-1.52,3.47-1.68,4.92-.47.17.14.32.29.47.47,1.17,1.42,2.27,3.86,2.27,8.04Z"/>
          <g class="cls-11">
            <path class="cls-1" d="M51.35,90.06v4.61s-.17,2.9-2.23,5.62c-1.36,1.8-4.11,1.8-5.47,0-2.06-2.72-2.23-5.62-2.23-5.62v-4.61s.35,6.2,4.08,4.96c2.94-.98,3.34-9.39,3.11-13.47.17.14.32.29.47.47,1.17,1.42,2.27,3.86,2.27,8.04Z"/>
          </g>
          <ellipse class="cls-10" cx="44.97" cy="86.47" rx="1.77" ry="3.19"/>
        </g>
        <g>
          <path class="cls-1" d="M61.08,90.06v4.61s-.17,2.9-2.23,5.62c-1.36,1.8-4.11,1.8-5.47,0-2.06-2.72-2.23-5.62-2.23-5.62v-4.61c0-4.18,1.1-6.63,2.27-8.04,1.25-1.52,3.47-1.68,4.92-.47.17.14.32.29.47.47,1.17,1.42,2.27,3.86,2.27,8.04Z"/>
          <g class="cls-11">
            <path class="cls-1" d="M61.08,90.06v4.61s-.17,2.9-2.23,5.62c-1.36,1.8-4.11,1.8-5.47,0-2.06-2.72-2.23-5.62-2.23-5.62v-4.61s.35,6.2,4.08,4.96c2.94-.98,3.34-9.39,3.11-13.47.17.14.32.29.47.47,1.17,1.42,2.27,3.86,2.27,8.04Z"/>
          </g>
          <ellipse class="cls-10" cx="54.69" cy="86.47" rx="1.77" ry="3.19"/>
        </g>
        <g>
          <path class="cls-1" d="M70.96,90.06v4.61s-.17,2.9-2.23,5.62c-1.36,1.8-4.11,1.8-5.47,0-2.06-2.72-2.23-5.62-2.23-5.62v-4.61c0-4.18,1.1-6.63,2.27-8.04,1.25-1.52,3.47-1.68,4.92-.47.17.14.32.29.47.47,1.17,1.42,2.27,3.86,2.27,8.04Z"/>
          <g class="cls-11">
            <path class="cls-1" d="M70.96,90.06v4.61s-.17,2.9-2.23,5.62c-1.36,1.8-4.11,1.8-5.47,0-2.06-2.72-2.23-5.62-2.23-5.62v-4.61s.35,6.2,4.08,4.96c2.94-.98,3.34-9.39,3.11-13.47.17.14.32.29.47.47,1.17,1.42,2.27,3.86,2.27,8.04Z"/>
          </g>
          <ellipse class="cls-10" cx="64.58" cy="86.47" rx="1.77" ry="3.19"/>
        </g>
        <g>
          <path class="cls-1" d="M80.69,90.06v4.61s-.17,2.9-2.23,5.62c-1.36,1.8-4.11,1.8-5.47,0-2.06-2.72-2.23-5.62-2.23-5.62v-4.61c0-4.18,1.1-6.63,2.27-8.04,1.25-1.52,3.47-1.68,4.92-.47.17.14.32.29.47.47,1.17,1.42,2.27,3.86,2.27,8.04Z"/>
          <g class="cls-11">
            <path class="cls-1" d="M80.69,90.06v4.61s-.17,2.9-2.23,5.62c-1.36,1.8-4.11,1.8-5.47,0-2.06-2.72-2.23-5.62-2.23-5.62v-4.61s.35,6.2,4.08,4.96c2.94-.98,3.34-9.39,3.11-13.47.17.14.32.29.47.47,1.17,1.42,2.27,3.86,2.27,8.04Z"/>
          </g>
          <ellipse class="cls-10" cx="74.31" cy="86.47" rx="1.77" ry="3.19"/>
        </g>
        <g>
          <path class="cls-1" d="M90.57,90.06v4.61s-.17,2.9-2.23,5.62c-1.36,1.8-4.11,1.8-5.47,0-2.06-2.72-2.23-5.62-2.23-5.62v-4.61c0-4.18,1.1-6.63,2.27-8.04,1.25-1.52,3.47-1.68,4.92-.47.17.14.32.29.47.47,1.17,1.42,2.27,3.86,2.27,8.04Z"/>
          <g class="cls-11">
            <path class="cls-1" d="M90.57,90.06v4.61s-.17,2.9-2.23,5.62c-1.36,1.8-4.11,1.8-5.47,0-2.06-2.72-2.23-5.62-2.23-5.62v-4.61s.35,6.2,4.08,4.96c2.94-.98,3.34-9.39,3.11-13.47.17.14.32.29.47.47,1.17,1.42,2.27,3.86,2.27,8.04Z"/>
          </g>
          <ellipse class="cls-10" cx="84.19" cy="86.47" rx="1.77" ry="3.19"/>
        </g>
        <g>
          <path class="cls-1" d="M139.06,90.06v4.61s-.17,2.9-2.23,5.62c-1.36,1.8-4.11,1.8-5.47,0-2.06-2.72-2.23-5.62-2.23-5.62v-4.61c0-4.18,1.1-6.63,2.27-8.04,1.25-1.52,3.47-1.68,4.92-.47.17.14.32.29.47.47,1.17,1.42,2.27,3.86,2.27,8.04Z"/>
          <g class="cls-11">
            <path class="cls-1" d="M139.06,90.06v4.61s-.17,2.9-2.23,5.62c-1.36,1.8-4.11,1.8-5.47,0-2.06-2.72-2.23-5.62-2.23-5.62v-4.61s.35,6.2,4.08,4.96c2.94-.98,3.34-9.39,3.11-13.47.17.14.32.29.47.47,1.17,1.42,2.27,3.86,2.27,8.04Z"/>
          </g>
          <ellipse class="cls-10" cx="132.67" cy="86.47" rx="1.77" ry="3.19"/>
        </g>
        <g>
          <path class="cls-1" d="M148.94,90.06v4.61s-.17,2.9-2.23,5.62c-1.36,1.8-4.11,1.8-5.47,0-2.06-2.72-2.23-5.62-2.23-5.62v-4.61c0-4.18,1.1-6.63,2.27-8.04,1.25-1.52,3.47-1.68,4.92-.47.17.14.32.29.47.47,1.17,1.42,2.27,3.86,2.27,8.04Z"/>
          <g class="cls-11">
            <path class="cls-1" d="M148.94,90.06v4.61s-.17,2.9-2.23,5.62c-1.36,1.8-4.11,1.8-5.47,0-2.06-2.72-2.23-5.62-2.23-5.62v-4.61s.35,6.2,4.08,4.96c2.94-.98,3.34-9.39,3.11-13.47.17.14.32.29.47.47,1.17,1.42,2.27,3.86,2.27,8.04Z"/>
          </g>
          <ellipse class="cls-10" cx="142.56" cy="86.47" rx="1.77" ry="3.19"/>
        </g>
        <g>
          <path class="cls-1" d="M158.67,90.06v4.61s-.17,2.9-2.23,5.62c-1.36,1.8-4.11,1.8-5.47,0-2.06-2.72-2.23-5.62-2.23-5.62v-4.61c0-4.18,1.1-6.63,2.27-8.04,1.25-1.52,3.47-1.68,4.92-.47.17.14.32.29.47.47,1.17,1.42,2.27,3.86,2.27,8.04Z"/>
          <g class="cls-11">
            <path class="cls-1" d="M158.67,90.06v4.61s-.17,2.9-2.23,5.62c-1.36,1.8-4.11,1.8-5.47,0-2.06-2.72-2.23-5.62-2.23-5.62v-4.61s.35,6.2,4.08,4.96c2.94-.98,3.34-9.39,3.11-13.47.17.14.32.29.47.47,1.17,1.42,2.27,3.86,2.27,8.04Z"/>
          </g>
          <ellipse class="cls-10" cx="152.29" cy="86.47" rx="1.77" ry="3.19"/>
        </g>
        <g>
          <path class="cls-9" d="M51.35,68.08v4.61s-.17,2.9-2.23,5.62c-1.36,1.8-4.11,1.8-5.47,0-2.06-2.72-2.23-5.62-2.23-5.62v-4.61c0-4.18,1.1-6.63,2.27-8.04,1.25-1.52,3.47-1.68,4.92-.47.17.14.32.29.47.47,1.17,1.42,2.27,3.86,2.27,8.04Z"/>
          <g class="cls-11">
            <path class="cls-8" d="M51.35,68.08v4.61s-.17,2.9-2.23,5.62c-1.36,1.8-4.11,1.8-5.47,0-2.06-2.72-2.23-5.62-2.23-5.62v-4.61s.35,6.2,4.08,4.96c2.94-.98,3.34-9.39,3.11-13.47.17.14.32.29.47.47,1.17,1.42,2.27,3.86,2.27,8.04Z"/>
          </g>
          <ellipse class="cls-2" cx="44.97" cy="64.49" rx="1.77" ry="3.19"/>
        </g>
        <g>
          <path class="cls-9" d="M61.08,68.08v4.61s-.17,2.9-2.23,5.62c-1.36,1.8-4.11,1.8-5.47,0-2.06-2.72-2.23-5.62-2.23-5.62v-4.61c0-4.18,1.1-6.63,2.27-8.04,1.25-1.52,3.47-1.68,4.92-.47.17.14.32.29.47.47,1.17,1.42,2.27,3.86,2.27,8.04Z"/>
          <g class="cls-11">
            <path class="cls-8" d="M61.08,68.08v4.61s-.17,2.9-2.23,5.62c-1.36,1.8-4.11,1.8-5.47,0-2.06-2.72-2.23-5.62-2.23-5.62v-4.61s.35,6.2,4.08,4.96c2.94-.98,3.34-9.39,3.11-13.47.17.14.32.29.47.47,1.17,1.42,2.27,3.86,2.27,8.04Z"/>
          </g>
          <ellipse class="cls-2" cx="54.69" cy="64.49" rx="1.77" ry="3.19"/>
        </g>
        <g>
          <path class="cls-9" d="M70.96,68.08v4.61s-.17,2.9-2.23,5.62c-1.36,1.8-4.11,1.8-5.47,0-2.06-2.72-2.23-5.62-2.23-5.62v-4.61c0-4.18,1.1-6.63,2.27-8.04,1.25-1.52,3.47-1.68,4.92-.47.17.14.32.29.47.47,1.17,1.42,2.27,3.86,2.27,8.04Z"/>
          <g class="cls-11">
            <path class="cls-8" d="M70.96,68.08v4.61s-.17,2.9-2.23,5.62c-1.36,1.8-4.11,1.8-5.47,0-2.06-2.72-2.23-5.62-2.23-5.62v-4.61s.35,6.2,4.08,4.96c2.94-.98,3.34-9.39,3.11-13.47.17.14.32.29.47.47,1.17,1.42,2.27,3.86,2.27,8.04Z"/>
          </g>
          <ellipse class="cls-2" cx="64.58" cy="64.49" rx="1.77" ry="3.19"/>
        </g>
        <g>
          <path class="cls-9" d="M80.69,68.08v4.61s-.17,2.9-2.23,5.62c-1.36,1.8-4.11,1.8-5.47,0-2.06-2.72-2.23-5.62-2.23-5.62v-4.61c0-4.18,1.1-6.63,2.27-8.04,1.25-1.52,3.47-1.68,4.92-.47.17.14.32.29.47.47,1.17,1.42,2.27,3.86,2.27,8.04Z"/>
          <g class="cls-11">
            <path class="cls-8" d="M80.69,68.08v4.61s-.17,2.9-2.23,5.62c-1.36,1.8-4.11,1.8-5.47,0-2.06-2.72-2.23-5.62-2.23-5.62v-4.61s.35,6.2,4.08,4.96c2.94-.98,3.34-9.39,3.11-13.47.17.14.32.29.47.47,1.17,1.42,2.27,3.86,2.27,8.04Z"/>
          </g>
          <ellipse class="cls-2" cx="74.31" cy="64.49" rx="1.77" ry="3.19"/>
        </g>
        <g>
          <path class="cls-9" d="M129.56,68.08v4.61s-.17,2.9-2.23,5.62c-1.36,1.8-4.11,1.8-5.47,0-2.06-2.72-2.23-5.62-2.23-5.62v-4.61c0-4.18,1.1-6.63,2.27-8.04,1.25-1.52,3.47-1.68,4.92-.47.17.14.32.29.47.47,1.17,1.42,2.27,3.86,2.27,8.04Z"/>
          <g class="cls-11">
            <path class="cls-8" d="M129.56,68.08v4.61s-.17,2.9-2.23,5.62c-1.36,1.8-4.11,1.8-5.47,0-2.06-2.72-2.23-5.62-2.23-5.62v-4.61s.35,6.2,4.08,4.96c2.94-.98,3.34-9.39,3.11-13.47.17.14.32.29.47.47,1.17,1.42,2.27,3.86,2.27,8.04Z"/>
          </g>
          <ellipse class="cls-2" cx="123.18" cy="64.49" rx="1.77" ry="3.19"/>
        </g>
        <g>
          <path class="cls-9" d="M139.29,68.08v4.61s-.17,2.9-2.23,5.62c-1.36,1.8-4.11,1.8-5.47,0-2.06-2.72-2.23-5.62-2.23-5.62v-4.61c0-4.18,1.1-6.63,2.27-8.04,1.25-1.52,3.47-1.68,4.92-.47.17.14.32.29.47.47,1.17,1.42,2.27,3.86,2.27,8.04Z"/>
          <g class="cls-11">
            <path class="cls-8" d="M139.29,68.08v4.61s-.17,2.9-2.23,5.62c-1.36,1.8-4.11,1.8-5.47,0-2.06-2.72-2.23-5.62-2.23-5.62v-4.61s.35,6.2,4.08,4.96c2.94-.98,3.34-9.39,3.11-13.47.17.14.32.29.47.47,1.17,1.42,2.27,3.86,2.27,8.04Z"/>
          </g>
          <ellipse class="cls-2" cx="132.91" cy="64.49" rx="1.77" ry="3.19"/>
        </g>
        <g>
          <path class="cls-9" d="M149.18,68.08v4.61s-.17,2.9-2.23,5.62c-1.36,1.8-4.11,1.8-5.47,0-2.06-2.72-2.23-5.62-2.23-5.62v-4.61c0-4.18,1.1-6.63,2.27-8.04,1.25-1.52,3.47-1.68,4.92-.47.17.14.32.29.47.47,1.17,1.42,2.27,3.86,2.27,8.04Z"/>
          <g class="cls-11">
            <path class="cls-8" d="M149.18,68.08v4.61s-.17,2.9-2.23,5.62c-1.36,1.8-4.11,1.8-5.47,0-2.06-2.72-2.23-5.62-2.23-5.62v-4.61s.35,6.2,4.08,4.96c2.94-.98,3.34-9.39,3.11-13.47.17.14.32.29.47.47,1.17,1.42,2.27,3.86,2.27,8.04Z"/>
          </g>
          <ellipse class="cls-2" cx="142.8" cy="64.49" rx="1.77" ry="3.19"/>
        </g>
        <g>
          <path class="cls-9" d="M158.91,68.08v4.61s-.17,2.9-2.23,5.62c-1.36,1.8-4.11,1.8-5.47,0-2.06-2.72-2.23-5.62-2.23-5.62v-4.61c0-4.18,1.1-6.63,2.27-8.04,1.25-1.52,3.47-1.68,4.92-.47.17.14.32.29.47.47,1.17,1.42,2.27,3.86,2.27,8.04Z"/>
          <g class="cls-11">
            <path class="cls-8" d="M158.91,68.08v4.61s-.17,2.9-2.23,5.62c-1.36,1.8-4.11,1.8-5.47,0-2.06-2.72-2.23-5.62-2.23-5.62v-4.61s.35,6.2,4.08,4.96c2.94-.98,3.34-9.39,3.11-13.47.17.14.32.29.47.47,1.17,1.42,2.27,3.86,2.27,8.04Z"/>
          </g>
          <ellipse class="cls-2" cx="152.53" cy="64.49" rx="1.77" ry="3.19"/>
        </g>
        <g>
          <path class="cls-5" d="M51.35,45.67v4.61s-.17,2.9-2.23,5.62c-1.36,1.8-4.11,1.8-5.47,0-2.06-2.72-2.23-5.62-2.23-5.62v-4.61c0-4.18,1.1-6.63,2.27-8.04,1.25-1.52,3.47-1.68,4.92-.47.17.14.32.29.47.47,1.17,1.42,2.27,3.86,2.27,8.04Z"/>
          <g class="cls-12">
            <path class="cls-3" d="M51.35,45.67v4.61s-.17,2.9-2.23,5.62c-1.36,1.8-4.11,1.8-5.47,0-2.06-2.72-2.23-5.62-2.23-5.62v-4.61s.35,6.2,4.08,4.96c2.94-.98,3.34-9.39,3.11-13.47.17.14.32.29.47.47,1.17,1.42,2.27,3.86,2.27,8.04Z"/>
          </g>
          <ellipse class="cls-4" cx="44.97" cy="42.09" rx="1.77" ry="3.19"/>
        </g>
        <g>
          <path class="cls-5" d="M61.08,45.67v4.61s-.17,2.9-2.23,5.62c-1.36,1.8-4.11,1.8-5.47,0-2.06-2.72-2.23-5.62-2.23-5.62v-4.61c0-4.18,1.1-6.63,2.27-8.04,1.25-1.52,3.47-1.68,4.92-.47.17.14.32.29.47.47,1.17,1.42,2.27,3.86,2.27,8.04Z"/>
          <g class="cls-12">
            <path class="cls-3" d="M61.08,45.67v4.61s-.17,2.9-2.23,5.62c-1.36,1.8-4.11,1.8-5.47,0-2.06-2.72-2.23-5.62-2.23-5.62v-4.61s.35,6.2,4.08,4.96c2.94-.98,3.34-9.39,3.11-13.47.17.14.32.29.47.47,1.17,1.42,2.27,3.86,2.27,8.04Z"/>
          </g>
          <ellipse class="cls-4" cx="54.69" cy="42.09" rx="1.77" ry="3.19"/>
        </g>
        <g>
          <path class="cls-5" d="M80.53,45.67v4.61s-.17,2.9-2.23,5.62c-1.36,1.8-4.11,1.8-5.47,0-2.06-2.72-2.23-5.62-2.23-5.62v-4.61c0-4.18,1.1-6.63,2.27-8.04,1.25-1.52,3.47-1.68,4.92-.47.17.14.32.29.47.47,1.17,1.42,2.27,3.86,2.27,8.04Z"/>
          <g class="cls-12">
            <path class="cls-3" d="M80.53,45.67v4.61s-.17,2.9-2.23,5.62c-1.36,1.8-4.11,1.8-5.47,0-2.06-2.72-2.23-5.62-2.23-5.62v-4.61s.35,6.2,4.08,4.96c2.94-.98,3.34-9.39,3.11-13.47.17.14.32.29.47.47,1.17,1.42,2.27,3.86,2.27,8.04Z"/>
          </g>
          <ellipse class="cls-4" cx="74.15" cy="42.09" rx="1.77" ry="3.19"/>
        </g>
        <g>
          <path class="cls-5" d="M119.21,45.67v4.61s-.17,2.9-2.23,5.62c-1.36,1.8-4.11,1.8-5.47,0-2.06-2.72-2.23-5.62-2.23-5.62v-4.61c0-4.18,1.1-6.63,2.27-8.04,1.25-1.52,3.47-1.68,4.92-.47.17.14.32.29.47.47,1.17,1.42,2.27,3.86,2.27,8.04Z"/>
          <g class="cls-12">
            <path class="cls-3" d="M119.21,45.67v4.61s-.17,2.9-2.23,5.62c-1.36,1.8-4.11,1.8-5.47,0-2.06-2.72-2.23-5.62-2.23-5.62v-4.61s.35,6.2,4.08,4.96c2.94-.98,3.34-9.39,3.11-13.47.17.14.32.29.47.47,1.17,1.42,2.27,3.86,2.27,8.04Z"/>
          </g>
          <ellipse class="cls-4" cx="112.83" cy="42.09" rx="1.77" ry="3.19"/>
        </g>
        <g>
          <path class="cls-5" d="M129.33,45.67v4.61s-.17,2.9-2.23,5.62c-1.36,1.8-4.11,1.8-5.47,0-2.06-2.72-2.23-5.62-2.23-5.62v-4.61c0-4.18,1.1-6.63,2.27-8.04,1.25-1.52,3.47-1.68,4.92-.47.17.14.32.29.47.47,1.17,1.42,2.27,3.86,2.27,8.04Z"/>
          <g class="cls-12">
            <path class="cls-3" d="M129.33,45.67v4.61s-.17,2.9-2.23,5.62c-1.36,1.8-4.11,1.8-5.47,0-2.06-2.72-2.23-5.62-2.23-5.62v-4.61s.35,6.2,4.08,4.96c2.94-.98,3.34-9.39,3.11-13.47.17.14.32.29.47.47,1.17,1.42,2.27,3.86,2.27,8.04Z"/>
          </g>
          <path class="cls-4" d="M124.72,42.09c0-1.76-.79-3.19-1.77-3.19s-1.77,1.43-1.77,3.19.79,3.19,1.77,3.19,1.77-1.43,1.77-3.19Z"/>
        </g>
        <g>
          <path class="cls-5" d="M139.06,45.67v4.61s-.17,2.9-2.23,5.62c-1.36,1.8-4.11,1.8-5.47,0-2.06-2.72-2.23-5.62-2.23-5.62v-4.61c0-4.18,1.1-6.63,2.27-8.04,1.25-1.52,3.47-1.68,4.92-.47.17.14.32.29.47.47,1.17,1.42,2.27,3.86,2.27,8.04Z"/>
          <g class="cls-12">
            <path class="cls-3" d="M139.06,45.67v4.61s-.17,2.9-2.23,5.62c-1.36,1.8-4.11,1.8-5.47,0-2.06-2.72-2.23-5.62-2.23-5.62v-4.61s.35,6.2,4.08,4.96c2.94-.98,3.34-9.39,3.11-13.47.17.14.32.29.47.47,1.17,1.42,2.27,3.86,2.27,8.04Z"/>
          </g>
          <ellipse class="cls-4" cx="132.67" cy="42.09" rx="1.77" ry="3.19"/>
        </g>
        <g>
          <path class="cls-5" d="M148.94,45.67v4.61s-.17,2.9-2.23,5.62c-1.36,1.8-4.11,1.8-5.47,0-2.06-2.72-2.23-5.62-2.23-5.62v-4.61c0-4.18,1.1-6.63,2.27-8.04,1.25-1.52,3.47-1.68,4.92-.47.17.14.32.29.47.47,1.17,1.42,2.27,3.86,2.27,8.04Z"/>
          <g class="cls-12">
            <path class="cls-3" d="M148.94,45.67v4.61s-.17,2.9-2.23,5.62c-1.36,1.8-4.11,1.8-5.47,0-2.06-2.72-2.23-5.62-2.23-5.62v-4.61s.35,6.2,4.08,4.96c2.94-.98,3.34-9.39,3.11-13.47.17.14.32.29.47.47,1.17,1.42,2.27,3.86,2.27,8.04Z"/>
          </g>
          <ellipse class="cls-4" cx="142.56" cy="42.09" rx="1.77" ry="3.19"/>
        </g>
        <g>
          <path class="cls-5" d="M158.67,45.67v4.61s-.17,2.9-2.23,5.62c-1.36,1.8-4.11,1.8-5.47,0-2.06-2.72-2.23-5.62-2.23-5.62v-4.61c0-4.18,1.1-6.63,2.27-8.04,1.25-1.52,3.47-1.68,4.92-.47.17.14.32.29.47.47,1.17,1.42,2.27,3.86,2.27,8.04Z"/>
          <g class="cls-12">
            <path class="cls-3" d="M158.67,45.67v4.61s-.17,2.9-2.23,5.62c-1.36,1.8-4.11,1.8-5.47,0-2.06-2.72-2.23-5.62-2.23-5.62v-4.61s.35,6.2,4.08,4.96c2.94-.98,3.34-9.39,3.11-13.47.17.14.32.29.47.47,1.17,1.42,2.27,3.86,2.27,8.04Z"/>
          </g>
          <ellipse class="cls-4" cx="152.29" cy="42.09" rx="1.77" ry="3.19"/>
        </g>
      </g>
    </g>
  </g>
</svg>